<?xml version="1.0" encoding="utf-8"?>
<!-- Generator: Adobe Illustrator 16.0.0, SVG Export Plug-In . SVG Version: 6.00 Build 0)  -->
<!DOCTYPE svg PUBLIC "-//W3C//DTD SVG 1.1//EN" "http://www.w3.org/Graphics/SVG/1.1/DTD/svg11.dtd">
<svg version="1.1" id="Capa_1" xmlns="http://www.w3.org/2000/svg" xmlns:xlink="http://www.w3.org/1999/xlink" x="0px" y="0px"
	 width="65px" height="60px" viewBox="0 0 65 60" enable-background="new 0 0 65 60" xml:space="preserve">
<path fill="#E40E20" d="M-33.203,101.625c0,0.744-0.44,1.5-0.983,1.5h-7.195c-0.542,0-0.982-0.756-0.982-1.5l0,0
	c0-0.743,0.44-1.5,0.982-1.5h7.195C-33.643,100.125-33.203,100.882-33.203,101.625L-33.203,101.625z"/>
<path fill="#E40E20" d="M-47.5,101.231c0,0.608-0.571,1.894-1.052,1.894h-7.122c-0.48,0-0.826-1.285-0.826-1.894v-0.157
	c0-0.609,0.346-0.949,0.826-0.949h7.122c0.481,0,1.052,0.34,1.052,0.949V101.231z"/>
<path fill="#464646" d="M130.4,48.125c-5.492,0-18.758,0-22.696,0c-3.292,0-1.763-16-1.763-16h26.428
	C132.369,32.125,134.888,48.125,130.4,48.125z"/>
<polyline fill="none" stroke="#464646" stroke-width="4" stroke-linecap="round" stroke-miterlimit="10" points="132.011,36.234 
	133.841,33.125 137.5,33.125 "/>
<polyline fill="none" stroke="#464646" stroke-width="4" stroke-linecap="round" stroke-miterlimit="10" points="105.53,36.234 
	104.363,33.125 99.5,33.125 "/>
<path fill="#464646" d="M119.195,17.632c0.576,1.215,0.057,2.668-1.158,3.244l-4.027,1.908c-1.217,0.575-2.668,0.057-3.244-1.159
	l-0.044-0.094c-0.576-1.215-0.058-2.668,1.158-3.244l4.027-1.908c1.216-0.575,2.667-0.057,3.244,1.159L119.195,17.632z"/>
<path fill="#FFFFFF" stroke="#FFFFFF" stroke-miterlimit="10" d="M117.938,18.591c0.397,0.825-5.205,3.521-5.603,2.696l-0.045-0.093
	c-0.397-0.825-0.05-1.816,0.774-2.213l2.615-1.258c0.825-0.397,1.816-0.05,2.213,0.775L117.938,18.591z"/>
<path fill="#464646" d="M128.811,18.072l-23.072,11.234c0,0-1.631-3.099-1-4.01c1.775-2.568,18.785-10.417,21.448-10.351
	C127.319,14.973,128.811,18.072,128.811,18.072z"/>
<path fill="#464646" d="M115.656,33.002c-0.221,0.442-1.886-0.162-3.828-1.13c-1.215-0.605-2.831-1.628-2.831-1.628l0.437-0.896
	c0,0,1.814,0.633,3.033,1.241C114.41,31.555,115.876,32.56,115.656,33.002z"/>
<ellipse fill="#464646" cx="117.834" cy="31.966" rx="2.771" ry="2.332"/>
<g>
	<path fill="#464646" d="M128.363,36.174c0,0-0.128-0.09-0.296-0.272c-0.17-0.181-0.384-0.452-0.585-0.802
		c-0.093-0.178-0.201-0.368-0.273-0.588c-0.075-0.218-0.096-0.473-0.136-0.729c-0.028-0.261-0.093-0.516-0.204-0.755
		c-0.101-0.244-0.269-0.461-0.432-0.682c-0.169-0.218-0.347-0.432-0.476-0.663c-0.13-0.23-0.258-0.458-0.382-0.677
		c-0.236-0.444-0.383-0.891-0.483-1.285c-0.2-0.789-0.176-1.384-0.176-1.384l0.092-0.04c0,0,0.454,0.385,0.9,1.065
		c0.222,0.341,0.452,0.751,0.619,1.226c0.077,0.24,0.158,0.487,0.239,0.739c0.084,0.251,0.121,0.526,0.167,0.798
		c0.053,0.269,0.099,0.541,0.21,0.78c0.102,0.243,0.245,0.463,0.418,0.661c0.162,0.203,0.337,0.391,0.445,0.594
		c0.113,0.202,0.18,0.41,0.248,0.599c0.121,0.385,0.178,0.726,0.195,0.974c0.021,0.247,0,0.401,0,0.401L128.363,36.174z"/>
</g>
<g>
	<path fill="#464646" d="M120.596,32.906c0,0,0.102-0.125,0.302-0.288c0.2-0.165,0.496-0.369,0.873-0.559
		c0.191-0.087,0.396-0.188,0.629-0.253c0.231-0.068,0.498-0.08,0.768-0.11c0.272-0.02,0.542-0.075,0.798-0.178
		c0.259-0.092,0.497-0.254,0.737-0.41c0.238-0.162,0.473-0.333,0.721-0.454c0.249-0.123,0.493-0.243,0.729-0.359
		c0.477-0.222,0.951-0.353,1.366-0.44c0.833-0.172,1.449-0.126,1.449-0.126l0.035,0.094c0,0-0.431,0.443-1.167,0.867
		c-0.369,0.21-0.812,0.427-1.315,0.578c-0.254,0.069-0.517,0.141-0.783,0.214c-0.267,0.075-0.556,0.102-0.841,0.139
		c-0.283,0.043-0.568,0.08-0.824,0.183c-0.259,0.093-0.497,0.229-0.715,0.396c-0.222,0.155-0.429,0.324-0.646,0.426
		c-0.217,0.106-0.438,0.166-0.639,0.228c-0.408,0.108-0.766,0.152-1.024,0.161c-0.257,0.011-0.417-0.015-0.417-0.015L120.596,32.906
		z"/>
</g>
<g>
	<path fill="#464646" d="M122.68,28.748c0,0,0.478,0.101,1.123,0.365c0.65,0.257,1.473,0.671,2.252,1.154
		c0.776,0.488,1.51,1.043,2.025,1.516c0.521,0.465,0.82,0.851,0.82,0.851s-0.478-0.1-1.124-0.363
		c-0.65-0.256-1.472-0.672-2.251-1.155c-0.775-0.489-1.509-1.045-2.025-1.517C122.979,29.133,122.68,28.748,122.68,28.748z"/>
</g>
<g>
	<path fill="#464646" d="M122.634,30.271c0,0,0.436,0.056,1.024,0.255c0.593,0.191,1.341,0.521,2.049,0.92
		c0.705,0.405,1.37,0.879,1.837,1.292c0.472,0.405,0.741,0.752,0.741,0.752s-0.437-0.055-1.025-0.253
		c-0.593-0.191-1.34-0.522-2.048-0.922c-0.704-0.406-1.369-0.881-1.837-1.292C122.904,30.618,122.634,30.271,122.634,30.271z"/>
</g>
<g>
	<path fill="#464646" d="M123.227,34.178c0,0,0.2-0.429,0.594-0.979c0.387-0.555,0.963-1.234,1.596-1.856
		c0.637-0.618,1.328-1.178,1.893-1.552c0.56-0.379,0.994-0.569,0.994-0.569s-0.2,0.43-0.593,0.98
		c-0.387,0.556-0.964,1.234-1.597,1.855c-0.637,0.617-1.33,1.177-1.894,1.551C123.66,33.988,123.227,34.178,123.227,34.178z"/>
</g>
<g>
	<path fill="#464646" d="M122.568,32.443c0,0,0.377-0.265,0.974-0.535c0.595-0.277,1.409-0.565,2.242-0.774
		c0.834-0.203,1.688-0.329,2.344-0.36c0.654-0.039,1.111,0.021,1.111,0.021s-0.377,0.267-0.974,0.536
		c-0.595,0.278-1.409,0.564-2.242,0.773c-0.834,0.203-1.688,0.328-2.344,0.359C123.025,32.502,122.568,32.443,122.568,32.443z"/>
</g>
<g>
	<path fill="#464646" d="M133.717,19.5c0,0-0.229,0.094-0.629,0.259c-0.392,0.162-0.966,0.381-1.53,0.732
		c-0.277,0.169-0.556,0.382-0.707,0.616c-0.145,0.244-0.168,0.404-0.098,0.646c0.07,0.172,0.141,0.348,0.213,0.526
		c0.069,0.13,0.146,0.274,0.259,0.438c0.224,0.329,0.471,0.57,0.843,1.129l0.138,0.251l0.079,0.16l0.16,0.338
		c0.109,0.252,0.211,0.532,0.287,0.833c0.149,0.59,0.147,1.379-0.231,2.018c-0.363,0.638-0.918,0.991-1.391,1.159
		c-0.29,0.12-0.422,0.13-0.631,0.198c-0.205,0.057-0.434,0.09-0.633,0.125c-0.792,0.109-1.447,0.034-1.885-0.065
		c-0.438-0.098-0.676-0.197-0.676-0.197s0.236-0.085,0.649-0.234c0.403-0.153,0.955-0.364,1.549-0.679
		c0.142-0.086,0.271-0.168,0.43-0.251c0.145-0.095,0.395-0.222,0.469-0.3c0.261-0.196,0.449-0.399,0.488-0.581
		c0.04-0.174,0.044-0.378-0.055-0.7c-0.046-0.158-0.108-0.328-0.195-0.514l-0.146-0.316l-0.076-0.167
		c-0.014-0.021-0.025-0.043-0.035-0.066c-0.143-0.256-0.531-0.751-0.751-1.265c-0.117-0.253-0.222-0.542-0.303-0.854
		c-0.053-0.164-0.046-0.243-0.063-0.37l-0.018-0.172l-0.004-0.043l-0.013-0.072l-0.002-0.031l-0.008-0.123
		c-0.057-0.663,0.278-1.396,0.729-1.727c0.438-0.354,0.872-0.509,1.259-0.613c0.782-0.185,1.408-0.17,1.846-0.152
		C133.469,19.477,133.717,19.5,133.717,19.5z"/>
</g>
<g>
	<path fill="#464646" d="M128.525,20.863c-0.208,0.215-0.326,0.463-0.354,0.655c-0.019,0.201,0.038,0.327,0.122,0.464l0.14,0.207
		c0.032,0.037,0.062,0.074,0.086,0.111l0.02,0.027c-0.016-0.041,0.012,0.012,0.017,0.013l0.058,0.082
		c0.149,0.219,0.294,0.44,0.425,0.668l0.394,0.684l0.092,0.174c-0.045-0.095,0.021,0.033,0.015,0.016
		c0-0.01-0.017-0.035-0.012-0.028l0.212,0.273c0.186,0.245,0.405,0.599,0.497,1c0.102,0.397,0.08,0.81-0.018,1.148l-0.062,0.233
		c-0.175,0.222-0.385,0.42-0.602,0.619c-0.122,0.092-0.233,0.19-0.367,0.276c-0.133,0.083-0.271,0.181-0.448,0.219
		c0.012-0.077-0.012-0.156-0.022-0.236l-0.023-0.228c-0.018-0.153-0.016-0.294-0.025-0.443c0.007-0.283,0.013-0.569,0.051-0.833
		l-0.062,0.232c-0.106-0.377-0.198-0.434-0.463-0.746c-0.069-0.083-0.158-0.172-0.281-0.336c-0.033-0.046-0.085-0.126-0.122-0.19
		l-0.079-0.156l-0.084-0.176c-0.103-0.239-0.214-0.474-0.29-0.727c-0.085-0.248-0.157-0.502-0.224-0.759l-0.024-0.097
		c-0.009-0.028,0.004-0.004-0.022-0.076l-0.014-0.065c-0.019-0.086-0.033-0.173-0.045-0.259c-0.017-0.184-0.028-0.367,0.006-0.563
		c0.045-0.385,0.251-0.795,0.568-1C127.883,20.829,128.232,20.79,128.525,20.863z"/>
</g>
<path fill="#464646" stroke="#464646" stroke-linecap="round" stroke-miterlimit="10" d="M133.636,25.737
	c0.322,0.578,0.369,1.237,0.06,1.86c-0.36,0.725-1.125,1.244-2.038,1.478c1.138,0.018,2.188-0.457,2.586-1.256
	C134.603,27.094,134.332,26.298,133.636,25.737z"/>
<ellipse transform="matrix(0.9302 0.3672 -0.3672 0.9302 19.4109 -41.4226)" fill="#878787" cx="118.583" cy="30.309" rx="0.748" ry="0.317"/>
<line fill="none" stroke="#848484" stroke-linecap="round" stroke-miterlimit="10" x1="111.73" y1="30.966" x2="112.679" y2="31.342"/>
<polyline stroke="#000000" stroke-width="4" stroke-linecap="round" stroke-miterlimit="10" points="-31.989,32.234 -30.159,29.125 
	-26.5,29.125 "/>
<polyline stroke="#000000" stroke-width="4" stroke-linecap="round" stroke-miterlimit="10" points="-58.47,32.234 -59.637,29.125 
	-64.5,29.125 "/>
<path d="M-44.805,13.632c0.576,1.215,0.057,2.668-1.159,3.244l-4.027,1.908c-1.216,0.575-2.667,0.057-3.244-1.159l-0.044-0.094
	c-0.576-1.215-0.057-2.668,1.158-3.244l4.027-1.908c1.216-0.575,2.667-0.057,3.244,1.159L-44.805,13.632z"/>
<path fill="#FFFFFF" stroke="#FFFFFF" stroke-miterlimit="10" d="M-46.062,14.591c0.397,0.825-5.206,3.521-5.603,2.696l-0.045-0.093
	c-0.397-0.825-0.05-1.816,0.775-2.213l2.615-1.258c0.825-0.397,1.816-0.05,2.213,0.775L-46.062,14.591z"/>
<path fill="#518CB7" d="M-35.189,14.072l-23.072,11.234c0,0-1.63-3.099-1-4.01c1.775-2.568,18.785-10.417,21.448-10.351
	C-36.681,10.973-35.189,14.072-35.189,14.072z"/>
<path fill="#BE4415" d="M-48.344,29.002c-0.221,0.442-1.886-0.162-3.829-1.13c-1.215-0.605-2.831-1.628-2.831-1.628l0.436-0.896
	c0,0,1.814,0.633,3.034,1.241C-49.589,27.555-48.124,28.56-48.344,29.002z"/>
<ellipse fill="#E40E20" cx="-46.166" cy="27.966" rx="2.772" ry="2.332"/>
<g>
	<line fill="#464646" x1="-35.59" y1="32.153" x2="-39.033" y2="24.317"/>
	<path fill="#009136" d="M-35.636,32.173c0,0-0.128-0.09-0.296-0.271c-0.17-0.181-0.383-0.453-0.585-0.802
		c-0.093-0.178-0.201-0.368-0.273-0.587c-0.076-0.218-0.096-0.474-0.136-0.73c-0.029-0.261-0.093-0.516-0.204-0.755
		c-0.101-0.244-0.27-0.461-0.432-0.682c-0.169-0.218-0.347-0.432-0.476-0.663c-0.13-0.23-0.258-0.458-0.382-0.677
		c-0.236-0.444-0.383-0.891-0.484-1.285c-0.199-0.789-0.175-1.384-0.175-1.384l0.092-0.04c0,0,0.454,0.385,0.9,1.065
		c0.222,0.341,0.452,0.751,0.619,1.226c0.078,0.24,0.158,0.487,0.24,0.739c0.083,0.251,0.121,0.526,0.167,0.798
		c0.052,0.269,0.099,0.541,0.21,0.78c0.101,0.243,0.246,0.463,0.418,0.661c0.162,0.203,0.336,0.391,0.446,0.594
		c0.113,0.201,0.18,0.409,0.248,0.598c0.121,0.385,0.177,0.726,0.195,0.974c0.021,0.247,0,0.402,0,0.402L-35.636,32.173z"/>
</g>
<g>
	<line fill="#464646" x1="-43.386" y1="28.953" x2="-35.014" y2="25.776"/>
	<path fill="#009136" d="M-43.404,28.906c0,0,0.102-0.125,0.302-0.288c0.199-0.165,0.496-0.369,0.873-0.559
		c0.191-0.087,0.396-0.188,0.629-0.253c0.231-0.068,0.499-0.08,0.767-0.11c0.273-0.02,0.542-0.075,0.798-0.178
		c0.26-0.092,0.498-0.254,0.738-0.41c0.238-0.162,0.472-0.333,0.721-0.454c0.248-0.123,0.492-0.243,0.729-0.359
		c0.477-0.222,0.951-0.353,1.367-0.44c0.833-0.172,1.449-0.126,1.449-0.126l0.035,0.094c0,0-0.43,0.443-1.167,0.867
		c-0.369,0.21-0.811,0.427-1.315,0.578c-0.254,0.069-0.517,0.141-0.784,0.214c-0.266,0.075-0.555,0.102-0.84,0.139
		c-0.283,0.043-0.568,0.08-0.824,0.183c-0.26,0.093-0.498,0.229-0.715,0.396c-0.222,0.155-0.429,0.324-0.647,0.426
		c-0.217,0.106-0.438,0.166-0.638,0.228c-0.408,0.108-0.766,0.152-1.024,0.161C-43.209,29.026-43.369,29-43.369,29L-43.404,28.906z"
		/>
</g>
<g>
	<line fill="#464646" x1="-41.32" y1="24.748" x2="-35.099" y2="28.633"/>
	<path fill="#009136" d="M-41.32,24.748c0,0,0.478,0.101,1.124,0.365c0.65,0.257,1.472,0.671,2.252,1.154
		c0.776,0.488,1.51,1.043,2.026,1.516c0.52,0.465,0.82,0.851,0.82,0.851s-0.478-0.1-1.124-0.363
		c-0.651-0.256-1.472-0.672-2.251-1.155c-0.775-0.489-1.509-1.045-2.025-1.517C-41.02,25.133-41.32,24.748-41.32,24.748z"/>
</g>
<g>
	<line fill="#464646" x1="-41.366" y1="26.271" x2="-35.715" y2="29.491"/>
	<path fill="#009136" d="M-41.366,26.271c0,0,0.436,0.056,1.024,0.255c0.592,0.191,1.34,0.521,2.048,0.92
		c0.705,0.405,1.371,0.879,1.837,1.292c0.471,0.405,0.741,0.752,0.741,0.752s-0.437-0.055-1.025-0.253
		c-0.593-0.191-1.34-0.522-2.048-0.922c-0.705-0.406-1.37-0.881-1.836-1.292C-41.096,26.618-41.366,26.271-41.366,26.271z"/>
</g>
<g>
	<line fill="#464646" x1="-40.773" y1="30.178" x2="-35.697" y2="25.222"/>
	<path fill="#009136" d="M-40.773,30.178c0,0,0.201-0.429,0.593-0.979c0.388-0.555,0.964-1.234,1.596-1.857
		c0.637-0.617,1.329-1.178,1.894-1.552c0.559-0.379,0.994-0.569,0.994-0.569s-0.2,0.43-0.593,0.98
		c-0.387,0.556-0.964,1.234-1.596,1.856c-0.637,0.617-1.33,1.177-1.895,1.551C-40.339,29.988-40.773,30.178-40.773,30.178z"/>
</g>
<g>
	<line fill="#464646" x1="-41.431" y1="28.443" x2="-34.761" y2="26.794"/>
	<path fill="#009136" d="M-41.431,28.443c0,0,0.377-0.265,0.974-0.535c0.595-0.277,1.409-0.565,2.242-0.774
		c0.834-0.203,1.688-0.329,2.344-0.36c0.654-0.039,1.111,0.021,1.111,0.021s-0.376,0.267-0.973,0.536
		c-0.595,0.278-1.409,0.564-2.242,0.773c-0.834,0.203-1.688,0.328-2.344,0.359C-40.974,28.502-41.431,28.443-41.431,28.443z"/>
</g>
<g>
	<path fill="#B19975" d="M-30.283,15.5c0,0-0.229,0.094-0.629,0.259c-0.391,0.162-0.965,0.381-1.529,0.732
		c-0.278,0.169-0.556,0.382-0.707,0.616c-0.145,0.244-0.168,0.405-0.098,0.646c0.07,0.173,0.14,0.348,0.212,0.526
		c0.069,0.13,0.147,0.274,0.26,0.438c0.223,0.329,0.471,0.57,0.843,1.129l0.138,0.251l0.078,0.159l0.16,0.338
		c0.11,0.252,0.211,0.533,0.288,0.833c0.149,0.59,0.146,1.379-0.232,2.018c-0.363,0.638-0.918,0.991-1.391,1.159
		c-0.29,0.12-0.421,0.13-0.63,0.198c-0.206,0.058-0.434,0.09-0.634,0.126c-0.792,0.109-1.447,0.033-1.884-0.065
		c-0.438-0.098-0.676-0.197-0.676-0.197s0.236-0.085,0.649-0.234c0.403-0.153,0.956-0.364,1.549-0.679
		c0.141-0.086,0.271-0.168,0.429-0.251c0.145-0.095,0.395-0.222,0.469-0.299c0.261-0.196,0.449-0.399,0.488-0.581
		c0.04-0.174,0.043-0.378-0.055-0.7c-0.045-0.158-0.109-0.329-0.196-0.514l-0.146-0.316l-0.077-0.167
		c-0.014-0.021-0.025-0.043-0.035-0.066c-0.142-0.255-0.531-0.75-0.75-1.264c-0.117-0.253-0.222-0.542-0.303-0.854
		c-0.052-0.164-0.046-0.243-0.062-0.37l-0.018-0.172l-0.004-0.043l-0.012-0.072l-0.002-0.031l-0.008-0.123
		c-0.057-0.663,0.278-1.395,0.729-1.727c0.438-0.354,0.873-0.509,1.26-0.613c0.782-0.186,1.408-0.17,1.845-0.153
		C-30.531,15.477-30.283,15.5-30.283,15.5z"/>
</g>
<g>
	<path fill="#B19975" d="M-35.474,16.863c-0.208,0.215-0.326,0.463-0.354,0.655c-0.018,0.201,0.038,0.327,0.122,0.463l0.141,0.208
		c0.031,0.037,0.061,0.074,0.085,0.111l0.019,0.027c-0.015-0.041,0.013,0.012,0.017,0.014l0.058,0.082
		c0.15,0.219,0.294,0.44,0.425,0.668l0.394,0.684l0.092,0.174c-0.045-0.096,0.021,0.033,0.015,0.015c0-0.01-0.017-0.035-0.012-0.028
		l0.211,0.274c0.185,0.245,0.405,0.599,0.497,0.999c0.102,0.397,0.081,0.809-0.017,1.148l-0.062,0.234
		c-0.175,0.222-0.386,0.42-0.602,0.619c-0.122,0.092-0.233,0.19-0.367,0.276c-0.133,0.083-0.271,0.181-0.449,0.219
		c0.012-0.077-0.011-0.156-0.022-0.236l-0.024-0.228c-0.017-0.153-0.015-0.294-0.025-0.443c0.007-0.283,0.013-0.569,0.051-0.833
		l-0.062,0.233c-0.107-0.377-0.199-0.434-0.464-0.746c-0.069-0.083-0.158-0.173-0.281-0.337c-0.033-0.046-0.085-0.126-0.122-0.19
		l-0.08-0.156l-0.083-0.177c-0.103-0.24-0.214-0.474-0.29-0.728c-0.086-0.248-0.158-0.502-0.224-0.759l-0.023-0.097
		c-0.009-0.028,0.003-0.004-0.023-0.076l-0.014-0.065c-0.019-0.086-0.033-0.172-0.045-0.258c-0.016-0.184-0.028-0.367,0.006-0.563
		c0.045-0.385,0.251-0.795,0.568-1C-36.117,16.829-35.767,16.79-35.474,16.863z"/>
</g>
<path fill="none" stroke="#B19975" stroke-linecap="round" stroke-miterlimit="10" d="M-30.365,21.737
	c0.323,0.578,0.37,1.237,0.06,1.86c-0.36,0.725-1.125,1.244-2.038,1.478c1.138,0.018,2.188-0.457,2.586-1.256
	C-29.397,23.094-29.668,22.298-30.365,21.737z"/>
<ellipse transform="matrix(0.9302 0.3671 -0.3671 0.9302 6.4868 18.5072)" fill="#878787" cx="-45.418" cy="26.309" rx="0.748" ry="0.317"/>
<line fill="none" stroke="#848484" stroke-linecap="round" stroke-miterlimit="10" x1="-52.27" y1="26.966" x2="-51.321" y2="27.342"/>
<path fill="#940731" d="M-33.599,44.125c-5.493,0-18.759,0-22.697,0c-3.292,0-1.762-16-1.762-16h26.427
	C-31.631,28.125-29.112,44.125-33.599,44.125z"/>
<polygon fill="#464646" points="50.125,-42.875 12.125,-42.875 15.665,-48.875 46.63,-48.875 "/>
<polygon fill="#464646" points="45.054,-51.875 16.927,-51.875 20.587,-57.875 41.463,-57.875 "/>
<polygon fill="#464646" points="39.601,-60.875 22.344,-60.875 25.857,-66.875 36.294,-66.875 "/>
<polygon fill="#464646" points="34.654,-69.875 27.527,-69.875 31.125,-76.362 31.125,-76.362 "/>
<polygon fill="#E5AB4A" points="53.125,44.125 15.125,44.125 18.665,38.125 49.63,38.125 "/>
<polygon fill="#C2CC5E" points="48.054,35.125 19.927,35.125 23.587,29.125 44.463,29.125 "/>
<polygon fill="#4EB2E5" points="42.601,26.125 25.344,26.125 28.857,20.125 39.295,20.125 "/>
<polygon fill="#D3411C" points="37.654,17.125 30.527,17.125 34.125,10.638 34.125,10.638 "/>
<path fill="#464646" d="M45.5,105.125h-26v-3.566c0,0-0.584-1.434,0.916-1.434c5.288,0,19.3,0,23.786,0
	c1.401,0,1.299,1.628,1.299,1.628V105.125z"/>
<path fill="#464646" d="M43.573,100.625c0,0.729-0.432,1.5-0.964,1.5h-7.065c-0.533,0-0.964-0.771-0.964-1.5l0,0
	c0-0.729,0.432-1.5,0.964-1.5h7.065C43.142,99.125,43.573,99.896,43.573,100.625L43.573,100.625z"/>
<path fill="#464646" d="M29.5,100.476c0,0.598-0.524,1.649-0.996,1.649h-6.993c-0.472,0-0.011-1.052-0.011-1.649v-0.154
	c0-0.599-0.46-1.196,0.011-1.196h6.993c0.472,0,0.996,0.598,0.996,1.196V100.476z"/>
<circle fill="#FFFFFF" cx="31.679" cy="102.719" r="1.015"/>
<circle fill="#FFFFFF" cx="36.198" cy="102.719" r="1.015"/>
<circle fill="#FFFFFF" cx="27.859" cy="102.719" r="1.015"/>
<circle fill="#FFFFFF" cx="40.404" cy="102.719" r="1.015"/>
<circle fill="#FFFFFF" cx="23.87" cy="102.719" r="1.015"/>
<path fill="#464646" d="M45.5,124.548c0,3.192,0.205,3.577-2.39,3.577H22.905c-3.845,0-3.845-0.268-3.876-3.553l-0.113-18.447H45.5
	V124.548z"/>
<path fill="#FFFFFF" d="M42.5,108.625c0,0.276-0.224,0.5-0.5,0.5H23c-0.276,0-0.5-0.224-0.5-0.5l0,0c0-0.276,0.224-0.5,0.5-0.5h19
	C42.276,108.125,42.5,108.349,42.5,108.625L42.5,108.625z"/>
<rect x="23.5" y="112.125" fill="none" stroke="#FFFFFF" stroke-width="2" stroke-linecap="round" stroke-linejoin="round" stroke-miterlimit="10" width="18" height="12"/>
<line fill="none" stroke="#FFFFFF" stroke-width="2" stroke-miterlimit="10" x1="31.485" y1="111.421" x2="22.978" y2="120.124"/>
<polygon fill="#FFFFFF" points="23.5,116.643 23.5,112.125 27.618,112.125 "/>
<path fill="#004B70" d="M-31.5,107.125h-26v-4.79c0,0-0.817-1.21,0.71-1.21c5.385,0,19.659,0,24.226,0
	c1.428,0,1.064,1.406,1.064,1.406V107.125z"/>
<circle fill="#FFFFFF" cx="-45.317" cy="103.518" r="1.034"/>
<circle fill="#FFFFFF" cx="-40.715" cy="103.518" r="1.034"/>
<circle fill="#FFFFFF" cx="-49.209" cy="103.518" r="1.034"/>
<circle fill="#FFFFFF" cx="-36.431" cy="103.518" r="1.034"/>
<circle fill="#FFFFFF" cx="-53.271" cy="103.518" r="1.034"/>
<path fill="#3065AF" d="M-31.5,125.751c0,3.25,0.468,3.374-2.173,3.374h-20.581c-3.917,0-3.917,0.43-3.948-2.912l-0.115-18.088
	H-31.5V125.751z"/>
<path fill="#FFFFFF" d="M-34.5,110.625c0,0.276-0.224,0.5-0.5,0.5h-19c-0.276,0-0.5-0.224-0.5-0.5l0,0c0-0.276,0.224-0.5,0.5-0.5h19
	C-34.724,110.125-34.5,110.349-34.5,110.625L-34.5,110.625z"/>
<rect x="-54.5" y="113.125" fill="none" stroke="#FFFFFF" stroke-width="2" stroke-linecap="round" stroke-linejoin="round" stroke-miterlimit="10" width="18" height="12"/>
<line fill="none" stroke="#FFFFFF" stroke-width="2" stroke-miterlimit="10" x1="-45.515" y1="112.381" x2="-54.181" y2="121.245"/>
<polygon fill="#FFFFFF" points="-54.5,117.698 -54.5,113.125 -49.454,113.125 "/>
<g>
	<g>
		<g>
			<g>
				<path fill="#8E6D8D" d="M-33.976,194.104h-30.443c0,2.144,4.225,3.963,10.116,4.644v0.696h10.211v-0.696
					C-38.201,198.067-33.976,196.248-33.976,194.104z"/>
			</g>
		</g>
	</g>
	<g>
		<path fill="#F6E94B" d="M-58.614,192.971c-0.026-1.43-0.045-2.559-2.344-2.721c-0.958-0.065-1.95,0.329-2.413,0.965
			c-0.307,0.423-0.351,0.894-0.133,1.409l-0.611,0.25c-0.305-0.715-0.233-1.437,0.205-2.036c0.601-0.823,1.808-1.32,2.999-1.234
			c2.903,0.202,2.935,1.948,2.962,3.356L-58.614,192.971z"/>
	</g>
	<g>
		<path fill="#F6E94B" d="M-63.422,193.097c-0.312-0.713-0.174-1.425,0.379-1.944c0.684-0.646,1.818-0.842,2.64-0.458
			c0.429,0.204,1.131,0.737,1.015,2.054l-0.661-0.054c0.061-0.698-0.16-1.188-0.64-1.41c-0.564-0.267-1.416-0.114-1.895,0.338
			c-0.245,0.23-0.485,0.633-0.229,1.218L-63.422,193.097z"/>
	</g>
	<g>
		<path fill="#E52A20" d="M-62.445,193.287c-0.202-0.829,0.187-1.209,0.362-1.333c0.33-0.239,0.783-0.246,1.155-0.025
			c0.431,0.259,0.635,0.756,0.543,1.331l-0.656-0.102c0.049-0.312-0.035-0.555-0.233-0.672c-0.14-0.086-0.308-0.086-0.418-0.008
			c-0.145,0.102-0.185,0.344-0.108,0.657L-62.445,193.287z"/>
	</g>
	<g>
		<path fill="#F6E94B" d="M-46.701,193.312l-0.662-0.045c0.02-0.278,0.066-0.545,0.109-0.805c0.097-0.568,0.188-1.111-0.024-1.686
			c-0.516-1.397-1.761-2.53-3.247-2.952c-1.758-0.505-3.628-0.184-5.002,0.855c-1.303,0.985-1.995,2.446-1.953,4.114l-0.663,0.017
			c-0.049-1.853,0.757-3.546,2.21-4.646c1.542-1.167,3.634-1.528,5.594-0.968c1.685,0.481,3.096,1.769,3.687,3.357
			c0.271,0.732,0.16,1.385,0.053,2.017C-46.644,192.824-46.684,193.064-46.701,193.312z"/>
	</g>
	<g>
		<path fill="#E52A20" d="M-48.344,193.166l-0.525-0.399c0.242-0.31-0.165-1.452-0.654-2.137c-0.708-0.989-1.371-1.614-2.491-1.653
			c-1.114-0.043-2.678,0.16-3.415,0.868c-0.596,0.567-1.233,2.258-0.789,2.845l-0.533,0.389c-0.729-0.967,0.133-3.005,0.859-3.699
			c0.885-0.848,2.601-1.099,3.902-1.053c1.544,0.057,2.362,1.028,3.009,1.931C-48.686,190.665-47.716,192.368-48.344,193.166z"/>
	</g>
	<g>
		<path fill="#F6E94B" d="M-51.178,193.292c0-1.511-0.086-2.433-1.29-2.606c-0.693-0.106-1.443,0.18-1.859,0.704
			c-0.341,0.43-0.408,0.945-0.191,1.45l-0.613,0.252c-0.309-0.721-0.205-1.485,0.28-2.1c0.568-0.718,1.542-1.095,2.482-0.951
			c1.855,0.271,1.855,1.913,1.855,3.236L-51.178,193.292z"/>
	</g>
	<g>
		<path fill="#E52A20" d="M-51.598,193.105l-0.651-0.116c0.04-0.219,0.006-0.654-0.161-0.878c-0.058-0.075-0.125-0.115-0.213-0.125
			c-0.141-0.016-0.25,0.022-0.341,0.116c-0.165,0.163-0.252,0.509-0.207,0.816l-0.658,0.093c-0.056-0.391,0.011-0.984,0.388-1.365
			c0.234-0.238,0.541-0.346,0.889-0.308c0.271,0.029,0.505,0.162,0.673,0.385C-51.561,192.141-51.536,192.778-51.598,193.105z"/>
	</g>
	<g>
		<path fill="#F6E94B" d="M-38.769,193.26l-0.607-0.262c0.917-2.054,0.549-4.002-0.98-5.216c-1.206-0.953-3.155-1.34-4.974-0.991
			c-0.906,0.172-2.5,0.883-2.448,1.676l-0.663,0.043c-0.084-1.334,1.975-2.164,2.983-2.359c1.592-0.31,3.878-0.175,5.516,1.124
			C-38.163,188.684-37.725,190.922-38.769,193.26z"/>
	</g>
	<g>
		<path fill="#E52A20" d="M-40.707,193.152l-0.545-0.371c0.37-0.524,0.489-1.27,0.325-2.038c-0.179-0.846-0.673-1.606-1.289-1.977
			c-0.894-0.543-2.66-0.795-3.768-0.286c-0.561,0.261-0.889,0.688-0.967,1.271l-0.659-0.086c0.11-0.803,0.576-1.419,1.344-1.773
			c1.317-0.609,3.337-0.326,4.399,0.318c0.776,0.474,1.372,1.369,1.589,2.4C-40.076,191.552-40.234,192.48-40.707,193.152z"/>
	</g>
	<g>
		<path fill="#F6E94B" d="M-43.077,193.451l-0.114-0.646c0.235-0.039,0.406-0.171,0.523-0.405c0.269-0.534,0.169-1.491-0.097-1.99
			c-0.453-0.85-1.14-1.177-2.041-0.971c-0.576,0.125-1.46,0.667-1.48,1.175l-0.662-0.021c0.037-0.957,1.317-1.642,1.993-1.79
			c1.201-0.271,2.186,0.192,2.777,1.304c0.347,0.65,0.487,1.824,0.105,2.582C-42.283,193.11-42.631,193.373-43.077,193.451z"/>
	</g>
	<g>
		<path fill="#F6E94B" d="M-44.749,193.119l-0.585-0.308c0.003-0.006,0.007-0.014,0.01-0.02c-0.075-0.011-0.206-0.004-0.299,0.049
			l-0.33-0.564c0.327-0.183,0.851-0.209,1.137,0.06C-44.741,192.409-44.511,192.682-44.749,193.119z"/>
	</g>
	<g>
		<path fill="#E52A20" d="M-44.195,192.58c-0.043-0.122-0.022-0.245,0.013-0.478c0.049-0.315,0.137-0.899-0.073-1.102
			c-0.222-0.215-0.577-0.053-1.095,0.219c-0.204,0.104-0.397,0.204-0.585,0.268l-0.202-0.624c0.13-0.039,0.297-0.127,0.475-0.219
			c0.543-0.282,1.286-0.67,1.872-0.111c0.453,0.438,0.335,1.206,0.265,1.661c-0.014,0.088-0.031,0.199-0.03,0.232
			c0,0-0.001-0.021-0.01-0.053L-44.195,192.58z"/>
	</g>
	<g>
		<path fill="#E52A20" d="M-35.148,193.312l-0.55-0.366c0.277-0.403,0.304-0.787,0.08-1.148c-0.333-0.536-1.092-0.835-1.589-0.778
			c-0.376,0.046-0.448,0.265-0.469,0.336l-0.633-0.198c0.143-0.438,0.516-0.719,1.023-0.782c0.817-0.094,1.797,0.382,2.234,1.085
			C-34.691,192.04-34.726,192.7-35.148,193.312z"/>
	</g>
	<g>
		<path fill="#F6E94B" d="M-34.766,193.676l-0.487-0.441c0.655-0.702,0.586-1.917,0.411-2.812c-0.134-0.689-1.341-1.547-2.189-1.558
			c-0.411-0.01-0.634,0.181-0.72,0.584l-0.65-0.131c0.151-0.7,0.645-1.104,1.36-1.104c0.004,0,0.012,0,0.017,0
			c1.161,0.01,2.644,1.104,2.836,2.087C-33.987,191.344-33.923,192.776-34.766,193.676z"/>
	</g>
	<g>
		<path fill="#F6E94B" d="M-36.337,192.806l-0.661-0.008c0.004-0.286-0.287-0.529-0.561-0.573c-0.283-0.049-0.348,0.135-0.37,0.193
			l-0.628-0.207c0.162-0.469,0.599-0.716,1.111-0.627C-36.894,191.676-36.327,192.159-36.337,192.806z"/>
	</g>
	<g>
		<path fill="#F6E94B" d="M-59.511,190.029c-0.35-0.626-0.1-1.353,0.609-1.769c0.643-0.375,1.547-0.368,2.033,0.376l-0.557,0.354
			c-0.312-0.476-0.861-0.331-1.136-0.171c-0.244,0.142-0.594,0.491-0.368,0.895L-59.511,190.029z"/>
	</g>
	<g>
		<path fill="#E52A20" d="M-61.046,188.982c-0.038-1.544,0.687-2.343,2.217-2.447c0.747-0.05,1.815,0.193,2.4,0.752
			c0.309,0.298,0.46,0.661,0.442,1.056l-0.663-0.033c0.01-0.209-0.069-0.391-0.244-0.557c-0.422-0.408-1.299-0.608-1.889-0.567
			c-1.181,0.081-1.63,0.581-1.598,1.783L-61.046,188.982z"/>
	</g>
	<g>
		<path fill="#F6E94B" d="M-62.138,189.663c-0.555-0.722-0.66-1.562-0.305-2.43c0.5-1.222,1.919-2.34,3.234-2.549
			c0.921-0.146,1.759,0.034,2.422,0.521c0.704,0.514,1.164,1.353,1.294,2.348l-0.658,0.083c-0.107-0.823-0.474-1.501-1.033-1.909
			c-0.517-0.378-1.181-0.514-1.921-0.398c-1.088,0.171-2.31,1.138-2.724,2.145c-0.267,0.658-0.194,1.261,0.219,1.794
			L-62.138,189.663z"/>
	</g>
	<g>
		<path fill="#E52A20" d="M-50.81,187.417c-0.163-0.31-0.17-0.649-0.021-0.98c0.255-0.567,0.896-0.967,1.384-1.097
			c1.071-0.28,1.974,0.072,2.609,1.014l-0.554,0.361c-0.475-0.711-1.091-0.955-1.883-0.745c-0.346,0.092-0.796,0.392-0.949,0.729
			c-0.068,0.15-0.066,0.286,0.004,0.419L-50.81,187.417z"/>
	</g>
	<g>
		<path fill="#F6E94B" d="M-52.338,187.034c-0.077-1.985,1.504-2.853,2.88-2.996c1.627-0.167,3.523,0.603,3.832,2.36l-0.655,0.112
			c-0.239-1.366-1.781-1.959-3.107-1.823c-1.145,0.117-2.347,0.788-2.287,2.323L-52.338,187.034z"/>
	</g>
	<g>
		<path fill="#F6E94B" d="M-49.929,187.48c-0.08-0.487,0.155-0.897,0.628-1.092c0.588-0.238,1.536-0.121,1.957,0.44l-0.535,0.387
			c-0.196-0.261-0.795-0.376-1.167-0.223c-0.241,0.098-0.251,0.25-0.229,0.385L-49.929,187.48z"/>
	</g>
	<path fill="#574255" d="M-51.629,183.435l-0.304-0.146c-0.091-0.064-0.186-0.133-0.275-0.207l-0.116-0.13
		c-0.037-0.045-0.083-0.083-0.107-0.137c-0.051-0.104-0.131-0.2-0.156-0.316c-0.035-0.112-0.083-0.226-0.088-0.344
		c-0.011-0.117-0.031-0.235-0.015-0.352c0.011-0.116,0.004-0.236,0.03-0.35l0.066-0.343l0.015-0.081l0.099-0.021
		c0.415-0.092,0.842-0.226,1.132-0.458c0.139-0.118,0.219-0.255,0.208-0.414c-0.009-0.162-0.088-0.342-0.191-0.514
		c-0.211-0.345-0.511-0.662-0.809-0.979l-0.453-0.487c-0.147-0.172-0.302-0.334-0.424-0.581c-0.016-0.029-0.029-0.067-0.04-0.105
		c-0.008-0.027-0.01-0.021-0.019-0.075l-0.005-0.04l-0.018-0.164c-0.017-0.103-0.01-0.231,0-0.36
		c0.003-0.132,0.034-0.248,0.063-0.363c0.023-0.118,0.067-0.227,0.109-0.336c0.083-0.219,0.197-0.418,0.314-0.611
		c0.113-0.193,0.237-0.375,0.352-0.561c0.117-0.185,0.223-0.37,0.312-0.561c0.088-0.192,0.148-0.39,0.173-0.597
		c0.011-0.204-0.015-0.417-0.102-0.612c-0.078-0.201-0.206-0.377-0.334-0.558c0.153,0.157,0.316,0.312,0.421,0.516
		c0.116,0.195,0.174,0.426,0.19,0.66c0,0.115-0.013,0.232-0.029,0.348c-0.031,0.111-0.054,0.229-0.097,0.333
		c-0.08,0.215-0.18,0.418-0.285,0.613c-0.209,0.393-0.424,0.771-0.561,1.162c-0.034,0.097-0.07,0.194-0.083,0.294
		c-0.022,0.098-0.043,0.196-0.041,0.285c-0.005,0.091-0.014,0.183,0.011,0.298l0.021,0.164l0.005,0.041
		c-0.003-0.028,0.005,0.005,0.005,0.004c0.006,0.014,0.008,0.027,0.02,0.047c0.073,0.148,0.221,0.316,0.362,0.472l0.451,0.476
		c0.301,0.325,0.609,0.655,0.853,1.064c0.119,0.204,0.225,0.44,0.231,0.722c0.013,0.287-0.169,0.566-0.372,0.714
		c-0.205,0.155-0.43,0.244-0.652,0.31s-0.445,0.104-0.667,0.141l0.113-0.104l-0.083,0.312c-0.034,0.104-0.033,0.21-0.051,0.315
		c-0.023,0.107-0.009,0.211-0.01,0.315c-0.009,0.108,0.022,0.209,0.039,0.314c0.01,0.106,0.073,0.196,0.108,0.296
		c0.015,0.053,0.052,0.092,0.083,0.138l0.093,0.134c0.074,0.077,0.154,0.148,0.231,0.229L-51.629,183.435z"/>
	<path fill="#574255" d="M-49.304,169.454c0,0-0.031,0.04-0.093,0.117c-0.062,0.075-0.152,0.19-0.228,0.35
		c-0.048,0.075-0.084,0.165-0.111,0.27c-0.017,0.05-0.033,0.103-0.051,0.157c-0.006,0.057-0.014,0.114-0.023,0.176
		c-0.041,0.241-0.011,0.521,0.025,0.816c0.055,0.298,0.138,0.616,0.264,0.944c0.117,0.331,0.278,0.667,0.434,1.019
		c0.344,0.699,0.71,1.445,1.077,2.19c0.345,0.763,0.694,1.542,0.825,2.348c0.074,0.398,0.087,0.809-0.008,1.185
		c-0.086,0.372-0.263,0.71-0.5,0.941c-0.222,0.248-0.486,0.4-0.719,0.513c-0.229,0.123-0.452,0.171-0.622,0.239
		c-0.358,0.084-0.563,0.124-0.563,0.124s0.194-0.075,0.534-0.205c0.159-0.087,0.37-0.156,0.571-0.303
		c0.208-0.133,0.431-0.301,0.614-0.53c0.197-0.22,0.322-0.517,0.373-0.841c0.059-0.326,0.019-0.685-0.057-1.051
		c-0.07-0.367-0.207-0.736-0.35-1.11c-0.142-0.375-0.318-0.748-0.494-1.123c-0.349-0.749-0.728-1.492-1.031-2.221
		c-0.304-0.727-0.526-1.445-0.591-2.088c-0.023-0.321-0.014-0.623,0.061-0.879c0.016-0.063,0.031-0.124,0.047-0.185
		c0.026-0.055,0.05-0.11,0.072-0.161c0.042-0.106,0.091-0.196,0.153-0.271c0.099-0.163,0.209-0.254,0.281-0.32
		C-49.342,169.489-49.304,169.454-49.304,169.454z"/>
	<path fill="#574255" d="M-44.457,174.619c0,0-0.091,0.094-0.243,0.261c-0.066,0.09-0.154,0.188-0.215,0.326
		c-0.074,0.13-0.119,0.293-0.144,0.467c-0.019,0.175-0.007,0.368,0.044,0.567c0.042,0.2,0.136,0.404,0.229,0.613
		c0.208,0.415,0.479,0.844,0.764,1.275c0.272,0.438,0.561,0.881,0.74,1.366c0.09,0.24,0.142,0.505,0.11,0.764
		c-0.028,0.257-0.161,0.495-0.333,0.627c-0.159,0.144-0.335,0.221-0.487,0.279c-0.153,0.056-0.291,0.087-0.402,0.116
		c-0.226,0.039-0.354,0.055-0.354,0.055s0.12-0.053,0.328-0.135c0.197-0.098,0.508-0.229,0.737-0.493
		c0.245-0.257,0.23-0.657,0.042-1.072c-0.189-0.412-0.471-0.84-0.752-1.271c-0.275-0.438-0.554-0.887-0.745-1.354
		c-0.093-0.236-0.17-0.473-0.198-0.712c-0.039-0.235-0.023-0.471,0.031-0.675c0.053-0.203,0.145-0.378,0.251-0.504
		c0.097-0.137,0.213-0.227,0.297-0.305c0.088-0.072,0.171-0.111,0.221-0.146C-44.484,174.637-44.457,174.619-44.457,174.619z"/>
	<g>
		<path fill="#716247" d="M-28.431,175.277l0.008,4.039c0,0.824,1.06,0.826,1.059-0.003l-0.007-4.82
			c1.555,0.36,1.314,8.51-1.535,8.524c-2.84,0.02-3.164-8.136-1.565-8.519l0.008,4.82c0.002,0.829,1.068,0.823,1.066-0.002
			l-0.007-4.039c-0.002-1.284,0.975-1.28,0.976-0.001H-28.431z"/>
		<path fill="#716247" d="M-28.249,184.034c-0.462,0.152-0.938,0.152-1.408,0.003l-0.424,15.425
			c-0.037,1.253,2.355,1.242,2.314-0.006L-28.249,184.034L-28.249,184.034z"/>
	</g>
</g>
<g>
	<g>
		<g>
			<path fill="#464646" d="M43.653,196.596H13.21c0,2.144,4.225,3.963,10.116,4.644v0.696h10.211v-0.696
				C39.428,200.559,43.653,198.739,43.653,196.596z"/>
		</g>
	</g>
</g>
<g>
	<path fill="#464646" d="M16.701,194.42c-0.372-0.221-0.825-0.214-1.155,0.025c-0.176,0.124-0.564,0.504-0.362,1.333l0.646-0.151
		c-0.077-0.313-0.037-0.556,0.108-0.657c0.11-0.078,0.278-0.078,0.418,0.008c0.198,0.117,0.282,0.36,0.233,0.672l0.656,0.102
		C17.335,195.176,17.132,194.679,16.701,194.42z"/>
	<path fill="#464646" d="M25.639,190.817c-1.302-0.046-3.017,0.205-3.902,1.053c-0.726,0.694-1.588,2.732-0.859,3.699l0.533-0.389
		c-0.444-0.587,0.193-2.277,0.789-2.845c0.737-0.708,2.301-0.911,3.415-0.868c1.12,0.039,1.784,0.664,2.491,1.653
		c0.489,0.685,0.896,1.827,0.654,2.137l0.525,0.399c0.628-0.798-0.342-2.501-0.636-2.909
		C28.001,191.846,27.183,190.874,25.639,190.817z"/>
	<path fill="#464646" d="M25.259,192.532c-0.94-0.144-1.914,0.233-2.482,0.951c-0.485,0.614-0.588,1.379-0.28,2.1l0.613-0.252
		c-0.217-0.505-0.149-1.021,0.191-1.45c0.416-0.524,1.167-0.811,1.859-0.704c1.204,0.174,1.29,1.096,1.29,2.606l0.664-0.015
		C27.114,194.445,27.114,192.804,25.259,192.532z"/>
	<path fill="#464646" d="M25.078,193.83c-0.349-0.038-0.655,0.069-0.889,0.308c-0.376,0.381-0.444,0.975-0.388,1.365l0.658-0.093
		c-0.045-0.308,0.042-0.653,0.207-0.816c0.091-0.094,0.2-0.132,0.341-0.116c0.088,0.01,0.155,0.05,0.213,0.125
		c0.167,0.224,0.201,0.659,0.161,0.878l0.651,0.116c0.062-0.327,0.037-0.965-0.28-1.382
		C25.583,193.992,25.349,193.859,25.078,193.83z"/>
	<path fill="#464646" d="M31.676,194.768l0.33,0.564c0.093-0.053,0.224-0.06,0.299-0.049c-0.002,0.006-0.006,0.014-0.01,0.02
		l0.585,0.308c0.238-0.438,0.008-0.71-0.067-0.783C32.527,194.559,32.003,194.585,31.676,194.768z"/>
	<path fill="#464646" d="M31.966,193.136c-0.178,0.092-0.345,0.18-0.475,0.219l0.202,0.624c0.188-0.063,0.381-0.163,0.585-0.268
		c0.519-0.271,0.874-0.434,1.095-0.219c0.21,0.202,0.123,0.786,0.073,1.102c-0.035,0.232-0.056,0.355-0.013,0.478l0.629-0.206
		c0.009,0.031,0.01,0.053,0.01,0.053c-0.001-0.033,0.016-0.145,0.03-0.232c0.07-0.455,0.188-1.224-0.265-1.661
		C33.252,192.466,32.509,192.854,31.966,193.136z"/>
	<path fill="#464646" d="M43.44,193.002c-0.192-0.983-1.675-1.877-2.836-1.877c-0.005,0-0.013,0-0.017,0
		c-0.715,0-1.209,0.193-1.36,0.894l0.649,0.026c0.086-0.404,0.311-0.646,0.721-0.637c0.848,0.011,2.055,0.842,2.189,1.531
		c0.114,0.584,0.18,1.287,0.032,1.912c0.011-0.306-0.067-0.612-0.243-0.894c-0.437-0.703-1.416-1.183-2.233-1.089
		c-0.439,0.055-0.768,0.279-0.942,0.62c0.051-1.465-0.524-2.781-1.713-3.723c-1.638-1.299-3.924-1.435-5.516-1.125
		c-0.068,0.013-0.15,0.036-0.227,0.056c-0.414-1.614-2.21-2.328-3.773-2.168c-1.355,0.142-2.901,0.99-2.875,2.912
		c-1.309,0.03-2.576,0.441-3.6,1.216c-0.021,0.017-0.04,0.036-0.062,0.053c-0.016-0.346-0.159-0.666-0.435-0.932
		c-0.584-0.559-1.653-0.802-2.4-0.752c-1.531,0.104-2.255,0.903-2.217,2.447l0.665-0.014c-0.032-1.202,0.417-1.702,1.598-1.783
		c0.59-0.041,1.467,0.159,1.889,0.567c0.175,0.166,0.254,0.348,0.244,0.557l0.519,0.026c-1.028,0.854-1.696,2.019-1.921,3.325
		c-0.136-0.69-0.474-1.326-1.317-1.709l0.439-0.237c-0.227-0.403,0.124-0.753,0.368-0.895c0.275-0.16,0.824-0.305,1.136,0.171
		l0.557-0.354c-0.486-0.744-1.39-0.751-2.033-0.376c-0.649,0.381-0.889,1.021-0.66,1.606c-0.361-0.134-0.805-0.226-1.349-0.264
		c-1.19-0.086-2.397,0.411-2.999,1.234c-0.438,0.6-0.51,1.321-0.205,2.036l0.564-0.23c0.026,0.149,0.062,0.301,0.128,0.453
		l0.609-0.257c-0.256-0.585-0.016-0.987,0.229-1.218c0.479-0.452,1.331-0.604,1.895-0.338c0.48,0.223,0.701,0.712,0.64,1.41
		l0.661,0.054c0.116-1.316-0.586-1.85-1.015-2.054c-0.822-0.384-1.956-0.188-2.64,0.458c-0.374,0.352-0.541,0.793-0.525,1.261
		c-0.125-0.433-0.067-0.834,0.197-1.198c0.463-0.636,1.455-1.03,2.413-0.965c2.298,0.162,2.317,1.291,2.344,2.721l0.665-0.011
		c-0.001-0.051-0.002-0.102-0.003-0.153l0.473-0.012c-0.042-1.668,0.65-3.129,1.953-4.114c1.374-1.039,3.244-1.36,5.002-0.855
		c1.486,0.422,2.731,1.555,3.247,2.952c0.212,0.574,0.121,1.117,0.024,1.686c-0.043,0.26-0.089,0.526-0.109,0.805l0.662,0.045
		c0.018-0.248,0.058-0.488,0.102-0.74c0.105-0.618,0.208-1.256-0.041-1.969l0.354,0.011c0.021-0.508,0.905-1.05,1.48-1.175
		c0.901-0.206,1.587,0.121,2.041,0.971c0.266,0.499,0.366,1.456,0.097,1.99c-0.117,0.234-0.289,0.366-0.523,0.405l0.114,0.646
		c0.446-0.078,0.794-0.341,1.004-0.762c0.381-0.758,0.242-1.932-0.105-2.582c-0.591-1.111-1.576-1.574-2.777-1.304
		c-0.566,0.124-1.548,0.628-1.876,1.351c-0.068-0.143-0.142-0.28-0.223-0.416l0.103,0.014c0.079-0.583,0.407-1.011,0.967-1.271
		c1.107-0.509,2.874-0.257,3.768,0.286c0.616,0.37,1.11,1.131,1.289,1.977c0.164,0.769,0.045,1.514-0.325,2.038l0.545,0.371
		c0.473-0.672,0.63-1.601,0.429-2.541c-0.217-1.031-0.812-1.927-1.589-2.4c-1.062-0.645-3.082-0.928-4.399-0.318
		c-0.587,0.271-0.994,0.697-1.204,1.241c-0.182-0.229-0.376-0.449-0.592-0.648l0.284-0.019c-0.051-0.793,1.542-1.504,2.448-1.676
		c1.819-0.349,3.768,0.038,4.974,0.991c1.53,1.214,1.897,3.162,0.98,5.216l0.607,0.262c0.15-0.338,0.262-0.672,0.351-1.003
		l0.489,0.161c0.022-0.059,0.087-0.242,0.37-0.193c0.273,0.044,0.564,0.287,0.561,0.573l0.661,0.008
		c0.011-0.646-0.558-1.13-1.108-1.222c-0.356-0.062-0.669,0.047-0.885,0.271c0.045-0.229,0.074-0.454,0.09-0.677l0.563,0.177
		c0.021-0.071,0.093-0.29,0.47-0.336c0.497-0.057,1.256,0.242,1.589,0.778c0.224,0.361,0.197,0.745-0.08,1.148l0.484,0.322
		l0.448,0.512C43.706,195.373,43.643,194.045,43.44,193.002z M29.228,190.696c-0.388-0.306-0.812-0.567-1.27-0.765l0.396-0.062
		c-0.021-0.135-0.011-0.287,0.229-0.385c0.372-0.153,0.97-0.038,1.167,0.223l0.535-0.387c-0.421-0.562-1.369-0.679-1.957-0.44
		c-0.426,0.175-0.646,0.529-0.629,0.953c-0.135-0.05-0.27-0.104-0.409-0.144c-0.009-0.003-0.018-0.004-0.027-0.006l0.146-0.074
		c-0.071-0.133-0.073-0.269-0.004-0.419c0.153-0.338,0.603-0.638,0.949-0.729c0.792-0.21,1.408,0.034,1.883,0.745l0.554-0.361
		c-0.636-0.941-1.538-1.294-2.609-1.014c-0.487,0.13-1.128,0.529-1.384,1.097c-0.095,0.21-0.119,0.424-0.088,0.631
		c-0.251-0.049-0.502-0.083-0.754-0.102c-0.033-1.501,1.152-2.162,2.284-2.278c1.288-0.132,2.768,0.43,3.073,1.711
		C30.408,189.225,29.391,189.842,29.228,190.696z"/>
	<path fill="#464646" d="M16.021,191.758c-0.414-0.533-0.486-1.136-0.219-1.794c0.414-1.007,1.636-1.974,2.724-2.145
		c0.74-0.115,1.404,0.021,1.921,0.398c0.559,0.408,0.926,1.086,1.033,1.909l0.658-0.083c-0.13-0.995-0.59-1.834-1.294-2.348
		c-0.663-0.486-1.501-0.667-2.422-0.521c-1.315,0.209-2.735,1.327-3.234,2.549c-0.355,0.867-0.25,1.708,0.305,2.43L16.021,191.758z"
		/>
</g>
<path fill="#464646" d="M26,185.926l-0.304-0.146c-0.091-0.064-0.186-0.133-0.275-0.207l-0.116-0.13
	c-0.037-0.045-0.083-0.083-0.107-0.137c-0.051-0.104-0.131-0.2-0.156-0.316c-0.035-0.112-0.083-0.226-0.088-0.344
	c-0.011-0.117-0.031-0.235-0.015-0.352c0.011-0.116,0.004-0.236,0.03-0.35l0.066-0.343l0.015-0.081l0.099-0.021
	c0.415-0.092,0.842-0.226,1.132-0.458c0.139-0.118,0.219-0.255,0.208-0.414c-0.009-0.162-0.088-0.342-0.191-0.514
	c-0.211-0.345-0.511-0.662-0.809-0.979l-0.453-0.487c-0.147-0.172-0.302-0.334-0.424-0.581c-0.016-0.029-0.029-0.067-0.04-0.105
	c-0.008-0.027-0.01-0.021-0.019-0.075l-0.005-0.04l-0.018-0.164c-0.017-0.103-0.01-0.231,0-0.36
	c0.003-0.132,0.034-0.248,0.063-0.363c0.023-0.118,0.067-0.227,0.109-0.336c0.083-0.219,0.197-0.418,0.314-0.611
	c0.113-0.193,0.237-0.375,0.352-0.561c0.117-0.185,0.223-0.37,0.312-0.561c0.088-0.192,0.148-0.39,0.173-0.597
	c0.011-0.204-0.015-0.417-0.102-0.612c-0.078-0.201-0.206-0.377-0.334-0.558c0.153,0.157,0.316,0.312,0.421,0.516
	c0.116,0.195,0.174,0.426,0.19,0.66c0,0.115-0.013,0.232-0.029,0.348c-0.031,0.111-0.054,0.229-0.097,0.333
	c-0.08,0.215-0.18,0.418-0.285,0.613c-0.209,0.393-0.424,0.771-0.561,1.162c-0.034,0.097-0.07,0.194-0.083,0.294
	c-0.022,0.098-0.043,0.196-0.041,0.285c-0.005,0.091-0.014,0.183,0.011,0.298l0.021,0.164l0.005,0.041
	c-0.003-0.028,0.005,0.005,0.005,0.004c0.006,0.014,0.008,0.027,0.02,0.047c0.073,0.148,0.221,0.316,0.362,0.472l0.451,0.476
	c0.301,0.325,0.609,0.655,0.853,1.064c0.119,0.204,0.225,0.44,0.231,0.722c0.013,0.287-0.169,0.566-0.372,0.714
	c-0.205,0.155-0.43,0.244-0.652,0.31s-0.445,0.104-0.667,0.141l0.113-0.104l-0.083,0.312c-0.034,0.104-0.033,0.21-0.051,0.315
	c-0.023,0.107-0.009,0.211-0.01,0.315c-0.009,0.108,0.022,0.209,0.039,0.314c0.01,0.106,0.073,0.196,0.108,0.296
	c0.015,0.053,0.052,0.092,0.083,0.138l0.093,0.134c0.074,0.077,0.154,0.148,0.231,0.229L26,185.926z"/>
<path fill="#464646" d="M28.325,171.945c0,0-0.031,0.04-0.093,0.117c-0.062,0.075-0.152,0.19-0.228,0.35
	c-0.048,0.075-0.084,0.165-0.111,0.27c-0.017,0.05-0.033,0.103-0.051,0.157c-0.006,0.057-0.014,0.114-0.023,0.176
	c-0.041,0.241-0.011,0.521,0.025,0.816c0.055,0.298,0.138,0.616,0.264,0.944c0.117,0.331,0.278,0.667,0.434,1.019
	c0.344,0.699,0.71,1.445,1.077,2.19c0.345,0.763,0.694,1.542,0.825,2.348c0.074,0.398,0.087,0.809-0.008,1.185
	c-0.086,0.372-0.263,0.71-0.5,0.941c-0.222,0.248-0.486,0.4-0.719,0.513c-0.229,0.123-0.452,0.171-0.622,0.239
	c-0.358,0.084-0.563,0.124-0.563,0.124s0.194-0.075,0.534-0.205c0.159-0.087,0.37-0.156,0.571-0.303
	c0.208-0.133,0.431-0.301,0.614-0.53c0.197-0.22,0.322-0.517,0.373-0.841c0.059-0.326,0.019-0.685-0.057-1.051
	c-0.07-0.367-0.207-0.736-0.35-1.11c-0.142-0.375-0.318-0.748-0.494-1.123c-0.349-0.749-0.728-1.492-1.031-2.221
	c-0.304-0.727-0.526-1.445-0.591-2.088c-0.023-0.321-0.014-0.623,0.061-0.879c0.016-0.063,0.031-0.124,0.047-0.185
	c0.026-0.055,0.05-0.11,0.072-0.161c0.042-0.106,0.091-0.196,0.153-0.271c0.099-0.163,0.209-0.254,0.281-0.32
	C28.287,171.98,28.325,171.945,28.325,171.945z"/>
<path fill="#464646" d="M33.172,177.11c0,0-0.091,0.094-0.243,0.261c-0.066,0.09-0.154,0.188-0.215,0.326
	c-0.074,0.13-0.119,0.293-0.144,0.467c-0.019,0.175-0.007,0.368,0.044,0.567c0.042,0.2,0.136,0.404,0.229,0.613
	c0.208,0.415,0.479,0.844,0.764,1.275c0.272,0.438,0.561,0.881,0.74,1.366c0.09,0.24,0.142,0.505,0.11,0.764
	c-0.028,0.257-0.161,0.495-0.333,0.627c-0.159,0.144-0.335,0.221-0.487,0.279c-0.153,0.056-0.291,0.087-0.402,0.116
	c-0.226,0.039-0.354,0.055-0.354,0.055s0.12-0.053,0.328-0.135c0.197-0.098,0.508-0.229,0.737-0.493
	c0.245-0.257,0.23-0.657,0.042-1.072c-0.189-0.412-0.471-0.84-0.752-1.271c-0.275-0.438-0.554-0.887-0.745-1.354
	c-0.093-0.236-0.17-0.473-0.198-0.712c-0.039-0.235-0.023-0.471,0.031-0.675c0.053-0.203,0.145-0.378,0.251-0.504
	c0.097-0.137,0.213-0.227,0.297-0.305c0.088-0.072,0.171-0.111,0.221-0.146C33.145,177.128,33.172,177.11,33.172,177.11z"/>
<g>
	<path fill="#464646" d="M49.198,177.769l0.008,4.039c0,0.824,1.06,0.826,1.06-0.003l-0.008-4.82c1.555,0.36,1.314,8.51-1.535,8.524
		c-2.84,0.02-3.163-8.136-1.564-8.519l0.008,4.82c0.002,0.829,1.068,0.823,1.066-0.002l-0.007-4.039
		c-0.003-1.284,0.975-1.28,0.976-0.001H49.198z"/>
	<path fill="#464646" d="M49.38,186.525c-0.462,0.152-0.938,0.152-1.408,0.003l-0.424,15.425c-0.037,1.253,2.354,1.242,2.314-0.006
		L49.38,186.525L49.38,186.525z"/>
</g>
<g>
	<polygon fill="#E62D22" stroke="#E52F21" stroke-miterlimit="10" points="-38.535,280.048 -56.265,280.048 -58.235,258.588 
		-36.565,258.588 	"/>
	<rect x="-50.803" y="250.048" fill="#E62D22" width="5.757" height="2.095"/>
	<path fill="#E62D22" d="M-36.67,256.495h-21.983c0,0,0-0.401,0-1.528c0-4.08,21.983-4.217,21.983,0.101
		C-36.67,255.817-36.67,256.495-36.67,256.495z"/>
	
		<line fill="none" stroke="#F6F6F6" stroke-width="2" stroke-linecap="round" stroke-miterlimit="10" x1="-53.995" y1="261.572" x2="-52.975" y2="276.646"/>
	
		<line fill="none" stroke="#F6F6F6" stroke-width="2" stroke-linecap="round" stroke-miterlimit="10" x1="-50.227" y1="261.572" x2="-49.285" y2="276.646"/>
	
		<line fill="none" stroke="#F6F6F6" stroke-width="2" stroke-linecap="round" stroke-miterlimit="10" x1="-44.574" y1="261.572" x2="-45.516" y2="276.646"/>
	
		<line fill="none" stroke="#F6F6F6" stroke-width="2" stroke-linecap="round" stroke-miterlimit="10" x1="-40.805" y1="261.572" x2="-41.748" y2="276.646"/>
</g>
<g>
	<polygon fill="#464646" points="40.808,281.281 23.078,281.281 21.108,259.82 42.778,259.82 	"/>
	<rect x="28.54" y="251.281" fill="#464646" width="5.757" height="2.094"/>
	<path fill="#464646" d="M42.672,257.728H20.689c0,0,0-0.401,0-1.528c0-4.08,21.983-4.217,21.983,0.101
		C42.672,257.05,42.672,257.728,42.672,257.728z"/>
	
		<line fill="none" stroke="#F6F6F6" stroke-width="2" stroke-linecap="round" stroke-miterlimit="10" x1="25.348" y1="262.805" x2="26.368" y2="277.879"/>
	
		<line fill="none" stroke="#F6F6F6" stroke-width="2" stroke-linecap="round" stroke-miterlimit="10" x1="29.116" y1="262.805" x2="30.058" y2="277.879"/>
	
		<line fill="none" stroke="#F6F6F6" stroke-width="2" stroke-linecap="round" stroke-miterlimit="10" x1="34.769" y1="262.805" x2="33.827" y2="277.879"/>
	
		<line fill="none" stroke="#F6F6F6" stroke-width="2" stroke-linecap="round" stroke-miterlimit="10" x1="38.537" y1="262.805" x2="37.596" y2="277.879"/>
</g>
</svg>
