<?xml version="1.0" encoding="utf-8"?>
<!-- Generator: Adobe Illustrator 16.0.0, SVG Export Plug-In . SVG Version: 6.00 Build 0)  -->
<!DOCTYPE svg PUBLIC "-//W3C//DTD SVG 1.1//EN" "http://www.w3.org/Graphics/SVG/1.1/DTD/svg11.dtd">
<svg version="1.1" id="Capa_1" xmlns="http://www.w3.org/2000/svg" xmlns:xlink="http://www.w3.org/1999/xlink" x="0px" y="0px"
	 width="75px" height="65px" viewBox="0 0 75 65" enable-background="new 0 0 75 65" xml:space="preserve">
<g>
	<g>
		<path fill="#464646" d="M-65.376,166.625c-11.039,4.884-18.277,15.264-18.277,15.264c0.06,0.067,5.485,6.28,9.979,4.644
			l0.151,1.107c-0.565,0.205-1.145,0.297-1.729,0.297c-3.104,0-6.346-2.57-8.02-4.133c2.369,2.965,8.779,10.258,17.111,14.217
			C-59.943,187.424-64.403,170.058-65.376,166.625z M-72.117,182.893c-1.53,0-2.773-1.242-2.773-2.773s1.243-2.771,2.773-2.771
			c1.532,0,2.775,1.24,2.775,2.771S-70.585,182.893-72.117,182.893z"/>
		<path fill="#464646" d="M-29.571,178.473c-4.858-5.355-14.54-14.145-25.686-14.145c-3.115,0-6.116,0.695-8.93,1.803
			c0.953,3.233,5.75,21.091-0.8,32.418c3.042,1.297,6.316,2.123,9.729,2.123c11.813,0,21.971-9.867,26.506-15.057l8.957,5.113
			v-16.453L-29.571,178.473z"/>
	</g>
</g>
<g>
	<g>
		<path fill="#004169" d="M26.624,166.625C15.585,171.51,8.347,181.89,8.347,181.89c0.06,0.067,5.485,6.28,9.979,4.644l0.151,1.107
			c-0.565,0.205-1.145,0.297-1.729,0.297c-3.104,0-6.346-2.57-8.02-4.133c2.369,2.965,8.779,10.258,17.111,14.217
			C32.057,187.424,27.597,170.058,26.624,166.625z M19.883,182.893c-1.53,0-2.773-1.242-2.773-2.773s1.243-2.771,2.773-2.771
			c1.532,0,2.775,1.24,2.775,2.771S21.415,182.893,19.883,182.893z"/>
		<path fill="#738BAD" d="M62.429,178.473c-4.858-5.355-14.54-14.145-25.686-14.145c-3.115,0-6.116,0.694-8.93,1.803
			c0.953,3.232,5.75,21.091-0.8,32.418c3.042,1.297,6.316,2.123,9.729,2.123c11.813,0,21.971-9.867,26.506-15.057l8.957,5.113
			v-16.453L62.429,178.473z"/>
	</g>
</g>
<path fill="#F39200" d="M41.992,243.426l1.023,1.061c0.372,0.385,0.988,0.396,1.373,0.023l0.582-0.562
	c0.385-0.37,0.396-0.987,0.023-1.372l-0.789-0.819l-0.233-0.241c-0.372-0.385-0.988-0.396-1.373-0.023l-0.582,0.562
	C41.632,242.426,41.62,243.041,41.992,243.426z"/>
<path fill="#F39200" d="M39.606,245.73l1.022,1.061c0.372,0.385,0.988,0.395,1.373,0.023l0.582-0.562
	c0.386-0.37,0.396-0.987,0.024-1.372l-1.022-1.06c-0.373-0.385-0.988-0.396-1.373-0.024l-0.582,0.562
	C39.245,244.729,39.234,245.346,39.606,245.73z"/>
<path fill="#F39200" d="M40.198,248.556c0.386-0.371,0.396-0.986,0.024-1.371l-1.023-1.062c-0.225-0.231-0.541-0.327-0.841-0.284
	c-0.228,0.793-0.503,1.632-0.837,2.51l0.723,0.745c0.371,0.385,0.986,0.396,1.372,0.024L40.198,248.556z"/>
<path fill="#F39200" d="M37.812,250.86c0.385-0.371,0.396-0.986,0.023-1.372l-0.541-0.561c-0.342,0.854-0.737,1.742-1.196,2.653
	c0.361,0.192,0.82,0.142,1.131-0.158L37.812,250.86z"/>
<path fill="#F39200" d="M35.711,252.328c-0.215,0.404-0.441,0.811-0.683,1.222l0.398-0.385
	C35.658,252.939,35.754,252.627,35.711,252.328z"/>
<path fill="#F39200" d="M47.735,246.811c0.386-0.371,0.397-0.986,0.024-1.373l-0.929-0.961l-0.094-0.099
	c-0.373-0.385-0.989-0.395-1.374-0.022l-0.583,0.562c-0.385,0.371-0.396,0.986-0.022,1.373l1.023,1.058
	c0.371,0.385,0.987,0.396,1.371,0.024L47.735,246.811z"/>
<path fill="#F39200" d="M45.35,249.115c0.385-0.372,0.396-0.987,0.023-1.373l-1.023-1.06c-0.371-0.385-0.987-0.395-1.372-0.024
	l-0.583,0.562c-0.385,0.373-0.396,0.988-0.022,1.375l1.022,1.058c0.372,0.385,0.988,0.396,1.373,0.024L45.35,249.115z"/>
<path fill="#F39200" d="M42.963,251.42c0.385-0.372,0.396-0.987,0.024-1.374l-1.022-1.059c-0.373-0.385-0.988-0.396-1.374-0.023
	l-0.583,0.561c-0.385,0.374-0.395,0.989-0.023,1.374l1.023,1.06c0.373,0.385,0.988,0.395,1.373,0.024L42.963,251.42z"/>
<path fill="#F39200" d="M40.578,253.723c0.385-0.37,0.396-0.985,0.023-1.372l-1.023-1.06c-0.372-0.385-0.988-0.395-1.373-0.024
	l-0.582,0.562c-0.386,0.374-0.396,0.987-0.023,1.374l1.022,1.059c0.372,0.386,0.987,0.396,1.372,0.025L40.578,253.723z"/>
<path fill="#F39200" d="M38.19,256.028c0.387-0.371,0.396-0.988,0.024-1.373l-1.022-1.06c-0.373-0.385-0.988-0.396-1.374-0.024
	l-0.582,0.562c-0.385,0.372-0.396,0.988-0.023,1.373l1.022,1.06c0.373,0.385,0.988,0.395,1.374,0.023L38.19,256.028z"/>
<path fill="#F39200" d="M35.806,258.331c0.384-0.37,0.396-0.986,0.022-1.371l-1.021-1.06c-0.308-0.317-0.779-0.38-1.151-0.185
	c-0.343,0.5-0.704,1.005-1.088,1.512c-0.002,0.005-0.003,0.005-0.007,0.01c0.021,0.208,0.109,0.413,0.266,0.573l1.023,1.061
	c0.373,0.385,0.988,0.395,1.373,0.023L35.806,258.331z"/>
<path fill="#F39200" d="M33.419,260.636c0.385-0.371,0.396-0.986,0.024-1.372l-1.023-1.061c-0.114-0.117-0.252-0.2-0.397-0.247
	c-0.54,0.726-1.065,1.448-1.574,2.168l1.016,1.052c0.372,0.385,0.987,0.395,1.373,0.022L33.419,260.636z"/>
<path fill="#F39200" d="M31.033,262.94c0.384-0.372,0.396-0.987,0.023-1.372l-0.939-0.976c-0.548,0.782-1.079,1.557-1.59,2.316
	l0.55,0.57c0.373,0.384,0.988,0.396,1.373,0.023L31.033,262.94z"/>
<path fill="#F39200" d="M50.502,249.675c0.385-0.372,0.395-0.989,0.022-1.374l-0.095-0.097l-0.928-0.961
	c-0.371-0.387-0.987-0.396-1.372-0.024l-0.583,0.561c-0.386,0.372-0.397,0.989-0.024,1.374l1.023,1.061
	c0.37,0.384,0.988,0.395,1.372,0.023L50.502,249.675z"/>
<path fill="#F39200" d="M48.115,251.979c0.385-0.372,0.395-0.989,0.023-1.374l-1.022-1.06c-0.373-0.385-0.988-0.395-1.374-0.024
	l-0.582,0.562c-0.385,0.373-0.396,0.988-0.024,1.374l1.023,1.059c0.372,0.385,0.987,0.396,1.373,0.025L48.115,251.979z"/>
<path fill="#F39200" d="M45.729,254.283c0.386-0.371,0.396-0.988,0.023-1.373l-1.022-1.06c-0.373-0.387-0.988-0.396-1.372-0.022
	l-0.583,0.561c-0.386,0.373-0.396,0.987-0.024,1.373l1.023,1.06c0.372,0.385,0.987,0.396,1.372,0.024L45.729,254.283z"/>
<path fill="#F39200" d="M43.342,256.586c0.386-0.37,0.396-0.986,0.024-1.371l-1.023-1.06c-0.372-0.387-0.987-0.396-1.372-0.023
	l-0.583,0.562c-0.385,0.37-0.396,0.987-0.023,1.372l1.023,1.06c0.371,0.383,0.987,0.396,1.372,0.022L43.342,256.586z"/>
<path fill="#F39200" d="M40.956,258.893c0.385-0.374,0.396-0.988,0.023-1.374l-1.022-1.059c-0.372-0.387-0.986-0.396-1.372-0.023
	l-0.583,0.561c-0.386,0.372-0.396,0.987-0.023,1.374l1.023,1.06c0.369,0.385,0.986,0.396,1.371,0.024L40.956,258.893z"/>
<path fill="#F39200" d="M37.492,262.013c0.133-0.06,0.265-0.117,0.396-0.173c0.034-0.024,0.067-0.051,0.1-0.082l0.582-0.562
	c0.385-0.372,0.396-0.988,0.024-1.372l-1.024-1.06c-0.371-0.386-0.986-0.396-1.371-0.026l-0.583,0.563
	c-0.386,0.373-0.396,0.988-0.023,1.375l1.022,1.059C36.85,261.979,37.183,262.072,37.492,262.013z"/>
<path fill="#F39200" d="M36.435,262.51c-0.044-0.14-0.118-0.271-0.227-0.382l-1.022-1.061c-0.373-0.386-0.988-0.396-1.374-0.023
	l-0.582,0.561c-0.386,0.374-0.396,0.989-0.023,1.374l0.804,0.832C34.827,263.34,35.637,262.901,36.435,262.51z"/>
<path fill="#F39200" d="M33.508,264.106l-0.709-0.735c-0.373-0.385-0.988-0.395-1.373-0.024l-0.582,0.562
	c-0.385,0.373-0.396,0.988-0.023,1.374l0.292,0.304C31.914,265.072,32.713,264.575,33.508,264.106z"/>
<path fill="#F39200" d="M53.056,250.923l-0.789-0.817c-0.372-0.385-0.988-0.395-1.373-0.024l-0.582,0.562
	c-0.385,0.371-0.396,0.986-0.023,1.373l1.022,1.06c0.372,0.385,0.989,0.395,1.373,0.023l0.582-0.562
	c0.385-0.372,0.396-0.987,0.024-1.372L53.056,250.923z"/>
<path fill="#F39200" d="M44.611,241.364l0.789,0.818l0.183,0.188c0.348,0.359,0.943,0.35,1.329-0.021l0.582-0.562
	c0.386-0.37,0.417-0.968,0.068-1.328l-0.739-0.765l-0.232-0.241c-0.348-0.359-0.944-0.351-1.33,0.021l-0.582,0.562
	C44.294,240.407,44.263,241.003,44.611,241.364z"/>
<path fill="#F39200" d="M50.122,244.507c0.385-0.372,0.417-0.968,0.067-1.328l-0.877-0.908l-0.094-0.099
	c-0.35-0.359-0.946-0.35-1.331,0.021l-0.582,0.562c-0.385,0.373-0.416,0.969-0.067,1.329l0.928,0.962l0.043,0.046
	c0.35,0.36,0.945,0.349,1.331-0.022L50.122,244.507z"/>
<path fill="#F39200" d="M49.933,245.477c-0.385,0.372-0.416,0.968-0.069,1.328l0.046,0.046l0.928,0.96
	c0.348,0.36,0.943,0.351,1.33-0.021l0.582-0.562c0.385-0.371,0.415-0.967,0.067-1.327l-0.096-0.099l-0.876-0.908
	c-0.349-0.36-0.945-0.35-1.33,0.021L49.933,245.477z"/>
<path fill="#F39200" d="M55.21,248.378l-0.739-0.765c-0.347-0.36-0.944-0.351-1.331,0.02l-0.579,0.563
	c-0.388,0.371-0.417,0.967-0.069,1.328l0.183,0.188l0.789,0.819c0.349,0.358,0.945,0.349,1.33-0.021l0.582-0.562
	c0.385-0.373,0.416-0.967,0.067-1.327L55.21,248.378z"/>
<path fill="#F39200" d="M47.23,239.301l0.738,0.765l0.183,0.188c0.323,0.336,0.901,0.307,1.286-0.065l0.582-0.562
	c0.384-0.372,0.435-0.947,0.11-1.283l-0.688-0.712l-0.232-0.242c-0.324-0.335-0.901-0.306-1.287,0.067l-0.582,0.562
	C46.956,238.391,46.906,238.965,47.23,239.301z"/>
<path fill="#F39200" d="M52.507,242.202c0.387-0.372,0.436-0.947,0.112-1.281l-0.827-0.857l-0.094-0.097
	c-0.325-0.336-0.9-0.307-1.285,0.065l-0.583,0.562c-0.386,0.372-0.436,0.947-0.111,1.283l0.877,0.908l0.045,0.046
	c0.323,0.335,0.898,0.304,1.284-0.067L52.507,242.202z"/>
<path fill="#F39200" d="M52.319,243.173c-0.386,0.371-0.437,0.947-0.112,1.282l0.044,0.045l0.877,0.908
	c0.324,0.335,0.902,0.306,1.285-0.066l0.584-0.562c0.386-0.372,0.435-0.947,0.109-1.283l-0.093-0.097l-0.828-0.857
	c-0.322-0.335-0.899-0.304-1.284,0.067L52.319,243.173z"/>
<path fill="#F39200" d="M57.362,245.832l-0.687-0.711c-0.326-0.337-0.902-0.306-1.286,0.066l-0.583,0.562
	c-0.386,0.37-0.435,0.945-0.11,1.281l0.181,0.189l0.74,0.765c0.324,0.336,0.9,0.306,1.285-0.065l0.583-0.563
	c0.385-0.373,0.434-0.947,0.11-1.282L57.362,245.832z"/>
<path fill="#F39200" d="M49.851,237.237l0.687,0.713l0.183,0.188c0.298,0.312,0.823,0.292,1.169-0.041l0.536-0.518
	c0.345-0.333,0.381-0.857,0.081-1.168l-0.637-0.66l-0.231-0.241c-0.301-0.312-0.825-0.291-1.17,0.043l-0.536,0.517
	C49.586,236.403,49.55,236.927,49.851,237.237z"/>
<path fill="#F39200" d="M54.775,240.015c0.344-0.334,0.382-0.857,0.082-1.168l-0.775-0.803l-0.095-0.099
	c-0.301-0.31-0.825-0.291-1.171,0.041l-0.535,0.518c-0.346,0.333-0.382,0.857-0.081,1.167l0.825,0.856l0.044,0.045
	c0.299,0.311,0.824,0.291,1.169-0.042L54.775,240.015z"/>
<path fill="#F39200" d="M54.632,240.937c-0.345,0.336-0.382,0.859-0.082,1.17l0.043,0.045l0.826,0.854
	c0.3,0.312,0.825,0.292,1.17-0.041l0.536-0.517c0.345-0.335,0.381-0.858,0.081-1.169l-0.095-0.099l-0.773-0.801
	c-0.3-0.312-0.824-0.292-1.17,0.041L54.632,240.937z"/>
<path fill="#F39200" d="M59.324,243.472l-0.638-0.659c-0.3-0.31-0.824-0.291-1.17,0.041l-0.534,0.518
	c-0.346,0.334-0.382,0.857-0.083,1.168l0.183,0.189l0.687,0.711c0.301,0.311,0.826,0.292,1.171-0.04l0.536-0.518
	c0.345-0.333,0.382-0.859,0.082-1.168L59.324,243.472z"/>
<path fill="#F39200" d="M52.275,235.359l0.638,0.659l0.182,0.189c0.275,0.284,0.773,0.255,1.105-0.067l0.522-0.503
	c0.334-0.324,0.381-0.819,0.104-1.104l-0.816-0.849c-0.277-0.286-0.772-0.255-1.106,0.067l-0.521,0.505
	C52.048,234.578,52.002,235.074,52.275,235.359z"/>
<path fill="#F39200" d="M56.935,237.927c0.334-0.322,0.383-0.817,0.106-1.104l-0.818-0.848c-0.276-0.286-0.771-0.256-1.106,0.068
	l-0.523,0.503c-0.333,0.324-0.38,0.817-0.104,1.104l0.775,0.803l0.043,0.045c0.275,0.284,0.771,0.255,1.105-0.066L56.935,237.927z"
	/>
<path fill="#F39200" d="M56.807,238.84c-0.333,0.32-0.382,0.815-0.105,1.102l0.044,0.045l0.774,0.803
	c0.276,0.286,0.772,0.257,1.106-0.067l0.522-0.504c0.334-0.322,0.38-0.817,0.104-1.104l-0.817-0.847
	c-0.274-0.286-0.772-0.257-1.106,0.065L56.807,238.84z"/>
<path fill="#F39200" d="M60.647,240.557c-0.275-0.284-0.773-0.255-1.108,0.067l-0.521,0.506c-0.334,0.322-0.383,0.815-0.105,1.102
	l0.181,0.188l0.637,0.66c0.276,0.286,0.771,0.256,1.106-0.066l0.522-0.505c0.334-0.322,0.382-0.817,0.105-1.102L60.647,240.557z"/>
<path fill="#F39200" d="M54.881,233.601l0.734,0.764c0.238,0.243,0.646,0.236,0.908-0.019l0.439-0.423
	c0.262-0.255,0.284-0.661,0.046-0.906l-0.733-0.761c-0.237-0.245-0.645-0.239-0.908,0.016l-0.439,0.425
	C54.664,232.949,54.645,233.357,54.881,233.601z"/>
<path fill="#F39200" d="M58.951,235.982c0.262-0.257,0.285-0.661,0.048-0.906l-0.737-0.763c-0.236-0.245-0.644-0.239-0.905,0.016
	l-0.441,0.425c-0.264,0.253-0.284,0.661-0.047,0.904l0.735,0.764c0.236,0.245,0.646,0.238,0.907-0.017L58.951,235.982z"/>
<path fill="#F39200" d="M59.592,238.479c0.237,0.245,0.644,0.238,0.907-0.015l0.439-0.425c0.263-0.255,0.283-0.661,0.047-0.906
	l-0.735-0.762c-0.237-0.246-0.643-0.238-0.905,0.017l-0.439,0.425c-0.264,0.253-0.286,0.659-0.049,0.906L59.592,238.479z"/>
<path fill="#F39200" d="M61.331,238.446l-0.438,0.425c-0.265,0.253-0.286,0.659-0.048,0.906l0.735,0.762
	c0.236,0.245,0.643,0.236,0.907-0.017l0.438-0.425c0.264-0.255,0.285-0.661,0.047-0.906l-0.735-0.76
	C62.001,238.186,61.595,238.193,61.331,238.446z"/>
<path fill="#F39200" d="M57.355,232.374l0.605,0.628c0.173,0.18,0.521,0.137,0.759-0.094l0.415-0.399
	c0.239-0.23,0.294-0.577,0.119-0.757l-0.605-0.625c-0.172-0.181-0.521-0.138-0.757,0.092l-0.417,0.401
	C57.238,231.851,57.182,232.196,57.355,232.374z"/>
<path fill="#F39200" d="M58.991,234.069l0.607,0.629c0.173,0.179,0.521,0.135,0.758-0.096l0.416-0.399
	c0.236-0.23,0.292-0.576,0.119-0.755l-0.606-0.627c-0.173-0.18-0.519-0.137-0.758,0.094l-0.415,0.399
	C58.874,233.545,58.819,233.891,58.991,234.069z"/>
<path fill="#F39200" d="M60.629,235.766l0.606,0.627c0.174,0.179,0.52,0.135,0.757-0.094l0.417-0.401
	c0.237-0.23,0.292-0.574,0.12-0.754l-0.606-0.628c-0.173-0.18-0.52-0.135-0.758,0.095l-0.416,0.4
	C60.512,235.241,60.457,235.585,60.629,235.766z"/>
<path fill="#F39200" d="M62.802,236.305l-0.414,0.4c-0.239,0.231-0.294,0.577-0.121,0.755l0.606,0.628
	c0.172,0.18,0.52,0.137,0.757-0.094l0.416-0.401c0.239-0.229,0.293-0.574,0.12-0.755l-0.605-0.627
	C63.389,236.033,63.041,236.075,62.802,236.305z"/>
<path fill="#F39200" d="M59.737,231.218l0.482,0.496c0.116,0.122,0.324,0.11,0.465-0.024l0.294-0.284
	c0.139-0.135,0.158-0.343,0.041-0.464l-0.48-0.499c-0.117-0.12-0.325-0.108-0.464,0.026l-0.296,0.285
	C59.639,230.887,59.622,231.096,59.737,231.218z"/>
<path fill="#F39200" d="M61.038,232.562l0.479,0.496c0.117,0.122,0.326,0.11,0.465-0.024l0.295-0.284
	c0.139-0.135,0.158-0.343,0.04-0.464l-0.479-0.497c-0.118-0.121-0.326-0.11-0.465,0.024l-0.295,0.285
	C60.938,232.232,60.919,232.439,61.038,232.562z"/>
<path fill="#F39200" d="M62.335,233.905l0.479,0.495c0.117,0.123,0.326,0.111,0.465-0.023l0.295-0.284
	c0.14-0.134,0.158-0.342,0.041-0.464l-0.479-0.497c-0.117-0.121-0.326-0.11-0.467,0.025l-0.293,0.284
	C62.236,233.576,62.218,233.783,62.335,233.905z"/>
<path fill="#F39200" d="M63.634,235.249l0.479,0.498c0.116,0.122,0.325,0.109,0.465-0.026l0.295-0.284
	c0.139-0.133,0.157-0.342,0.039-0.464l-0.479-0.497c-0.117-0.12-0.326-0.109-0.466,0.025l-0.295,0.282
	C63.534,234.92,63.516,235.129,63.634,235.249z"/>
<path fill="#F39200" d="M50.88,254.843c0.383-0.373,0.395-0.99,0.023-1.375l-1.023-1.058c-0.372-0.385-0.987-0.396-1.372-0.024
	l-0.582,0.563c-0.385,0.37-0.396,0.987-0.023,1.372l1.022,1.06c0.371,0.385,0.986,0.395,1.372,0.024L50.88,254.843z"/>
<path fill="#F39200" d="M48.494,257.146c0.385-0.372,0.396-0.987,0.023-1.372l-1.023-1.059c-0.371-0.386-0.988-0.398-1.373-0.025
	l-0.582,0.562c-0.385,0.372-0.395,0.989-0.023,1.372l1.023,1.062c0.371,0.385,0.985,0.395,1.373,0.024L48.494,257.146z"/>
<path fill="#F39200" d="M42.722,259.321c-0.37-0.383-0.987-0.395-1.373-0.022l-0.582,0.562c-0.291,0.281-0.368,0.7-0.228,1.056
	c1.177-0.306,2.297-0.44,3.344-0.354c-0.037-0.064-0.084-0.125-0.136-0.183L42.722,259.321z"/>
<path fill="#F39200" d="M28.647,265.245c0.385-0.372,0.396-0.989,0.023-1.372l-0.466-0.481c-0.536,0.808-1.052,1.597-1.542,2.361
	l0.027,0.031c0.373,0.384,0.988,0.395,1.374,0.023L28.647,265.245z"/>
<path fill="#F39200" d="M30.188,266.189c0.146-0.098,0.294-0.194,0.442-0.29l-0.217-0.224c-0.373-0.385-0.987-0.396-1.372-0.024
	l-0.584,0.562c-0.331,0.32-0.385,0.82-0.155,1.199C28.905,267.028,29.527,266.623,30.188,266.189z"/>
<path fill="#F39200" d="M26.348,266.248c-0.473,0.74-0.919,1.454-1.343,2.136c0.243,0,0.485-0.093,0.673-0.271l0.583-0.562
	C26.622,267.2,26.653,266.633,26.348,266.248z"/>
<path fill="#F39200" d="M26.654,267.956l-0.582,0.562c-0.129,0.125-0.215,0.274-0.259,0.433c0.646-0.384,1.275-0.771,1.921-1.178
	C27.381,267.612,26.949,267.671,26.654,267.956z"/>
<path fill="#006633" d="M38.712,240.001c-0.185,2.812-1.228,9.566-6.709,16.801c-3.891,5.137-7.067,10.316-9.229,13.871
	c-0.969,0.521-2.029,1.074-3.239,1.685l-1.578-1.635c-0.021-0.088-0.043-0.173-0.063-0.264c-0.777-3.545,0.69-7.461,4.243-11.326
	c1.821-1.98,3.566-3.802,5.255-5.562c0,0,8.896-8.66,10.856-17.929C38.247,235.643,38.772,237.103,38.712,240.001z"/>
<path fill="#006633" d="M14.541,273.872c0.433,0.446,4.954,5.129,5.386,5.576c0.398-0.387,2.434-2.351,2.831-2.735
	c-0.432-0.447-4.953-5.13-5.384-5.576C16.975,271.521,14.941,273.485,14.541,273.872z"/>
<path fill="#464646" d="M43.646,262.337l-0.032,0.022c0.215,0.252,0.386,0.475,0.495,0.631
	C43.966,262.772,43.812,262.554,43.646,262.337z"/>
<path fill="#F39200" d="M43.129,258.929l1.023,1.061c0.371,0.385,0.987,0.396,1.373,0.021l0.582-0.559
	c0.385-0.374,0.395-0.99,0.024-1.376l-1.023-1.059c-0.372-0.384-0.989-0.396-1.372-0.023l-0.584,0.562
	C42.77,257.929,42.758,258.544,43.129,258.929z"/>
<path fill="#006633" d="M41.506,261.455c-3.271,0.604-7.086,2.798-10.93,5.324c-3.525,2.319-5.976,3.807-10.527,6.111l3.264,3.378
	c0.432,0.117,0.855,0.178,1.276,0.163h0.01h0.009c4.284,0.075,8.148-3.093,11.556-5.886c1.038-0.85,2.019-1.651,2.987-2.355
	c2.588-1.875,4.636-3.163,5.15-3.481c-0.217-0.43-0.473-0.867-0.769-1.31C43.186,262.873,42.415,261.958,41.506,261.455z"/>
<path fill="#006633" d="M49.037,267.92c0.283-1.668-0.04-3.366-1.698-4.996c-1.318-1.296-2.949-1.747-4.785-1.606
	c0.411,0.332,0.945,0.885,0.945,0.885c0.43,0.472,0.756,1.005,0.756,1.005c2.568,3.995,1.797,7.605,1.175,9.298
	c0.641-0.395,1.217-0.832,1.704-1.306C48.202,270.17,48.826,269.158,49.037,267.92z"/>
<path fill="#464646" d="M-46.397,243.911l1.024,1.061c0.371,0.385,0.987,0.396,1.372,0.023l0.583-0.562
	c0.385-0.37,0.396-0.987,0.023-1.372l-0.79-0.819L-44.418,242c-0.371-0.385-0.987-0.396-1.372-0.023l-0.583,0.562
	C-46.758,242.911-46.769,243.526-46.397,243.911z"/>
<path fill="#464646" d="M-48.782,246.216l1.022,1.061c0.371,0.385,0.987,0.395,1.372,0.023l0.583-0.562
	c0.386-0.37,0.396-0.987,0.024-1.372l-1.023-1.06c-0.372-0.385-0.987-0.396-1.372-0.024l-0.583,0.562
	C-49.145,245.214-49.155,245.831-48.782,246.216z"/>
<path fill="#464646" d="M-48.191,249.041c0.386-0.371,0.396-0.986,0.025-1.371l-1.024-1.062c-0.225-0.231-0.54-0.327-0.841-0.284
	c-0.228,0.793-0.503,1.632-0.837,2.51l0.723,0.745c0.371,0.385,0.987,0.396,1.372,0.024L-48.191,249.041z"/>
<path fill="#464646" d="M-50.577,251.346c0.385-0.371,0.396-0.986,0.024-1.372l-0.541-0.561c-0.342,0.854-0.738,1.742-1.196,2.653
	c0.361,0.192,0.82,0.142,1.13-0.158L-50.577,251.346z"/>
<path fill="#464646" d="M-52.679,252.813c-0.214,0.404-0.441,0.811-0.683,1.222l0.398-0.385
	C-52.73,253.425-52.636,253.112-52.679,252.813z"/>
<path fill="#464646" d="M-40.653,247.296c0.385-0.371,0.397-0.986,0.023-1.373l-0.928-0.961l-0.094-0.099
	c-0.374-0.385-0.99-0.395-1.375-0.022l-0.582,0.562c-0.385,0.371-0.396,0.986-0.023,1.373l1.023,1.058
	c0.372,0.385,0.988,0.396,1.372,0.024L-40.653,247.296z"/>
<path fill="#464646" d="M-43.039,249.601c0.385-0.372,0.396-0.987,0.022-1.373l-1.022-1.06c-0.372-0.385-0.988-0.395-1.373-0.024
	l-0.582,0.562c-0.385,0.373-0.396,0.988-0.023,1.375l1.022,1.058c0.373,0.385,0.988,0.396,1.374,0.024L-43.039,249.601z"/>
<path fill="#464646" d="M-45.426,251.905c0.385-0.372,0.396-0.987,0.023-1.374l-1.022-1.059c-0.372-0.385-0.988-0.396-1.373-0.023
	l-0.583,0.561c-0.385,0.374-0.395,0.989-0.024,1.374l1.024,1.06c0.372,0.385,0.987,0.395,1.373,0.024L-45.426,251.905z"/>
<path fill="#464646" d="M-47.812,254.208c0.386-0.37,0.396-0.985,0.023-1.372l-1.023-1.06c-0.371-0.385-0.987-0.395-1.372-0.024
	l-0.582,0.562c-0.386,0.374-0.396,0.987-0.024,1.374l1.023,1.059c0.371,0.386,0.986,0.396,1.372,0.025L-47.812,254.208z"/>
<path fill="#464646" d="M-50.198,256.514c0.386-0.371,0.396-0.988,0.024-1.373l-1.023-1.06c-0.372-0.385-0.987-0.396-1.373-0.024
	l-0.582,0.562c-0.385,0.372-0.396,0.988-0.024,1.373l1.023,1.06c0.372,0.385,0.987,0.395,1.373,0.023L-50.198,256.514z"/>
<path fill="#464646" d="M-52.584,258.816c0.385-0.37,0.396-0.986,0.023-1.371l-1.022-1.06c-0.307-0.317-0.778-0.38-1.15-0.185
	c-0.343,0.5-0.704,1.005-1.089,1.512c-0.002,0.005-0.002,0.005-0.007,0.01c0.022,0.208,0.109,0.413,0.267,0.573l1.023,1.061
	c0.372,0.385,0.987,0.395,1.372,0.023L-52.584,258.816z"/>
<path fill="#464646" d="M-54.971,261.121c0.385-0.371,0.396-0.986,0.025-1.372l-1.024-1.061c-0.113-0.117-0.251-0.2-0.397-0.247
	c-0.54,0.726-1.064,1.448-1.574,2.168l1.016,1.052c0.372,0.385,0.988,0.395,1.373,0.022L-54.971,261.121z"/>
<path fill="#464646" d="M-57.356,263.426c0.384-0.372,0.396-0.987,0.024-1.372l-0.94-0.976c-0.548,0.782-1.078,1.557-1.59,2.316
	l0.55,0.57c0.374,0.384,0.989,0.396,1.374,0.023L-57.356,263.426z"/>
<path fill="#464646" d="M-37.888,250.16c0.385-0.372,0.395-0.989,0.023-1.374l-0.095-0.097l-0.928-0.961
	c-0.372-0.387-0.988-0.396-1.373-0.024l-0.583,0.561c-0.386,0.372-0.397,0.989-0.023,1.374l1.022,1.061
	c0.37,0.384,0.989,0.395,1.372,0.023L-37.888,250.16z"/>
<path fill="#464646" d="M-40.274,252.465c0.385-0.372,0.395-0.989,0.024-1.374l-1.022-1.06c-0.374-0.385-0.989-0.395-1.375-0.024
	l-0.582,0.562c-0.385,0.373-0.396,0.988-0.023,1.374l1.022,1.059c0.372,0.385,0.988,0.396,1.373,0.025L-40.274,252.465z"/>
<path fill="#464646" d="M-42.661,254.769c0.387-0.371,0.397-0.988,0.024-1.373l-1.022-1.06c-0.374-0.387-0.989-0.396-1.373-0.022
	l-0.582,0.561c-0.386,0.373-0.396,0.987-0.024,1.373l1.022,1.06c0.373,0.385,0.988,0.396,1.373,0.024L-42.661,254.769z"/>
<path fill="#464646" d="M-45.047,257.071c0.385-0.37,0.396-0.986,0.023-1.371l-1.022-1.06c-0.373-0.387-0.988-0.396-1.373-0.023
	l-0.582,0.562c-0.385,0.37-0.396,0.987-0.023,1.372l1.022,1.06c0.372,0.383,0.988,0.396,1.373,0.022L-45.047,257.071z"/>
<path fill="#464646" d="M-47.434,259.378c0.386-0.374,0.397-0.988,0.023-1.374l-1.021-1.059c-0.373-0.387-0.987-0.396-1.373-0.023
	l-0.582,0.561c-0.386,0.372-0.396,0.987-0.024,1.374l1.023,1.06c0.37,0.385,0.987,0.396,1.372,0.024L-47.434,259.378z"/>
<path fill="#464646" d="M-50.896,262.498c0.132-0.06,0.265-0.117,0.396-0.173c0.033-0.024,0.067-0.051,0.099-0.082l0.583-0.562
	c0.385-0.372,0.396-0.988,0.023-1.372l-1.023-1.06c-0.371-0.386-0.987-0.396-1.371-0.026l-0.583,0.563
	c-0.386,0.373-0.396,0.988-0.024,1.375l1.023,1.059C-51.539,262.464-51.207,262.558-50.896,262.498z"/>
<path fill="#464646" d="M-51.954,262.995c-0.045-0.14-0.119-0.271-0.227-0.382l-1.023-1.061c-0.372-0.386-0.987-0.396-1.374-0.023
	l-0.582,0.561c-0.385,0.374-0.395,0.989-0.023,1.374l0.805,0.832C-53.562,263.825-52.752,263.387-51.954,262.995z"/>
<path fill="#464646" d="M-54.881,264.592l-0.709-0.735c-0.373-0.385-0.988-0.395-1.373-0.024l-0.582,0.562
	c-0.385,0.373-0.396,0.988-0.024,1.374l0.293,0.304C-56.476,265.558-55.676,265.061-54.881,264.592z"/>
<path fill="#464646" d="M-35.333,251.408l-0.79-0.817c-0.371-0.385-0.987-0.395-1.372-0.024l-0.582,0.562
	c-0.386,0.371-0.396,0.986-0.024,1.373l1.023,1.06c0.372,0.385,0.988,0.395,1.372,0.023l0.583-0.562
	c0.385-0.372,0.396-0.987,0.024-1.372L-35.333,251.408z"/>
<path fill="#464646" d="M-43.778,241.85l0.79,0.818l0.182,0.188c0.348,0.359,0.944,0.35,1.33-0.021l0.581-0.562
	c0.386-0.37,0.417-0.968,0.068-1.328l-0.738-0.765l-0.232-0.241c-0.349-0.359-0.944-0.351-1.33,0.021l-0.582,0.562
	C-44.096,240.893-44.127,241.488-43.778,241.85z"/>
<path fill="#464646" d="M-38.268,244.992c0.385-0.372,0.417-0.968,0.067-1.328l-0.877-0.908l-0.094-0.099
	c-0.35-0.359-0.945-0.35-1.33,0.021l-0.583,0.562c-0.385,0.373-0.416,0.969-0.067,1.329l0.928,0.962l0.044,0.046
	c0.349,0.36,0.945,0.349,1.331-0.022L-38.268,244.992z"/>
<path fill="#464646" d="M-38.457,245.962c-0.385,0.372-0.416,0.968-0.068,1.328l0.046,0.046l0.928,0.96
	c0.348,0.36,0.943,0.351,1.33-0.021l0.582-0.562c0.385-0.371,0.414-0.967,0.066-1.327l-0.096-0.099l-0.876-0.908
	c-0.349-0.36-0.944-0.35-1.329,0.021L-38.457,245.962z"/>
<path fill="#464646" d="M-33.179,248.863l-0.74-0.765c-0.347-0.36-0.943-0.351-1.33,0.02l-0.58,0.563
	c-0.388,0.371-0.417,0.967-0.069,1.328l0.183,0.188l0.79,0.819c0.348,0.358,0.944,0.349,1.33-0.021l0.581-0.562
	c0.385-0.373,0.417-0.967,0.067-1.327L-33.179,248.863z"/>
<path fill="#464646" d="M-41.158,239.786l0.737,0.765l0.183,0.188c0.324,0.336,0.901,0.307,1.286-0.065l0.583-0.562
	c0.384-0.372,0.434-0.947,0.109-1.283l-0.688-0.712l-0.232-0.242c-0.324-0.335-0.901-0.306-1.286,0.067l-0.582,0.562
	C-41.433,238.876-41.482,239.45-41.158,239.786z"/>
<path fill="#464646" d="M-35.883,242.688c0.387-0.372,0.437-0.947,0.113-1.281l-0.827-0.857l-0.094-0.097
	c-0.325-0.336-0.901-0.307-1.286,0.065l-0.582,0.562c-0.387,0.372-0.436,0.947-0.112,1.283l0.878,0.908l0.044,0.046
	c0.323,0.335,0.899,0.304,1.284-0.067L-35.883,242.688z"/>
<path fill="#464646" d="M-36.07,243.658c-0.386,0.371-0.436,0.947-0.111,1.282l0.043,0.045l0.877,0.908
	c0.325,0.335,0.902,0.306,1.286-0.066l0.583-0.562c0.386-0.372,0.436-0.947,0.109-1.283l-0.093-0.097l-0.828-0.857
	c-0.322-0.335-0.898-0.304-1.283,0.067L-36.07,243.658z"/>
<path fill="#464646" d="M-31.026,246.317l-0.688-0.711c-0.325-0.337-0.902-0.306-1.286,0.066l-0.582,0.562
	c-0.386,0.37-0.436,0.945-0.111,1.281l0.182,0.189l0.739,0.765c0.324,0.336,0.901,0.306,1.286-0.065l0.582-0.563
	c0.385-0.373,0.435-0.947,0.111-1.282L-31.026,246.317z"/>
<path fill="#464646" d="M-38.539,237.723l0.687,0.713l0.183,0.188c0.299,0.312,0.823,0.292,1.17-0.041l0.535-0.518
	c0.345-0.333,0.382-0.857,0.082-1.168l-0.637-0.66l-0.232-0.241c-0.3-0.312-0.825-0.291-1.169,0.043l-0.536,0.517
	C-38.803,236.889-38.839,237.412-38.539,237.723z"/>
<path fill="#464646" d="M-33.614,240.5c0.344-0.334,0.383-0.857,0.082-1.168l-0.774-0.803l-0.096-0.099
	c-0.3-0.31-0.824-0.291-1.17,0.041l-0.535,0.518c-0.346,0.333-0.382,0.857-0.082,1.167l0.826,0.856l0.043,0.045
	c0.3,0.311,0.824,0.291,1.169-0.042L-33.614,240.5z"/>
<path fill="#464646" d="M-33.757,241.422c-0.345,0.336-0.382,0.859-0.083,1.17l0.044,0.045l0.826,0.854
	c0.3,0.312,0.824,0.292,1.17-0.041l0.536-0.517c0.344-0.335,0.381-0.858,0.081-1.169l-0.095-0.099l-0.774-0.801
	c-0.299-0.312-0.824-0.292-1.169,0.041L-33.757,241.422z"/>
<path fill="#464646" d="M-29.064,243.957l-0.639-0.659c-0.299-0.31-0.823-0.291-1.169,0.041l-0.535,0.518
	c-0.345,0.334-0.381,0.857-0.083,1.168l0.183,0.189l0.688,0.711c0.301,0.311,0.826,0.292,1.171-0.04l0.535-0.518
	c0.346-0.333,0.383-0.859,0.082-1.168L-29.064,243.957z"/>
<path fill="#464646" d="M-36.113,235.845l0.637,0.659l0.183,0.189c0.275,0.284,0.772,0.255,1.104-0.067l0.523-0.503
	c0.334-0.324,0.381-0.819,0.104-1.104l-0.816-0.849c-0.277-0.286-0.772-0.255-1.106,0.067l-0.522,0.505
	C-36.342,235.063-36.388,235.56-36.113,235.845z"/>
<path fill="#464646" d="M-31.454,238.412c0.334-0.322,0.382-0.817,0.105-1.104l-0.818-0.848c-0.276-0.286-0.771-0.256-1.105,0.068
	l-0.523,0.503c-0.333,0.324-0.381,0.817-0.104,1.104l0.774,0.803l0.044,0.045c0.274,0.284,0.771,0.255,1.105-0.066L-31.454,238.412z
	"/>
<path fill="#464646" d="M-31.583,239.325c-0.333,0.32-0.382,0.815-0.105,1.102l0.044,0.045l0.774,0.803
	c0.276,0.286,0.772,0.257,1.106-0.067l0.523-0.504c0.334-0.322,0.38-0.817,0.104-1.104l-0.817-0.847
	c-0.275-0.286-0.772-0.257-1.106,0.065L-31.583,239.325z"/>
<path fill="#464646" d="M-27.742,241.042c-0.275-0.284-0.772-0.255-1.107,0.067l-0.521,0.506c-0.334,0.322-0.384,0.815-0.105,1.102
	l0.18,0.188l0.638,0.66c0.276,0.286,0.771,0.256,1.106-0.066l0.522-0.505c0.333-0.322,0.381-0.817,0.104-1.102L-27.742,241.042z"/>
<path fill="#464646" d="M-33.508,234.086l0.734,0.764c0.238,0.243,0.645,0.236,0.908-0.019l0.438-0.423
	c0.263-0.255,0.285-0.661,0.046-0.906l-0.733-0.761c-0.236-0.245-0.644-0.239-0.908,0.016l-0.438,0.425
	C-33.726,233.435-33.745,233.843-33.508,234.086z"/>
<path fill="#464646" d="M-29.438,236.468c0.261-0.257,0.284-0.661,0.047-0.906l-0.736-0.763c-0.237-0.245-0.645-0.239-0.905,0.016
	l-0.442,0.425c-0.263,0.253-0.283,0.661-0.047,0.904l0.735,0.764c0.237,0.245,0.646,0.238,0.907-0.017L-29.438,236.468z"/>
<path fill="#464646" d="M-28.797,238.965c0.236,0.245,0.643,0.238,0.907-0.015l0.438-0.425c0.264-0.255,0.284-0.661,0.047-0.906
	l-0.735-0.762c-0.236-0.246-0.642-0.238-0.905,0.017l-0.439,0.425c-0.264,0.253-0.286,0.659-0.048,0.906L-28.797,238.965z"/>
<path fill="#464646" d="M-27.058,238.932l-0.439,0.425c-0.264,0.253-0.286,0.659-0.048,0.906l0.735,0.762
	c0.237,0.245,0.644,0.236,0.908-0.017l0.438-0.425c0.264-0.255,0.285-0.661,0.047-0.906l-0.734-0.76
	C-26.389,238.671-26.795,238.679-27.058,238.932z"/>
<path fill="#464646" d="M-31.033,232.859l0.605,0.628c0.173,0.18,0.521,0.137,0.759-0.094l0.414-0.399
	c0.24-0.23,0.294-0.577,0.12-0.757l-0.605-0.625c-0.172-0.181-0.521-0.138-0.758,0.092l-0.416,0.401
	C-31.151,232.336-31.208,232.682-31.033,232.859z"/>
<path fill="#464646" d="M-29.397,234.555l0.606,0.629c0.173,0.179,0.521,0.135,0.759-0.096l0.415-0.399
	c0.237-0.23,0.293-0.576,0.119-0.755l-0.605-0.627c-0.173-0.18-0.52-0.137-0.759,0.094l-0.414,0.399
	C-29.516,234.03-29.57,234.376-29.397,234.555z"/>
<path fill="#464646" d="M-27.76,236.251l0.605,0.627c0.174,0.179,0.521,0.135,0.758-0.094l0.416-0.401
	c0.238-0.23,0.293-0.574,0.12-0.754l-0.606-0.628c-0.172-0.18-0.519-0.135-0.757,0.095l-0.416,0.4
	C-27.878,235.727-27.932,236.07-27.76,236.251z"/>
<path fill="#464646" d="M-25.587,236.79l-0.415,0.4c-0.238,0.231-0.293,0.577-0.121,0.755l0.607,0.628
	c0.172,0.18,0.519,0.137,0.757-0.094l0.415-0.401c0.239-0.229,0.294-0.574,0.12-0.755l-0.605-0.627
	C-25.001,236.519-25.348,236.561-25.587,236.79z"/>
<path fill="#464646" d="M-28.651,231.703l0.481,0.496c0.117,0.122,0.325,0.11,0.465-0.024l0.295-0.284
	c0.139-0.135,0.157-0.343,0.041-0.464l-0.481-0.499c-0.117-0.12-0.325-0.108-0.464,0.026l-0.295,0.285
	C-28.75,231.372-28.767,231.581-28.651,231.703z"/>
<path fill="#464646" d="M-27.352,233.047l0.479,0.496c0.118,0.122,0.327,0.11,0.465-0.024l0.296-0.284
	c0.139-0.135,0.157-0.343,0.04-0.464l-0.479-0.497c-0.118-0.121-0.327-0.11-0.465,0.024l-0.295,0.285
	C-27.451,232.718-27.47,232.925-27.352,233.047z"/>
<path fill="#464646" d="M-26.055,234.391l0.479,0.495c0.118,0.123,0.327,0.111,0.466-0.023l0.294-0.284
	c0.141-0.134,0.158-0.342,0.042-0.464l-0.479-0.497c-0.118-0.121-0.327-0.11-0.468,0.025l-0.293,0.284
	C-26.153,234.062-26.171,234.269-26.055,234.391z"/>
<path fill="#464646" d="M-24.756,235.734l0.479,0.498c0.117,0.122,0.326,0.109,0.466-0.026l0.294-0.284
	c0.14-0.133,0.158-0.342,0.04-0.464l-0.479-0.497c-0.118-0.12-0.327-0.109-0.466,0.025l-0.295,0.282
	C-24.855,235.405-24.873,235.614-24.756,235.734z"/>
<path fill="#464646" d="M-37.509,255.328c0.383-0.373,0.395-0.99,0.023-1.375l-1.024-1.058c-0.371-0.385-0.986-0.396-1.371-0.024
	l-0.583,0.563c-0.385,0.37-0.396,0.987-0.023,1.372l1.023,1.06c0.371,0.385,0.985,0.395,1.371,0.024L-37.509,255.328z"/>
<path fill="#464646" d="M-39.896,257.631c0.386-0.372,0.396-0.987,0.024-1.372l-1.024-1.059c-0.371-0.386-0.987-0.398-1.372-0.025
	l-0.583,0.562c-0.385,0.372-0.395,0.989-0.023,1.372l1.024,1.062c0.37,0.385,0.984,0.395,1.372,0.024L-39.896,257.631z"/>
<path fill="#464646" d="M-45.668,259.807c-0.37-0.383-0.986-0.395-1.372-0.022l-0.583,0.562c-0.291,0.281-0.367,0.7-0.227,1.056
	c1.176-0.306,2.296-0.44,3.343-0.354c-0.037-0.064-0.084-0.125-0.136-0.183L-45.668,259.807z"/>
<path fill="#464646" d="M-59.742,265.73c0.385-0.372,0.396-0.989,0.023-1.372l-0.465-0.481c-0.537,0.808-1.052,1.597-1.542,2.361
	l0.027,0.031c0.374,0.384,0.989,0.395,1.375,0.023L-59.742,265.73z"/>
<path fill="#464646" d="M-58.201,266.675c0.146-0.098,0.294-0.194,0.441-0.29l-0.217-0.224c-0.373-0.385-0.986-0.396-1.371-0.024
	l-0.584,0.562c-0.331,0.32-0.385,0.82-0.156,1.199C-59.484,267.514-58.862,267.108-58.201,266.675z"/>
<path fill="#464646" d="M-62.042,266.733c-0.472,0.74-0.919,1.454-1.342,2.136c0.243,0,0.485-0.093,0.673-0.271l0.582-0.562
	C-61.767,267.686-61.736,267.118-62.042,266.733z"/>
<path fill="#464646" d="M-61.735,268.441l-0.583,0.562c-0.128,0.125-0.214,0.274-0.258,0.433c0.645-0.384,1.275-0.771,1.92-1.178
	C-61.009,268.098-61.439,268.156-61.735,268.441z"/>
<path fill="#464646" d="M-49.677,240.486c-0.186,2.812-1.229,9.566-6.709,16.801c-3.891,5.137-7.068,10.316-9.23,13.871
	c-0.969,0.521-2.029,1.074-3.239,1.685l-1.579-1.635c-0.021-0.088-0.042-0.173-0.063-0.264c-0.777-3.545,0.69-7.461,4.243-11.326
	c1.821-1.98,3.566-3.802,5.254-5.562c0,0,8.896-8.66,10.857-17.929C-50.142,236.128-49.616,237.588-49.677,240.486z"/>
<path fill="#464646" d="M-73.848,274.357c0.432,0.446,4.954,5.129,5.385,5.576c0.398-0.387,2.434-2.351,2.831-2.735
	c-0.431-0.447-4.953-5.13-5.384-5.576C-71.415,272.007-73.448,273.971-73.848,274.357z"/>
<path fill="#464646" d="M-44.743,262.822l-0.033,0.022c0.216,0.252,0.387,0.475,0.496,0.631
	C-44.424,263.258-44.577,263.039-44.743,262.822z"/>
<path fill="#464646" d="M-45.26,259.414l1.023,1.061c0.37,0.385,0.987,0.396,1.372,0.021l0.582-0.559
	c0.386-0.374,0.396-0.99,0.025-1.376l-1.023-1.059c-0.372-0.384-0.989-0.396-1.373-0.023l-0.584,0.562
	C-45.62,258.414-45.632,259.029-45.26,259.414z"/>
<path fill="#464646" d="M-46.884,261.94c-3.27,0.604-7.085,2.798-10.929,5.324c-3.526,2.319-5.976,3.807-10.528,6.111l3.264,3.378
	c0.431,0.117,0.855,0.178,1.277,0.163h0.009h0.009c4.284,0.075,8.149-3.093,11.556-5.886c1.038-0.85,2.018-1.651,2.986-2.355
	c2.589-1.875,4.637-3.163,5.151-3.481c-0.217-0.43-0.473-0.867-0.769-1.31C-45.204,263.358-45.974,262.443-46.884,261.94z"/>
<path fill="#464646" d="M-39.353,268.405c0.284-1.668-0.039-3.366-1.698-4.996c-1.317-1.296-2.949-1.747-4.785-1.606
	c0.411,0.332,0.946,0.885,0.946,0.885c0.429,0.472,0.756,1.005,0.756,1.005c2.568,3.995,1.797,7.605,1.174,9.298
	c0.642-0.395,1.217-0.832,1.704-1.306C-40.188,270.655-39.562,269.644-39.353,268.405z"/>
<path fill="#F9B233" d="M13.951,330.861l25.579-24.553c0,0,9.024-0.355,14.144,2.906c5.215,3.321,8.119,10.593,8.119,10.593
	L13.951,330.861z"/>
<path fill="#FFEC83" stroke="#F9B233" stroke-width="3" stroke-linecap="round" stroke-linejoin="round" stroke-miterlimit="10" d="
	M60.409,320.582c0,0,2.669,9.979,2.669,12.737c0,6.433-2.888,12.325-2.888,12.325l-44.69,3.937v-7.736c0,0,3.992-0.919,3.992-3.738
	c0-3.476-4.992-2.59-4.992-2.59v-4.493L60.409,320.582z"/>
<circle fill="#F9B233" cx="40.474" cy="327.517" r="3.934"/>
<circle fill="#F9B233" cx="54.307" cy="330.071" r="3.935"/>
<circle fill="#F9B233" cx="31.951" cy="333.812" r="2.361"/>
<circle fill="#F9B233" cx="24.212" cy="343.384" r="2.361"/>
<circle fill="#F9B233" cx="34.638" cy="342.008" r="3.344"/>
<circle fill="#F9B233" cx="49.458" cy="340.042" r="2.688"/>
<path fill="#464646" d="M-75.456,332.861l25.58-24.553c0,0,9.024-0.355,14.145,2.906c5.213,3.321,8.118,10.593,8.118,10.593
	L-75.456,332.861z"/>
<path fill="#FFFFFF" stroke="#464646" stroke-width="3" stroke-linecap="round" stroke-linejoin="round" stroke-miterlimit="10" d="
	M-28.794,322.582c0,0,2.567,9.979,2.567,12.737c0,6.433-2.735,12.325-2.735,12.325l-44.538,3.937v-7.736
	c0,0,3.991-0.919,3.991-3.738c0-3.476-4.991-2.59-4.991-2.59v-4.493L-28.794,322.582z"/>
<circle fill="#464646" cx="-48.933" cy="329.517" r="3.935"/>
<circle fill="#464646" cx="-35.099" cy="332.071" r="3.934"/>
<circle fill="#464646" cx="-57.456" cy="335.812" r="2.361"/>
<circle fill="#464646" cx="-65.194" cy="345.384" r="2.361"/>
<circle fill="#464646" cx="-54.768" cy="344.008" r="3.344"/>
<circle fill="#464646" cx="-39.948" cy="342.042" r="2.688"/>
<g>
	<path fill="#007FAA" d="M54.531,392.17l-0.254-4.738c-0.002-0.067-0.032-0.131-0.082-0.179l-4.313-4.091l-0.361-4.44
		c-0.006-0.108-0.079-0.2-0.181-0.232l-15.415-4.829c-0.08-0.026-0.168-0.01-0.235,0.04c-0.067,0.049-0.107,0.127-0.107,0.213v5.005
		l-8.294,8.013l-0.104,0.051c-0.077,0.037-0.13,0.109-0.145,0.189l-0.428,0.414c-0.053,0.051-0.081,0.121-0.081,0.194l0.631,41.349
		c0.001,0.116,0.077,0.217,0.188,0.249l13.139,3.881l1.234,0.365l1.159-0.412l14.745-5.13c0.107-0.039,0.18-0.146,0.176-0.259
		L54.531,392.17z"/>
	<polygon fill="#EDE6E2" points="39.729,432.404 54.316,427.214 53.386,392.203 53.291,387.872 39.326,384.177 39.326,384.157 
		53.291,387.872 48.773,383.697 48.43,379.404 34.729,375.112 34.729,379.404 25.952,387.883 25.684,388.013 25.877,387.955 
		25.684,388.145 25.894,402.077 26.296,428.462 39.628,432.4 39.688,432.417 39.729,432.431 	"/>
	<polygon fill="#88CEE5" points="25.684,388.145 26.296,428.462 39.729,432.431 39.326,384.157 	"/>
	<polygon fill="#C9E8F8" points="39.276,384.168 53.271,387.872 54.316,427.214 39.729,432.431 	"/>
	<polygon fill="#009BCA" points="39.326,384.157 34.729,379.404 48.773,383.697 53.291,387.872 	"/>
	<g>
		<rect x="34.729" y="379.404" fill="none" width="18.562" height="8.468"/>
	</g>
	<polygon fill="#C0BBB8" points="25.684,388.145 34.729,379.404 34.729,383.774 	"/>
	<polygon fill="#009BCA" points="25.684,388.145 34.729,379.404 34.729,383.774 	"/>
	<polygon fill="#88CEE5" points="34.729,383.774 39.326,384.157 34.729,379.404 	"/>
	<polygon fill="#C9E8F8" points="25.684,388.145 34.729,383.774 39.326,384.157 	"/>
	<g>
		<rect x="25.684" y="383.643" fill="none" width="13.643" height="4.37"/>
	</g>
	<polygon fill="#C9E8F8" points="34.729,379.404 34.729,375.112 48.43,379.404 48.773,383.697 	"/>
	<path fill="#88CEE5" d="M39.294,384.168l0.223,33.188c0.544-0.335,0.615-0.935,0.846-1.521c1.351-3.452,6.682-3.519,7.482-7.494
		c0.684-3.384-1.203-7.12-1.364-10.474c-0.185-3.859,2.168-5.482,5.831-5.653c0.367-0.019,0.696-0.007,1.074,0.001l-0.095-4.342
		L39.294,384.168z"/>
	<path fill="#009BCA" d="M25.684,388.145l0.21,13.933c0.894-0.023,1.783-0.131,2.643-0.298c2.124-0.408,4.325-1.432,5.946,0.649
		c0.746,0.957,0.866,3.108,0.493,4.36c-0.436,1.463-1.729,2.586-2.355,3.943c-0.863,1.868-0.91,3.98-0.417,5.968
		c0.454,1.837,1.917,3.828,4.052,3.57c2.008-0.245,2.003-2.02,3.347-2.979l-0.275-33.134L25.684,388.145z"/>
	<g>
		<rect x="25.684" y="384.157" fill="none" width="13.853" height="36.135"/>
	</g>
	<path fill="#EDE6E2" d="M46.697,385.252c-0.35,0.438-1.246,0.303-2.004-0.301c-0.759-0.605-1.09-1.45-0.737-1.889
		c0.349-0.438,1.246-0.303,2.005,0.302C46.717,383.969,47.046,384.814,46.697,385.252"/>
	<polygon fill="#EDE6E2" points="43.898,383.147 44.423,382.455 45.327,383.282 44.613,384.329 	"/>
	<polygon fill="#EDE6E2" points="46.697,385.252 47.198,384.565 45.924,384.059 45.569,385.054 	"/>
	<path fill="#88CEE5" d="M46.697,385.252c-0.35,0.438-1.246,0.303-2.004-0.301c-0.759-0.605-1.09-1.45-0.737-1.889
		c0.349-0.438,1.246-0.303,2.005,0.302C46.717,383.969,47.046,384.814,46.697,385.252"/>
	<polygon fill="#88CEE5" points="43.898,383.147 44.423,382.455 45.327,383.282 44.613,384.329 	"/>
	<polygon fill="#88CEE5" points="46.697,385.252 47.198,384.565 45.924,384.059 45.569,385.054 	"/>
	<path fill="#C9E8F8" d="M47.198,384.565c-0.351,0.438-1.248,0.303-2.005-0.3c-0.758-0.606-1.089-1.45-0.738-1.889
		c0.348-0.438,1.246-0.303,2.004,0.3C47.218,383.282,47.546,384.127,47.198,384.565"/>
	<path fill="#C9E8F8" d="M44.231,391.584c-1.938,0.679-1.525,2.993,0.31,3.356c1.766,0.349,2.118-2.255,1.321-3.132
		C45.666,391.595,44.654,391.438,44.231,391.584"/>
	<path fill="#C9E8F8" d="M43.879,404.933c-2.473,0.865-1.944,3.812,0.394,4.273c2.251,0.446,2.702-2.871,1.687-3.986
		C45.709,404.947,44.416,404.745,43.879,404.933"/>
	<path fill="#C9E8F8" d="M47.108,389.683c-0.961,0.338-0.759,1.484,0.152,1.665c0.874,0.172,1.053-1.118,0.655-1.552
		C47.819,389.688,47.316,389.61,47.108,389.683"/>
	<path fill="#009BCA" d="M31.186,403.598c-1.938-0.867-2.704,3.381-0.704,3.771c0.768,0.15,1.574-0.448,1.876-1.133
		c0.34-0.767,0.031-1.381-0.203-1.847C32.015,404.111,31.473,403.725,31.186,403.598"/>
	<g>
		<rect x="29.307" y="403.48" fill="none" width="3.202" height="3.913"/>
	</g>
	<path fill="#C0BBB8" d="M39.721,431.393c-0.069,0.331-0.132,0.658-0.179,0.981l0.187,0.057L39.721,431.393z"/>
	<path fill="#009BCA" d="M39.648,422.881c-0.032-0.05-0.067-0.098-0.104-0.148c-0.666,0.675-1.104,1.483-1.57,2.324
		c-0.257,0.464-0.449,1.067-0.973,1.307c-0.47,0.215-1.069-0.069-1.521,0.215c-1.519,0.954-0.223,3.02-0.146,4.554l4.394,1.299
		c0-0.373,0-0.597-0.008-1.038L39.648,422.881z"/>
	<g>
		<rect x="34.746" y="422.732" fill="none" width="4.982" height="9.698"/>
	</g>
	<polygon fill="#009BCA" points="52.453,426.044 41.138,429.892 41.138,424.724 52.453,421.077 	"/>
	<polygon fill="#C9E8F8" stroke="#E9F1F4" stroke-width="0.6955" points="51.398,423.098 41.727,426.396 41.727,425.634 
		51.398,422.399 	"/>
	<polygon fill="#C9E8F8" stroke="#E9F1F4" stroke-width="0.6955" points="51.398,424.283 41.727,427.58 41.727,426.819 
		51.398,423.587 	"/>
	<polygon fill="#C9E8F8" stroke="#E9F1F4" stroke-width="0.6955" points="48.99,426.281 41.727,428.765 41.727,428.005 
		48.99,425.583 	"/>
	<path fill="#009BCA" d="M46.24,422.525c-0.007,0.003-0.009,0.007-0.016,0.012c0-0.003,0-0.006-0.004-0.009
		c-0.036-0.055-0.056-0.12-0.077-0.184c-0.052-0.162-0.08-0.339-0.104-0.509c-0.006-0.066-0.015-0.135-0.02-0.204
		c-0.011-0.217-0.025-0.434-0.027-0.641c-0.005-0.341-0.528-0.342-0.528,0c0,0.167,0.006,0.508,0.051,0.865
		c0.014,0.35-0.011,0.696-0.154,0.987c-0.197-0.57-0.104-1.231-0.505-1.747c-0.05-0.066-0.179-0.097-0.256-0.067
		c-0.271,0.101-0.451,0.268-0.571,0.47c-0.116-0.145-0.277-0.222-0.496-0.181c-0.245,0.047-0.41,0.184-0.522,0.377
		c-0.032-0.053-0.068-0.103-0.109-0.15c-0.258-0.304-0.698-0.237-0.947,0.022c-0.299,0.312-0.387,0.829-0.478,1.233
		c-0.072,0.331,0.437,0.473,0.51,0.139c0.064-0.28,0.127-0.569,0.247-0.835c0.188-0.411,0.363-0.121,0.434,0.17
		c0.129,0.514,0.097,1.069,0.093,1.595c0,0.35,0.492,0.33,0.53,0c0.034-0.31,0.023-0.626,0.034-0.936
		c0.016-0.306,0-0.79,0.209-1.044c0.084-0.098,0.095-0.039,0.138,0.067c0.058,0.147,0.086,0.315,0.104,0.472
		c0.014,0.11,0.021,0.224,0.028,0.335c0.004,0.2,0.013,0.396,0.015,0.576c0.003,0.342,0.529,0.342,0.526,0
		c0-0.196,0.011-0.576-0.032-0.954c0.016-0.306,0.084-0.59,0.273-0.754c0.29,0.552,0.12,1.299,0.503,1.843
		c0.101,0.143,0.281,0.175,0.414,0.053c0.188-0.169,0.306-0.362,0.387-0.569c0.148,0.149,0.349,0.186,0.619,0.023
		C46.799,422.806,46.534,422.35,46.24,422.525"/>
	<path fill="#009BCA" d="M46.231,419.4c-0.068-0.25-0.2-0.491-0.447-0.594c-0.337-0.14-0.543,0.273-0.605,0.526
		c-0.082,0.332,0.43,0.473,0.512,0.143c0-0.007,0.002-0.011,0.002-0.017c0.013,0.031,0.023,0.062,0.032,0.095
		c0.006,0.029,0.013,0.058,0.02,0.086c0,0.016,0.006,0.083,0.006,0.104c0,0.016-0.002,0.032-0.002,0.049
		c0,0.005-0.002,0.007-0.004,0.012c-0.003,0.01-0.007,0.021-0.009,0.032c-0.009,0-0.02,0-0.028-0.001
		c-0.017-0.005-0.036-0.009-0.056-0.015c-0.021-0.007-0.045-0.014-0.068-0.021c-0.003-0.006-0.062-0.031-0.073-0.038
		c-0.303-0.154-0.571,0.301-0.269,0.458c0.31,0.159,0.689,0.237,0.928-0.077C46.319,419.939,46.292,419.63,46.231,419.4"/>
	<path fill="#009BCA" d="M47.882,422.096c-0.161,0.499-0.522,0.331-0.72-0.046c-0.052-0.1-0.086-0.211-0.116-0.325
		c0.036-0.004,0.073-0.015,0.109-0.036c0.634-0.36,0.73-1.369,0.709-2.019c-0.02-0.538-0.399-1.345-0.976-0.708
		c-0.643,0.711-0.539,1.936-0.365,2.803c0.095,0.479,0.327,0.915,0.78,1.137c0.539,0.261,0.937-0.196,1.089-0.665
		C48.498,421.909,47.986,421.771,47.882,422.096 M47.263,419.336c0.007-0.009,0.013-0.016,0.02-0.021
		c0.006,0.022,0.013,0.046,0.015,0.061c0.056,0.211,0.045,0.439,0.034,0.654c-0.017,0.33-0.079,0.9-0.365,1.147
		c-0.002-0.031-0.006-0.062-0.008-0.094C46.908,420.517,46.889,419.806,47.263,419.336"/>
	<path fill="#009BCA" d="M50.978,420.391c-0.052-0.335-0.561-0.191-0.51,0.142c0.024,0.159,0.123,0.835-0.097,0.913
		c-0.233,0.087-0.41-0.434-0.473-0.568c-0.126-0.285-0.303-0.433-0.502-0.461c0.167-0.317,0.362-0.616,0.573-0.885
		c0.208-0.265-0.165-0.642-0.374-0.374c-0.301,0.385-0.58,0.817-0.795,1.279c-0.002-0.443,0.011-0.886,0.013-1.326
		c0-0.341-0.53-0.341-0.53,0c-0.002,0.634-0.12,1.689,0.129,3.126c0.05,0.296,0.526,0.223,0.52-0.07
		c-0.013-0.384,0.064-0.771,0.196-1.142c0.09-0.086,0.158-0.162,0.236-0.04c0.075,0.123,0.124,0.264,0.187,0.394
		c0.138,0.3,0.372,0.518,0.702,0.585C51.096,422.133,51.053,420.889,50.978,420.391"/>
	<path fill="#009BCA" d="M51.768,418.763c-0.566,0-0.566,0.882,0,0.882C52.337,419.645,52.337,418.763,51.768,418.763"/>
</g>
<g>
	<path fill="#007FAA" d="M-37.469,392.17l-0.254-4.738c-0.002-0.067-0.032-0.131-0.082-0.179l-4.313-4.091l-0.361-4.44
		c-0.006-0.108-0.079-0.2-0.181-0.232l-15.415-4.829c-0.08-0.026-0.168-0.01-0.235,0.04c-0.067,0.049-0.107,0.127-0.107,0.213v5.005
		l-8.294,8.013l-0.104,0.051c-0.077,0.037-0.13,0.109-0.145,0.189l-0.428,0.414c-0.053,0.051-0.081,0.121-0.081,0.194l0.631,41.349
		c0.001,0.116,0.077,0.217,0.188,0.249l13.139,3.881l1.234,0.365l1.159-0.412l14.745-5.13c0.107-0.039,0.18-0.146,0.176-0.259
		L-37.469,392.17z"/>
	<polygon fill="#EDE6E2" points="-52.271,432.404 -37.684,427.214 -38.614,392.203 -38.709,387.872 -52.674,384.177 
		-52.674,384.157 -38.709,387.872 -43.227,383.697 -43.57,379.404 -57.271,375.112 -57.271,379.404 -66.048,387.883 
		-66.316,388.013 -66.123,387.955 -66.316,388.145 -66.106,402.077 -65.704,428.462 -52.372,432.4 -52.312,432.417 -52.271,432.431 
			"/>
	<polygon fill="#88CEE5" points="-66.316,388.145 -65.704,428.462 -52.271,432.431 -52.674,384.157 	"/>
	<polygon fill="#C9E8F8" points="-52.724,384.168 -38.729,387.872 -37.684,427.214 -52.271,432.431 	"/>
	<polygon fill="#009BCA" points="-52.674,384.157 -57.271,379.404 -43.227,383.697 -38.709,387.872 	"/>
	<g>
		<rect x="-57.271" y="379.404" fill="none" width="18.562" height="8.468"/>
	</g>
	<polygon fill="#C0BBB8" points="-66.316,388.145 -57.271,379.404 -57.271,383.774 	"/>
	<polygon fill="#009BCA" points="-66.316,388.145 -57.271,379.404 -57.271,383.774 	"/>
	<polygon fill="#88CEE5" points="-57.271,383.774 -52.674,384.157 -57.271,379.404 	"/>
	<polygon fill="#C9E8F8" points="-66.316,388.145 -57.271,383.774 -52.674,384.157 	"/>
	<g>
		<rect x="-66.316" y="383.643" fill="none" width="13.643" height="4.37"/>
	</g>
	<polygon fill="#C9E8F8" points="-57.271,379.404 -57.271,375.112 -43.57,379.404 -43.227,383.697 	"/>
	<path fill="#88CEE5" d="M-52.706,384.168l0.223,33.188c0.544-0.335,0.615-0.935,0.846-1.521c1.351-3.452,6.682-3.519,7.482-7.494
		c0.684-3.384-1.203-7.12-1.364-10.474c-0.185-3.859,2.168-5.482,5.831-5.653c0.367-0.019,0.696-0.007,1.074,0.001l-0.095-4.342
		L-52.706,384.168z"/>
	<path fill="#009BCA" d="M-66.316,388.145l0.21,13.933c0.894-0.023,1.783-0.131,2.643-0.298c2.124-0.408,4.325-1.432,5.946,0.649
		c0.746,0.957,0.866,3.108,0.493,4.36c-0.436,1.463-1.729,2.586-2.355,3.943c-0.863,1.868-0.91,3.98-0.417,5.968
		c0.454,1.837,1.917,3.828,4.052,3.57c2.008-0.245,2.003-2.02,3.347-2.979l-0.275-33.134L-66.316,388.145z"/>
	<g>
		<rect x="-66.316" y="384.157" fill="none" width="13.853" height="36.135"/>
	</g>
	<path fill="#EDE6E2" d="M-45.303,385.252c-0.35,0.438-1.246,0.303-2.004-0.301c-0.759-0.605-1.09-1.45-0.737-1.889
		c0.349-0.438,1.246-0.303,2.005,0.302C-45.283,383.969-44.954,384.814-45.303,385.252"/>
	<polygon fill="#EDE6E2" points="-48.102,383.147 -47.577,382.455 -46.673,383.282 -47.387,384.329 	"/>
	<polygon fill="#EDE6E2" points="-45.303,385.252 -44.802,384.565 -46.076,384.059 -46.431,385.054 	"/>
	<path fill="#88CEE5" d="M-45.303,385.252c-0.35,0.438-1.246,0.303-2.004-0.301c-0.759-0.605-1.09-1.45-0.737-1.889
		c0.349-0.438,1.246-0.303,2.005,0.302C-45.283,383.969-44.954,384.814-45.303,385.252"/>
	<polygon fill="#88CEE5" points="-48.102,383.147 -47.577,382.455 -46.673,383.282 -47.387,384.329 	"/>
	<polygon fill="#88CEE5" points="-45.303,385.252 -44.802,384.565 -46.076,384.059 -46.431,385.054 	"/>
	<path fill="#C9E8F8" d="M-44.802,384.565c-0.351,0.438-1.248,0.303-2.005-0.3c-0.758-0.606-1.089-1.45-0.738-1.889
		c0.348-0.438,1.246-0.303,2.004,0.3C-44.782,383.282-44.454,384.127-44.802,384.565"/>
	<path fill="#C9E8F8" d="M-47.769,391.584c-1.938,0.679-1.525,2.993,0.31,3.356c1.766,0.349,2.118-2.255,1.321-3.132
		C-46.334,391.595-47.346,391.438-47.769,391.584"/>
	<path fill="#C9E8F8" d="M-48.121,404.933c-2.473,0.865-1.944,3.812,0.394,4.273c2.251,0.446,2.702-2.871,1.687-3.986
		C-46.291,404.947-47.584,404.745-48.121,404.933"/>
	<path fill="#C9E8F8" d="M-44.892,389.683c-0.961,0.338-0.759,1.484,0.152,1.665c0.874,0.172,1.053-1.118,0.655-1.552
		C-44.181,389.688-44.684,389.61-44.892,389.683"/>
	<path fill="#009BCA" d="M-60.814,403.598c-1.938-0.867-2.704,3.381-0.704,3.771c0.768,0.15,1.574-0.448,1.876-1.133
		c0.34-0.767,0.031-1.381-0.203-1.847C-59.985,404.111-60.527,403.725-60.814,403.598"/>
	<g>
		<rect x="-62.693" y="403.48" fill="none" width="3.202" height="3.913"/>
	</g>
	<path fill="#C0BBB8" d="M-52.279,431.393c-0.069,0.331-0.132,0.658-0.179,0.981l0.187,0.057L-52.279,431.393z"/>
	<path fill="#009BCA" d="M-52.352,422.881c-0.032-0.05-0.067-0.098-0.104-0.148c-0.666,0.675-1.104,1.483-1.57,2.324
		c-0.257,0.464-0.449,1.067-0.973,1.307c-0.47,0.215-1.069-0.069-1.521,0.215c-1.519,0.954-0.223,3.02-0.146,4.554l4.394,1.299
		c0-0.373,0-0.597-0.008-1.038L-52.352,422.881z"/>
	<g>
		<rect x="-57.254" y="422.732" fill="none" width="4.982" height="9.698"/>
	</g>
	<polygon fill="#009BCA" points="-39.547,426.044 -50.862,429.892 -50.862,424.724 -39.547,421.077 	"/>
	<polygon fill="#C9E8F8" stroke="#E9F1F4" stroke-width="0.6955" points="-40.602,423.098 -50.273,426.396 -50.273,425.634 
		-40.602,422.399 	"/>
	<polygon fill="#C9E8F8" stroke="#E9F1F4" stroke-width="0.6955" points="-40.602,424.283 -50.273,427.58 -50.273,426.819 
		-40.602,423.587 	"/>
	<polygon fill="#C9E8F8" stroke="#E9F1F4" stroke-width="0.6955" points="-43.01,426.281 -50.273,428.765 -50.273,428.005 
		-43.01,425.583 	"/>
	<path fill="#009BCA" d="M-45.76,422.525c-0.007,0.003-0.009,0.007-0.016,0.012c0-0.003,0-0.006-0.004-0.009
		c-0.036-0.055-0.056-0.12-0.077-0.184c-0.052-0.162-0.08-0.339-0.104-0.509c-0.006-0.066-0.015-0.135-0.02-0.204
		c-0.011-0.217-0.025-0.434-0.027-0.641c-0.005-0.341-0.528-0.342-0.528,0c0,0.167,0.006,0.508,0.051,0.865
		c0.014,0.35-0.011,0.696-0.154,0.987c-0.197-0.57-0.104-1.231-0.505-1.747c-0.05-0.066-0.179-0.097-0.256-0.067
		c-0.271,0.101-0.451,0.268-0.571,0.47c-0.116-0.145-0.277-0.222-0.496-0.181c-0.245,0.047-0.41,0.184-0.522,0.377
		c-0.032-0.053-0.068-0.103-0.109-0.15c-0.258-0.304-0.698-0.237-0.947,0.022c-0.299,0.312-0.387,0.829-0.478,1.233
		c-0.072,0.331,0.437,0.473,0.51,0.139c0.064-0.28,0.127-0.569,0.247-0.835c0.188-0.411,0.363-0.121,0.434,0.17
		c0.129,0.514,0.097,1.069,0.093,1.595c0,0.35,0.492,0.33,0.53,0c0.034-0.31,0.023-0.626,0.034-0.936
		c0.016-0.306,0-0.79,0.209-1.044c0.084-0.098,0.095-0.039,0.138,0.067c0.058,0.147,0.086,0.315,0.104,0.472
		c0.014,0.11,0.021,0.224,0.028,0.335c0.004,0.2,0.013,0.396,0.015,0.576c0.003,0.342,0.529,0.342,0.526,0
		c0-0.196,0.011-0.576-0.032-0.954c0.016-0.306,0.084-0.59,0.273-0.754c0.29,0.552,0.12,1.299,0.503,1.843
		c0.101,0.143,0.281,0.175,0.414,0.053c0.188-0.169,0.306-0.362,0.387-0.569c0.148,0.149,0.349,0.186,0.619,0.023
		C-45.201,422.806-45.466,422.35-45.76,422.525"/>
	<path fill="#009BCA" d="M-45.769,419.4c-0.068-0.25-0.2-0.491-0.447-0.594c-0.337-0.14-0.543,0.273-0.605,0.526
		c-0.082,0.332,0.43,0.473,0.512,0.143c0-0.007,0.002-0.011,0.002-0.017c0.013,0.031,0.023,0.062,0.032,0.095
		c0.006,0.029,0.013,0.058,0.02,0.086c0,0.016,0.006,0.083,0.006,0.104c0,0.016-0.002,0.032-0.002,0.049
		c0,0.005-0.002,0.007-0.004,0.012c-0.003,0.01-0.007,0.021-0.009,0.032c-0.009,0-0.02,0-0.028-0.001
		c-0.017-0.005-0.036-0.009-0.056-0.015c-0.021-0.007-0.045-0.014-0.068-0.021c-0.003-0.006-0.062-0.031-0.073-0.038
		c-0.303-0.154-0.571,0.301-0.269,0.458c0.31,0.159,0.689,0.237,0.928-0.077C-45.681,419.939-45.708,419.63-45.769,419.4"/>
	<path fill="#009BCA" d="M-44.118,422.096c-0.161,0.499-0.522,0.331-0.72-0.046c-0.052-0.1-0.086-0.211-0.116-0.325
		c0.036-0.004,0.073-0.015,0.109-0.036c0.634-0.36,0.73-1.369,0.709-2.019c-0.02-0.538-0.399-1.345-0.976-0.708
		c-0.643,0.711-0.539,1.936-0.365,2.803c0.095,0.479,0.327,0.915,0.78,1.137c0.539,0.261,0.937-0.196,1.089-0.665
		C-43.502,421.909-44.014,421.771-44.118,422.096 M-44.737,419.336c0.007-0.009,0.013-0.016,0.02-0.021
		c0.006,0.022,0.013,0.046,0.015,0.061c0.056,0.211,0.045,0.439,0.034,0.654c-0.017,0.33-0.079,0.9-0.365,1.147
		c-0.002-0.031-0.006-0.062-0.008-0.094C-45.092,420.517-45.111,419.806-44.737,419.336"/>
	<path fill="#009BCA" d="M-41.022,420.391c-0.052-0.335-0.561-0.191-0.51,0.142c0.024,0.159,0.123,0.835-0.097,0.913
		c-0.233,0.087-0.41-0.434-0.473-0.568c-0.126-0.285-0.303-0.433-0.502-0.461c0.167-0.317,0.362-0.616,0.573-0.885
		c0.208-0.265-0.165-0.642-0.374-0.374c-0.301,0.385-0.58,0.817-0.795,1.279c-0.002-0.443,0.011-0.886,0.013-1.326
		c0-0.341-0.53-0.341-0.53,0c-0.002,0.634-0.12,1.689,0.129,3.126c0.05,0.296,0.526,0.223,0.52-0.07
		c-0.013-0.384,0.064-0.771,0.196-1.142c0.09-0.086,0.158-0.162,0.236-0.04c0.075,0.123,0.124,0.264,0.187,0.394
		c0.138,0.3,0.372,0.518,0.702,0.585C-40.904,422.133-40.947,420.889-41.022,420.391"/>
	<path fill="#009BCA" d="M-40.232,418.763c-0.566,0-0.566,0.882,0,0.882C-39.663,419.645-39.663,418.763-40.232,418.763"/>
</g>
<g>
	<path fill="#3D3D3D" d="M-37.324,392.19l-0.256-4.786c-0.004-0.068-0.034-0.132-0.084-0.18l-4.359-4.133l-0.359-4.486
		c-0.009-0.108-0.082-0.201-0.188-0.233l-15.568-4.878c-0.08-0.025-0.168-0.011-0.237,0.039c-0.069,0.051-0.108,0.131-0.108,0.216
		v5.057l-8.377,8.093l-0.106,0.051c-0.079,0.039-0.132,0.111-0.146,0.193l-0.432,0.417c-0.054,0.052-0.083,0.122-0.081,0.196
		l0.635,41.768c0.002,0.117,0.08,0.219,0.191,0.252l13.271,3.919l1.246,0.367l1.172-0.415l14.892-5.183
		c0.11-0.039,0.184-0.145,0.18-0.263L-37.324,392.19z"/>
	<polygon fill="#EDE6E2" points="-52.276,432.831 -37.543,427.589 -38.48,392.225 -38.578,387.85 -52.682,384.116 -52.682,384.098 
		-38.578,387.85 -43.141,383.633 -43.488,379.297 -57.328,374.961 -57.328,379.297 -66.191,387.86 -66.465,387.992 -66.269,387.935 
		-66.465,388.124 -66.25,402.199 -65.845,428.852 -52.379,432.826 -52.316,432.845 -52.275,432.857 	"/>
	<polygon fill="#FFFFFF" points="-66.465,388.124 -65.845,428.852 -52.275,432.857 -52.682,384.098 	"/>
	<polygon fill="#FFFFFF" points="-52.734,384.107 -38.596,387.85 -37.541,427.589 -52.275,432.857 	"/>
	<polygon fill="#3D3D3D" points="-52.682,384.098 -57.328,379.297 -43.141,383.633 -38.578,387.85 	"/>
	<g>
		<rect x="-57.328" y="379.297" fill="none" width="18.75" height="8.553"/>
	</g>
	<polygon fill="#C0BBB8" points="-66.465,388.124 -57.328,379.297 -57.328,383.71 	"/>
	<polygon fill="#3D3D3D" points="-66.465,388.124 -57.328,379.297 -57.328,383.71 	"/>
	<polygon fill="#FFFFFF" points="-57.328,383.71 -52.682,384.098 -57.328,379.297 	"/>
	<polygon fill="#FFFFFF" points="-66.465,388.124 -57.328,383.71 -52.682,384.098 	"/>
	<g>
		<rect x="-66.465" y="383.578" fill="none" width="13.783" height="4.414"/>
	</g>
	<polygon fill="#FFFFFF" points="-57.328,379.297 -57.328,374.961 -43.488,379.297 -43.141,383.633 	"/>
	<path fill="#3D3D3D" d="M-52.715,384.107l0.225,33.521c0.549-0.337,0.621-0.941,0.854-1.536c1.363-3.485,6.75-3.554,7.559-7.567
		c0.689-3.42-1.215-7.193-1.379-10.58c-0.188-3.899,2.189-5.538,5.893-5.712c0.369-0.018,0.701-0.007,1.084,0.002l-0.098-4.386
		L-52.715,384.107z"/>
	<path fill="#3D3D3D" d="M-66.465,388.124l0.215,14.075c0.902-0.025,1.801-0.135,2.67-0.302c2.143-0.411,4.367-1.446,6.004,0.656
		c0.754,0.966,0.876,3.139,0.499,4.403c-0.44,1.479-1.747,2.613-2.38,3.984c-0.871,1.885-0.919,4.02-0.422,6.028
		c0.459,1.855,1.938,3.866,4.094,3.604c2.027-0.246,2.023-2.041,3.381-3.008l-0.277-33.469L-66.465,388.124z"/>
	<g>
		<rect x="-66.465" y="384.098" fill="none" width="13.995" height="36.499"/>
	</g>
	<path fill="#EDE6E2" d="M-45.236,385.203c-0.354,0.442-1.262,0.306-2.025-0.305c-0.766-0.61-1.099-1.464-0.746-1.906
		c0.354-0.442,1.26-0.307,2.025,0.304C-45.219,383.906-44.884,384.76-45.236,385.203"/>
	<polygon fill="#EDE6E2" points="-48.063,383.077 -47.533,382.377 -46.623,383.213 -47.344,384.27 	"/>
	<polygon fill="#EDE6E2" points="-45.236,385.203 -44.732,384.51 -46.018,383.997 -46.377,385.002 	"/>
	<path fill="#FFFFFF" d="M-45.236,385.203c-0.354,0.442-1.262,0.306-2.025-0.305c-0.766-0.61-1.099-1.464-0.746-1.906
		c0.354-0.442,1.26-0.307,2.025,0.304C-45.219,383.906-44.884,384.76-45.236,385.203"/>
	<polygon fill="#FFFFFF" points="-48.063,383.077 -47.533,382.377 -46.623,383.213 -47.344,384.27 	"/>
	<polygon fill="#FFFFFF" points="-45.236,385.203 -44.732,384.51 -46.018,383.997 -46.377,385.002 	"/>
	<path fill="#3D3D3D" d="M-44.732,384.51c-0.354,0.442-1.26,0.307-2.025-0.304c-0.764-0.61-1.098-1.465-0.744-1.907
		c0.353-0.442,1.259-0.307,2.024,0.305C-44.713,383.213-44.38,384.067-44.732,384.51"/>
	<path fill="#FFFFFF" d="M-47.728,391.601c-1.96,0.685-1.54,3.021,0.312,3.388c1.783,0.354,2.143-2.277,1.336-3.162
		C-46.277,391.609-47.301,391.451-47.728,391.601"/>
	<path fill="#FFFFFF" d="M-48.084,405.082c-2.496,0.873-1.964,3.851,0.396,4.318c2.273,0.451,2.73-2.901,1.702-4.029
		C-46.235,405.095-47.54,404.894-48.084,405.082"/>
	<path fill="#FFFFFF" d="M-44.821,389.68c-0.972,0.34-0.765,1.498,0.153,1.68c0.885,0.176,1.062-1.129,0.663-1.567
		C-44.103,389.685-44.61,389.605-44.821,389.68"/>
	<path fill="#3D3D3D" d="M-60.906,403.733c-1.957-0.876-2.73,3.416-0.71,3.811c0.774,0.151,1.589-0.454,1.894-1.145
		c0.343-0.775,0.031-1.396-0.204-1.864C-60.068,404.252-60.617,403.863-60.906,403.733"/>
	<g>
		<rect x="-62.804" y="403.616" fill="none" width="3.233" height="3.95"/>
	</g>
	<path fill="#C0BBB8" d="M-52.285,431.81c-0.068,0.335-0.131,0.666-0.18,0.991l0.189,0.057L-52.285,431.81z"/>
	<path fill="#3D3D3D" d="M-52.356,423.213c-0.034-0.051-0.068-0.101-0.104-0.15c-0.674,0.68-1.116,1.498-1.588,2.348
		c-0.26,0.469-0.453,1.076-0.98,1.319c-0.477,0.219-1.081-0.07-1.539,0.217c-1.533,0.964-0.225,3.05-0.146,4.601l4.438,1.311
		c0-0.377,0-0.601-0.01-1.048L-52.356,423.213z"/>
	<g>
		<rect x="-57.309" y="423.062" fill="none" width="5.033" height="9.795"/>
	</g>
	<polygon fill="#3D3D3D" points="-39.423,426.407 -50.854,430.294 -50.854,425.073 -39.423,421.391 	"/>
	<polygon fill="#FFFFFF" stroke="#FDFDFD" stroke-width="0.6955" points="-40.488,423.43 -50.26,426.763 -50.26,425.992 
		-40.488,422.727 	"/>
	<polygon fill="#FFFFFF" stroke="#FDFDFD" stroke-width="0.6955" points="-40.488,424.628 -50.26,427.96 -50.26,427.19 
		-40.488,423.924 	"/>
	<polygon fill="#FFFFFF" stroke="#FDFDFD" stroke-width="0.6955" points="-42.923,426.645 -50.26,429.157 -50.26,428.388 
		-42.923,425.941 	"/>
	<path fill="#3D3D3D" d="M-45.697,422.852c-0.008,0.005-0.012,0.009-0.016,0.012c-0.002-0.002-0.002-0.004-0.004-0.007
		c-0.039-0.056-0.059-0.123-0.08-0.187c-0.055-0.165-0.08-0.341-0.103-0.513c-0.008-0.068-0.016-0.138-0.022-0.206
		c-0.01-0.221-0.024-0.439-0.027-0.649c-0.005-0.345-0.536-0.345-0.535,0c0.002,0.169,0.008,0.514,0.054,0.878
		c0.013,0.352-0.009,0.702-0.155,0.994c-0.199-0.576-0.104-1.243-0.51-1.764c-0.053-0.068-0.182-0.099-0.26-0.068
		c-0.273,0.104-0.455,0.269-0.576,0.474c-0.119-0.146-0.281-0.223-0.504-0.182c-0.245,0.046-0.412,0.187-0.525,0.383
		c-0.033-0.054-0.068-0.106-0.11-0.154c-0.261-0.307-0.706-0.239-0.956,0.023c-0.302,0.314-0.391,0.837-0.482,1.244
		c-0.076,0.337,0.439,0.479,0.516,0.144c0.063-0.287,0.127-0.578,0.248-0.846c0.19-0.417,0.366-0.122,0.438,0.171
		c0.129,0.52,0.098,1.081,0.096,1.612c-0.002,0.353,0.494,0.332,0.533,0c0.037-0.312,0.023-0.632,0.037-0.945
		c0.013-0.311-0.002-0.799,0.211-1.055c0.083-0.1,0.095-0.039,0.137,0.068c0.06,0.148,0.086,0.316,0.106,0.475
		c0.015,0.113,0.022,0.227,0.03,0.34c0.002,0.201,0.01,0.399,0.014,0.582c0.003,0.344,0.533,0.345,0.533,0
		c0-0.198,0.009-0.582-0.033-0.965c0.015-0.309,0.081-0.598,0.273-0.76c0.293,0.557,0.12,1.312,0.51,1.86
		c0.102,0.144,0.283,0.177,0.418,0.054c0.186-0.17,0.31-0.365,0.391-0.576c0.15,0.151,0.352,0.188,0.623,0.024
		C-45.134,423.136-45.402,422.674-45.697,422.852"/>
	<path fill="#3D3D3D" d="M-45.708,419.696c-0.067-0.251-0.203-0.496-0.452-0.599c-0.341-0.142-0.548,0.275-0.61,0.531
		c-0.082,0.335,0.434,0.477,0.515,0.142c0.002-0.005,0.004-0.01,0.005-0.016c0.011,0.031,0.022,0.064,0.031,0.097
		c0.008,0.028,0.013,0.059,0.019,0.087c0,0.016,0.006,0.084,0.006,0.104c0,0.018,0,0.033-0.001,0.051
		c-0.001,0.003-0.001,0.005-0.003,0.011c-0.002,0.011-0.006,0.021-0.01,0.032c-0.008,0-0.019-0.001-0.027-0.001
		c-0.02-0.004-0.038-0.008-0.057-0.013c-0.023-0.007-0.045-0.016-0.068-0.025c-0.006-0.003-0.064-0.029-0.076-0.035
		c-0.306-0.157-0.576,0.304-0.27,0.461c0.312,0.161,0.695,0.24,0.934-0.078C-45.617,420.241-45.646,419.929-45.708,419.696"/>
	<path fill="#3D3D3D" d="M-44.04,422.418c-0.165,0.505-0.53,0.335-0.728-0.045c-0.053-0.101-0.09-0.213-0.117-0.329
		c0.035-0.004,0.071-0.015,0.109-0.036c0.641-0.364,0.738-1.385,0.717-2.039c-0.02-0.546-0.403-1.358-0.984-0.715
		c-0.648,0.719-0.545,1.955-0.371,2.829c0.097,0.484,0.328,0.927,0.791,1.149c0.544,0.263,0.943-0.197,1.099-0.672
		C-43.418,422.231-43.934,422.092-44.04,422.418 M-44.665,419.632c0.007-0.009,0.013-0.017,0.019-0.024
		c0.006,0.025,0.012,0.048,0.016,0.065c0.057,0.211,0.045,0.442,0.035,0.659c-0.02,0.333-0.084,0.91-0.371,1.157
		c-0.003-0.031-0.006-0.062-0.008-0.092C-45.023,420.823-45.045,420.106-44.665,419.632"/>
	<path fill="#3D3D3D" d="M-40.914,420.697c-0.051-0.34-0.566-0.195-0.516,0.142c0.025,0.162,0.125,0.844-0.096,0.924
		c-0.238,0.086-0.416-0.439-0.477-0.574c-0.129-0.29-0.309-0.438-0.51-0.467c0.168-0.32,0.369-0.623,0.58-0.893
		c0.209-0.269-0.166-0.649-0.379-0.378c-0.301,0.388-0.586,0.825-0.801,1.291c-0.002-0.447,0.01-0.895,0.012-1.34
		c0-0.344-0.534-0.344-0.534,0c-0.003,0.64-0.124,1.708,0.128,3.158c0.052,0.3,0.533,0.225,0.525-0.072
		c-0.012-0.387,0.065-0.776,0.198-1.152c0.093-0.087,0.161-0.163,0.237-0.04c0.078,0.124,0.127,0.267,0.188,0.398
		c0.141,0.301,0.379,0.522,0.711,0.59C-40.795,422.454-40.838,421.198-40.914,420.697"/>
	<path fill="#3D3D3D" d="M-40.115,419.053c-0.574,0-0.574,0.891,0,0.891S-39.541,419.053-40.115,419.053"/>
</g>
<g>
	<path fill="#B1804A" d="M36.458,101.468L20.825,88.391c0.021-0.526-0.016-1.077-0.135-1.636c-0.516-2.406-2.221-3.998-3.809-3.551
		c-1.588,0.445-2.455,2.76-1.941,5.167c0.08,0.37,0.195,0.713,0.326,1.04c-0.389-0.043-0.785-0.066-1.201-0.046
		c-2.646,0.132-4.727,1.581-4.645,3.236c0.082,1.654,2.297,2.889,4.94,2.757c0.711-0.035,1.375-0.172,1.974-0.375l14.715,12.308"/>
	<path fill="#B1804A" d="M31.05,107.292c-1.004,5.6,0.818,15.266,7.527,20.79c8.678,7.14,20.069,7.763,25.446,1.386
		c5.375-6.375,2.701-17.332-5.978-24.474c-6.668-5.487-16.008-5.442-21.59-3.524"/>
	<path fill="#FFFFFF" d="M56.794,108.44c2.855,2.258,4.068,6.581,4.793,9.542c1.013,4.156,0.426,10.096-3.655,12.287
		c5.174-1.807,6.696-8.143,5.627-12.527C62.731,114.361,60.364,110.495,56.794,108.44z"/>
	<line fill="none" x1="36.458" y1="101.468" x2="30.831" y2="108.44"/>
</g>
<g>
	<path fill="#683D14" d="M36.458,101.468L20.825,88.391c0.021-0.526-0.016-1.077-0.135-1.636c-0.516-2.406-2.221-3.998-3.809-3.551
		c-1.588,0.445-2.455,2.76-1.941,5.167c0.08,0.37,0.195,0.713,0.326,1.04c-0.389-0.043-0.785-0.066-1.201-0.046
		c-2.646,0.132-4.727,1.581-4.645,3.236c0.082,1.654,2.297,2.889,4.94,2.757c0.711-0.035,1.375-0.172,1.974-0.375l14.715,12.308"/>
</g>
<g>
	<path fill="#464646" d="M-52.542,101.468l-15.633-13.077c0.021-0.526-0.016-1.077-0.135-1.636
		c-0.516-2.406-2.221-3.998-3.809-3.551c-1.588,0.445-2.455,2.76-1.941,5.167c0.08,0.37,0.195,0.713,0.326,1.04
		c-0.389-0.043-0.785-0.066-1.201-0.046c-2.646,0.132-4.727,1.581-4.645,3.236c0.082,1.654,2.297,2.889,4.94,2.757
		c0.711-0.035,1.375-0.172,1.974-0.375l14.715,12.308"/>
	<path fill="#464646" d="M-57.95,107.292c-1.004,5.6,0.818,15.266,7.527,20.79c8.678,7.14,20.069,7.763,25.446,1.386
		c5.375-6.375,2.701-17.332-5.978-24.474c-6.668-5.487-16.008-5.442-21.59-3.524"/>
	<path fill="#FFFFFF" d="M-32.206,108.44c2.855,2.258,4.068,6.581,4.793,9.542c1.013,4.156,0.426,10.096-3.655,12.287
		c5.174-1.807,6.696-8.143,5.627-12.527C-26.269,114.361-28.636,110.495-32.206,108.44z"/>
	<line fill="#464646" x1="-52.542" y1="101.468" x2="-58.169" y2="108.44"/>
</g>
<g>
	<path fill="#464646" d="M-52.542,101.468l-15.633-13.077c0.021-0.526-0.016-1.077-0.135-1.636
		c-0.516-2.406-2.221-3.998-3.809-3.551c-1.588,0.445-2.455,2.76-1.941,5.167c0.08,0.37,0.195,0.713,0.326,1.04
		c-0.389-0.043-0.785-0.066-1.201-0.046c-2.646,0.132-4.727,1.581-4.645,3.236c0.082,1.654,2.297,2.889,4.94,2.757
		c0.711-0.035,1.375-0.172,1.974-0.375l14.715,12.308"/>
</g>
<g>
	<path fill="#444444" d="M-30.953,104.992c-6.668-5.487-16.008-5.442-21.591-3.524l-15.632-13.077
		c0.022-0.526-0.015-1.077-0.135-1.635c-0.515-2.406-2.22-3.998-3.808-3.551c-1.588,0.445-2.456,2.76-1.941,5.167
		c0.08,0.37,0.194,0.713,0.326,1.04c-0.389-0.043-0.785-0.066-1.201-0.046c-2.646,0.132-4.728,1.581-4.646,3.236
		c0.083,1.654,2.297,2.889,4.942,2.757c0.711-0.035,1.375-0.172,1.973-0.375l14.714,12.308c-1.003,5.6,0.817,15.266,7.528,20.79
		c8.678,7.14,20.07,7.763,25.447,1.386C-19.602,123.091-22.275,112.134-30.953,104.992z"/>
	<path fill="#FFFFFF" d="M-32.207,108.44c2.855,2.258,4.068,6.581,4.793,9.542c1.012,4.156,0.426,10.096-3.656,12.287
		c5.174-1.807,6.697-8.143,5.627-12.527C-26.27,114.36-28.637,110.495-32.207,108.44z"/>
	<line fill="none" x1="-52.544" y1="101.468" x2="-58.17" y2="108.44"/>
</g>
<path fill="#96C222" stroke="#96C222" stroke-linecap="round" stroke-linejoin="round" stroke-miterlimit="10" d="M54.96,35.204
	c0,8.186-6.029,14.175-11.494,17.926c-1.704,1.169-3.964-1.065-6.119-1.065c-2.121,0-4.501,2.377-6.172,1.063
	c-5.911-4.65-11.773-10.37-11.773-18.593c0-7.251,1.995-14.404,9.428-16.229c2.897-0.71,5.528,1.604,8.518,1.604
	c2.941,0,5.478-2.577,8.129-1.606C53.454,21.227,54.96,27.896,54.96,35.204z"/>
<polygon fill="#474747" stroke="#474747" stroke-linecap="round" stroke-linejoin="round" stroke-miterlimit="10" points="
	35.842,19.67 37.809,19.891 38.284,13.645 36.47,12.181 "/>
<path fill="#056734" stroke="#056734" stroke-linecap="round" stroke-linejoin="round" stroke-miterlimit="10" d="M35.021,16.369
	c-0.163,1.2-4.607,1.449-9.186,0.828c-4.576-0.62-7.952-3.594-7.877-4.152c0.103-0.749,0.535-0.213,2.555-0.35
	c1.215-0.082,3.051-0.731,5.609-1.137C30.683,10.834,35.184,15.168,35.021,16.369z"/>
<path fill="none" stroke="#FFFFFF" stroke-linecap="round" stroke-linejoin="round" stroke-miterlimit="10" d="M23.463,14.668
	c0,0,4.693-0.149,6.03,0.114c1.214,0.241,3.444,1.087,3.444,1.087"/>
<path fill="#FFFFFF" d="M27.669,29.468c1.064-3.142,4.801-4.799,4.856-6.152c0.02-0.45-0.656-1.075-1.113-1.148
	c-2.896-0.461-6.448,0.591-8.032,4.149c-1.581,3.56-1.341,7.21,0.94,9.756c0.663,0.739,1.355,1.127,2.112,0.448
	C28.325,34.822,26.555,32.759,27.669,29.468z"/>
<path fill="#474747" stroke="#474747" stroke-linecap="round" stroke-linejoin="round" stroke-miterlimit="10" d="M-32.998,35.204
	c0,8.185-6.029,14.174-11.496,17.926c-1.703,1.168-3.963-1.066-6.119-1.066c-2.12,0-4.501,2.378-6.171,1.063
	c-5.911-4.65-11.774-10.369-11.774-18.593c0-7.251,1.996-14.404,9.428-16.228c2.898-0.711,5.527,1.604,8.518,1.604
	c2.941,0,5.479-2.577,8.129-1.606C-34.504,21.227-32.998,27.896-32.998,35.204z"/>
<polygon fill="#474747" stroke="#474747" stroke-linecap="round" stroke-linejoin="round" stroke-miterlimit="10" points="
	-52.117,19.67 -50.15,19.891 -49.674,13.645 -51.49,12.181 "/>
<path fill="#474747" stroke="#474747" stroke-linecap="round" stroke-linejoin="round" stroke-miterlimit="10" d="M-52.938,16.369
	c-0.163,1.2-4.608,1.449-9.185,0.828c-4.577-0.62-7.952-3.594-7.878-4.152c0.102-0.749,0.535-0.213,2.555-0.35
	c1.215-0.082,3.051-0.732,5.609-1.137C-57.275,10.834-52.776,15.168-52.938,16.369z"/>
<path fill="none" stroke="#FFFFFF" stroke-linecap="round" stroke-linejoin="round" stroke-miterlimit="10" d="M-64.496,14.668
	c0,0,4.693-0.149,6.03,0.114c1.214,0.241,3.443,1.088,3.443,1.088"/>
<path fill="#FFFFFF" d="M-60.29,29.468c1.064-3.141,4.801-4.799,4.857-6.152c0.019-0.451-0.656-1.076-1.114-1.148
	c-2.896-0.461-6.447,0.59-8.03,4.149c-1.582,3.56-1.342,7.21,0.939,9.755c0.664,0.739,1.356,1.127,2.112,0.448
	C-59.633,34.821-61.404,32.76-60.29,29.468z"/>
<g>
	<path fill="#396316" d="M31.076-58.458c0.391,0.531,0.513,1.173,0.513,1.77c0,0.42-0.062,0.804-0.135,1.125
		c0.802,0.071,1.611,0.295,2.223,0.953c0.663,0.713,0.982,1.815,0.982,3.426c0,0.343-0.015,0.708-0.043,1.097
		c-0.032,0.43-0.052,0.839-0.052,1.236c0,0.405,0.021,0.795,0.071,1.179c0.232-0.18,0.483-0.333,0.755-0.448
		c0.873-0.372,1.734-0.312,2.323-0.196c0.167-1.182,0.613-2.069,1.366-2.607c0.795-0.567,1.715-0.611,2.33-0.554
		c0.123-0.991,0.48-1.794,1.094-2.372c0.62-0.584,1.329-0.794,1.841-0.879c-0.002-0.049-0.005-0.094-0.005-0.147
		c0-0.752,0.147-1.906,0.925-2.774c0.53-0.591,1.261-0.938,2.165-1.058c-2.793-1.148-5.983-1.949-9.324-2.06
		c-3.427-0.114-6.483,0.49-8.965,1.29C29.999-59.366,30.654-59.031,31.076-58.458z"/>
	<path fill="#45731B" d="M54.977-57.193l-0.092-0.065c-2.385-1.715-4.709-3.707-5.791-4.659c-0.14,0.514-0.196,1.077-0.196,1.607
		c0,1.075,0.194,1.999,0.197,2.015l0.162,0.754c0,0-2.03-0.563-3.115,0.67c-0.838,0.954-0.594,2.551-0.592,2.567l0.114,0.707
		L44.95-53.62c-0.009,0-0.963-0.024-1.652,0.634c-0.502,0.48-0.764,1.22-0.774,2.201l-0.013,0.771l-0.739-0.215
		c-0.013-0.003-1.183-0.334-2.017,0.267c-0.586,0.423-0.906,1.234-0.951,2.411l-0.034,0.834l-0.775-0.314
		c-0.011-0.004-1.124-0.447-2.154-0.004c-0.34,0.147-0.639,0.38-0.895,0.693c0.754,2.184,2.833,4.391,7.921,7.928
		c3.326,2.312,5.128,5.236,5.128,8.287c0,0.192-0.008,0.383-0.021,0.576c-0.073,0.98-0.261,1.888-0.561,2.716
		c2.004-1.282,3.872-2.886,5.269-4.887c0.077-0.109,0.149-0.221,0.223-0.333c-3.144-2.896-4.401-7.182-4.854-9.319
		c2.296,4.328,5.213,6.525,6.048,7.094c0.053-0.124,0.102-0.246,0.153-0.367c0.575-1.398,1.017-2.733,1.344-3.994
		c0.036-0.142,0.07-0.282,0.104-0.422c-3.13-2.582-4.694-6.462-5.328-8.455c2.108,3.168,4.461,5.017,5.824,5.913
		c0.021-0.144,0.038-0.286,0.057-0.428c0.698-5.484-0.655-8.895-0.655-8.895s4.111,7.256,1.163,15.823
		c-0.008,0.024-0.016,0.048-0.023,0.072c-0.058,0.168-0.122,0.335-0.187,0.501c0.936-0.517,3.354-2.069,4.619-4.94
		c-0.423,2.47-1.8,6.74-6.244,8.147c-0.11,0.173-0.225,0.344-0.341,0.514c-2.007,2.965-4.85,5.507-7.958,7.226
		c10.298-2.137,17.006-9.03,17.062-17.991c0-0.042,0-0.083,0-0.123C63.688-50.938,57.136-55.643,54.977-57.193z"/>
	<path fill="#45731B" d="M46.821-30.123c0-2.659-1.626-5.246-4.625-7.33c-7.095-4.933-8.799-7.549-8.799-11.469
		c0-0.401,0.018-0.817,0.05-1.25c0.026-0.366,0.04-0.707,0.04-1.022c0-1.275-0.222-2.136-0.669-2.617
		c-0.398-0.428-1.034-0.61-2.126-0.609h-0.855l0.309-0.798c0.178-0.462,0.444-1.767-0.016-2.547
		c-0.513-0.869-2.103-0.846-2.648-0.811c-0.116,0.008-0.188,0.016-0.188,0.016s0.263-2.521,0.302-3.815
		c-0.904,0.606-2.405,1.571-4.4,2.699c-1.686,0.953-3.363,2.112-4.372,2.878c-2.559,1.947-7.51,7.654-7.51,15.273
		c0,2.529,0.546,5.269,1.905,8.151c2.506,5.314,7.74,7.972,11.692,9.266c1.461,0.479,2.964,0.843,4.453,1.111
		c-3.548-1.695-6.853-4.49-9.104-7.816c-0.115-0.17-0.23-0.341-0.34-0.514c-4.446-1.407-5.821-5.677-6.243-8.147
		c1.265,2.871,3.683,4.424,4.618,4.94c-0.064-0.166-0.129-0.333-0.187-0.501c-0.009-0.024-0.016-0.048-0.023-0.072
		c-2.949-8.567,1.163-15.823,1.163-15.823s-1.754,4.417-0.239,11.284c0.03,0.133,0.059,0.266,0.091,0.402
		c1.283-0.798,3.864-2.683,6.156-6.127c-0.644,2.022-2.243,5.989-5.465,8.57c0.043,0.128,0.09,0.26,0.136,0.39
		c0.256,0.744,0.547,1.504,0.885,2.287c0.565,1.307,1.328,2.474,2.218,3.522c0.084,0.1,0.17,0.197,0.257,0.295
		c0.877-0.783,4.463-4.089,6.516-7.693c-0.519,2.14-1.818,6.321-4.599,9.539c0.101,0.083,0.198,0.168,0.3,0.249
		c1.295,1.036,2.704,1.906,4.12,2.636c0.119,0.062,0.24,0.121,0.36,0.181c0.783-0.896,2.987-3.574,4.261-6.655
		c-0.251,1.827-0.93,4.911-2.718,7.373c0.125,0.054,0.25,0.11,0.375,0.163c1.107,0.56,2.886,1.28,4.853,1.65
		c0.995,0.186,2.039,0.282,3.067,0.221c1.153-0.069,2.286-0.332,3.312-0.889c2.227-1.206,3.459-3.263,3.669-6.108
		C46.815-29.8,46.821-29.962,46.821-30.123z"/>
</g>
<g>
	<path fill="#464646" d="M-57.924-58.458c0.391,0.531,0.513,1.173,0.513,1.77c0,0.42-0.062,0.804-0.135,1.125
		c0.802,0.071,1.611,0.295,2.223,0.953c0.663,0.713,0.982,1.815,0.982,3.426c0,0.343-0.015,0.708-0.043,1.097
		c-0.032,0.43-0.052,0.839-0.052,1.236c0,0.405,0.021,0.795,0.071,1.179c0.232-0.18,0.483-0.333,0.755-0.448
		c0.873-0.372,1.734-0.312,2.323-0.196c0.167-1.182,0.613-2.069,1.366-2.607c0.795-0.567,1.715-0.611,2.33-0.554
		c0.123-0.991,0.48-1.794,1.094-2.372c0.62-0.584,1.329-0.794,1.841-0.879c-0.002-0.049-0.005-0.094-0.005-0.147
		c0-0.752,0.147-1.906,0.925-2.774c0.53-0.591,1.261-0.938,2.165-1.058c-2.793-1.148-5.983-1.949-9.324-2.06
		c-3.427-0.114-6.483,0.49-8.965,1.29C-59.001-59.366-58.346-59.031-57.924-58.458z"/>
	<path fill="#464646" d="M-34.023-57.193l-0.092-0.065c-2.385-1.715-4.709-3.707-5.791-4.659c-0.14,0.514-0.196,1.077-0.196,1.607
		c0,1.075,0.194,1.999,0.197,2.015l0.162,0.754c0,0-2.03-0.563-3.115,0.67c-0.838,0.954-0.594,2.551-0.592,2.567l0.114,0.707
		l-0.714-0.023c-0.009,0-0.963-0.024-1.652,0.634c-0.502,0.48-0.764,1.22-0.774,2.201l-0.013,0.771l-0.739-0.215
		c-0.013-0.003-1.183-0.334-2.017,0.267c-0.586,0.423-0.906,1.234-0.951,2.411l-0.034,0.834l-0.775-0.314
		c-0.011-0.004-1.124-0.447-2.154-0.004c-0.34,0.147-0.639,0.38-0.895,0.693c0.754,2.184,2.833,4.391,7.921,7.928
		c3.326,2.312,5.128,5.236,5.128,8.287c0,0.192-0.008,0.383-0.021,0.576c-0.073,0.98-0.261,1.888-0.561,2.716
		c2.004-1.282,3.872-2.886,5.269-4.887c0.077-0.109,0.149-0.221,0.223-0.333c-3.144-2.896-4.401-7.182-4.854-9.319
		c2.296,4.328,5.213,6.525,6.048,7.094c0.053-0.124,0.102-0.246,0.153-0.367c0.575-1.398,1.017-2.733,1.344-3.994
		c0.036-0.142,0.07-0.282,0.104-0.422c-3.13-2.582-4.694-6.462-5.328-8.455c2.108,3.168,4.461,5.017,5.824,5.913
		c0.021-0.144,0.038-0.286,0.057-0.428c0.698-5.484-0.655-8.895-0.655-8.895s4.111,7.256,1.163,15.823
		c-0.008,0.024-0.016,0.048-0.023,0.072c-0.058,0.168-0.122,0.335-0.187,0.501c0.936-0.517,3.354-2.069,4.619-4.94
		c-0.423,2.47-1.8,6.74-6.244,8.147c-0.11,0.173-0.225,0.344-0.341,0.514c-2.007,2.965-4.85,5.507-7.958,7.226
		c10.298-2.137,17.006-9.03,17.062-17.991c0-0.042,0-0.083,0-0.123C-25.312-50.938-31.864-55.643-34.023-57.193z"/>
	<path fill="#464646" d="M-42.179-30.123c0-2.659-1.626-5.246-4.625-7.33c-7.095-4.933-8.799-7.549-8.799-11.469
		c0-0.401,0.018-0.817,0.05-1.25c0.026-0.366,0.04-0.707,0.04-1.022c0-1.275-0.222-2.136-0.669-2.617
		c-0.398-0.428-1.034-0.61-2.126-0.609h-0.855l0.309-0.798c0.178-0.462,0.444-1.767-0.016-2.547
		c-0.513-0.869-2.103-0.846-2.648-0.811c-0.116,0.008-0.188,0.016-0.188,0.016s0.263-2.521,0.302-3.815
		c-0.904,0.606-2.405,1.571-4.4,2.699c-1.686,0.953-3.363,2.112-4.372,2.878c-2.559,1.947-7.51,7.654-7.51,15.273
		c0,2.529,0.546,5.269,1.905,8.151c2.506,5.314,7.74,7.972,11.692,9.266c1.461,0.479,2.964,0.843,4.453,1.111
		c-3.548-1.695-6.853-4.49-9.104-7.816c-0.115-0.17-0.23-0.341-0.34-0.514c-4.446-1.407-5.821-5.677-6.243-8.147
		c1.265,2.871,3.683,4.424,4.618,4.94c-0.064-0.166-0.129-0.333-0.187-0.501c-0.009-0.024-0.016-0.048-0.023-0.072
		c-2.949-8.567,1.163-15.823,1.163-15.823s-1.754,4.417-0.239,11.284c0.03,0.133,0.059,0.266,0.091,0.402
		c1.283-0.798,3.864-2.683,6.156-6.127c-0.644,2.022-2.243,5.989-5.465,8.57c0.043,0.128,0.09,0.26,0.136,0.39
		c0.256,0.744,0.547,1.504,0.885,2.287c0.565,1.307,1.328,2.474,2.218,3.522c0.084,0.1,0.17,0.197,0.257,0.295
		c0.877-0.783,4.463-4.089,6.516-7.693c-0.519,2.14-1.818,6.321-4.599,9.539c0.101,0.083,0.198,0.168,0.3,0.249
		c1.295,1.036,2.704,1.906,4.12,2.636c0.119,0.062,0.24,0.121,0.36,0.181c0.783-0.896,2.987-3.574,4.261-6.655
		c-0.251,1.827-0.93,4.911-2.718,7.373c0.125,0.054,0.25,0.11,0.375,0.163c1.107,0.56,2.886,1.28,4.853,1.65
		c0.995,0.186,2.039,0.282,3.067,0.221c1.153-0.069,2.286-0.332,3.312-0.889c2.227-1.206,3.459-3.263,3.669-6.108
		C-42.185-29.8-42.179-29.962-42.179-30.123z"/>
</g>
</svg>
