<?xml version="1.0" encoding="utf-8"?>
<!-- Generator: Adobe Illustrator 16.0.0, SVG Export Plug-In . SVG Version: 6.00 Build 0)  -->
<!DOCTYPE svg PUBLIC "-//W3C//DTD SVG 1.1//EN" "http://www.w3.org/Graphics/SVG/1.1/DTD/svg11.dtd">
<svg version="1.1" id="Capa_1" xmlns="http://www.w3.org/2000/svg" xmlns:xlink="http://www.w3.org/1999/xlink" x="0px" y="0px"
	 width="65px" height="60px" viewBox="0 0 65 60" enable-background="new 0 0 65 60" xml:space="preserve">
<path fill="#E40E20" d="M-30.203,98.625c0,0.744-0.439,1.5-0.982,1.5h-7.195c-0.542,0-0.982-0.756-0.982-1.5l0,0
	c0-0.743,0.44-1.5,0.982-1.5h7.195C-30.643,97.125-30.203,97.882-30.203,98.625L-30.203,98.625z"/>
<path fill="#E40E20" d="M-44.5,98.231c0,0.608-0.571,1.894-1.052,1.894h-7.122c-0.48,0-0.826-1.285-0.826-1.894v-0.157
	c0-0.609,0.346-0.949,0.826-0.949h7.122c0.481,0,1.052,0.34,1.052,0.949V98.231z"/>
<path fill="#464646" d="M126.4,49.125c-5.492,0-18.758,0-22.696,0c-3.292,0-1.763-16-1.763-16h26.428
	C128.369,33.125,130.888,49.125,126.4,49.125z"/>
<polyline fill="none" stroke="#464646" stroke-width="4" stroke-linecap="round" stroke-miterlimit="10" points="128.011,37.234 
	129.841,34.125 133.5,34.125 "/>
<polyline fill="none" stroke="#464646" stroke-width="4" stroke-linecap="round" stroke-miterlimit="10" points="101.53,37.234 
	100.363,34.125 95.5,34.125 "/>
<path fill="#464646" d="M115.195,18.632c0.576,1.215,0.057,2.668-1.158,3.244l-4.027,1.908c-1.217,0.575-2.668,0.057-3.244-1.159
	l-0.044-0.094c-0.576-1.215-0.058-2.668,1.158-3.244l4.027-1.908c1.216-0.575,2.667-0.057,3.244,1.159L115.195,18.632z"/>
<path fill="#FFFFFF" stroke="#FFFFFF" stroke-miterlimit="10" d="M113.938,19.591c0.397,0.825-5.205,3.521-5.603,2.696l-0.045-0.093
	c-0.397-0.825-0.05-1.816,0.774-2.213l2.615-1.258c0.825-0.397,1.816-0.05,2.213,0.775L113.938,19.591z"/>
<path fill="#464646" d="M124.811,19.072l-23.072,11.234c0,0-1.631-3.099-1-4.01c1.775-2.568,18.785-10.417,21.448-10.351
	C123.319,15.973,124.811,19.072,124.811,19.072z"/>
<path fill="#464646" d="M111.656,34.002c-0.221,0.441-1.886-0.162-3.828-1.13c-1.215-0.605-2.831-1.628-2.831-1.628l0.437-0.896
	c0,0,1.814,0.633,3.033,1.241C110.41,32.555,111.876,33.56,111.656,34.002z"/>
<ellipse fill="#464646" cx="113.834" cy="32.966" rx="2.771" ry="2.332"/>
<g>
	<path fill="#464646" d="M124.363,37.174c0,0-0.128-0.09-0.296-0.272c-0.17-0.181-0.384-0.452-0.585-0.802
		c-0.093-0.178-0.201-0.368-0.273-0.588c-0.075-0.218-0.096-0.474-0.136-0.729c-0.028-0.262-0.093-0.516-0.204-0.755
		c-0.101-0.244-0.269-0.461-0.432-0.682c-0.169-0.218-0.347-0.432-0.476-0.663c-0.13-0.23-0.258-0.458-0.382-0.677
		c-0.236-0.444-0.383-0.891-0.483-1.285c-0.2-0.789-0.176-1.384-0.176-1.384l0.092-0.04c0,0,0.454,0.385,0.9,1.065
		c0.222,0.341,0.452,0.751,0.619,1.226c0.077,0.24,0.158,0.487,0.239,0.739c0.084,0.251,0.121,0.526,0.167,0.798
		c0.053,0.269,0.099,0.541,0.21,0.78c0.102,0.243,0.245,0.462,0.418,0.661c0.162,0.203,0.337,0.391,0.445,0.594
		c0.113,0.202,0.18,0.41,0.248,0.599c0.121,0.385,0.178,0.726,0.195,0.974c0.021,0.247,0,0.401,0,0.401L124.363,37.174z"/>
</g>
<g>
	<path fill="#464646" d="M116.596,33.906c0,0,0.102-0.125,0.302-0.288c0.2-0.165,0.496-0.369,0.873-0.559
		c0.191-0.087,0.396-0.188,0.629-0.253c0.231-0.068,0.498-0.08,0.768-0.11c0.272-0.02,0.542-0.075,0.798-0.178
		c0.259-0.092,0.497-0.254,0.737-0.41c0.238-0.162,0.473-0.333,0.721-0.454c0.249-0.123,0.493-0.243,0.729-0.359
		c0.477-0.222,0.951-0.353,1.366-0.44c0.833-0.172,1.449-0.126,1.449-0.126l0.035,0.094c0,0-0.431,0.443-1.167,0.867
		c-0.369,0.21-0.812,0.427-1.315,0.578c-0.254,0.069-0.517,0.141-0.783,0.214c-0.267,0.075-0.556,0.102-0.841,0.139
		c-0.283,0.043-0.568,0.08-0.824,0.183c-0.259,0.093-0.497,0.229-0.715,0.396c-0.222,0.155-0.429,0.324-0.646,0.426
		c-0.217,0.106-0.438,0.166-0.639,0.228c-0.408,0.108-0.766,0.152-1.024,0.161c-0.257,0.011-0.417-0.015-0.417-0.015L116.596,33.906
		z"/>
</g>
<g>
	<path fill="#464646" d="M118.68,29.748c0,0,0.478,0.101,1.123,0.365c0.65,0.257,1.473,0.671,2.252,1.154
		c0.776,0.488,1.51,1.043,2.025,1.516c0.521,0.465,0.82,0.851,0.82,0.851s-0.478-0.1-1.124-0.363
		c-0.65-0.256-1.472-0.672-2.251-1.155c-0.775-0.489-1.509-1.045-2.025-1.517C118.979,30.133,118.68,29.748,118.68,29.748z"/>
</g>
<g>
	<path fill="#464646" d="M118.634,31.271c0,0,0.436,0.056,1.024,0.254c0.593,0.192,1.34,0.521,2.049,0.921
		c0.705,0.405,1.37,0.879,1.837,1.291c0.472,0.405,0.741,0.752,0.741,0.752s-0.437-0.055-1.025-0.254
		c-0.593-0.191-1.34-0.521-2.048-0.921c-0.704-0.405-1.369-0.88-1.837-1.292C118.904,31.618,118.634,31.271,118.634,31.271z"/>
</g>
<g>
	<path fill="#464646" d="M119.227,35.178c0,0,0.2-0.43,0.594-0.979c0.387-0.556,0.963-1.235,1.596-1.857
		c0.637-0.618,1.328-1.178,1.893-1.552c0.56-0.379,0.994-0.569,0.994-0.569s-0.2,0.43-0.593,0.98
		c-0.387,0.556-0.964,1.234-1.597,1.855c-0.637,0.617-1.33,1.176-1.894,1.55C119.66,34.987,119.227,35.178,119.227,35.178z"/>
</g>
<g>
	<path fill="#464646" d="M118.568,33.443c0,0,0.377-0.265,0.974-0.535c0.595-0.277,1.409-0.565,2.242-0.774
		c0.834-0.203,1.688-0.329,2.344-0.36c0.654-0.039,1.111,0.021,1.111,0.021s-0.377,0.267-0.974,0.536
		c-0.595,0.278-1.409,0.564-2.242,0.773c-0.834,0.203-1.688,0.328-2.344,0.359C119.025,33.502,118.568,33.443,118.568,33.443z"/>
</g>
<g>
	<path fill="#464646" d="M129.717,20.5c0,0-0.229,0.094-0.629,0.259c-0.392,0.162-0.966,0.381-1.53,0.732
		c-0.277,0.169-0.556,0.382-0.707,0.616c-0.145,0.244-0.168,0.404-0.098,0.646c0.07,0.172,0.141,0.348,0.213,0.526
		c0.069,0.13,0.146,0.274,0.259,0.438c0.224,0.329,0.471,0.57,0.843,1.129l0.138,0.251l0.079,0.16l0.16,0.338
		c0.109,0.252,0.211,0.532,0.287,0.833c0.149,0.59,0.147,1.379-0.231,2.018c-0.363,0.638-0.918,0.991-1.391,1.159
		c-0.29,0.12-0.422,0.13-0.631,0.198c-0.205,0.057-0.434,0.09-0.633,0.125c-0.792,0.109-1.447,0.034-1.885-0.065
		c-0.438-0.098-0.676-0.197-0.676-0.197s0.236-0.085,0.649-0.234c0.403-0.153,0.955-0.364,1.549-0.679
		c0.142-0.086,0.271-0.168,0.43-0.251c0.145-0.095,0.395-0.222,0.469-0.3c0.261-0.196,0.449-0.399,0.488-0.581
		c0.04-0.174,0.044-0.378-0.055-0.7c-0.046-0.158-0.108-0.328-0.195-0.514l-0.146-0.316l-0.076-0.167
		c-0.014-0.021-0.025-0.043-0.035-0.066c-0.143-0.256-0.531-0.751-0.751-1.265c-0.117-0.253-0.222-0.542-0.303-0.854
		c-0.053-0.164-0.046-0.243-0.063-0.37l-0.018-0.172l-0.004-0.043l-0.013-0.072l-0.002-0.031l-0.008-0.123
		c-0.057-0.663,0.278-1.396,0.729-1.727c0.438-0.354,0.872-0.509,1.259-0.613c0.782-0.185,1.408-0.17,1.846-0.152
		C129.469,20.477,129.717,20.5,129.717,20.5z"/>
</g>
<g>
	<path fill="#464646" d="M124.525,21.863c-0.208,0.215-0.326,0.463-0.354,0.655c-0.019,0.201,0.038,0.327,0.122,0.464l0.14,0.207
		c0.032,0.037,0.062,0.074,0.086,0.111l0.02,0.027c-0.016-0.041,0.012,0.012,0.017,0.013l0.058,0.082
		c0.149,0.219,0.294,0.44,0.425,0.668l0.394,0.684l0.092,0.174c-0.045-0.095,0.021,0.033,0.015,0.016
		c0-0.01-0.017-0.035-0.012-0.028l0.212,0.273c0.186,0.245,0.405,0.599,0.497,1c0.102,0.397,0.08,0.81-0.018,1.148l-0.062,0.233
		c-0.175,0.222-0.385,0.42-0.602,0.619c-0.122,0.092-0.233,0.19-0.367,0.276c-0.133,0.083-0.271,0.181-0.448,0.219
		c0.012-0.077-0.012-0.156-0.022-0.236l-0.023-0.228c-0.018-0.153-0.016-0.294-0.025-0.443c0.007-0.283,0.013-0.569,0.051-0.833
		l-0.062,0.232c-0.106-0.377-0.198-0.434-0.463-0.746c-0.069-0.083-0.158-0.172-0.281-0.336c-0.033-0.046-0.085-0.126-0.122-0.19
		l-0.079-0.156l-0.084-0.176c-0.103-0.239-0.214-0.474-0.29-0.727c-0.085-0.248-0.157-0.502-0.224-0.759l-0.024-0.097
		c-0.009-0.028,0.004-0.004-0.022-0.076l-0.014-0.065c-0.019-0.086-0.033-0.173-0.045-0.259c-0.017-0.184-0.028-0.367,0.006-0.563
		c0.045-0.385,0.251-0.795,0.568-1C123.883,21.829,124.232,21.79,124.525,21.863z"/>
</g>
<path fill="#464646" stroke="#464646" stroke-linecap="round" stroke-miterlimit="10" d="M129.636,26.737
	c0.322,0.578,0.369,1.237,0.06,1.86c-0.36,0.725-1.125,1.244-2.038,1.478c1.138,0.018,2.188-0.457,2.586-1.256
	C130.603,28.094,130.332,27.298,129.636,26.737z"/>
<ellipse transform="matrix(0.9302 0.3672 -0.3672 0.9302 19.4987 -39.8841)" fill="#878787" cx="114.583" cy="31.309" rx="0.748" ry="0.317"/>
<line fill="none" stroke="#848484" stroke-linecap="round" stroke-miterlimit="10" x1="107.73" y1="31.966" x2="108.679" y2="32.342"/>
<polyline stroke="#000000" stroke-width="4" stroke-linecap="round" stroke-miterlimit="10" points="-26.989,38.234 -25.159,35.125 
	-21.5,35.125 "/>
<polyline stroke="#000000" stroke-width="4" stroke-linecap="round" stroke-miterlimit="10" points="-53.47,38.234 -54.637,35.125 
	-59.5,35.125 "/>
<path d="M-39.805,19.632c0.576,1.215,0.057,2.668-1.159,3.244l-4.027,1.908c-1.216,0.575-2.667,0.057-3.244-1.159l-0.044-0.094
	c-0.576-1.215-0.057-2.668,1.158-3.244l4.027-1.908c1.216-0.575,2.667-0.057,3.244,1.159L-39.805,19.632z"/>
<path fill="#FFFFFF" stroke="#FFFFFF" stroke-miterlimit="10" d="M-41.062,20.591c0.397,0.825-5.206,3.521-5.603,2.696l-0.045-0.093
	c-0.397-0.825-0.05-1.816,0.775-2.213l2.615-1.258c0.825-0.397,1.816-0.05,2.213,0.775L-41.062,20.591z"/>
<path fill="#518CB7" d="M-30.189,20.072l-23.072,11.234c0,0-1.63-3.099-1-4.01c1.775-2.568,18.785-10.417,21.448-10.351
	C-31.681,16.973-30.189,20.072-30.189,20.072z"/>
<path fill="#BE4415" d="M-43.344,35.002c-0.221,0.441-1.886-0.162-3.829-1.13c-1.215-0.605-2.831-1.628-2.831-1.628l0.436-0.896
	c0,0,1.814,0.633,3.034,1.241C-44.589,33.555-43.124,34.561-43.344,35.002z"/>
<ellipse fill="#E40E20" cx="-41.166" cy="33.966" rx="2.772" ry="2.332"/>
<g>
	<line fill="#464646" x1="-30.59" y1="38.153" x2="-34.033" y2="30.317"/>
	<path fill="#009136" d="M-30.636,38.174c0,0-0.128-0.09-0.296-0.272c-0.17-0.181-0.383-0.452-0.585-0.802
		c-0.093-0.178-0.201-0.368-0.273-0.588c-0.075-0.218-0.096-0.474-0.136-0.729c-0.029-0.261-0.093-0.516-0.204-0.755
		c-0.101-0.243-0.27-0.462-0.432-0.682c-0.169-0.219-0.347-0.433-0.476-0.664c-0.13-0.23-0.258-0.457-0.382-0.677
		c-0.236-0.444-0.383-0.891-0.484-1.285c-0.2-0.789-0.176-1.384-0.176-1.384l0.092-0.04c0,0,0.454,0.385,0.9,1.065
		c0.222,0.341,0.452,0.751,0.619,1.226c0.078,0.24,0.158,0.487,0.24,0.739c0.083,0.251,0.121,0.527,0.167,0.799
		c0.052,0.27,0.099,0.541,0.21,0.779c0.101,0.243,0.246,0.463,0.418,0.661c0.162,0.203,0.336,0.391,0.445,0.594
		c0.113,0.202,0.18,0.41,0.248,0.599c0.122,0.385,0.177,0.726,0.195,0.974c0.021,0.247,0,0.401,0,0.401L-30.636,38.174z"/>
</g>
<g>
	<line fill="#464646" x1="-38.386" y1="34.953" x2="-30.014" y2="31.776"/>
	<path fill="#009136" d="M-38.404,34.906c0,0,0.102-0.125,0.302-0.288c0.199-0.164,0.496-0.368,0.873-0.559
		c0.191-0.087,0.396-0.188,0.628-0.253c0.231-0.068,0.499-0.08,0.768-0.11c0.273-0.02,0.542-0.075,0.798-0.178
		c0.259-0.092,0.498-0.254,0.738-0.41c0.238-0.162,0.472-0.333,0.721-0.454c0.249-0.123,0.493-0.243,0.729-0.359
		c0.477-0.222,0.951-0.353,1.367-0.44c0.833-0.172,1.449-0.126,1.449-0.126l0.035,0.094c0,0-0.431,0.443-1.167,0.867
		c-0.369,0.21-0.811,0.427-1.315,0.578c-0.254,0.069-0.517,0.141-0.784,0.214c-0.267,0.075-0.555,0.102-0.841,0.139
		c-0.283,0.043-0.568,0.08-0.824,0.183c-0.259,0.093-0.498,0.229-0.715,0.396c-0.222,0.154-0.429,0.323-0.647,0.426
		c-0.217,0.106-0.437,0.166-0.638,0.228c-0.408,0.108-0.766,0.152-1.024,0.161C-38.209,35.026-38.369,35-38.369,35L-38.404,34.906z"
		/>
</g>
<g>
	<line fill="#464646" x1="-36.32" y1="30.748" x2="-30.1" y2="34.633"/>
	<path fill="#009136" d="M-36.32,30.748c0,0,0.478,0.101,1.124,0.365c0.65,0.257,1.472,0.671,2.251,1.154
		c0.776,0.488,1.51,1.043,2.026,1.516c0.52,0.465,0.82,0.851,0.82,0.851s-0.478-0.1-1.124-0.363
		c-0.65-0.256-1.472-0.672-2.251-1.155c-0.776-0.489-1.509-1.045-2.025-1.517C-36.02,31.133-36.32,30.748-36.32,30.748z"/>
</g>
<g>
	<line fill="#464646" x1="-36.366" y1="32.271" x2="-30.715" y2="35.49"/>
	<path fill="#009136" d="M-36.366,32.271c0,0,0.436,0.056,1.024,0.254c0.592,0.192,1.34,0.521,2.049,0.921
		c0.705,0.405,1.37,0.878,1.837,1.292c0.471,0.404,0.741,0.752,0.741,0.752s-0.437-0.055-1.025-0.254
		c-0.593-0.19-1.34-0.521-2.048-0.921c-0.705-0.406-1.369-0.881-1.836-1.292C-36.096,32.618-36.366,32.271-36.366,32.271z"/>
</g>
<g>
	<line fill="#464646" x1="-35.773" y1="36.178" x2="-30.697" y2="31.222"/>
	<path fill="#009136" d="M-35.773,36.178c0,0,0.2-0.43,0.593-0.979c0.388-0.556,0.963-1.235,1.596-1.857
		c0.636-0.617,1.329-1.178,1.893-1.552c0.559-0.379,0.994-0.569,0.994-0.569s-0.2,0.43-0.592,0.98
		c-0.387,0.556-0.964,1.234-1.597,1.855c-0.637,0.617-1.33,1.176-1.894,1.55C-35.339,35.987-35.773,36.178-35.773,36.178z"/>
</g>
<g>
	<line fill="#464646" x1="-36.431" y1="34.443" x2="-29.761" y2="32.794"/>
	<path fill="#009136" d="M-36.431,34.443c0,0,0.377-0.266,0.974-0.535c0.595-0.277,1.409-0.565,2.242-0.774
		c0.834-0.204,1.688-0.33,2.344-0.361c0.654-0.039,1.111,0.021,1.111,0.021s-0.376,0.267-0.973,0.537
		c-0.595,0.278-1.409,0.564-2.242,0.773c-0.834,0.203-1.688,0.328-2.344,0.359C-35.974,34.503-36.431,34.443-36.431,34.443z"/>
</g>
<g>
	<path fill="#B19975" d="M-25.283,21.5c0,0-0.229,0.094-0.629,0.259c-0.391,0.162-0.965,0.381-1.529,0.732
		c-0.278,0.169-0.556,0.382-0.707,0.616c-0.145,0.244-0.168,0.405-0.098,0.646c0.07,0.172,0.14,0.348,0.212,0.525
		c0.069,0.13,0.147,0.274,0.26,0.438c0.223,0.329,0.471,0.57,0.842,1.129l0.138,0.251l0.079,0.16l0.16,0.338
		c0.11,0.252,0.211,0.533,0.288,0.833c0.149,0.591,0.146,1.379-0.232,2.018c-0.363,0.638-0.918,0.991-1.391,1.159
		c-0.29,0.12-0.421,0.13-0.63,0.198c-0.206,0.058-0.434,0.09-0.634,0.126c-0.792,0.109-1.447,0.033-1.884-0.065
		c-0.438-0.098-0.676-0.197-0.676-0.197s0.236-0.085,0.649-0.234c0.403-0.153,0.955-0.364,1.549-0.679
		c0.141-0.086,0.271-0.168,0.429-0.251c0.145-0.095,0.395-0.222,0.469-0.299c0.261-0.196,0.449-0.399,0.488-0.582
		c0.041-0.174,0.044-0.378-0.054-0.7c-0.046-0.158-0.109-0.329-0.196-0.514l-0.146-0.316l-0.076-0.167
		c-0.013-0.021-0.025-0.043-0.035-0.066c-0.143-0.256-0.531-0.751-0.751-1.265c-0.118-0.253-0.222-0.542-0.303-0.854
		c-0.052-0.164-0.046-0.243-0.062-0.37l-0.018-0.172l-0.004-0.043l-0.012-0.072l-0.002-0.031l-0.008-0.123
		c-0.056-0.663,0.278-1.395,0.729-1.726c0.438-0.354,0.872-0.509,1.259-0.613c0.782-0.186,1.408-0.17,1.845-0.153
		C-25.531,21.477-25.283,21.5-25.283,21.5z"/>
</g>
<g>
	<path fill="#B19975" d="M-30.475,22.863c-0.208,0.215-0.326,0.463-0.354,0.655c-0.018,0.201,0.038,0.327,0.122,0.464l0.141,0.208
		c0.031,0.037,0.061,0.074,0.085,0.111l0.019,0.027c-0.016-0.042,0.012,0.012,0.016,0.013l0.058,0.082
		c0.15,0.219,0.294,0.44,0.425,0.668l0.394,0.682l0.091,0.174c-0.043-0.091,0.021,0.035,0.016,0.018c0-0.01-0.017-0.035-0.012-0.028
		l0.211,0.273c0.185,0.245,0.405,0.599,0.497,1c0.102,0.397,0.08,0.81-0.018,1.148l-0.061,0.233
		c-0.174,0.222-0.385,0.42-0.602,0.619c-0.122,0.092-0.233,0.19-0.368,0.276c-0.132,0.083-0.271,0.181-0.449,0.219
		c0.012-0.077-0.011-0.156-0.022-0.236l-0.024-0.228c-0.017-0.152-0.014-0.294-0.025-0.443c0.007-0.283,0.013-0.569,0.051-0.833
		l-0.061,0.232c-0.107-0.377-0.199-0.434-0.464-0.746c-0.068-0.083-0.158-0.172-0.28-0.336c-0.033-0.046-0.085-0.126-0.122-0.19
		l-0.079-0.154l-0.084-0.177c-0.103-0.24-0.215-0.476-0.291-0.729c-0.086-0.248-0.158-0.502-0.224-0.759l-0.024-0.097
		c-0.009-0.029,0.004-0.004-0.023-0.077l-0.014-0.065c-0.019-0.086-0.033-0.172-0.045-0.258c-0.016-0.184-0.027-0.367,0.006-0.563
		c0.045-0.385,0.251-0.795,0.568-1C-31.117,22.829-30.768,22.79-30.475,22.863z"/>
</g>
<path fill="none" stroke="#B19975" stroke-linecap="round" stroke-miterlimit="10" d="M-25.365,27.737
	c0.323,0.578,0.37,1.237,0.061,1.86c-0.36,0.725-1.125,1.244-2.038,1.478c1.138,0.018,2.188-0.457,2.586-1.256
	C-24.396,29.094-24.668,28.298-25.365,27.737z"/>
<ellipse transform="matrix(0.9302 0.3671 -0.3671 0.9302 9.0381 17.0907)" fill="#878787" cx="-40.418" cy="32.309" rx="0.748" ry="0.317"/>
<line fill="none" stroke="#848484" stroke-linecap="round" stroke-miterlimit="10" x1="-47.27" y1="32.966" x2="-46.321" y2="33.342"/>
<path fill="#940731" d="M-28.6,50.125c-5.492,0-18.758,0-22.696,0c-3.292,0-1.762-16-1.762-16h26.427
	C-26.631,34.125-24.112,50.125-28.6,50.125z"/>
<polygon fill="#464646" points="59.125,-47.875 21.125,-47.875 24.665,-53.875 55.63,-53.875 "/>
<polygon fill="#464646" points="54.054,-56.875 25.927,-56.875 29.587,-62.875 50.463,-62.875 "/>
<polygon fill="#464646" points="48.601,-65.875 31.344,-65.875 34.857,-71.875 45.295,-71.875 "/>
<polygon fill="#464646" points="43.654,-74.875 36.527,-74.875 40.125,-81.362 40.125,-81.362 "/>
<polygon fill="#E5AB4A" points="-29.875,-49.875 -67.875,-49.875 -64.335,-55.875 -33.37,-55.875 "/>
<polygon fill="#C2CC5E" points="-34.946,-58.875 -63.073,-58.875 -59.413,-64.875 -38.537,-64.875 "/>
<polygon fill="#4EB2E5" points="-40.399,-67.875 -57.656,-67.875 -54.143,-73.875 -43.705,-73.875 "/>
<polygon fill="#D3411C" points="-45.346,-76.875 -52.473,-76.875 -48.875,-83.362 -48.875,-83.362 "/>
<g>
	<path fill="#464646" d="M53.5,96.125h-26v-3.566c0,0-0.584-1.434,0.916-1.434c5.288,0,19.3,0,23.786,0
		c1.401,0,1.299,1.628,1.299,1.628V96.125z"/>
	<path fill="#464646" d="M51.573,91.625c0,0.729-0.432,1.5-0.964,1.5h-7.065c-0.532,0-0.964-0.771-0.964-1.5l0,0
		c0-0.729,0.432-1.5,0.964-1.5h7.065C51.142,90.125,51.573,90.896,51.573,91.625L51.573,91.625z"/>
	<path fill="#464646" d="M37.5,91.476c0,0.598-0.524,1.649-0.996,1.649h-6.993c-0.472,0-0.011-1.052-0.011-1.649v-0.154
		c0-0.599-0.46-1.196,0.011-1.196h6.993c0.472,0,0.996,0.598,0.996,1.196V91.476z"/>
	<circle fill="#FFFFFF" cx="39.679" cy="93.719" r="1.015"/>
	<circle fill="#FFFFFF" cx="44.198" cy="93.719" r="1.015"/>
	<circle fill="#FFFFFF" cx="35.859" cy="93.719" r="1.015"/>
	<circle fill="#FFFFFF" cx="48.404" cy="93.719" r="1.015"/>
	<circle fill="#FFFFFF" cx="31.87" cy="93.719" r="1.015"/>
	<path fill="#464646" d="M53.5,115.548c0,3.192,0.205,3.577-2.39,3.577H30.905c-3.845,0-3.845-0.268-3.876-3.553l-0.113-18.447H53.5
		V115.548z"/>
	<path fill="#FFFFFF" d="M50.5,99.625c0,0.276-0.224,0.5-0.5,0.5H31c-0.276,0-0.5-0.224-0.5-0.5l0,0c0-0.276,0.224-0.5,0.5-0.5h19
		C50.276,99.125,50.5,99.349,50.5,99.625L50.5,99.625z"/>
	
		<rect x="31.5" y="103.125" fill="none" stroke="#FFFFFF" stroke-width="2" stroke-linecap="round" stroke-linejoin="round" stroke-miterlimit="10" width="18" height="12"/>
	<line fill="none" stroke="#FFFFFF" stroke-width="2" stroke-miterlimit="10" x1="39.485" y1="102.421" x2="30.978" y2="111.124"/>
	<polygon fill="#FFFFFF" points="31.5,107.643 31.5,103.125 35.618,103.125 	"/>
</g>
<path fill="#004B70" d="M-28.5,104.125h-26v-4.79c0,0-0.817-1.21,0.71-1.21c5.385,0,19.659,0,24.226,0
	c1.429,0,1.064,1.406,1.064,1.406V104.125z"/>
<circle fill="#FFFFFF" cx="-42.317" cy="100.518" r="1.034"/>
<circle fill="#FFFFFF" cx="-37.715" cy="100.518" r="1.034"/>
<circle fill="#FFFFFF" cx="-46.209" cy="100.518" r="1.034"/>
<circle fill="#FFFFFF" cx="-33.431" cy="100.518" r="1.034"/>
<circle fill="#FFFFFF" cx="-50.271" cy="100.518" r="1.034"/>
<path fill="#3065AF" d="M-28.5,122.751c0,3.25,0.469,3.374-2.174,3.374h-20.581c-3.917,0-3.917,0.43-3.948-2.912l-0.115-18.088
	H-28.5V122.751z"/>
<path fill="#FFFFFF" d="M-31.5,107.625c0,0.276-0.224,0.5-0.5,0.5h-19c-0.276,0-0.5-0.224-0.5-0.5l0,0c0-0.276,0.224-0.5,0.5-0.5h19
	C-31.724,107.125-31.5,107.349-31.5,107.625L-31.5,107.625z"/>
<rect x="-51.5" y="110.125" fill="none" stroke="#FFFFFF" stroke-width="2" stroke-linecap="round" stroke-linejoin="round" stroke-miterlimit="10" width="18" height="12"/>
<line fill="none" stroke="#FFFFFF" stroke-width="2" stroke-miterlimit="10" x1="-42.515" y1="109.381" x2="-51.181" y2="118.245"/>
<polygon fill="#FFFFFF" points="-51.5,114.698 -51.5,110.125 -46.454,110.125 "/>
<g>
	<g>
		<g>
			<g>
				<path fill="#8E6D8D" d="M-24.33,195.104h-30.443c0,2.144,4.225,3.963,10.116,4.644v0.696h10.211v-0.696
					C-28.555,199.067-24.33,197.248-24.33,195.104z"/>
			</g>
		</g>
	</g>
	<g>
		<path fill="#F6E94B" d="M-48.968,193.971c-0.026-1.43-0.045-2.559-2.344-2.721c-0.958-0.065-1.95,0.329-2.413,0.965
			c-0.307,0.423-0.351,0.894-0.133,1.409l-0.611,0.25c-0.305-0.715-0.233-1.437,0.205-2.036c0.601-0.823,1.808-1.32,2.999-1.234
			c2.903,0.202,2.935,1.948,2.962,3.356L-48.968,193.971z"/>
	</g>
	<g>
		<path fill="#F6E94B" d="M-53.776,194.097c-0.312-0.713-0.174-1.425,0.379-1.944c0.684-0.646,1.818-0.842,2.64-0.458
			c0.429,0.204,1.131,0.737,1.015,2.054l-0.661-0.054c0.061-0.698-0.16-1.188-0.64-1.41c-0.564-0.267-1.416-0.114-1.895,0.338
			c-0.245,0.23-0.485,0.633-0.229,1.218L-53.776,194.097z"/>
	</g>
	<g>
		<path fill="#E52A20" d="M-52.799,194.287c-0.202-0.829,0.187-1.209,0.362-1.333c0.33-0.239,0.783-0.246,1.155-0.025
			c0.431,0.259,0.635,0.756,0.543,1.331l-0.656-0.102c0.049-0.312-0.035-0.555-0.233-0.672c-0.14-0.086-0.308-0.086-0.418-0.008
			c-0.145,0.102-0.185,0.344-0.108,0.657L-52.799,194.287z"/>
	</g>
	<g>
		<path fill="#F6E94B" d="M-37.055,194.312l-0.662-0.045c0.02-0.278,0.066-0.545,0.109-0.805c0.097-0.568,0.188-1.111-0.024-1.686
			c-0.516-1.397-1.761-2.53-3.247-2.952c-1.758-0.505-3.628-0.184-5.002,0.855c-1.303,0.985-1.995,2.446-1.953,4.114l-0.663,0.017
			c-0.049-1.853,0.757-3.546,2.21-4.646c1.542-1.167,3.634-1.528,5.594-0.968c1.685,0.481,3.096,1.769,3.687,3.357
			c0.271,0.732,0.16,1.385,0.053,2.017C-36.998,193.824-37.038,194.064-37.055,194.312z"/>
	</g>
	<g>
		<path fill="#E52A20" d="M-38.698,194.166l-0.525-0.399c0.242-0.31-0.165-1.452-0.654-2.137c-0.708-0.989-1.371-1.614-2.491-1.653
			c-1.114-0.043-2.678,0.16-3.415,0.868c-0.596,0.567-1.233,2.258-0.789,2.845l-0.533,0.389c-0.729-0.967,0.133-3.005,0.859-3.699
			c0.885-0.848,2.601-1.099,3.902-1.053c1.544,0.057,2.362,1.028,3.009,1.931C-39.04,191.665-38.07,193.368-38.698,194.166z"/>
	</g>
	<g>
		<path fill="#F6E94B" d="M-41.532,194.292c0-1.511-0.086-2.433-1.29-2.606c-0.693-0.106-1.443,0.18-1.859,0.704
			c-0.341,0.43-0.408,0.945-0.191,1.45l-0.613,0.252c-0.309-0.721-0.205-1.485,0.28-2.1c0.568-0.718,1.542-1.095,2.482-0.951
			c1.855,0.271,1.855,1.913,1.855,3.236L-41.532,194.292z"/>
	</g>
	<g>
		<path fill="#E52A20" d="M-41.952,194.105l-0.651-0.116c0.04-0.219,0.006-0.654-0.161-0.878c-0.058-0.075-0.125-0.115-0.213-0.125
			c-0.141-0.016-0.25,0.022-0.341,0.116c-0.165,0.163-0.252,0.509-0.207,0.816l-0.658,0.093c-0.056-0.391,0.011-0.984,0.388-1.365
			c0.234-0.238,0.541-0.346,0.889-0.308c0.271,0.029,0.505,0.162,0.673,0.385C-41.915,193.141-41.89,193.778-41.952,194.105z"/>
	</g>
	<g>
		<path fill="#F6E94B" d="M-29.123,194.26l-0.607-0.262c0.916-2.054,0.549-4.002-0.98-5.216c-1.206-0.953-3.155-1.34-4.974-0.991
			c-0.906,0.172-2.5,0.883-2.448,1.676l-0.663,0.043c-0.084-1.334,1.975-2.164,2.983-2.359c1.592-0.31,3.878-0.175,5.515,1.124
			C-28.517,189.684-28.079,191.922-29.123,194.26z"/>
	</g>
	<g>
		<path fill="#E52A20" d="M-31.061,194.152l-0.545-0.371c0.37-0.524,0.489-1.27,0.325-2.038c-0.179-0.846-0.673-1.606-1.289-1.977
			c-0.894-0.543-2.66-0.795-3.768-0.286c-0.561,0.261-0.889,0.688-0.967,1.271l-0.659-0.086c0.11-0.803,0.576-1.419,1.344-1.773
			c1.317-0.609,3.337-0.326,4.399,0.318c0.776,0.474,1.372,1.369,1.589,2.4C-30.43,192.552-30.587,193.48-31.061,194.152z"/>
	</g>
	<g>
		<path fill="#F6E94B" d="M-33.431,194.451l-0.114-0.646c0.235-0.039,0.406-0.171,0.523-0.405c0.269-0.534,0.169-1.491-0.097-1.99
			c-0.453-0.85-1.14-1.177-2.041-0.971c-0.576,0.125-1.46,0.667-1.48,1.175l-0.662-0.021c0.037-0.957,1.317-1.642,1.993-1.79
			c1.201-0.271,2.186,0.192,2.777,1.304c0.347,0.65,0.487,1.824,0.105,2.582C-32.637,194.11-32.985,194.373-33.431,194.451z"/>
	</g>
	<g>
		<path fill="#F6E94B" d="M-35.103,194.119l-0.585-0.308c0.003-0.006,0.007-0.014,0.01-0.02c-0.075-0.011-0.206-0.004-0.299,0.049
			l-0.33-0.564c0.327-0.183,0.851-0.209,1.137,0.06C-35.095,193.409-34.865,193.682-35.103,194.119z"/>
	</g>
	<g>
		<path fill="#E52A20" d="M-34.549,193.58c-0.043-0.122-0.022-0.245,0.013-0.478c0.049-0.315,0.137-0.899-0.073-1.102
			c-0.222-0.215-0.577-0.053-1.095,0.219c-0.204,0.104-0.397,0.204-0.585,0.268l-0.202-0.624c0.13-0.039,0.297-0.127,0.475-0.219
			c0.543-0.282,1.286-0.67,1.872-0.111c0.453,0.438,0.335,1.206,0.265,1.661c-0.014,0.088-0.031,0.199-0.03,0.232
			c0,0-0.001-0.021-0.01-0.053L-34.549,193.58z"/>
	</g>
	<g>
		<path fill="#E52A20" d="M-25.502,194.312l-0.55-0.366c0.277-0.403,0.304-0.787,0.08-1.148c-0.334-0.536-1.092-0.835-1.59-0.778
			c-0.376,0.046-0.447,0.265-0.469,0.336l-0.633-0.198c0.143-0.438,0.516-0.719,1.023-0.782c0.817-0.094,1.797,0.382,2.234,1.085
			C-25.045,193.04-25.08,193.7-25.502,194.312z"/>
	</g>
	<g>
		<path fill="#F6E94B" d="M-25.12,194.676l-0.487-0.441c0.656-0.702,0.586-1.917,0.411-2.812c-0.134-0.689-1.341-1.547-2.189-1.558
			c-0.411-0.01-0.634,0.181-0.72,0.584l-0.65-0.131c0.15-0.7,0.645-1.104,1.359-1.104c0.005,0,0.012,0,0.018,0
			c1.161,0.01,2.644,1.104,2.836,2.087C-24.341,192.344-24.277,193.776-25.12,194.676z"/>
	</g>
	<g>
		<path fill="#F6E94B" d="M-26.691,193.806l-0.661-0.008c0.004-0.286-0.286-0.529-0.561-0.573c-0.283-0.049-0.349,0.135-0.37,0.193
			l-0.628-0.207c0.162-0.469,0.599-0.716,1.11-0.627C-27.248,192.676-26.681,193.159-26.691,193.806z"/>
	</g>
	<g>
		<path fill="#F6E94B" d="M-49.865,191.029c-0.35-0.626-0.1-1.353,0.609-1.769c0.643-0.375,1.547-0.368,2.033,0.376l-0.557,0.354
			c-0.312-0.476-0.861-0.331-1.136-0.171c-0.244,0.142-0.594,0.491-0.368,0.895L-49.865,191.029z"/>
	</g>
	<g>
		<path fill="#E52A20" d="M-51.4,189.982c-0.038-1.544,0.687-2.343,2.217-2.447c0.747-0.05,1.815,0.193,2.4,0.752
			c0.309,0.298,0.46,0.661,0.442,1.056l-0.663-0.033c0.01-0.209-0.069-0.391-0.244-0.557c-0.422-0.408-1.299-0.608-1.889-0.567
			c-1.181,0.081-1.63,0.581-1.598,1.783L-51.4,189.982z"/>
	</g>
	<g>
		<path fill="#F6E94B" d="M-52.492,190.663c-0.555-0.722-0.66-1.562-0.305-2.43c0.5-1.222,1.919-2.34,3.234-2.549
			c0.921-0.146,1.759,0.034,2.422,0.521c0.704,0.514,1.164,1.353,1.294,2.348l-0.658,0.083c-0.107-0.823-0.474-1.501-1.033-1.909
			c-0.517-0.378-1.181-0.514-1.921-0.398c-1.088,0.171-2.31,1.138-2.724,2.145c-0.267,0.658-0.194,1.261,0.219,1.794
			L-52.492,190.663z"/>
	</g>
	<g>
		<path fill="#E52A20" d="M-41.164,188.417c-0.163-0.31-0.17-0.649-0.021-0.98c0.255-0.567,0.896-0.967,1.384-1.097
			c1.071-0.28,1.974,0.072,2.609,1.014l-0.554,0.361c-0.475-0.711-1.091-0.955-1.883-0.745c-0.346,0.092-0.796,0.392-0.949,0.729
			c-0.068,0.15-0.066,0.286,0.004,0.419L-41.164,188.417z"/>
	</g>
	<g>
		<path fill="#F6E94B" d="M-42.692,188.034c-0.077-1.985,1.504-2.853,2.88-2.996c1.627-0.167,3.523,0.603,3.832,2.36l-0.655,0.112
			c-0.239-1.366-1.781-1.959-3.107-1.823c-1.145,0.117-2.347,0.788-2.287,2.323L-42.692,188.034z"/>
	</g>
	<g>
		<path fill="#F6E94B" d="M-40.283,188.48c-0.08-0.487,0.155-0.897,0.628-1.092c0.588-0.238,1.536-0.121,1.957,0.44l-0.535,0.387
			c-0.196-0.261-0.795-0.376-1.167-0.223c-0.241,0.098-0.251,0.25-0.229,0.385L-40.283,188.48z"/>
	</g>
	<path fill="#574255" d="M-41.983,184.435l-0.304-0.146c-0.091-0.064-0.186-0.133-0.275-0.207l-0.116-0.13
		c-0.037-0.045-0.083-0.083-0.107-0.137c-0.051-0.104-0.131-0.2-0.156-0.316c-0.035-0.112-0.083-0.226-0.088-0.344
		c-0.011-0.117-0.031-0.235-0.015-0.352c0.011-0.116,0.004-0.236,0.03-0.35l0.066-0.343l0.015-0.081l0.099-0.021
		c0.415-0.092,0.842-0.226,1.132-0.458c0.139-0.118,0.219-0.255,0.208-0.414c-0.009-0.162-0.088-0.342-0.191-0.514
		c-0.211-0.345-0.511-0.662-0.809-0.979l-0.453-0.487c-0.147-0.172-0.302-0.334-0.424-0.581c-0.016-0.029-0.029-0.067-0.04-0.105
		c-0.008-0.027-0.01-0.021-0.019-0.075l-0.005-0.04l-0.018-0.164c-0.017-0.103-0.01-0.231,0-0.36
		c0.003-0.132,0.034-0.248,0.063-0.363c0.023-0.118,0.067-0.227,0.109-0.336c0.083-0.219,0.197-0.418,0.314-0.611
		c0.113-0.193,0.237-0.375,0.352-0.561c0.117-0.185,0.223-0.37,0.312-0.561c0.088-0.192,0.148-0.39,0.173-0.597
		c0.011-0.204-0.015-0.417-0.102-0.612c-0.078-0.201-0.206-0.377-0.334-0.558c0.153,0.157,0.316,0.312,0.421,0.516
		c0.116,0.195,0.174,0.426,0.19,0.66c0,0.115-0.013,0.232-0.029,0.348c-0.031,0.111-0.054,0.229-0.097,0.333
		c-0.08,0.215-0.18,0.418-0.285,0.613c-0.209,0.393-0.424,0.771-0.561,1.162c-0.034,0.097-0.07,0.194-0.083,0.294
		c-0.022,0.098-0.043,0.196-0.041,0.285c-0.005,0.091-0.014,0.183,0.011,0.298l0.021,0.164l0.005,0.041
		c-0.003-0.028,0.005,0.005,0.005,0.004c0.006,0.014,0.008,0.027,0.02,0.047c0.073,0.148,0.221,0.316,0.362,0.472l0.451,0.476
		c0.301,0.325,0.609,0.655,0.853,1.064c0.119,0.204,0.225,0.44,0.231,0.722c0.013,0.287-0.169,0.566-0.372,0.714
		c-0.205,0.155-0.43,0.244-0.652,0.31s-0.445,0.104-0.667,0.141l0.113-0.104l-0.083,0.312c-0.034,0.104-0.033,0.21-0.051,0.315
		c-0.023,0.107-0.009,0.211-0.01,0.315c-0.009,0.108,0.022,0.209,0.039,0.314c0.01,0.106,0.073,0.196,0.108,0.296
		c0.015,0.053,0.052,0.092,0.083,0.138l0.093,0.134c0.074,0.077,0.154,0.148,0.231,0.229L-41.983,184.435z"/>
	<path fill="#574255" d="M-39.658,170.454c0,0-0.031,0.04-0.093,0.117c-0.062,0.075-0.152,0.19-0.228,0.35
		c-0.048,0.075-0.084,0.165-0.111,0.27c-0.017,0.05-0.033,0.103-0.051,0.157c-0.006,0.057-0.014,0.114-0.023,0.176
		c-0.041,0.241-0.011,0.521,0.025,0.816c0.055,0.298,0.138,0.616,0.264,0.944c0.117,0.331,0.278,0.667,0.434,1.019
		c0.344,0.699,0.71,1.445,1.077,2.19c0.345,0.763,0.694,1.542,0.825,2.348c0.074,0.398,0.087,0.809-0.008,1.185
		c-0.086,0.372-0.263,0.71-0.5,0.941c-0.222,0.248-0.486,0.4-0.719,0.513c-0.229,0.123-0.452,0.171-0.622,0.239
		c-0.358,0.084-0.563,0.124-0.563,0.124s0.194-0.075,0.534-0.205c0.159-0.087,0.37-0.156,0.571-0.303
		c0.208-0.133,0.431-0.301,0.614-0.53c0.197-0.22,0.322-0.517,0.373-0.841c0.059-0.326,0.019-0.685-0.057-1.051
		c-0.07-0.367-0.207-0.736-0.35-1.11c-0.142-0.375-0.318-0.748-0.494-1.123c-0.349-0.749-0.728-1.492-1.031-2.221
		c-0.304-0.727-0.526-1.445-0.591-2.088c-0.023-0.321-0.014-0.623,0.061-0.879c0.016-0.063,0.031-0.124,0.047-0.185
		c0.026-0.055,0.05-0.11,0.072-0.161c0.042-0.106,0.091-0.196,0.153-0.271c0.099-0.163,0.209-0.254,0.281-0.32
		C-39.696,170.489-39.658,170.454-39.658,170.454z"/>
	<path fill="#574255" d="M-34.811,175.619c0,0-0.091,0.094-0.243,0.261c-0.066,0.09-0.154,0.188-0.215,0.326
		c-0.074,0.13-0.119,0.293-0.144,0.467c-0.019,0.175-0.007,0.368,0.044,0.567c0.042,0.2,0.136,0.404,0.229,0.613
		c0.208,0.415,0.479,0.844,0.764,1.275c0.272,0.438,0.561,0.881,0.74,1.366c0.09,0.24,0.142,0.505,0.11,0.764
		c-0.028,0.257-0.161,0.495-0.333,0.627c-0.159,0.144-0.335,0.221-0.487,0.279c-0.153,0.056-0.291,0.087-0.402,0.116
		c-0.226,0.039-0.354,0.055-0.354,0.055s0.12-0.053,0.328-0.135c0.197-0.098,0.508-0.229,0.737-0.493
		c0.245-0.257,0.23-0.657,0.042-1.072c-0.189-0.412-0.471-0.84-0.752-1.271c-0.275-0.438-0.554-0.887-0.745-1.354
		c-0.093-0.236-0.17-0.473-0.198-0.712c-0.039-0.235-0.023-0.471,0.031-0.675c0.053-0.203,0.145-0.378,0.251-0.504
		c0.097-0.137,0.213-0.227,0.297-0.305c0.088-0.072,0.171-0.111,0.221-0.146C-34.838,175.637-34.811,175.619-34.811,175.619z"/>
	<g>
		<path fill="#716247" d="M-18.785,176.277l0.008,4.039c0,0.824,1.061,0.826,1.059-0.003l-0.007-4.82
			c1.556,0.36,1.313,8.51-1.534,8.524c-2.84,0.02-3.164-8.136-1.565-8.519l0.008,4.82c0.003,0.829,1.068,0.823,1.066-0.002
			l-0.007-4.039c-0.002-1.284,0.975-1.28,0.976-0.001H-18.785z"/>
		<path fill="#716247" d="M-18.603,185.034c-0.462,0.152-0.938,0.152-1.408,0.003l-0.424,15.425
			c-0.037,1.253,2.355,1.242,2.314-0.006L-18.603,185.034L-18.603,185.034z"/>
	</g>
</g>
<g>
	<g>
		<g>
			<g>
				<path fill="#464646" d="M53.653,198.596H23.21c0,2.144,4.225,3.963,10.116,4.644v0.696h10.211v-0.696
					C49.428,202.559,53.653,200.739,53.653,198.596z"/>
			</g>
		</g>
	</g>
	<g>
		<path fill="#464646" d="M26.701,196.42c-0.372-0.221-0.825-0.214-1.155,0.025c-0.176,0.124-0.564,0.504-0.362,1.333l0.646-0.151
			c-0.077-0.313-0.037-0.556,0.108-0.657c0.11-0.078,0.278-0.078,0.418,0.008c0.198,0.117,0.282,0.36,0.233,0.672l0.656,0.102
			C27.335,197.176,27.132,196.679,26.701,196.42z"/>
		<path fill="#464646" d="M35.639,192.817c-1.302-0.046-3.017,0.205-3.902,1.053c-0.726,0.694-1.588,2.732-0.859,3.699l0.533-0.389
			c-0.444-0.587,0.193-2.277,0.789-2.845c0.737-0.708,2.301-0.911,3.415-0.868c1.12,0.039,1.784,0.664,2.492,1.653
			c0.488,0.685,0.896,1.827,0.654,2.137l0.525,0.399c0.627-0.798-0.342-2.501-0.637-2.909
			C38.002,193.846,37.183,192.874,35.639,192.817z"/>
		<path fill="#464646" d="M35.259,194.532c-0.94-0.144-1.914,0.233-2.482,0.951c-0.485,0.614-0.588,1.379-0.28,2.1l0.613-0.252
			c-0.217-0.505-0.149-1.021,0.191-1.45c0.416-0.524,1.167-0.811,1.859-0.704c1.204,0.174,1.29,1.096,1.29,2.606l0.664-0.015
			C37.114,196.445,37.114,194.804,35.259,194.532z"/>
		<path fill="#464646" d="M35.078,195.83c-0.349-0.038-0.655,0.069-0.889,0.308c-0.376,0.381-0.444,0.975-0.388,1.365l0.658-0.093
			c-0.045-0.308,0.042-0.653,0.207-0.816c0.091-0.094,0.2-0.132,0.341-0.116c0.088,0.01,0.155,0.05,0.213,0.125
			c0.167,0.224,0.201,0.659,0.161,0.878l0.651,0.116c0.062-0.327,0.037-0.965-0.28-1.382
			C35.583,195.992,35.349,195.859,35.078,195.83z"/>
		<path fill="#464646" d="M41.676,196.768l0.33,0.564c0.093-0.053,0.225-0.06,0.299-0.049c-0.002,0.006-0.006,0.014-0.01,0.02
			l0.585,0.308c0.238-0.438,0.008-0.71-0.067-0.783C42.527,196.559,42.003,196.585,41.676,196.768z"/>
		<path fill="#464646" d="M41.967,195.136c-0.178,0.092-0.346,0.18-0.476,0.219l0.202,0.624c0.188-0.063,0.381-0.163,0.585-0.268
			c0.519-0.271,0.874-0.434,1.095-0.219c0.211,0.202,0.123,0.786,0.074,1.102c-0.035,0.232-0.057,0.355-0.014,0.478l0.63-0.206
			c0.009,0.031,0.01,0.053,0.01,0.053c-0.001-0.033,0.017-0.145,0.03-0.232c0.069-0.455,0.188-1.224-0.266-1.661
			C43.252,194.466,42.51,194.854,41.967,195.136z"/>
		<path fill="#464646" d="M53.44,195.002c-0.192-0.983-1.675-1.877-2.836-1.877c-0.005,0-0.013,0-0.017,0
			c-0.715,0-1.209,0.193-1.36,0.894l0.649,0.026c0.086-0.404,0.311-0.646,0.721-0.637c0.848,0.011,2.055,0.842,2.189,1.531
			c0.114,0.584,0.18,1.287,0.032,1.912c0.011-0.306-0.067-0.612-0.243-0.894c-0.437-0.703-1.416-1.183-2.233-1.089
			c-0.439,0.055-0.768,0.279-0.942,0.62c0.051-1.465-0.524-2.781-1.713-3.723c-1.638-1.299-3.924-1.435-5.516-1.125
			c-0.068,0.013-0.15,0.036-0.228,0.056c-0.413-1.614-2.21-2.328-3.773-2.168c-1.355,0.142-2.901,0.99-2.875,2.912
			c-1.309,0.03-2.576,0.441-3.6,1.216c-0.021,0.017-0.04,0.036-0.062,0.053c-0.016-0.346-0.159-0.666-0.435-0.932
			c-0.584-0.559-1.653-0.802-2.4-0.752c-1.531,0.104-2.255,0.903-2.217,2.447l0.665-0.014c-0.032-1.202,0.417-1.702,1.598-1.783
			c0.59-0.041,1.467,0.159,1.889,0.567c0.175,0.166,0.254,0.348,0.244,0.557l0.519,0.026c-1.028,0.854-1.696,2.019-1.921,3.325
			c-0.136-0.69-0.474-1.326-1.317-1.709l0.439-0.237c-0.227-0.403,0.124-0.753,0.368-0.895c0.275-0.16,0.824-0.305,1.136,0.171
			l0.557-0.354c-0.486-0.744-1.39-0.751-2.033-0.376c-0.649,0.381-0.889,1.021-0.66,1.606c-0.361-0.134-0.805-0.226-1.349-0.264
			c-1.19-0.086-2.397,0.411-2.999,1.234c-0.438,0.6-0.51,1.321-0.205,2.036l0.564-0.23c0.026,0.149,0.062,0.301,0.128,0.453
			l0.609-0.257c-0.256-0.585-0.016-0.987,0.229-1.218c0.479-0.452,1.331-0.604,1.895-0.338c0.48,0.223,0.701,0.712,0.64,1.41
			l0.661,0.054c0.116-1.316-0.586-1.85-1.015-2.054c-0.822-0.384-1.956-0.188-2.64,0.458c-0.374,0.352-0.541,0.793-0.525,1.261
			c-0.125-0.433-0.067-0.834,0.197-1.198c0.463-0.636,1.455-1.03,2.413-0.965c2.298,0.162,2.317,1.291,2.344,2.721l0.665-0.011
			c-0.001-0.051-0.002-0.102-0.003-0.153l0.473-0.012c-0.042-1.668,0.65-3.129,1.953-4.114c1.374-1.039,3.244-1.36,5.002-0.855
			c1.486,0.422,2.732,1.555,3.248,2.952c0.212,0.574,0.121,1.117,0.023,1.686c-0.043,0.26-0.09,0.526-0.109,0.805l0.662,0.045
			c0.018-0.248,0.058-0.488,0.102-0.74c0.105-0.618,0.207-1.256-0.041-1.969l0.354,0.011c0.021-0.508,0.905-1.05,1.48-1.175
			c0.901-0.206,1.587,0.121,2.04,0.971c0.267,0.499,0.366,1.456,0.098,1.99c-0.117,0.234-0.289,0.366-0.523,0.405l0.114,0.646
			c0.446-0.078,0.794-0.341,1.005-0.762c0.381-0.758,0.241-1.932-0.105-2.582c-0.592-1.111-1.576-1.574-2.777-1.304
			c-0.566,0.124-1.549,0.628-1.876,1.351c-0.067-0.143-0.142-0.28-0.223-0.416l0.103,0.014c0.079-0.583,0.407-1.011,0.968-1.271
			c1.107-0.509,2.874-0.257,3.768,0.286c0.616,0.37,1.11,1.131,1.289,1.977c0.164,0.769,0.046,1.514-0.325,2.038l0.545,0.371
			c0.473-0.672,0.631-1.601,0.43-2.541c-0.217-1.031-0.812-1.927-1.589-2.4c-1.062-0.645-3.082-0.928-4.399-0.318
			c-0.587,0.271-0.994,0.697-1.204,1.241c-0.182-0.229-0.376-0.449-0.593-0.648l0.284-0.019c-0.052-0.793,1.542-1.504,2.448-1.676
			c1.818-0.349,3.768,0.038,4.974,0.991c1.53,1.214,1.897,3.162,0.98,5.216l0.607,0.262c0.15-0.338,0.262-0.672,0.351-1.003
			l0.489,0.161c0.022-0.059,0.087-0.242,0.37-0.193c0.273,0.044,0.564,0.287,0.561,0.573l0.661,0.008
			c0.011-0.646-0.558-1.13-1.108-1.222c-0.356-0.062-0.669,0.047-0.885,0.271c0.045-0.229,0.074-0.454,0.09-0.677l0.563,0.177
			c0.021-0.071,0.093-0.29,0.47-0.336c0.497-0.057,1.256,0.242,1.589,0.778c0.224,0.361,0.197,0.745-0.08,1.148l0.484,0.322
			l0.448,0.512C53.706,197.373,53.643,196.045,53.44,195.002z M39.229,192.696c-0.389-0.306-0.812-0.567-1.271-0.765l0.396-0.062
			c-0.021-0.135-0.011-0.287,0.23-0.385c0.371-0.153,0.97-0.038,1.166,0.223l0.535-0.387c-0.421-0.562-1.369-0.679-1.957-0.44
			c-0.426,0.175-0.646,0.529-0.629,0.953c-0.135-0.05-0.27-0.104-0.409-0.144c-0.009-0.003-0.018-0.004-0.027-0.006l0.146-0.074
			c-0.071-0.133-0.073-0.269-0.004-0.419c0.154-0.338,0.603-0.638,0.949-0.729c0.793-0.21,1.408,0.034,1.884,0.745l0.554-0.361
			c-0.635-0.941-1.537-1.294-2.609-1.014c-0.486,0.13-1.128,0.529-1.383,1.097c-0.095,0.21-0.119,0.424-0.088,0.631
			c-0.251-0.049-0.502-0.083-0.754-0.102c-0.033-1.501,1.152-2.162,2.284-2.278c1.288-0.132,2.768,0.43,3.073,1.711
			C40.408,191.225,39.391,191.842,39.229,192.696z"/>
		<path fill="#464646" d="M26.021,193.758c-0.414-0.533-0.486-1.136-0.219-1.794c0.414-1.007,1.636-1.974,2.724-2.145
			c0.74-0.115,1.404,0.021,1.921,0.398c0.559,0.408,0.926,1.086,1.033,1.909l0.658-0.083c-0.13-0.995-0.59-1.834-1.294-2.348
			c-0.663-0.486-1.501-0.667-2.422-0.521c-1.315,0.209-2.735,1.327-3.234,2.549c-0.355,0.867-0.25,1.708,0.305,2.43L26.021,193.758z
			"/>
	</g>
	<path fill="#464646" d="M36,187.926l-0.304-0.146c-0.091-0.064-0.186-0.133-0.275-0.207l-0.116-0.13
		c-0.037-0.045-0.083-0.083-0.107-0.137c-0.051-0.104-0.131-0.2-0.156-0.316c-0.035-0.112-0.083-0.226-0.088-0.344
		c-0.011-0.117-0.031-0.235-0.015-0.352c0.011-0.116,0.004-0.236,0.03-0.35l0.066-0.343l0.015-0.081l0.099-0.021
		c0.415-0.092,0.842-0.226,1.132-0.458c0.139-0.118,0.219-0.255,0.208-0.414c-0.009-0.162-0.088-0.342-0.191-0.514
		c-0.211-0.345-0.511-0.662-0.809-0.979l-0.453-0.487c-0.147-0.172-0.302-0.334-0.424-0.581c-0.016-0.029-0.029-0.067-0.04-0.105
		c-0.008-0.027-0.01-0.021-0.019-0.075l-0.005-0.04l-0.018-0.164c-0.017-0.103-0.01-0.231,0-0.36
		c0.003-0.132,0.034-0.248,0.063-0.363c0.023-0.118,0.067-0.227,0.109-0.336c0.083-0.219,0.197-0.418,0.314-0.611
		c0.113-0.193,0.237-0.375,0.352-0.561c0.117-0.185,0.223-0.37,0.312-0.561c0.088-0.192,0.148-0.39,0.173-0.597
		c0.011-0.204-0.015-0.417-0.102-0.612c-0.078-0.201-0.206-0.377-0.334-0.558c0.153,0.157,0.316,0.312,0.421,0.516
		c0.116,0.195,0.174,0.426,0.19,0.66c0,0.115-0.013,0.232-0.029,0.348c-0.031,0.111-0.054,0.229-0.097,0.333
		c-0.08,0.215-0.18,0.418-0.285,0.613c-0.209,0.393-0.424,0.771-0.561,1.162c-0.034,0.097-0.07,0.194-0.083,0.294
		c-0.022,0.098-0.043,0.196-0.041,0.285c-0.005,0.091-0.014,0.183,0.011,0.298l0.021,0.164l0.005,0.041
		c-0.003-0.028,0.005,0.005,0.005,0.004c0.006,0.014,0.008,0.027,0.02,0.047c0.073,0.148,0.221,0.316,0.362,0.472l0.451,0.476
		c0.301,0.325,0.609,0.655,0.853,1.064c0.119,0.204,0.225,0.44,0.231,0.722c0.013,0.287-0.169,0.566-0.372,0.714
		c-0.205,0.155-0.43,0.244-0.652,0.31s-0.445,0.104-0.667,0.141l0.113-0.104l-0.083,0.312c-0.034,0.104-0.033,0.21-0.051,0.315
		c-0.023,0.107-0.009,0.211-0.01,0.315c-0.009,0.108,0.022,0.209,0.039,0.314c0.01,0.106,0.073,0.196,0.108,0.296
		c0.015,0.053,0.052,0.092,0.083,0.138l0.093,0.134c0.074,0.077,0.154,0.148,0.231,0.229L36,187.926z"/>
	<path fill="#464646" d="M38.324,173.945c0,0-0.031,0.04-0.092,0.117c-0.062,0.075-0.152,0.19-0.229,0.35
		c-0.048,0.075-0.084,0.165-0.11,0.27c-0.017,0.05-0.033,0.103-0.051,0.157c-0.007,0.057-0.015,0.114-0.022,0.176
		c-0.041,0.241-0.012,0.521,0.025,0.816c0.055,0.298,0.137,0.616,0.264,0.944c0.117,0.331,0.277,0.667,0.434,1.019
		c0.344,0.699,0.711,1.445,1.078,2.19c0.344,0.763,0.693,1.542,0.824,2.348c0.074,0.398,0.087,0.809-0.008,1.185
		c-0.086,0.372-0.263,0.71-0.5,0.941c-0.223,0.248-0.486,0.4-0.72,0.513c-0.229,0.123-0.452,0.171-0.622,0.239
		c-0.358,0.084-0.563,0.124-0.563,0.124s0.194-0.075,0.534-0.205c0.159-0.087,0.37-0.156,0.571-0.303
		c0.208-0.133,0.431-0.301,0.614-0.53c0.197-0.22,0.321-0.517,0.372-0.841c0.06-0.326,0.019-0.685-0.058-1.051
		c-0.07-0.367-0.207-0.736-0.35-1.11c-0.142-0.375-0.318-0.748-0.494-1.123c-0.349-0.749-0.728-1.492-1.031-2.221
		c-0.303-0.727-0.525-1.445-0.59-2.088c-0.023-0.321-0.015-0.623,0.061-0.879c0.016-0.063,0.03-0.124,0.047-0.185
		c0.025-0.055,0.05-0.11,0.072-0.161c0.041-0.106,0.091-0.196,0.152-0.271c0.099-0.163,0.209-0.254,0.281-0.32
		C38.287,173.98,38.324,173.945,38.324,173.945z"/>
	<path fill="#464646" d="M43.172,179.11c0,0-0.092,0.094-0.242,0.261c-0.066,0.09-0.154,0.188-0.216,0.326
		c-0.073,0.13-0.119,0.293-0.144,0.467c-0.02,0.175-0.008,0.368,0.044,0.567c0.042,0.2,0.136,0.404,0.229,0.613
		c0.208,0.415,0.479,0.844,0.764,1.275c0.272,0.438,0.562,0.881,0.739,1.366c0.091,0.24,0.143,0.505,0.111,0.764
		c-0.028,0.257-0.161,0.495-0.334,0.627c-0.158,0.144-0.334,0.221-0.486,0.279c-0.152,0.056-0.291,0.087-0.402,0.116
		c-0.226,0.039-0.354,0.055-0.354,0.055s0.119-0.053,0.328-0.135c0.197-0.098,0.508-0.229,0.736-0.493
		c0.246-0.257,0.23-0.657,0.043-1.072c-0.189-0.412-0.471-0.84-0.752-1.271c-0.275-0.438-0.554-0.887-0.745-1.354
		c-0.093-0.236-0.17-0.473-0.198-0.712c-0.039-0.235-0.022-0.471,0.031-0.675c0.053-0.203,0.145-0.378,0.251-0.504
		c0.097-0.137,0.214-0.227,0.298-0.305c0.088-0.072,0.17-0.111,0.221-0.146C43.145,179.128,43.172,179.11,43.172,179.11z"/>
	<g>
		<path fill="#464646" d="M59.198,179.769l0.008,4.039c0,0.824,1.06,0.826,1.06-0.003l-0.008-4.82
			c1.555,0.36,1.314,8.51-1.535,8.524c-2.84,0.02-3.163-8.136-1.564-8.519l0.008,4.82c0.002,0.829,1.068,0.823,1.066-0.002
			l-0.007-4.039c-0.003-1.284,0.975-1.28,0.976-0.001H59.198z"/>
		<path fill="#464646" d="M59.38,188.525c-0.462,0.152-0.938,0.152-1.408,0.003l-0.424,15.425c-0.037,1.253,2.354,1.242,2.314-0.006
			L59.38,188.525L59.38,188.525z"/>
	</g>
</g>
<g>
	<polygon fill="#E62D22" stroke="#E52F21" stroke-miterlimit="10" points="-25.18,285.551 -42.91,285.551 -44.88,264.09 
		-23.21,264.09 	"/>
	<rect x="-37.448" y="255.551" fill="#E62D22" width="5.757" height="2.094"/>
	<path fill="#E62D22" d="M-23.315,261.998h-21.983c0,0,0-0.402,0-1.529c0-4.08,21.983-4.217,21.983,0.102
		C-23.315,261.32-23.315,261.998-23.315,261.998z"/>
	
		<line fill="none" stroke="#F6F6F6" stroke-width="2" stroke-linecap="round" stroke-miterlimit="10" x1="-40.64" y1="267.074" x2="-39.62" y2="282.148"/>
	
		<line fill="none" stroke="#F6F6F6" stroke-width="2" stroke-linecap="round" stroke-miterlimit="10" x1="-36.872" y1="267.074" x2="-35.93" y2="282.148"/>
	
		<line fill="none" stroke="#F6F6F6" stroke-width="2" stroke-linecap="round" stroke-miterlimit="10" x1="-31.219" y1="267.074" x2="-32.161" y2="282.148"/>
	
		<line fill="none" stroke="#F6F6F6" stroke-width="2" stroke-linecap="round" stroke-miterlimit="10" x1="-27.45" y1="267.074" x2="-28.393" y2="282.148"/>
</g>
<g>
	<polygon fill="#464646" points="51.882,282.074 34.152,282.074 32.183,260.613 53.853,260.613 	"/>
	<rect x="39.615" y="252.074" fill="#464646" width="5.757" height="2.094"/>
	<path fill="#464646" d="M53.747,258.521H31.764c0,0,0-0.401,0-1.528c0-4.08,21.983-4.217,21.983,0.101
		C53.747,257.843,53.747,258.521,53.747,258.521z"/>
	
		<line fill="none" stroke="#F6F6F6" stroke-width="2" stroke-linecap="round" stroke-miterlimit="10" x1="36.422" y1="263.598" x2="37.443" y2="278.672"/>
	
		<line fill="none" stroke="#F6F6F6" stroke-width="2" stroke-linecap="round" stroke-miterlimit="10" x1="40.191" y1="263.598" x2="41.133" y2="278.672"/>
	
		<line fill="none" stroke="#F6F6F6" stroke-width="2" stroke-linecap="round" stroke-miterlimit="10" x1="45.844" y1="263.598" x2="44.901" y2="278.672"/>
	
		<line fill="none" stroke="#F6F6F6" stroke-width="2" stroke-linecap="round" stroke-miterlimit="10" x1="49.612" y1="263.598" x2="48.671" y2="278.672"/>
</g>
</svg>
