<?xml version="1.0" encoding="utf-8"?>
<!-- Generator: Adobe Illustrator 16.0.0, SVG Export Plug-In . SVG Version: 6.00 Build 0)  -->
<!DOCTYPE svg PUBLIC "-//W3C//DTD SVG 1.1//EN" "http://www.w3.org/Graphics/SVG/1.1/DTD/svg11.dtd">
<svg version="1.1" id="Capa_1" xmlns="http://www.w3.org/2000/svg" xmlns:xlink="http://www.w3.org/1999/xlink" x="0px" y="0px"
	 width="75px" height="65px" viewBox="0 0 75 65" enable-background="new 0 0 75 65" xml:space="preserve">
<g>
	<g>
		<path fill="#464646" d="M-68.376,16.625C-79.415,21.51-86.653,31.89-86.653,31.89c0.06,0.067,5.485,6.28,9.979,4.644l0.151,1.106
			c-0.565,0.205-1.145,0.297-1.729,0.297c-3.104,0-6.346-2.569-8.02-4.133c2.369,2.965,8.779,10.258,17.111,14.217
			C-62.943,37.424-67.403,20.058-68.376,16.625z M-75.117,32.893c-1.53,0-2.773-1.242-2.773-2.773c0-1.531,1.243-2.771,2.773-2.771
			c1.532,0,2.775,1.24,2.775,2.771C-72.342,31.651-73.585,32.893-75.117,32.893z"/>
		<path fill="#464646" d="M-32.571,28.473c-4.858-5.355-14.54-14.145-25.686-14.145c-3.115,0-6.116,0.695-8.93,1.803
			c0.953,3.233,5.75,21.092-0.8,32.418c3.042,1.297,6.316,2.123,9.729,2.123c11.813,0,21.971-9.867,26.506-15.057l8.957,5.113
			V24.275L-32.571,28.473z"/>
	</g>
</g>
<g>
	<g>
		<path fill="#004169" d="M130.124,6.625c-11.039,4.885-18.276,15.265-18.276,15.265c0.061,0.067,5.484,6.28,9.979,4.644
			l0.149,1.106c-0.563,0.205-1.145,0.297-1.729,0.297c-3.104,0-6.346-2.569-8.02-4.133c2.369,2.965,8.777,10.258,17.109,14.217
			C135.557,27.424,131.098,10.058,130.124,6.625z M123.383,22.893c-1.529,0-2.773-1.242-2.773-2.773
			c0-1.531,1.244-2.771,2.773-2.771c1.532,0,2.775,1.24,2.775,2.771C126.158,21.651,124.915,22.893,123.383,22.893z"/>
		<path fill="#738BAD" d="M165.93,18.473c-4.859-5.355-14.541-14.145-25.687-14.145c-3.115,0-6.116,0.694-8.931,1.803
			c0.953,3.232,5.75,21.092-0.799,32.418c3.041,1.297,6.314,2.123,9.729,2.123c11.812,0,21.971-9.867,26.506-15.057l8.957,5.113
			V14.275L165.93,18.473z"/>
	</g>
</g>
<path fill="#F39200" d="M38.992,93.426l1.023,1.061c0.371,0.387,0.986,0.396,1.373,0.023l0.582-0.562
	c0.385-0.368,0.396-0.985,0.021-1.37l-0.789-0.819l-0.232-0.24c-0.371-0.386-0.988-0.396-1.373-0.022l-0.582,0.562
	C38.632,92.426,38.62,93.041,38.992,93.426z"/>
<path fill="#F39200" d="M36.606,95.73l1.022,1.061c0.372,0.385,0.988,0.395,1.373,0.023l0.582-0.562
	c0.386-0.37,0.396-0.986,0.024-1.372l-1.022-1.06c-0.373-0.385-0.988-0.396-1.373-0.024l-0.582,0.562
	C36.245,94.729,36.234,95.346,36.606,95.73z"/>
<path fill="#F39200" d="M37.198,98.557c0.386-0.371,0.396-0.986,0.024-1.371l-1.023-1.062c-0.225-0.229-0.541-0.327-0.841-0.284
	c-0.228,0.793-0.503,1.633-0.837,2.512l0.723,0.744c0.371,0.385,0.986,0.396,1.372,0.023L37.198,98.557z"/>
<path fill="#F39200" d="M34.812,100.859c0.385-0.371,0.396-0.985,0.023-1.371l-0.541-0.561c-0.342,0.854-0.737,1.74-1.196,2.651
	c0.361,0.19,0.82,0.144,1.131-0.158L34.812,100.859z"/>
<path fill="#F39200" d="M32.711,102.328c-0.215,0.404-0.441,0.811-0.683,1.222l0.398-0.385
	C32.658,102.939,32.754,102.627,32.711,102.328z"/>
<path fill="#F39200" d="M44.734,96.811c0.387-0.371,0.396-0.984,0.023-1.373l-0.929-0.961l-0.095-0.099
	c-0.373-0.385-0.988-0.396-1.375-0.022l-0.582,0.562c-0.385,0.371-0.396,0.986-0.021,1.373l1.021,1.059
	c0.371,0.385,0.988,0.396,1.371,0.023L44.734,96.811z"/>
<path fill="#F39200" d="M42.35,99.115c0.385-0.372,0.396-0.987,0.023-1.373l-1.023-1.061c-0.371-0.386-0.986-0.396-1.371-0.023
	l-0.584,0.562c-0.385,0.371-0.396,0.986-0.021,1.375l1.021,1.057c0.373,0.386,0.988,0.396,1.373,0.025L42.35,99.115z"/>
<path fill="#F39200" d="M39.963,101.42c0.385-0.372,0.396-0.986,0.023-1.374l-1.021-1.06c-0.373-0.385-0.988-0.396-1.374-0.022
	l-0.583,0.562c-0.385,0.373-0.395,0.988-0.023,1.373l1.023,1.062c0.373,0.386,0.988,0.396,1.373,0.022L39.963,101.42z"/>
<path fill="#F39200" d="M37.578,103.723c0.385-0.369,0.396-0.984,0.023-1.371l-1.023-1.061c-0.372-0.385-0.988-0.395-1.373-0.023
	l-0.582,0.562c-0.386,0.374-0.396,0.986-0.023,1.374l1.022,1.06c0.372,0.387,0.987,0.396,1.372,0.024L37.578,103.723z"/>
<path fill="#F39200" d="M35.19,106.027c0.387-0.371,0.396-0.987,0.024-1.373l-1.022-1.059c-0.373-0.387-0.988-0.396-1.374-0.025
	l-0.582,0.562c-0.385,0.372-0.396,0.988-0.023,1.373l1.022,1.062c0.373,0.385,0.988,0.395,1.374,0.021L35.19,106.027z"/>
<path fill="#F39200" d="M32.806,108.331c0.384-0.37,0.396-0.985,0.022-1.371l-1.021-1.06c-0.308-0.317-0.779-0.381-1.151-0.187
	c-0.343,0.5-0.704,1.007-1.088,1.513c-0.002,0.006-0.003,0.006-0.007,0.01c0.021,0.209,0.109,0.414,0.266,0.574l1.023,1.061
	c0.373,0.385,0.988,0.395,1.373,0.023L32.806,108.331z"/>
<path fill="#F39200" d="M30.419,110.637c0.385-0.371,0.396-0.986,0.024-1.373l-1.023-1.061c-0.114-0.117-0.252-0.2-0.397-0.247
	c-0.54,0.726-1.065,1.448-1.574,2.168l1.016,1.052c0.372,0.385,0.987,0.395,1.373,0.021L30.419,110.637z"/>
<path fill="#F39200" d="M28.033,112.939c0.384-0.371,0.396-0.986,0.023-1.371l-0.939-0.978c-0.548,0.782-1.079,1.558-1.59,2.316
	l0.55,0.569c0.373,0.383,0.988,0.396,1.373,0.022L28.033,112.939z"/>
<path fill="#F39200" d="M47.502,99.675c0.385-0.372,0.395-0.989,0.021-1.374l-0.094-0.097l-0.93-0.961
	c-0.371-0.388-0.986-0.396-1.372-0.024l-0.583,0.561c-0.386,0.373-0.396,0.99-0.023,1.375l1.022,1.062
	c0.37,0.386,0.988,0.396,1.372,0.022L47.502,99.675z"/>
<path fill="#F39200" d="M45.115,101.979c0.385-0.371,0.395-0.987,0.023-1.373l-1.022-1.061c-0.373-0.385-0.988-0.395-1.374-0.023
	l-0.582,0.562c-0.385,0.373-0.396,0.986-0.023,1.374l1.022,1.06c0.372,0.385,0.987,0.396,1.373,0.024L45.115,101.979z"/>
<path fill="#F39200" d="M42.729,104.283c0.388-0.371,0.396-0.988,0.023-1.373l-1.021-1.061c-0.373-0.388-0.987-0.396-1.373-0.021
	l-0.582,0.561c-0.387,0.373-0.396,0.987-0.023,1.373l1.021,1.061c0.373,0.386,0.988,0.396,1.373,0.023L42.729,104.283z"/>
<path fill="#F39200" d="M40.342,106.586c0.387-0.37,0.396-0.986,0.024-1.371l-1.023-1.061c-0.372-0.387-0.987-0.396-1.372-0.022
	l-0.583,0.562c-0.385,0.371-0.396,0.988-0.023,1.373l1.023,1.061c0.369,0.383,0.985,0.396,1.37,0.021L40.342,106.586z"/>
<path fill="#F39200" d="M37.956,108.893c0.385-0.373,0.396-0.988,0.023-1.373l-1.022-1.06c-0.372-0.388-0.986-0.396-1.372-0.022
	l-0.583,0.562c-0.386,0.372-0.396,0.985-0.023,1.374l1.023,1.061c0.369,0.385,0.986,0.396,1.371,0.023L37.956,108.893z"/>
<path fill="#F39200" d="M34.492,112.014c0.133-0.061,0.265-0.117,0.396-0.174c0.034-0.023,0.067-0.051,0.1-0.082l0.582-0.562
	c0.385-0.37,0.396-0.986,0.024-1.37l-1.024-1.062c-0.371-0.386-0.986-0.396-1.371-0.025l-0.583,0.562
	c-0.386,0.373-0.396,0.988-0.023,1.375l1.022,1.059C33.85,111.979,34.183,112.072,34.492,112.014z"/>
<path fill="#F39200" d="M33.435,112.51c-0.044-0.14-0.118-0.271-0.227-0.382l-1.022-1.062c-0.373-0.385-0.988-0.396-1.374-0.022
	l-0.582,0.562c-0.386,0.373-0.396,0.988-0.023,1.373l0.804,0.832C31.827,113.34,32.637,112.9,33.435,112.51z"/>
<path fill="#F39200" d="M30.508,114.105l-0.709-0.734c-0.373-0.385-0.988-0.395-1.373-0.023l-0.582,0.562
	c-0.385,0.371-0.396,0.986-0.023,1.374l0.292,0.304C28.914,115.072,29.713,114.575,30.508,114.105z"/>
<path fill="#F39200" d="M50.057,100.923l-0.789-0.817c-0.373-0.385-0.988-0.395-1.373-0.022l-0.582,0.562
	c-0.385,0.371-0.396,0.985-0.022,1.373l1.021,1.061c0.373,0.385,0.989,0.396,1.373,0.021l0.582-0.562
	c0.385-0.372,0.396-0.987,0.024-1.372L50.057,100.923z"/>
<path fill="#F39200" d="M41.611,91.363l0.789,0.818l0.183,0.188c0.349,0.357,0.942,0.352,1.329-0.021l0.582-0.562
	c0.386-0.37,0.417-0.97,0.068-1.328l-0.74-0.767l-0.231-0.239c-0.348-0.358-0.944-0.353-1.329,0.021l-0.582,0.562
	C41.294,90.406,41.264,91.003,41.611,91.363z"/>
<path fill="#F39200" d="M47.122,94.507c0.385-0.372,0.417-0.968,0.067-1.327l-0.877-0.908l-0.096-0.1
	c-0.35-0.359-0.945-0.35-1.33,0.021l-0.582,0.562c-0.386,0.373-0.416,0.97-0.066,1.329l0.928,0.962l0.043,0.046
	c0.35,0.36,0.945,0.35,1.331-0.021L47.122,94.507z"/>
<path fill="#F39200" d="M46.934,95.477c-0.386,0.373-0.416,0.969-0.07,1.328l0.048,0.047l0.928,0.959
	c0.349,0.36,0.943,0.353,1.33-0.021l0.582-0.562c0.386-0.371,0.415-0.967,0.065-1.328l-0.096-0.098l-0.875-0.908
	c-0.35-0.36-0.945-0.352-1.33,0.021L46.934,95.477z"/>
<path fill="#F39200" d="M52.21,98.378l-0.739-0.765c-0.347-0.36-0.943-0.352-1.33,0.02l-0.58,0.562
	c-0.388,0.371-0.416,0.968-0.067,1.328l0.183,0.188l0.789,0.818c0.35,0.357,0.945,0.35,1.33-0.021l0.582-0.562
	c0.387-0.372,0.416-0.967,0.066-1.326L52.21,98.378z"/>
<path fill="#F39200" d="M44.23,89.301l0.736,0.766l0.184,0.188c0.324,0.336,0.902,0.308,1.287-0.063l0.582-0.562
	c0.383-0.372,0.435-0.947,0.108-1.283l-0.688-0.711l-0.231-0.242c-0.324-0.336-0.899-0.307-1.287,0.066L44.34,88.02
	C43.956,88.391,43.906,88.965,44.23,89.301z"/>
<path fill="#F39200" d="M49.507,92.202c0.388-0.372,0.437-0.947,0.112-1.281l-0.827-0.856l-0.095-0.098
	c-0.324-0.336-0.899-0.307-1.284,0.064l-0.583,0.562c-0.387,0.371-0.436,0.946-0.111,1.282l0.877,0.908l0.045,0.046
	c0.323,0.335,0.898,0.304,1.284-0.066L49.507,92.202z"/>
<path fill="#F39200" d="M49.318,93.173c-0.385,0.371-0.438,0.947-0.111,1.282l0.044,0.045l0.877,0.908
	c0.324,0.335,0.901,0.306,1.285-0.066l0.584-0.562c0.386-0.37,0.435-0.945,0.108-1.281L52.014,93.4l-0.828-0.857
	c-0.322-0.335-0.898-0.305-1.285,0.066L49.318,93.173z"/>
<path fill="#F39200" d="M54.361,95.832l-0.688-0.711c-0.324-0.337-0.9-0.307-1.285,0.066l-0.582,0.562
	c-0.388,0.37-0.437,0.944-0.111,1.28l0.182,0.189l0.74,0.766c0.324,0.336,0.9,0.306,1.285-0.065l0.582-0.563
	c0.386-0.373,0.435-0.945,0.111-1.28L54.361,95.832z"/>
<path fill="#F39200" d="M46.852,87.236l0.688,0.714l0.184,0.188c0.299,0.312,0.822,0.291,1.17-0.041l0.535-0.52
	c0.346-0.333,0.381-0.855,0.08-1.168l-0.637-0.66l-0.23-0.24c-0.302-0.312-0.824-0.291-1.17,0.043l-0.535,0.518
	C46.586,86.402,46.55,86.928,46.852,87.236z"/>
<path fill="#F39200" d="M51.775,90.016c0.344-0.334,0.382-0.856,0.082-1.168l-0.775-0.804l-0.096-0.099
	c-0.301-0.311-0.824-0.291-1.17,0.041l-0.535,0.518c-0.346,0.333-0.383,0.857-0.081,1.167l0.825,0.856l0.043,0.045
	c0.3,0.311,0.824,0.291,1.17-0.043L51.775,90.016z"/>
<path fill="#F39200" d="M51.632,90.938c-0.345,0.336-0.382,0.858-0.082,1.17l0.043,0.045l0.826,0.854
	c0.3,0.312,0.825,0.292,1.17-0.041l0.536-0.519c0.346-0.334,0.381-0.856,0.081-1.168l-0.095-0.1l-0.773-0.801
	c-0.3-0.312-0.824-0.292-1.17,0.041L51.632,90.938z"/>
<path fill="#F39200" d="M56.324,93.473l-0.639-0.66c-0.299-0.31-0.824-0.291-1.17,0.041l-0.533,0.52
	c-0.346,0.334-0.383,0.855-0.084,1.168l0.184,0.188l0.688,0.711c0.301,0.312,0.826,0.293,1.17-0.039l0.537-0.519
	c0.344-0.333,0.381-0.858,0.082-1.168L56.324,93.473z"/>
<path fill="#F39200" d="M49.275,85.359l0.638,0.658l0.183,0.188c0.274,0.282,0.772,0.255,1.104-0.065l0.522-0.504
	c0.334-0.324,0.381-0.818,0.104-1.105l-0.816-0.85c-0.277-0.285-0.771-0.254-1.105,0.067l-0.521,0.505
	C49.048,84.578,49.002,85.074,49.275,85.359z"/>
<path fill="#F39200" d="M53.936,87.928c0.334-0.322,0.383-0.818,0.105-1.105l-0.818-0.848c-0.275-0.285-0.771-0.256-1.104,0.068
	l-0.522,0.503c-0.332,0.324-0.381,0.817-0.104,1.104l0.774,0.803l0.043,0.045c0.274,0.283,0.771,0.255,1.104-0.066L53.936,87.928z"
	/>
<path fill="#F39200" d="M53.807,88.84c-0.332,0.32-0.382,0.814-0.104,1.102l0.044,0.045l0.772,0.805
	c0.276,0.286,0.772,0.257,1.106-0.066l0.522-0.504c0.334-0.322,0.379-0.816,0.104-1.105l-0.816-0.848
	c-0.273-0.285-0.771-0.256-1.105,0.065L53.807,88.84z"/>
<path fill="#F39200" d="M57.646,90.557c-0.274-0.283-0.772-0.254-1.107,0.067l-0.521,0.506c-0.334,0.322-0.383,0.815-0.104,1.103
	l0.182,0.188l0.637,0.66c0.275,0.286,0.771,0.256,1.105-0.065l0.521-0.506c0.334-0.32,0.383-0.816,0.104-1.104L57.646,90.557z"/>
<path fill="#F39200" d="M51.881,83.602l0.734,0.764c0.238,0.242,0.646,0.236,0.908-0.02l0.438-0.423
	c0.264-0.255,0.284-0.661,0.046-0.905l-0.731-0.762c-0.237-0.244-0.646-0.238-0.908,0.016l-0.439,0.426
	C51.664,82.949,51.645,83.357,51.881,83.602z"/>
<path fill="#F39200" d="M55.951,85.982c0.262-0.258,0.285-0.662,0.048-0.906l-0.737-0.764c-0.236-0.244-0.644-0.238-0.904,0.017
	l-0.44,0.425c-0.265,0.253-0.284,0.661-0.047,0.904l0.733,0.764c0.236,0.245,0.646,0.238,0.908-0.018L55.951,85.982z"/>
<path fill="#F39200" d="M56.592,88.479c0.237,0.246,0.645,0.238,0.907-0.015l0.438-0.425c0.264-0.255,0.283-0.661,0.047-0.906
	l-0.734-0.762c-0.236-0.246-0.643-0.238-0.904,0.018l-0.438,0.424c-0.265,0.254-0.286,0.66-0.05,0.906L56.592,88.479z"/>
<path fill="#F39200" d="M58.331,88.445l-0.438,0.426c-0.265,0.253-0.285,0.658-0.047,0.906l0.734,0.762
	c0.236,0.245,0.643,0.236,0.906-0.018l0.438-0.424c0.266-0.257,0.285-0.662,0.049-0.906l-0.736-0.76
	C59.001,88.186,58.596,88.193,58.331,88.445z"/>
<path fill="#F39200" d="M54.355,82.374l0.604,0.628c0.173,0.18,0.521,0.137,0.759-0.094l0.415-0.399
	c0.239-0.229,0.295-0.577,0.119-0.757l-0.604-0.625c-0.172-0.182-0.521-0.139-0.758,0.092l-0.416,0.401
	C54.238,81.852,54.182,82.195,54.355,82.374z"/>
<path fill="#F39200" d="M55.991,84.068l0.606,0.629c0.174,0.18,0.521,0.136,0.758-0.096l0.416-0.398
	c0.235-0.23,0.293-0.576,0.119-0.756l-0.605-0.627c-0.174-0.18-0.52-0.137-0.758,0.095l-0.416,0.399
	C55.874,83.545,55.818,83.891,55.991,84.068z"/>
<path fill="#F39200" d="M57.629,85.766l0.605,0.627c0.175,0.18,0.521,0.135,0.758-0.094l0.417-0.4
	c0.237-0.229,0.292-0.573,0.12-0.754l-0.606-0.629c-0.173-0.18-0.521-0.135-0.758,0.096l-0.416,0.4
	C57.512,85.24,57.457,85.585,57.629,85.766z"/>
<path fill="#F39200" d="M59.803,86.305l-0.414,0.4c-0.24,0.23-0.295,0.576-0.121,0.755l0.605,0.628
	c0.172,0.18,0.52,0.137,0.757-0.094l0.416-0.4c0.239-0.23,0.293-0.574,0.12-0.756l-0.605-0.627
	C60.389,86.033,60.041,86.075,59.803,86.305z"/>
<path fill="#F39200" d="M56.736,81.219l0.481,0.495c0.116,0.122,0.324,0.11,0.466-0.024l0.295-0.283
	c0.139-0.135,0.158-0.344,0.041-0.465l-0.48-0.498c-0.117-0.121-0.325-0.107-0.464,0.025l-0.296,0.285
	C56.639,80.887,56.622,81.096,56.736,81.219z"/>
<path fill="#F39200" d="M58.038,82.562l0.479,0.496c0.115,0.121,0.324,0.108,0.465-0.024l0.295-0.284
	c0.139-0.135,0.158-0.344,0.039-0.464l-0.479-0.497c-0.116-0.121-0.325-0.109-0.465,0.023l-0.295,0.285
	C57.938,82.232,57.919,82.439,58.038,82.562z"/>
<path fill="#F39200" d="M59.335,83.904l0.479,0.496c0.117,0.123,0.326,0.111,0.465-0.023l0.295-0.283
	c0.14-0.135,0.158-0.343,0.041-0.465l-0.479-0.497c-0.117-0.12-0.326-0.11-0.469,0.024l-0.293,0.285
	C59.236,83.576,59.218,83.783,59.335,83.904z"/>
<path fill="#F39200" d="M60.634,85.249l0.479,0.498c0.115,0.122,0.324,0.108,0.465-0.026l0.295-0.283
	c0.139-0.133,0.156-0.342,0.039-0.465l-0.479-0.496c-0.117-0.121-0.326-0.108-0.468,0.024l-0.295,0.282
	C60.534,84.92,60.516,85.129,60.634,85.249z"/>
<path fill="#F39200" d="M47.88,104.844c0.384-0.373,0.396-0.99,0.022-1.375l-1.022-1.059c-0.372-0.385-0.987-0.396-1.372-0.023
	l-0.582,0.562c-0.385,0.369-0.396,0.986-0.023,1.371l1.022,1.061c0.371,0.385,0.986,0.395,1.372,0.023L47.88,104.844z"/>
<path fill="#F39200" d="M45.494,107.146c0.385-0.373,0.396-0.987,0.023-1.373l-1.023-1.06c-0.371-0.386-0.988-0.397-1.373-0.024
	l-0.582,0.562c-0.385,0.372-0.395,0.989-0.023,1.372l1.023,1.062c0.371,0.385,0.984,0.396,1.373,0.023L45.494,107.146z"/>
<path fill="#F39200" d="M39.723,109.32c-0.371-0.383-0.988-0.396-1.373-0.021l-0.583,0.562c-0.291,0.281-0.368,0.699-0.228,1.056
	c1.177-0.306,2.297-0.44,3.344-0.354c-0.037-0.062-0.084-0.125-0.136-0.183L39.723,109.32z"/>
<path fill="#F39200" d="M25.647,115.245c0.385-0.372,0.396-0.989,0.023-1.372l-0.466-0.48c-0.536,0.809-1.052,1.596-1.542,2.36
	l0.027,0.031c0.373,0.384,0.988,0.396,1.374,0.022L25.647,115.245z"/>
<path fill="#F39200" d="M27.188,116.189c0.146-0.1,0.294-0.194,0.442-0.291l-0.217-0.225c-0.373-0.385-0.987-0.396-1.372-0.023
	l-0.584,0.562c-0.331,0.319-0.385,0.819-0.155,1.199C25.905,117.027,26.527,116.623,27.188,116.189z"/>
<path fill="#F39200" d="M23.348,116.248c-0.473,0.74-0.919,1.454-1.343,2.136c0.243,0,0.485-0.093,0.673-0.271l0.583-0.562
	C23.622,117.2,23.653,116.633,23.348,116.248z"/>
<path fill="#F39200" d="M23.654,117.956l-0.582,0.562c-0.129,0.125-0.215,0.274-0.259,0.435c0.646-0.386,1.275-0.771,1.921-1.179
	C24.381,117.611,23.949,117.671,23.654,117.956z"/>
<path fill="#006633" d="M35.712,90.001c-0.185,2.812-1.228,9.565-6.709,16.802c-3.891,5.137-7.067,10.315-9.229,13.87
	c-0.969,0.521-2.029,1.074-3.239,1.685l-1.578-1.635c-0.021-0.088-0.043-0.173-0.063-0.264c-0.777-3.545,0.69-7.461,4.243-11.326
	c1.821-1.98,3.566-3.802,5.255-5.562c0,0,8.896-8.658,10.856-17.928C35.247,85.643,35.772,87.104,35.712,90.001z"/>
<path fill="#006633" d="M11.541,123.872c0.433,0.446,4.954,5.129,5.386,5.575c0.398-0.387,2.434-2.35,2.831-2.734
	c-0.432-0.447-4.953-5.13-5.384-5.576C13.975,121.521,11.941,123.484,11.541,123.872z"/>
<path fill="#464646" d="M40.646,112.337l-0.033,0.022c0.216,0.252,0.387,0.475,0.496,0.631
	C40.966,112.771,40.812,112.555,40.646,112.337z"/>
<path fill="#F39200" d="M40.129,108.93l1.023,1.062c0.371,0.385,0.986,0.396,1.373,0.021l0.582-0.56
	c0.385-0.374,0.395-0.99,0.022-1.376l-1.022-1.059c-0.371-0.386-0.988-0.396-1.371-0.023l-0.584,0.562
	C39.77,107.93,39.758,108.544,40.129,108.93z"/>
<path fill="#006633" d="M38.506,111.455c-3.271,0.604-7.086,2.798-10.93,5.324c-3.525,2.318-5.976,3.807-10.527,6.111l3.264,3.377
	c0.432,0.116,0.855,0.178,1.276,0.164h0.01h0.009c4.284,0.073,8.148-3.095,11.556-5.888c1.038-0.851,2.019-1.649,2.987-2.354
	c2.587-1.875,4.636-3.162,5.15-3.48c-0.217-0.43-0.473-0.867-0.769-1.311C40.186,112.873,39.415,111.958,38.506,111.455z"/>
<path fill="#006633" d="M46.037,117.92c0.283-1.668-0.04-3.365-1.698-4.996c-1.317-1.296-2.948-1.746-4.784-1.605
	c0.41,0.332,0.944,0.886,0.944,0.886c0.431,0.472,0.756,1.005,0.756,1.005c2.567,3.995,1.798,7.604,1.175,9.298
	c0.641-0.396,1.217-0.832,1.704-1.306C45.202,120.17,45.826,119.158,46.037,117.92z"/>
<path fill="#464646" d="M-49.397,93.911l1.024,1.062c0.371,0.385,0.987,0.396,1.372,0.022l0.583-0.562
	c0.385-0.371,0.396-0.988,0.023-1.373l-0.79-0.818L-47.418,92c-0.371-0.385-0.987-0.396-1.372-0.023l-0.583,0.562
	C-49.758,92.911-49.769,93.525-49.397,93.911z"/>
<path fill="#464646" d="M-51.782,96.216l1.022,1.062c0.371,0.386,0.987,0.396,1.372,0.022l0.583-0.562
	c0.386-0.37,0.396-0.987,0.024-1.372l-1.023-1.06c-0.372-0.387-0.987-0.396-1.372-0.024l-0.583,0.562
	C-52.145,95.214-52.155,95.831-51.782,96.216z"/>
<path fill="#464646" d="M-51.191,99.041c0.386-0.371,0.396-0.986,0.025-1.371l-1.024-1.062c-0.225-0.229-0.54-0.325-0.841-0.282
	c-0.228,0.793-0.503,1.632-0.837,2.51l0.723,0.745c0.371,0.385,0.987,0.396,1.372,0.023L-51.191,99.041z"/>
<path fill="#464646" d="M-53.577,101.346c0.385-0.371,0.396-0.986,0.024-1.371l-0.541-0.562c-0.342,0.854-0.738,1.741-1.196,2.653
	c0.361,0.19,0.82,0.142,1.13-0.158L-53.577,101.346z"/>
<path fill="#464646" d="M-55.679,102.812c-0.214,0.403-0.441,0.812-0.683,1.223l0.398-0.385
	C-55.73,103.425-55.636,103.111-55.679,102.812z"/>
<path fill="#464646" d="M-43.653,97.296c0.385-0.371,0.397-0.985,0.023-1.373l-0.928-0.961l-0.094-0.099
	c-0.374-0.385-0.99-0.395-1.375-0.022l-0.582,0.562c-0.385,0.371-0.396,0.986-0.023,1.373l1.023,1.06
	c0.372,0.386,0.988,0.396,1.372,0.022L-43.653,97.296z"/>
<path fill="#464646" d="M-46.039,99.602c0.385-0.373,0.396-0.988,0.022-1.373l-1.022-1.061c-0.372-0.385-0.988-0.395-1.373-0.023
	l-0.582,0.562c-0.385,0.373-0.396,0.986-0.023,1.375l1.022,1.059c0.373,0.385,0.988,0.396,1.374,0.023L-46.039,99.602z"/>
<path fill="#464646" d="M-48.426,101.904c0.385-0.371,0.396-0.986,0.023-1.373l-1.022-1.059c-0.372-0.387-0.988-0.396-1.373-0.023
	l-0.583,0.561c-0.385,0.374-0.395,0.989-0.024,1.374l1.024,1.06c0.372,0.387,0.987,0.396,1.373,0.024L-48.426,101.904z"/>
<path fill="#464646" d="M-50.812,104.208c0.386-0.37,0.396-0.985,0.023-1.372l-1.023-1.061c-0.371-0.385-0.987-0.396-1.372-0.023
	l-0.582,0.562c-0.386,0.373-0.396,0.985-0.024,1.373l1.023,1.06c0.371,0.386,0.986,0.396,1.372,0.024L-50.812,104.208z"/>
<path fill="#464646" d="M-53.198,106.514c0.386-0.371,0.396-0.988,0.024-1.373l-1.023-1.06c-0.372-0.386-0.987-0.396-1.373-0.024
	l-0.582,0.562c-0.385,0.372-0.396,0.988-0.024,1.373l1.023,1.061c0.372,0.385,0.987,0.395,1.373,0.022L-53.198,106.514z"/>
<path fill="#464646" d="M-55.584,108.816c0.385-0.371,0.396-0.986,0.023-1.371l-1.022-1.062c-0.307-0.315-0.778-0.38-1.15-0.185
	c-0.343,0.5-0.704,1.005-1.089,1.512c-0.002,0.005-0.002,0.005-0.007,0.012c0.022,0.207,0.109,0.411,0.267,0.571l1.023,1.062
	c0.372,0.386,0.987,0.396,1.372,0.022L-55.584,108.816z"/>
<path fill="#464646" d="M-57.971,111.121c0.385-0.371,0.396-0.986,0.025-1.372l-1.024-1.062c-0.113-0.117-0.251-0.199-0.397-0.246
	c-0.54,0.726-1.064,1.447-1.574,2.168l1.016,1.052c0.372,0.385,0.988,0.396,1.373,0.022L-57.971,111.121z"/>
<path fill="#464646" d="M-60.356,113.426c0.384-0.371,0.396-0.986,0.024-1.371l-0.94-0.977c-0.548,0.781-1.078,1.557-1.59,2.316
	l0.55,0.568c0.374,0.385,0.989,0.396,1.374,0.021L-60.356,113.426z"/>
<path fill="#464646" d="M-40.888,100.16c0.385-0.372,0.395-0.989,0.023-1.374l-0.095-0.097l-0.928-0.961
	c-0.372-0.389-0.988-0.396-1.373-0.024l-0.583,0.562c-0.386,0.371-0.397,0.988-0.023,1.373l1.022,1.062
	c0.37,0.384,0.989,0.396,1.372,0.021L-40.888,100.16z"/>
<path fill="#464646" d="M-43.274,102.465c0.385-0.372,0.395-0.988,0.024-1.374l-1.022-1.06c-0.374-0.385-0.989-0.395-1.375-0.024
	l-0.582,0.562c-0.385,0.373-0.396,0.988-0.023,1.375l1.022,1.06c0.372,0.386,0.988,0.396,1.373,0.024L-43.274,102.465z"/>
<path fill="#464646" d="M-45.661,104.77c0.387-0.371,0.397-0.988,0.024-1.373l-1.022-1.061c-0.374-0.387-0.989-0.396-1.373-0.021
	l-0.582,0.562c-0.386,0.373-0.396,0.985-0.024,1.373l1.022,1.062c0.373,0.385,0.988,0.396,1.373,0.022L-45.661,104.77z"/>
<path fill="#464646" d="M-48.047,107.07c0.385-0.369,0.396-0.985,0.023-1.37l-1.022-1.06c-0.373-0.389-0.988-0.396-1.373-0.023
	l-0.582,0.562c-0.385,0.368-0.396,0.985-0.023,1.37l1.022,1.062c0.372,0.383,0.988,0.396,1.373,0.021L-48.047,107.07z"/>
<path fill="#464646" d="M-50.434,109.378c0.386-0.374,0.397-0.987,0.023-1.374l-1.021-1.059c-0.373-0.387-0.987-0.396-1.373-0.023
	l-0.582,0.561c-0.386,0.373-0.396,0.988-0.024,1.375l1.023,1.061c0.37,0.387,0.987,0.396,1.372,0.023L-50.434,109.378z"/>
<path fill="#464646" d="M-53.896,112.498c0.132-0.061,0.265-0.117,0.396-0.173c0.033-0.024,0.067-0.052,0.099-0.082l0.583-0.562
	c0.385-0.373,0.396-0.988,0.023-1.373l-1.023-1.061c-0.371-0.387-0.987-0.396-1.371-0.025l-0.583,0.562
	c-0.386,0.373-0.396,0.986-0.024,1.375l1.023,1.061C-54.539,112.464-54.207,112.559-53.896,112.498z"/>
<path fill="#464646" d="M-54.954,112.995c-0.045-0.14-0.119-0.271-0.227-0.382l-1.023-1.061c-0.372-0.388-0.987-0.396-1.374-0.023
	l-0.582,0.561c-0.385,0.374-0.395,0.989-0.023,1.374l0.805,0.832C-56.562,113.825-55.752,113.387-54.954,112.995z"/>
<path fill="#464646" d="M-57.881,114.592l-0.709-0.734c-0.373-0.385-0.988-0.396-1.373-0.023l-0.582,0.562
	c-0.385,0.373-0.396,0.987-0.024,1.375l0.293,0.303C-59.476,115.559-58.676,115.061-57.881,114.592z"/>
<path fill="#464646" d="M-38.333,101.408l-0.79-0.817c-0.371-0.385-0.987-0.396-1.372-0.024l-0.582,0.562
	c-0.386,0.371-0.396,0.986-0.024,1.373l1.023,1.061c0.372,0.385,0.988,0.396,1.372,0.022l0.583-0.562
	c0.385-0.373,0.396-0.987,0.024-1.373L-38.333,101.408z"/>
<path fill="#464646" d="M-46.778,91.85l0.79,0.818l0.182,0.188c0.348,0.359,0.944,0.352,1.33-0.021l0.581-0.562
	c0.386-0.371,0.417-0.969,0.068-1.328l-0.738-0.766l-0.232-0.24c-0.349-0.359-0.944-0.353-1.33,0.021l-0.582,0.562
	C-47.096,90.893-47.127,91.488-46.778,91.85z"/>
<path fill="#464646" d="M-41.268,94.992c0.385-0.372,0.417-0.969,0.067-1.328l-0.877-0.908l-0.094-0.1
	c-0.35-0.358-0.945-0.35-1.33,0.021l-0.583,0.561c-0.385,0.373-0.416,0.97-0.067,1.328l0.928,0.963l0.044,0.047
	c0.349,0.359,0.945,0.349,1.331-0.021L-41.268,94.992z"/>
<path fill="#464646" d="M-41.457,95.962c-0.385,0.372-0.416,0.968-0.068,1.328l0.046,0.046l0.928,0.96
	c0.348,0.36,0.943,0.351,1.33-0.021l0.582-0.562c0.385-0.371,0.414-0.967,0.066-1.326l-0.096-0.1l-0.876-0.908
	c-0.349-0.359-0.944-0.35-1.329,0.021L-41.457,95.962z"/>
<path fill="#464646" d="M-36.179,98.863l-0.74-0.766c-0.347-0.359-0.943-0.352-1.33,0.021l-0.58,0.563
	c-0.388,0.371-0.417,0.967-0.069,1.326l0.183,0.188l0.79,0.818c0.348,0.358,0.944,0.35,1.33-0.021l0.581-0.562
	c0.385-0.373,0.417-0.969,0.067-1.328L-36.179,98.863z"/>
<path fill="#464646" d="M-44.158,89.786l0.737,0.765l0.183,0.188c0.324,0.338,0.901,0.309,1.286-0.063l0.583-0.562
	c0.384-0.371,0.434-0.946,0.109-1.282l-0.688-0.712l-0.232-0.242c-0.324-0.335-0.901-0.307-1.286,0.066l-0.582,0.562
	C-44.433,88.876-44.482,89.45-44.158,89.786z"/>
<path fill="#464646" d="M-38.883,92.688c0.387-0.371,0.437-0.945,0.113-1.281l-0.827-0.855l-0.094-0.097
	c-0.325-0.336-0.901-0.308-1.286,0.063l-0.582,0.562c-0.387,0.372-0.436,0.947-0.112,1.283l0.878,0.908l0.044,0.045
	c0.323,0.336,0.899,0.305,1.284-0.066L-38.883,92.688z"/>
<path fill="#464646" d="M-39.07,93.658c-0.386,0.371-0.436,0.947-0.111,1.281l0.043,0.045l0.877,0.908
	c0.325,0.336,0.902,0.307,1.286-0.065l0.583-0.562c0.386-0.373,0.436-0.947,0.109-1.283l-0.093-0.099l-0.828-0.856
	c-0.322-0.334-0.898-0.303-1.283,0.068L-39.07,93.658z"/>
<path fill="#464646" d="M-34.026,96.316l-0.688-0.711C-35.039,95.27-35.616,95.3-36,95.672l-0.582,0.562
	c-0.386,0.369-0.436,0.945-0.111,1.281l0.182,0.188l0.739,0.765c0.324,0.337,0.901,0.308,1.286-0.063l0.582-0.563
	c0.385-0.373,0.435-0.946,0.111-1.282L-34.026,96.316z"/>
<path fill="#464646" d="M-41.539,87.723l0.687,0.713l0.183,0.188c0.299,0.312,0.823,0.292,1.17-0.041l0.535-0.519
	c0.345-0.332,0.382-0.856,0.082-1.168l-0.637-0.66l-0.232-0.24c-0.3-0.312-0.825-0.291-1.169,0.043l-0.536,0.518
	C-41.803,86.889-41.839,87.412-41.539,87.723z"/>
<path fill="#464646" d="M-36.614,90.5c0.344-0.334,0.383-0.857,0.082-1.168l-0.774-0.803l-0.096-0.1
	c-0.3-0.311-0.824-0.291-1.17,0.041l-0.535,0.518c-0.346,0.334-0.382,0.857-0.082,1.168l0.826,0.855l0.043,0.045
	c0.3,0.312,0.824,0.291,1.169-0.041L-36.614,90.5z"/>
<path fill="#464646" d="M-36.757,91.422c-0.345,0.336-0.382,0.859-0.083,1.17l0.044,0.045l0.826,0.854
	c0.3,0.312,0.824,0.292,1.17-0.041l0.536-0.517c0.344-0.336,0.381-0.858,0.081-1.17l-0.095-0.1l-0.774-0.803
	c-0.299-0.311-0.824-0.291-1.169,0.041L-36.757,91.422z"/>
<path fill="#464646" d="M-32.064,93.957l-0.639-0.659c-0.299-0.31-0.823-0.291-1.169,0.041l-0.535,0.519
	c-0.345,0.334-0.381,0.856-0.083,1.168l0.183,0.188l0.688,0.711c0.301,0.312,0.826,0.292,1.171-0.04l0.535-0.518
	c0.346-0.333,0.383-0.859,0.082-1.168L-32.064,93.957z"/>
<path fill="#464646" d="M-39.113,85.846l0.637,0.658l0.183,0.189c0.275,0.283,0.772,0.254,1.104-0.067l0.523-0.503
	c0.334-0.324,0.381-0.818,0.104-1.104l-0.816-0.851c-0.277-0.284-0.772-0.255-1.106,0.065l-0.522,0.507
	C-39.342,85.062-39.388,85.561-39.113,85.846z"/>
<path fill="#464646" d="M-34.454,88.412c0.334-0.322,0.382-0.816,0.105-1.104l-0.818-0.85c-0.276-0.286-0.771-0.256-1.105,0.066
	l-0.523,0.504c-0.333,0.324-0.381,0.816-0.104,1.105l0.774,0.803l0.044,0.045c0.274,0.285,0.771,0.256,1.105-0.065L-34.454,88.412z"
	/>
<path fill="#464646" d="M-34.583,89.325c-0.333,0.319-0.382,0.815-0.105,1.103l0.044,0.045l0.774,0.803
	c0.276,0.285,0.772,0.256,1.106-0.066l0.523-0.504c0.334-0.322,0.38-0.816,0.104-1.104l-0.817-0.848
	c-0.275-0.285-0.772-0.257-1.106,0.064L-34.583,89.325z"/>
<path fill="#464646" d="M-30.742,91.042c-0.275-0.284-0.772-0.255-1.107,0.067l-0.521,0.506c-0.334,0.322-0.384,0.814-0.105,1.102
	l0.18,0.188l0.638,0.66c0.276,0.287,0.771,0.256,1.106-0.064l0.522-0.505c0.333-0.322,0.381-0.815,0.104-1.103L-30.742,91.042z"/>
<path fill="#464646" d="M-36.508,84.086l0.734,0.764c0.238,0.244,0.645,0.236,0.908-0.019l0.438-0.423
	c0.263-0.256,0.285-0.661,0.046-0.906l-0.733-0.761c-0.236-0.245-0.644-0.239-0.908,0.016l-0.438,0.425
	C-36.726,83.436-36.745,83.844-36.508,84.086z"/>
<path fill="#464646" d="M-32.438,86.469c0.261-0.258,0.284-0.662,0.047-0.906l-0.736-0.764c-0.237-0.244-0.645-0.238-0.905,0.016
	l-0.442,0.427c-0.263,0.253-0.283,0.659-0.047,0.903l0.735,0.765c0.237,0.243,0.646,0.237,0.907-0.019L-32.438,86.469z"/>
<path fill="#464646" d="M-31.797,88.965c0.236,0.245,0.643,0.238,0.907-0.015l0.438-0.425c0.264-0.256,0.284-0.662,0.047-0.906
	l-0.735-0.762c-0.236-0.246-0.642-0.238-0.905,0.017l-0.439,0.425c-0.264,0.254-0.286,0.659-0.048,0.906L-31.797,88.965z"/>
<path fill="#464646" d="M-30.058,88.932l-0.439,0.426c-0.264,0.252-0.286,0.658-0.048,0.906l0.735,0.762
	c0.237,0.244,0.644,0.236,0.908-0.018l0.438-0.425c0.264-0.255,0.285-0.661,0.047-0.905l-0.734-0.761
	C-29.389,88.671-29.795,88.68-30.058,88.932z"/>
<path fill="#464646" d="M-34.033,82.859l0.605,0.627c0.173,0.181,0.521,0.138,0.759-0.094l0.414-0.398
	c0.24-0.23,0.294-0.577,0.12-0.758l-0.605-0.625c-0.172-0.18-0.521-0.137-0.758,0.093l-0.416,0.401
	C-34.151,82.336-34.208,82.682-34.033,82.859z"/>
<path fill="#464646" d="M-32.397,84.555l0.606,0.629c0.173,0.18,0.521,0.135,0.759-0.096l0.415-0.398
	c0.237-0.229,0.293-0.576,0.119-0.756l-0.605-0.627c-0.173-0.18-0.52-0.137-0.759,0.094l-0.414,0.399
	C-32.516,84.029-32.57,84.376-32.397,84.555z"/>
<path fill="#464646" d="M-30.76,86.251l0.605,0.627c0.174,0.179,0.521,0.136,0.758-0.094l0.416-0.401
	c0.238-0.23,0.293-0.574,0.12-0.754l-0.606-0.628c-0.172-0.181-0.519-0.136-0.757,0.095l-0.416,0.4
	C-30.878,85.727-30.932,86.07-30.76,86.251z"/>
<path fill="#464646" d="M-28.587,86.79l-0.415,0.399c-0.238,0.23-0.293,0.578-0.121,0.756l0.607,0.627
	c0.172,0.181,0.519,0.138,0.757-0.094l0.415-0.4c0.239-0.229,0.294-0.574,0.12-0.756l-0.605-0.627
	C-28.001,86.52-28.348,86.561-28.587,86.79z"/>
<path fill="#464646" d="M-31.651,81.703l0.481,0.496c0.117,0.121,0.325,0.109,0.465-0.024l0.295-0.284
	c0.139-0.135,0.157-0.343,0.041-0.463l-0.481-0.5c-0.117-0.119-0.325-0.107-0.464,0.026l-0.295,0.284
	C-31.75,81.372-31.767,81.581-31.651,81.703z"/>
<path fill="#464646" d="M-30.352,83.047l0.479,0.496c0.118,0.122,0.327,0.109,0.465-0.023l0.296-0.285
	c0.139-0.135,0.157-0.342,0.04-0.463l-0.479-0.498c-0.118-0.121-0.327-0.108-0.465,0.024l-0.295,0.285
	C-30.451,82.719-30.47,82.925-30.352,83.047z"/>
<path fill="#464646" d="M-29.055,84.391l0.479,0.496c0.118,0.123,0.327,0.11,0.466-0.023l0.294-0.283
	c0.141-0.135,0.158-0.344,0.042-0.464l-0.479-0.497c-0.118-0.121-0.327-0.109-0.468,0.023l-0.293,0.285
	C-29.153,84.062-29.171,84.27-29.055,84.391z"/>
<path fill="#464646" d="M-27.756,85.734l0.479,0.498c0.117,0.121,0.326,0.107,0.466-0.026l0.294-0.284
	c0.14-0.133,0.158-0.342,0.04-0.464l-0.479-0.497c-0.118-0.12-0.327-0.109-0.466,0.025l-0.295,0.281
	C-27.855,85.404-27.873,85.613-27.756,85.734z"/>
<path fill="#464646" d="M-40.509,105.328c0.383-0.373,0.395-0.99,0.023-1.375l-1.024-1.059c-0.371-0.386-0.986-0.396-1.371-0.023
	l-0.583,0.562c-0.385,0.371-0.396,0.986-0.023,1.373l1.023,1.06c0.371,0.385,0.985,0.396,1.371,0.024L-40.509,105.328z"/>
<path fill="#464646" d="M-42.896,107.631c0.386-0.372,0.396-0.986,0.024-1.372l-1.024-1.059c-0.371-0.386-0.987-0.397-1.372-0.025
	l-0.583,0.562c-0.385,0.373-0.395,0.99-0.023,1.373l1.024,1.062c0.37,0.387,0.984,0.396,1.372,0.023L-42.896,107.631z"/>
<path fill="#464646" d="M-48.668,109.807c-0.37-0.383-0.986-0.395-1.372-0.021l-0.583,0.562c-0.291,0.28-0.367,0.699-0.227,1.055
	c1.176-0.305,2.296-0.438,3.343-0.354c-0.037-0.064-0.084-0.125-0.136-0.183L-48.668,109.807z"/>
<path fill="#464646" d="M-62.742,115.73c0.385-0.373,0.396-0.989,0.023-1.373l-0.465-0.48c-0.537,0.809-1.052,1.598-1.542,2.361
	l0.027,0.031c0.374,0.383,0.989,0.395,1.375,0.021L-62.742,115.73z"/>
<path fill="#464646" d="M-61.201,116.675c0.146-0.098,0.294-0.194,0.441-0.29l-0.217-0.224c-0.373-0.386-0.986-0.396-1.371-0.024
	l-0.584,0.562c-0.331,0.32-0.385,0.82-0.156,1.199C-62.484,117.514-61.862,117.107-61.201,116.675z"/>
<path fill="#464646" d="M-65.042,116.732c-0.472,0.74-0.919,1.455-1.342,2.137c0.243,0,0.485-0.094,0.673-0.271l0.582-0.562
	C-64.767,117.686-64.736,117.118-65.042,116.732z"/>
<path fill="#464646" d="M-64.735,118.441l-0.583,0.562c-0.128,0.125-0.214,0.274-0.258,0.433c0.645-0.383,1.275-0.771,1.92-1.178
	C-64.009,118.098-64.439,118.156-64.735,118.441z"/>
<path fill="#464646" d="M-52.677,90.486c-0.186,2.812-1.229,9.566-6.709,16.801c-3.891,5.137-7.068,10.316-9.23,13.871
	c-0.969,0.521-2.029,1.074-3.239,1.686l-1.579-1.636c-0.021-0.088-0.042-0.173-0.063-0.265c-0.777-3.545,0.69-7.461,4.243-11.325
	c1.821-1.979,3.566-3.802,5.254-5.562c0,0,8.896-8.66,10.857-17.931C-53.142,86.128-52.616,87.588-52.677,90.486z"/>
<path fill="#464646" d="M-76.848,124.357c0.432,0.445,4.954,5.129,5.385,5.576c0.398-0.389,2.434-2.353,2.831-2.736
	c-0.431-0.446-4.953-5.129-5.384-5.575C-74.415,122.007-76.448,123.971-76.848,124.357z"/>
<path fill="#464646" d="M-47.743,112.822l-0.033,0.021c0.216,0.252,0.387,0.475,0.496,0.631
	C-47.424,113.258-47.577,113.039-47.743,112.822z"/>
<path fill="#464646" d="M-48.26,109.414l1.023,1.061c0.37,0.385,0.987,0.396,1.372,0.021l0.582-0.559
	c0.386-0.375,0.396-0.99,0.025-1.377l-1.023-1.06c-0.372-0.384-0.989-0.396-1.373-0.022l-0.584,0.562
	C-48.62,108.414-48.632,109.029-48.26,109.414z"/>
<path fill="#464646" d="M-49.884,111.939c-3.27,0.604-7.085,2.799-10.929,5.324c-3.526,2.318-5.976,3.807-10.528,6.11l3.264,3.378
	c0.431,0.117,0.855,0.18,1.277,0.163h0.009h0.009c4.284,0.075,8.149-3.095,11.556-5.888c1.038-0.85,2.018-1.649,2.986-2.354
	c2.589-1.875,4.637-3.162,5.151-3.48c-0.217-0.43-0.473-0.866-0.769-1.311C-48.204,113.357-48.974,112.443-49.884,111.939z"/>
<path fill="#464646" d="M-42.353,118.404c0.284-1.668-0.039-3.365-1.698-4.995c-1.317-1.296-2.949-1.747-4.785-1.606
	c0.411,0.332,0.946,0.885,0.946,0.885c0.429,0.474,0.756,1.006,0.756,1.006c2.568,3.994,1.797,7.604,1.174,9.299
	c0.642-0.396,1.217-0.832,1.704-1.307C-43.188,120.654-42.562,119.645-42.353,118.404z"/>
<path fill="#F9B233" d="M10.951,180.861l25.579-24.553c0,0,9.025-0.355,14.144,2.904c5.215,3.321,8.119,10.594,8.119,10.594
	L10.951,180.861z"/>
<path fill="#FFEC83" stroke="#F9B233" stroke-width="3" stroke-linecap="round" stroke-linejoin="round" stroke-miterlimit="10" d="
	M57.409,170.582c0,0,2.669,9.979,2.669,12.736c0,6.434-2.889,12.326-2.889,12.326L12.5,199.581v-7.735c0,0,3.992-0.92,3.992-3.738
	c0-3.477-4.992-2.59-4.992-2.59v-4.494L57.409,170.582z"/>
<circle fill="#F9B233" cx="37.474" cy="177.517" r="3.934"/>
<circle fill="#F9B233" cx="51.307" cy="180.071" r="3.935"/>
<circle fill="#F9B233" cx="28.951" cy="183.812" r="2.361"/>
<circle fill="#F9B233" cx="21.212" cy="193.384" r="2.361"/>
<circle fill="#F9B233" cx="31.638" cy="192.008" r="3.344"/>
<circle fill="#F9B233" cx="46.458" cy="190.042" r="2.688"/>
<path fill="#464646" d="M-78.456,182.861l25.58-24.553c0,0,9.024-0.355,14.145,2.904c5.213,3.321,8.118,10.594,8.118,10.594
	L-78.456,182.861z"/>
<path fill="#FFFFFF" stroke="#464646" stroke-width="3" stroke-linecap="round" stroke-linejoin="round" stroke-miterlimit="10" d="
	M-31.794,172.582c0,0,2.567,9.979,2.567,12.736c0,6.434-2.735,12.326-2.735,12.326l-44.538,3.937v-7.735c0,0,3.991-0.92,3.991-3.738
	c0-3.477-4.991-2.59-4.991-2.59v-4.494L-31.794,172.582z"/>
<circle fill="#464646" cx="-51.933" cy="179.517" r="3.935"/>
<circle fill="#464646" cx="-38.099" cy="182.071" r="3.934"/>
<circle fill="#464646" cx="-60.456" cy="185.812" r="2.361"/>
<circle fill="#464646" cx="-68.194" cy="195.384" r="2.361"/>
<circle fill="#464646" cx="-57.768" cy="194.008" r="3.344"/>
<circle fill="#464646" cx="-42.948" cy="192.042" r="2.688"/>
<g>
	<path fill="#007FAA" d="M51.531,242.17l-0.254-4.738c-0.002-0.065-0.032-0.131-0.082-0.179l-4.313-4.091l-0.36-4.439
		c-0.006-0.109-0.08-0.201-0.182-0.231l-15.415-4.829c-0.08-0.025-0.168-0.012-0.235,0.04c-0.067,0.049-0.107,0.127-0.107,0.213
		v5.005l-8.294,8.014l-0.104,0.051c-0.077,0.037-0.13,0.108-0.145,0.188l-0.428,0.414c-0.053,0.052-0.081,0.121-0.081,0.192
		l0.631,41.351c0.001,0.116,0.077,0.218,0.188,0.249l13.139,3.881l1.234,0.365l1.159-0.412l14.745-5.13
		c0.107-0.039,0.18-0.146,0.176-0.261L51.531,242.17z"/>
	<polygon fill="#EDE6E2" points="36.729,282.404 51.316,277.214 50.387,242.203 50.291,237.872 36.326,234.178 36.326,234.156 
		50.291,237.872 45.773,233.697 45.43,229.404 31.729,225.111 31.729,229.404 22.952,237.883 22.684,238.014 22.877,237.955 
		22.684,238.145 22.894,252.077 23.296,278.462 36.628,282.4 36.688,282.417 36.729,282.432 	"/>
	<polygon fill="#88CEE5" points="22.684,238.145 23.296,278.462 36.729,282.432 36.326,234.156 	"/>
	<polygon fill="#C9E8F8" points="36.276,234.168 50.271,237.872 51.316,277.214 36.729,282.432 	"/>
	<polygon fill="#009BCA" points="36.326,234.156 31.729,229.404 45.773,233.697 50.291,237.872 	"/>
	<g>
		<rect x="31.729" y="229.404" fill="none" width="18.562" height="8.468"/>
	</g>
	<polygon fill="#C0BBB8" points="22.684,238.145 31.729,229.404 31.729,233.773 	"/>
	<polygon fill="#009BCA" points="22.684,238.145 31.729,229.404 31.729,233.773 	"/>
	<polygon fill="#88CEE5" points="31.729,233.773 36.326,234.156 31.729,229.404 	"/>
	<polygon fill="#C9E8F8" points="22.684,238.145 31.729,233.773 36.326,234.156 	"/>
	<g>
		<rect x="22.684" y="233.643" fill="none" width="13.643" height="4.371"/>
	</g>
	<polygon fill="#C9E8F8" points="31.729,229.404 31.729,225.111 45.43,229.404 45.773,233.697 	"/>
	<path fill="#88CEE5" d="M36.294,234.168l0.223,33.188c0.544-0.334,0.615-0.935,0.846-1.521c1.351-3.452,6.682-3.519,7.483-7.494
		c0.684-3.384-1.203-7.12-1.365-10.474c-0.185-3.859,2.168-5.482,5.832-5.653c0.367-0.019,0.695-0.007,1.074,0.001l-0.096-4.342
		L36.294,234.168z"/>
	<path fill="#009BCA" d="M22.684,238.145l0.21,13.935c0.894-0.022,1.783-0.132,2.643-0.3c2.124-0.406,4.325-1.432,5.946,0.65
		c0.746,0.957,0.866,3.107,0.493,4.359c-0.436,1.463-1.729,2.586-2.355,3.943c-0.863,1.867-0.91,3.979-0.417,5.968
		c0.454,1.837,1.917,3.827,4.052,3.569c2.008-0.244,2.003-2.021,3.347-2.979l-0.275-33.136L22.684,238.145z"/>
	<g>
		<rect x="22.684" y="234.156" fill="none" width="13.853" height="36.136"/>
	</g>
	<path fill="#EDE6E2" d="M43.697,235.252c-0.35,0.438-1.246,0.303-2.004-0.301c-0.76-0.605-1.09-1.45-0.737-1.889
		c0.349-0.438,1.246-0.305,2.005,0.301C43.717,233.969,44.046,234.814,43.697,235.252"/>
	<polygon fill="#EDE6E2" points="40.898,233.146 41.423,232.455 42.327,233.281 41.613,234.329 	"/>
	<polygon fill="#EDE6E2" points="43.697,235.252 44.197,234.564 42.924,234.059 42.568,235.055 	"/>
	<path fill="#88CEE5" d="M43.697,235.252c-0.35,0.438-1.246,0.303-2.004-0.301c-0.76-0.605-1.09-1.45-0.737-1.889
		c0.349-0.438,1.246-0.305,2.005,0.301C43.717,233.969,44.046,234.814,43.697,235.252"/>
	<polygon fill="#88CEE5" points="40.898,233.146 41.423,232.455 42.327,233.281 41.613,234.329 	"/>
	<polygon fill="#88CEE5" points="43.697,235.252 44.197,234.564 42.924,234.059 42.568,235.055 	"/>
	<path fill="#C9E8F8" d="M44.197,234.564c-0.35,0.438-1.247,0.304-2.004-0.299c-0.758-0.606-1.09-1.451-0.738-1.891
		c0.348-0.438,1.246-0.305,2.004,0.3C44.218,233.281,44.546,234.127,44.197,234.564"/>
	<path fill="#C9E8F8" d="M41.23,241.584c-1.938,0.68-1.524,2.993,0.311,3.355c1.766,0.35,2.118-2.254,1.32-3.131
		C42.666,241.596,41.654,241.438,41.23,241.584"/>
	<path fill="#C9E8F8" d="M40.879,254.934c-2.473,0.864-1.943,3.812,0.395,4.272c2.25,0.446,2.701-2.871,1.688-3.985
		C42.709,254.947,41.416,254.745,40.879,254.934"/>
	<path fill="#C9E8F8" d="M44.107,239.684c-0.961,0.338-0.758,1.483,0.151,1.664c0.874,0.172,1.054-1.117,0.655-1.552
		C44.818,239.688,44.316,239.609,44.107,239.684"/>
	<path fill="#009BCA" d="M28.186,253.598c-1.938-0.867-2.704,3.381-0.704,3.771c0.768,0.15,1.574-0.448,1.876-1.133
		c0.34-0.768,0.031-1.381-0.203-1.848C29.015,254.111,28.473,253.725,28.186,253.598"/>
	<g>
		<rect x="26.307" y="253.48" fill="none" width="3.202" height="3.912"/>
	</g>
	<path fill="#C0BBB8" d="M36.721,281.393c-0.069,0.332-0.132,0.658-0.179,0.981l0.187,0.058L36.721,281.393z"/>
	<path fill="#009BCA" d="M36.648,272.881c-0.032-0.05-0.067-0.098-0.104-0.148c-0.666,0.677-1.104,1.483-1.57,2.324
		c-0.257,0.465-0.449,1.067-0.973,1.307c-0.47,0.217-1.069-0.067-1.521,0.217c-1.519,0.954-0.223,3.021-0.146,4.554l4.394,1.3
		c0-0.373,0-0.598-0.008-1.037L36.648,272.881z"/>
	<g>
		<rect x="31.746" y="272.732" fill="none" width="4.982" height="9.697"/>
	</g>
	<polygon fill="#009BCA" points="49.453,276.044 38.139,279.893 38.139,274.725 49.453,271.077 	"/>
	<polygon fill="#C9E8F8" stroke="#E9F1F4" stroke-width="0.6955" points="48.398,273.098 38.727,276.396 38.727,275.634 
		48.398,272.398 	"/>
	<polygon fill="#C9E8F8" stroke="#E9F1F4" stroke-width="0.6955" points="48.398,274.283 38.727,277.58 38.727,276.818 
		48.398,273.587 	"/>
	<polygon fill="#C9E8F8" stroke="#E9F1F4" stroke-width="0.6955" points="45.99,276.281 38.727,278.766 38.727,278.005 
		45.99,275.583 	"/>
	<path fill="#009BCA" d="M43.24,272.525c-0.008,0.002-0.01,0.006-0.016,0.012c0-0.003,0-0.006-0.004-0.01
		c-0.037-0.055-0.058-0.119-0.078-0.185c-0.053-0.161-0.08-0.339-0.104-0.509c-0.006-0.064-0.017-0.135-0.021-0.204
		c-0.012-0.217-0.024-0.435-0.026-0.642c-0.007-0.342-0.528-0.342-0.528,0c0,0.166,0.008,0.509,0.053,0.865
		c0.014,0.351-0.013,0.695-0.154,0.986c-0.197-0.57-0.104-1.23-0.506-1.746c-0.049-0.066-0.178-0.098-0.256-0.068
		c-0.271,0.103-0.451,0.27-0.57,0.472c-0.116-0.146-0.277-0.224-0.496-0.183c-0.245,0.047-0.41,0.186-0.521,0.377
		c-0.033-0.053-0.068-0.103-0.109-0.148c-0.258-0.305-0.697-0.236-0.946,0.021c-0.299,0.312-0.388,0.828-0.479,1.232
		c-0.072,0.331,0.438,0.473,0.51,0.139c0.064-0.278,0.127-0.567,0.248-0.834c0.188-0.412,0.363-0.121,0.435,0.17
		c0.129,0.515,0.099,1.068,0.095,1.596c0,0.352,0.49,0.33,0.528,0c0.034-0.311,0.022-0.626,0.034-0.938
		c0.016-0.306,0-0.789,0.209-1.043c0.084-0.099,0.095-0.039,0.138,0.066c0.06,0.146,0.086,0.314,0.104,0.473
		c0.015,0.109,0.021,0.223,0.029,0.334c0.004,0.2,0.012,0.396,0.014,0.576c0.004,0.342,0.529,0.342,0.527,0
		c0-0.195,0.01-0.576-0.033-0.954c0.017-0.306,0.084-0.59,0.272-0.754c0.29,0.552,0.12,1.3,0.503,1.843
		c0.102,0.143,0.281,0.176,0.414,0.053c0.188-0.168,0.307-0.36,0.389-0.567c0.146,0.147,0.348,0.187,0.617,0.022
		C43.799,272.807,43.534,272.35,43.24,272.525"/>
	<path fill="#009BCA" d="M43.23,269.4c-0.067-0.25-0.199-0.491-0.446-0.594c-0.337-0.142-0.543,0.271-0.604,0.524
		c-0.082,0.332,0.43,0.474,0.512,0.144c0-0.007,0.002-0.012,0.002-0.018c0.014,0.029,0.022,0.062,0.031,0.096
		c0.006,0.028,0.014,0.059,0.021,0.086c0,0.016,0.006,0.084,0.006,0.104c0,0.016-0.002,0.031-0.002,0.049
		c0,0.005-0.002,0.007-0.004,0.014c-0.003,0.01-0.008,0.021-0.01,0.03c-0.01,0-0.021,0-0.027-0.001
		c-0.018-0.005-0.036-0.009-0.057-0.016c-0.021-0.008-0.045-0.014-0.067-0.021c-0.003-0.006-0.062-0.03-0.071-0.036
		c-0.305-0.154-0.572,0.301-0.271,0.457c0.312,0.158,0.688,0.236,0.928-0.076C43.318,269.939,43.292,269.63,43.23,269.4"/>
	<path fill="#009BCA" d="M44.882,272.096c-0.161,0.5-0.522,0.332-0.72-0.046c-0.053-0.1-0.086-0.211-0.116-0.325
		c0.036-0.004,0.073-0.015,0.108-0.035c0.635-0.359,0.729-1.369,0.709-2.02c-0.021-0.538-0.398-1.345-0.975-0.708
		c-0.645,0.711-0.539,1.937-0.365,2.804c0.095,0.479,0.326,0.914,0.779,1.137c0.538,0.262,0.938-0.195,1.09-0.666
		C45.498,271.909,44.986,271.771,44.882,272.096 M44.264,269.336c0.006-0.009,0.012-0.016,0.021-0.021
		c0.006,0.022,0.013,0.047,0.015,0.062c0.057,0.211,0.045,0.438,0.034,0.652c-0.019,0.33-0.079,0.9-0.365,1.148
		c-0.002-0.031-0.006-0.062-0.008-0.095C43.908,270.518,43.889,269.807,44.264,269.336"/>
	<path fill="#009BCA" d="M47.979,270.391c-0.053-0.334-0.562-0.189-0.511,0.144c0.024,0.157,0.123,0.835-0.097,0.911
		c-0.232,0.089-0.41-0.434-0.473-0.566c-0.127-0.285-0.303-0.434-0.502-0.461c0.166-0.316,0.36-0.615,0.571-0.886
		c0.21-0.265-0.163-0.642-0.372-0.373c-0.303,0.385-0.58,0.815-0.797,1.278c-0.002-0.442,0.012-0.887,0.014-1.326
		c0-0.342-0.529-0.342-0.529,0c-0.002,0.635-0.12,1.688,0.129,3.125c0.05,0.298,0.525,0.225,0.52-0.068
		c-0.013-0.384,0.064-0.771,0.196-1.143c0.09-0.086,0.158-0.161,0.235-0.041c0.076,0.123,0.125,0.266,0.188,0.396
		c0.139,0.302,0.372,0.519,0.702,0.585C48.096,272.133,48.053,270.889,47.979,270.391"/>
	<path fill="#009BCA" d="M48.768,268.764c-0.564,0-0.564,0.881,0,0.881C49.337,269.645,49.337,268.764,48.768,268.764"/>
</g>
<g>
	<path fill="#007FAA" d="M-40.469,242.17l-0.254-4.738c-0.002-0.065-0.032-0.131-0.082-0.179l-4.313-4.091l-0.361-4.439
		c-0.006-0.109-0.079-0.201-0.181-0.231l-15.415-4.829c-0.08-0.025-0.168-0.012-0.235,0.04c-0.067,0.049-0.107,0.127-0.107,0.213
		v5.005l-8.294,8.014l-0.104,0.051c-0.077,0.037-0.13,0.108-0.145,0.188l-0.428,0.414c-0.053,0.052-0.081,0.121-0.081,0.192
		l0.631,41.351c0.001,0.116,0.077,0.218,0.188,0.249l13.139,3.881l1.234,0.365l1.159-0.412l14.745-5.13
		c0.107-0.039,0.18-0.146,0.176-0.261L-40.469,242.17z"/>
	<polygon fill="#EDE6E2" points="-55.271,282.404 -40.684,277.214 -41.614,242.203 -41.709,237.872 -55.674,234.178 
		-55.674,234.156 -41.709,237.872 -46.227,233.697 -46.57,229.404 -60.271,225.111 -60.271,229.404 -69.048,237.883 
		-69.316,238.014 -69.123,237.955 -69.316,238.145 -69.106,252.077 -68.704,278.462 -55.372,282.4 -55.312,282.417 -55.271,282.432 
			"/>
	<polygon fill="#88CEE5" points="-69.316,238.145 -68.704,278.462 -55.271,282.432 -55.674,234.156 	"/>
	<polygon fill="#C9E8F8" points="-55.724,234.168 -41.729,237.872 -40.684,277.214 -55.271,282.432 	"/>
	<polygon fill="#009BCA" points="-55.674,234.156 -60.271,229.404 -46.227,233.697 -41.709,237.872 	"/>
	<g>
		<rect x="-60.271" y="229.404" fill="none" width="18.562" height="8.468"/>
	</g>
	<polygon fill="#C0BBB8" points="-69.316,238.145 -60.271,229.404 -60.271,233.773 	"/>
	<polygon fill="#009BCA" points="-69.316,238.145 -60.271,229.404 -60.271,233.773 	"/>
	<polygon fill="#88CEE5" points="-60.271,233.773 -55.674,234.156 -60.271,229.404 	"/>
	<polygon fill="#C9E8F8" points="-69.316,238.145 -60.271,233.773 -55.674,234.156 	"/>
	<g>
		<rect x="-69.316" y="233.643" fill="none" width="13.643" height="4.371"/>
	</g>
	<polygon fill="#C9E8F8" points="-60.271,229.404 -60.271,225.111 -46.57,229.404 -46.227,233.697 	"/>
	<path fill="#88CEE5" d="M-55.706,234.168l0.223,33.188c0.544-0.334,0.615-0.935,0.846-1.521c1.351-3.452,6.682-3.519,7.482-7.494
		c0.684-3.384-1.203-7.12-1.364-10.474c-0.185-3.859,2.168-5.482,5.831-5.653c0.367-0.019,0.696-0.007,1.074,0.001l-0.095-4.342
		L-55.706,234.168z"/>
	<path fill="#009BCA" d="M-69.316,238.145l0.21,13.935c0.894-0.022,1.783-0.132,2.643-0.3c2.124-0.406,4.325-1.432,5.946,0.65
		c0.746,0.957,0.866,3.107,0.493,4.359c-0.436,1.463-1.729,2.586-2.355,3.943c-0.863,1.867-0.91,3.979-0.417,5.968
		c0.454,1.837,1.917,3.827,4.052,3.569c2.008-0.244,2.003-2.021,3.347-2.979l-0.275-33.136L-69.316,238.145z"/>
	<g>
		<rect x="-69.316" y="234.156" fill="none" width="13.853" height="36.136"/>
	</g>
	<path fill="#EDE6E2" d="M-48.303,235.252c-0.35,0.438-1.246,0.303-2.004-0.301c-0.759-0.605-1.09-1.45-0.737-1.889
		c0.349-0.438,1.246-0.305,2.005,0.301C-48.283,233.969-47.954,234.814-48.303,235.252"/>
	<polygon fill="#EDE6E2" points="-51.102,233.146 -50.577,232.455 -49.673,233.281 -50.387,234.329 	"/>
	<polygon fill="#EDE6E2" points="-48.303,235.252 -47.802,234.564 -49.076,234.059 -49.431,235.055 	"/>
	<path fill="#88CEE5" d="M-48.303,235.252c-0.35,0.438-1.246,0.303-2.004-0.301c-0.759-0.605-1.09-1.45-0.737-1.889
		c0.349-0.438,1.246-0.305,2.005,0.301C-48.283,233.969-47.954,234.814-48.303,235.252"/>
	<polygon fill="#88CEE5" points="-51.102,233.146 -50.577,232.455 -49.673,233.281 -50.387,234.329 	"/>
	<polygon fill="#88CEE5" points="-48.303,235.252 -47.802,234.564 -49.076,234.059 -49.431,235.055 	"/>
	<path fill="#C9E8F8" d="M-47.802,234.564c-0.351,0.438-1.248,0.304-2.005-0.299c-0.758-0.606-1.089-1.451-0.738-1.891
		c0.348-0.438,1.246-0.305,2.004,0.3C-47.782,233.281-47.454,234.127-47.802,234.564"/>
	<path fill="#C9E8F8" d="M-50.769,241.584c-1.938,0.68-1.525,2.993,0.31,3.355c1.766,0.35,2.118-2.254,1.321-3.131
		C-49.334,241.596-50.346,241.438-50.769,241.584"/>
	<path fill="#C9E8F8" d="M-51.121,254.934c-2.473,0.864-1.944,3.812,0.394,4.272c2.251,0.446,2.702-2.871,1.687-3.985
		C-49.291,254.947-50.584,254.745-51.121,254.934"/>
	<path fill="#C9E8F8" d="M-47.892,239.684c-0.961,0.338-0.759,1.483,0.152,1.664c0.874,0.172,1.053-1.117,0.655-1.552
		C-47.181,239.688-47.684,239.609-47.892,239.684"/>
	<path fill="#009BCA" d="M-63.814,253.598c-1.938-0.867-2.704,3.381-0.704,3.771c0.768,0.15,1.574-0.448,1.876-1.133
		c0.34-0.768,0.031-1.381-0.203-1.848C-62.985,254.111-63.527,253.725-63.814,253.598"/>
	<g>
		<rect x="-65.693" y="253.48" fill="none" width="3.202" height="3.912"/>
	</g>
	<path fill="#C0BBB8" d="M-55.279,281.393c-0.069,0.332-0.132,0.658-0.179,0.981l0.187,0.058L-55.279,281.393z"/>
	<path fill="#009BCA" d="M-55.352,272.881c-0.032-0.05-0.067-0.098-0.104-0.148c-0.666,0.677-1.104,1.483-1.57,2.324
		c-0.257,0.465-0.449,1.067-0.973,1.307c-0.47,0.217-1.069-0.067-1.521,0.217c-1.519,0.954-0.223,3.021-0.146,4.554l4.394,1.3
		c0-0.373,0-0.598-0.008-1.037L-55.352,272.881z"/>
	<g>
		<rect x="-60.254" y="272.732" fill="none" width="4.982" height="9.697"/>
	</g>
	<polygon fill="#009BCA" points="-42.547,276.044 -53.862,279.893 -53.862,274.725 -42.547,271.077 	"/>
	<polygon fill="#C9E8F8" stroke="#E9F1F4" stroke-width="0.6955" points="-43.602,273.098 -53.273,276.396 -53.273,275.634 
		-43.602,272.398 	"/>
	<polygon fill="#C9E8F8" stroke="#E9F1F4" stroke-width="0.6955" points="-43.602,274.283 -53.273,277.58 -53.273,276.818 
		-43.602,273.587 	"/>
	<polygon fill="#C9E8F8" stroke="#E9F1F4" stroke-width="0.6955" points="-46.01,276.281 -53.273,278.766 -53.273,278.005 
		-46.01,275.583 	"/>
	<path fill="#009BCA" d="M-48.76,272.525c-0.007,0.002-0.009,0.006-0.016,0.012c0-0.003,0-0.006-0.004-0.01
		c-0.036-0.055-0.056-0.119-0.077-0.185c-0.052-0.161-0.08-0.339-0.104-0.509c-0.006-0.064-0.015-0.135-0.02-0.204
		c-0.011-0.217-0.025-0.435-0.027-0.642c-0.005-0.342-0.528-0.342-0.528,0c0,0.166,0.006,0.509,0.051,0.865
		c0.014,0.351-0.011,0.695-0.154,0.986c-0.197-0.57-0.104-1.23-0.505-1.746c-0.05-0.066-0.179-0.098-0.256-0.068
		c-0.271,0.103-0.451,0.27-0.571,0.472c-0.116-0.146-0.277-0.224-0.496-0.183c-0.245,0.047-0.41,0.186-0.522,0.377
		c-0.032-0.053-0.068-0.103-0.109-0.148c-0.258-0.305-0.698-0.236-0.947,0.021c-0.299,0.312-0.387,0.828-0.478,1.232
		c-0.072,0.331,0.437,0.473,0.51,0.139c0.064-0.278,0.127-0.567,0.247-0.834c0.188-0.412,0.363-0.121,0.434,0.17
		c0.129,0.515,0.097,1.068,0.093,1.596c0,0.352,0.492,0.33,0.53,0c0.034-0.311,0.023-0.626,0.034-0.938
		c0.016-0.306,0-0.789,0.209-1.043c0.084-0.099,0.095-0.039,0.138,0.066c0.058,0.146,0.086,0.314,0.104,0.473
		c0.014,0.109,0.021,0.223,0.028,0.334c0.004,0.2,0.013,0.396,0.015,0.576c0.003,0.342,0.529,0.342,0.526,0
		c0-0.195,0.011-0.576-0.032-0.954c0.016-0.306,0.084-0.59,0.273-0.754c0.29,0.552,0.12,1.3,0.503,1.843
		c0.101,0.143,0.281,0.176,0.414,0.053c0.188-0.168,0.306-0.36,0.387-0.567c0.148,0.147,0.349,0.187,0.619,0.022
		C-48.201,272.807-48.466,272.35-48.76,272.525"/>
	<path fill="#009BCA" d="M-48.769,269.4c-0.068-0.25-0.2-0.491-0.447-0.594c-0.337-0.142-0.543,0.271-0.605,0.524
		c-0.082,0.332,0.43,0.474,0.512,0.144c0-0.007,0.002-0.012,0.002-0.018c0.013,0.029,0.023,0.062,0.032,0.096
		c0.006,0.028,0.013,0.059,0.02,0.086c0,0.016,0.006,0.084,0.006,0.104c0,0.016-0.002,0.031-0.002,0.049
		c0,0.005-0.002,0.007-0.004,0.014c-0.003,0.01-0.007,0.021-0.009,0.03c-0.009,0-0.02,0-0.028-0.001
		c-0.017-0.005-0.036-0.009-0.056-0.016c-0.021-0.008-0.045-0.014-0.068-0.021c-0.003-0.006-0.062-0.03-0.073-0.036
		c-0.303-0.154-0.571,0.301-0.269,0.457c0.31,0.158,0.689,0.236,0.928-0.076C-48.681,269.939-48.708,269.63-48.769,269.4"/>
	<path fill="#009BCA" d="M-47.118,272.096c-0.161,0.5-0.522,0.332-0.72-0.046c-0.052-0.1-0.086-0.211-0.116-0.325
		c0.036-0.004,0.073-0.015,0.109-0.035c0.634-0.359,0.73-1.369,0.709-2.02c-0.02-0.538-0.399-1.345-0.976-0.708
		c-0.643,0.711-0.539,1.937-0.365,2.804c0.095,0.479,0.327,0.914,0.78,1.137c0.539,0.262,0.937-0.195,1.089-0.666
		C-46.502,271.909-47.014,271.771-47.118,272.096 M-47.737,269.336c0.007-0.009,0.013-0.016,0.02-0.021
		c0.006,0.022,0.013,0.047,0.015,0.062c0.056,0.211,0.045,0.438,0.034,0.652c-0.017,0.33-0.079,0.9-0.365,1.148
		c-0.002-0.031-0.006-0.062-0.008-0.095C-48.092,270.518-48.111,269.807-47.737,269.336"/>
	<path fill="#009BCA" d="M-44.022,270.391c-0.052-0.334-0.561-0.189-0.51,0.144c0.024,0.157,0.123,0.835-0.097,0.911
		c-0.233,0.089-0.41-0.434-0.473-0.566c-0.126-0.285-0.303-0.434-0.502-0.461c0.167-0.316,0.362-0.615,0.573-0.886
		c0.208-0.265-0.165-0.642-0.374-0.373c-0.301,0.385-0.58,0.815-0.795,1.278c-0.002-0.442,0.011-0.887,0.013-1.326
		c0-0.342-0.53-0.342-0.53,0c-0.002,0.635-0.12,1.688,0.129,3.125c0.05,0.298,0.526,0.225,0.52-0.068
		c-0.013-0.384,0.064-0.771,0.196-1.143c0.09-0.086,0.158-0.161,0.236-0.041c0.075,0.123,0.124,0.266,0.187,0.396
		c0.138,0.302,0.372,0.519,0.702,0.585C-43.904,272.133-43.947,270.889-44.022,270.391"/>
	<path fill="#009BCA" d="M-43.232,268.764c-0.566,0-0.566,0.881,0,0.881C-42.663,269.645-42.663,268.764-43.232,268.764"/>
</g>
<g>
	<path fill="#3D3D3D" d="M-40.324,242.189l-0.256-4.785c-0.004-0.068-0.034-0.133-0.084-0.18l-4.359-4.135l-0.359-4.484
		c-0.009-0.108-0.082-0.201-0.188-0.233l-15.568-4.878c-0.08-0.025-0.168-0.012-0.237,0.039s-0.108,0.131-0.108,0.216v5.058
		l-8.377,8.092l-0.106,0.053c-0.079,0.037-0.132,0.109-0.146,0.191l-0.432,0.418c-0.054,0.051-0.083,0.121-0.081,0.195l0.635,41.768
		c0.002,0.117,0.08,0.221,0.191,0.252l13.271,3.92l1.246,0.367l1.172-0.416l14.892-5.183c0.11-0.039,0.184-0.146,0.18-0.263
		L-40.324,242.189z"/>
	<polygon fill="#EDE6E2" points="-55.276,282.831 -40.543,277.589 -41.48,242.225 -41.578,237.85 -55.682,234.116 -55.682,234.098 
		-41.578,237.85 -46.141,233.633 -46.488,229.297 -60.328,224.961 -60.328,229.297 -69.191,237.859 -69.465,237.992 
		-69.269,237.936 -69.465,238.124 -69.25,252.199 -68.845,278.852 -55.379,282.826 -55.316,282.846 -55.275,282.857 	"/>
	<polygon fill="#FFFFFF" points="-69.465,238.124 -68.845,278.852 -55.275,282.857 -55.682,234.098 	"/>
	<polygon fill="#FFFFFF" points="-55.734,234.107 -41.596,237.85 -40.541,277.589 -55.275,282.857 	"/>
	<polygon fill="#3D3D3D" points="-55.682,234.098 -60.328,229.297 -46.141,233.633 -41.578,237.85 	"/>
	<g>
		<rect x="-60.328" y="229.297" fill="none" width="18.75" height="8.553"/>
	</g>
	<polygon fill="#C0BBB8" points="-69.465,238.124 -60.328,229.297 -60.328,233.71 	"/>
	<polygon fill="#3D3D3D" points="-69.465,238.124 -60.328,229.297 -60.328,233.71 	"/>
	<polygon fill="#FFFFFF" points="-60.328,233.71 -55.682,234.098 -60.328,229.297 	"/>
	<polygon fill="#FFFFFF" points="-69.465,238.124 -60.328,233.71 -55.682,234.098 	"/>
	<g>
		<rect x="-69.465" y="233.578" fill="none" width="13.783" height="4.414"/>
	</g>
	<polygon fill="#FFFFFF" points="-60.328,229.297 -60.328,224.961 -46.488,229.297 -46.141,233.633 	"/>
	<path fill="#3D3D3D" d="M-55.715,234.107l0.225,33.521c0.549-0.337,0.621-0.94,0.854-1.536c1.363-3.484,6.75-3.554,7.559-7.566
		c0.689-3.42-1.215-7.192-1.379-10.58c-0.188-3.898,2.189-5.539,5.893-5.713c0.369-0.018,0.701-0.006,1.084,0.002l-0.098-4.385
		L-55.715,234.107z"/>
	<path fill="#3D3D3D" d="M-69.465,238.124l0.215,14.075c0.902-0.025,1.801-0.135,2.67-0.303c2.143-0.41,4.367-1.445,6.004,0.656
		c0.754,0.967,0.876,3.139,0.499,4.402c-0.44,1.479-1.747,2.611-2.38,3.982c-0.871,1.887-0.919,4.021-0.422,6.029
		c0.459,1.854,1.938,3.865,4.094,3.604c2.027-0.245,2.023-2.041,3.381-3.008l-0.277-33.469L-69.465,238.124z"/>
	<g>
		<rect x="-69.465" y="234.098" fill="none" width="13.995" height="36.5"/>
	</g>
	<path fill="#EDE6E2" d="M-48.236,235.203c-0.354,0.441-1.262,0.306-2.025-0.305c-0.766-0.61-1.099-1.465-0.746-1.906
		c0.354-0.442,1.26-0.307,2.025,0.304C-48.219,233.906-47.884,234.76-48.236,235.203"/>
	<polygon fill="#EDE6E2" points="-51.063,233.077 -50.533,232.377 -49.623,233.213 -50.344,234.27 	"/>
	<polygon fill="#EDE6E2" points="-48.236,235.203 -47.732,234.51 -49.018,233.997 -49.377,235.002 	"/>
	<path fill="#FFFFFF" d="M-48.236,235.203c-0.354,0.441-1.262,0.306-2.025-0.305c-0.766-0.61-1.099-1.465-0.746-1.906
		c0.354-0.442,1.26-0.307,2.025,0.304C-48.219,233.906-47.884,234.76-48.236,235.203"/>
	<polygon fill="#FFFFFF" points="-51.063,233.077 -50.533,232.377 -49.623,233.213 -50.344,234.27 	"/>
	<polygon fill="#FFFFFF" points="-48.236,235.203 -47.732,234.51 -49.018,233.997 -49.377,235.002 	"/>
	<path fill="#3D3D3D" d="M-47.732,234.51c-0.354,0.442-1.26,0.307-2.025-0.304c-0.764-0.61-1.098-1.465-0.744-1.907
		c0.353-0.441,1.259-0.307,2.024,0.305C-47.713,233.213-47.38,234.066-47.732,234.51"/>
	<path fill="#FFFFFF" d="M-50.728,241.602c-1.96,0.686-1.54,3.021,0.312,3.387c1.783,0.355,2.143-2.275,1.336-3.16
		C-49.277,241.609-50.301,241.451-50.728,241.602"/>
	<path fill="#FFFFFF" d="M-51.084,255.082c-2.496,0.873-1.964,3.852,0.396,4.318c2.273,0.451,2.73-2.901,1.702-4.029
		C-49.235,255.096-50.54,254.895-51.084,255.082"/>
	<path fill="#FFFFFF" d="M-47.821,239.68c-0.972,0.34-0.765,1.498,0.153,1.68c0.885,0.178,1.062-1.129,0.663-1.565
		C-47.103,239.686-47.61,239.605-47.821,239.68"/>
	<path fill="#3D3D3D" d="M-63.906,253.732c-1.957-0.875-2.73,3.416-0.71,3.812c0.774,0.151,1.589-0.454,1.894-1.146
		c0.343-0.774,0.031-1.396-0.204-1.863C-63.068,254.252-63.617,253.863-63.906,253.732"/>
	<g>
		<rect x="-65.804" y="253.616" fill="none" width="3.233" height="3.95"/>
	</g>
	<path fill="#C0BBB8" d="M-55.285,281.811c-0.068,0.334-0.131,0.666-0.18,0.99l0.189,0.057L-55.285,281.811z"/>
	<path fill="#3D3D3D" d="M-55.356,273.213c-0.034-0.051-0.068-0.102-0.104-0.15c-0.674,0.682-1.116,1.498-1.588,2.35
		c-0.26,0.469-0.453,1.074-0.98,1.318c-0.477,0.22-1.081-0.069-1.539,0.218c-1.533,0.964-0.225,3.05-0.146,4.601l4.438,1.312
		c0-0.377,0-0.602-0.01-1.049L-55.356,273.213z"/>
	<g>
		<rect x="-60.309" y="273.062" fill="none" width="5.033" height="9.795"/>
	</g>
	<polygon fill="#3D3D3D" points="-42.423,276.407 -53.854,280.294 -53.854,275.072 -42.423,271.391 	"/>
	<polygon fill="#FFFFFF" stroke="#FDFDFD" stroke-width="0.6955" points="-43.488,273.43 -53.26,276.764 -53.26,275.992 
		-43.488,272.727 	"/>
	<polygon fill="#FFFFFF" stroke="#FDFDFD" stroke-width="0.6955" points="-43.488,274.628 -53.26,277.96 -53.26,277.189 
		-43.488,273.924 	"/>
	<polygon fill="#FFFFFF" stroke="#FDFDFD" stroke-width="0.6955" points="-45.923,276.645 -53.26,279.157 -53.26,278.389 
		-45.923,275.941 	"/>
	<path fill="#3D3D3D" d="M-48.697,272.852c-0.008,0.006-0.012,0.01-0.016,0.012c-0.002-0.002-0.002-0.004-0.004-0.006
		c-0.039-0.057-0.059-0.123-0.08-0.188c-0.055-0.165-0.08-0.341-0.103-0.514c-0.008-0.067-0.016-0.137-0.022-0.205
		c-0.01-0.221-0.024-0.439-0.027-0.648c-0.005-0.346-0.536-0.346-0.535,0c0.002,0.168,0.008,0.514,0.054,0.877
		c0.013,0.352-0.009,0.702-0.155,0.994c-0.199-0.576-0.104-1.242-0.51-1.764c-0.053-0.068-0.182-0.1-0.26-0.068
		c-0.273,0.104-0.455,0.27-0.576,0.475c-0.119-0.146-0.281-0.224-0.504-0.183c-0.245,0.046-0.412,0.187-0.525,0.384
		c-0.033-0.055-0.068-0.105-0.11-0.154c-0.261-0.307-0.706-0.238-0.956,0.023c-0.302,0.313-0.391,0.836-0.482,1.243
		c-0.076,0.337,0.439,0.479,0.516,0.144c0.063-0.287,0.127-0.578,0.248-0.846c0.19-0.416,0.366-0.121,0.438,0.172
		c0.129,0.521,0.098,1.08,0.096,1.611c-0.002,0.354,0.494,0.332,0.533,0c0.037-0.312,0.023-0.632,0.037-0.945
		c0.013-0.311-0.002-0.799,0.211-1.055c0.083-0.1,0.095-0.039,0.137,0.068c0.06,0.146,0.086,0.316,0.106,0.475
		c0.015,0.113,0.022,0.227,0.03,0.34c0.002,0.201,0.01,0.399,0.014,0.582c0.003,0.344,0.533,0.346,0.533,0
		c0-0.197,0.009-0.582-0.033-0.965c0.015-0.309,0.081-0.598,0.273-0.76c0.293,0.557,0.12,1.312,0.51,1.859
		c0.102,0.145,0.283,0.178,0.418,0.055c0.186-0.17,0.31-0.365,0.391-0.576c0.15,0.15,0.352,0.188,0.623,0.023
		C-48.134,273.137-48.402,272.674-48.697,272.852"/>
	<path fill="#3D3D3D" d="M-48.708,269.695c-0.067-0.25-0.203-0.495-0.452-0.598c-0.341-0.144-0.548,0.273-0.61,0.529
		c-0.082,0.335,0.434,0.479,0.515,0.143c0.002-0.004,0.004-0.011,0.005-0.017c0.011,0.031,0.022,0.063,0.031,0.099
		c0.008,0.026,0.013,0.059,0.019,0.086c0,0.017,0.006,0.084,0.006,0.104s0,0.033-0.001,0.053c-0.001,0.002-0.001,0.004-0.003,0.01
		c-0.002,0.012-0.006,0.021-0.01,0.033c-0.008,0-0.019-0.003-0.027-0.003c-0.02-0.004-0.038-0.008-0.057-0.013
		c-0.023-0.008-0.045-0.018-0.068-0.023c-0.006-0.004-0.064-0.029-0.076-0.035c-0.306-0.158-0.576,0.304-0.27,0.461
		c0.312,0.16,0.695,0.24,0.934-0.078C-48.617,270.241-48.646,269.93-48.708,269.695"/>
	<path fill="#3D3D3D" d="M-47.04,272.418c-0.165,0.505-0.53,0.335-0.728-0.045c-0.053-0.102-0.09-0.213-0.117-0.329
		c0.035-0.004,0.071-0.015,0.109-0.036c0.641-0.363,0.738-1.385,0.717-2.039c-0.02-0.546-0.403-1.357-0.984-0.715
		c-0.648,0.719-0.545,1.955-0.371,2.829c0.097,0.483,0.328,0.927,0.791,1.149c0.544,0.263,0.943-0.197,1.099-0.672
		C-46.418,272.23-46.934,272.092-47.04,272.418 M-47.665,269.632c0.007-0.009,0.013-0.017,0.019-0.024
		c0.006,0.025,0.012,0.05,0.016,0.065c0.057,0.211,0.045,0.442,0.035,0.659c-0.02,0.333-0.084,0.91-0.371,1.156
		c-0.003-0.03-0.006-0.061-0.008-0.092C-48.023,270.822-48.045,270.105-47.665,269.632"/>
	<path fill="#3D3D3D" d="M-43.914,270.697c-0.051-0.34-0.566-0.195-0.516,0.142c0.025,0.162,0.125,0.845-0.096,0.925
		c-0.238,0.086-0.416-0.438-0.477-0.574c-0.129-0.291-0.309-0.438-0.51-0.467c0.168-0.32,0.369-0.623,0.58-0.894
		c0.209-0.269-0.166-0.649-0.379-0.378c-0.301,0.388-0.586,0.824-0.801,1.291c-0.002-0.447,0.01-0.895,0.012-1.34
		c0-0.344-0.534-0.344-0.534,0c-0.003,0.64-0.124,1.707,0.128,3.158c0.052,0.299,0.533,0.225,0.525-0.072
		c-0.012-0.387,0.065-0.776,0.198-1.152c0.093-0.087,0.161-0.163,0.237-0.04c0.078,0.124,0.127,0.267,0.188,0.397
		c0.141,0.302,0.379,0.521,0.711,0.59C-43.795,272.454-43.838,271.197-43.914,270.697"/>
	<path fill="#3D3D3D" d="M-43.115,269.053c-0.574,0-0.574,0.891,0,0.891C-42.541,269.943-42.541,269.053-43.115,269.053"/>
</g>
<g>
	<path fill="#B1804A" d="M33.458-48.532L17.825-61.609c0.021-0.526-0.016-1.077-0.135-1.636c-0.516-2.406-2.221-3.998-3.809-3.551
		c-1.588,0.445-2.455,2.76-1.941,5.167c0.08,0.37,0.195,0.713,0.326,1.04c-0.389-0.043-0.785-0.066-1.201-0.046
		c-2.646,0.132-4.727,1.581-4.645,3.236c0.082,1.654,2.297,2.889,4.94,2.757c0.711-0.035,1.375-0.172,1.974-0.375L28.05-42.709"/>
	<path fill="#B1804A" d="M28.05-42.708c-1.004,5.6,0.818,15.266,7.527,20.79c8.678,7.14,20.069,7.763,25.446,1.386
		c5.375-6.375,2.701-17.332-5.979-24.474c-6.668-5.487-16.008-5.442-21.59-3.524"/>
	<path fill="#FFFFFF" d="M53.794-41.56c2.854,2.258,4.067,6.581,4.793,9.542c1.013,4.156,0.427,10.096-3.655,12.287
		c5.174-1.807,6.696-8.143,5.627-12.527C59.73-35.639,57.363-39.505,53.794-41.56z"/>
	<line fill="none" x1="33.458" y1="-48.532" x2="27.831" y2="-41.56"/>
</g>
<g>
	<path fill="#683D14" d="M33.458-48.532L17.825-61.609c0.021-0.526-0.016-1.077-0.135-1.636c-0.516-2.406-2.221-3.998-3.809-3.551
		c-1.588,0.445-2.455,2.76-1.941,5.167c0.08,0.37,0.195,0.713,0.326,1.04c-0.389-0.043-0.785-0.066-1.201-0.046
		c-2.646,0.132-4.727,1.581-4.645,3.236c0.082,1.654,2.297,2.889,4.94,2.757c0.711-0.035,1.375-0.172,1.974-0.375L28.05-42.709"/>
</g>
<g>
	<path fill="#464646" d="M-55.542-48.532l-15.633-13.077c0.021-0.526-0.016-1.077-0.135-1.636c-0.516-2.406-2.221-3.998-3.809-3.551
		c-1.588,0.445-2.455,2.76-1.941,5.167c0.08,0.37,0.195,0.713,0.326,1.04c-0.389-0.043-0.785-0.066-1.201-0.046
		c-2.646,0.132-4.727,1.581-4.645,3.236c0.082,1.654,2.297,2.889,4.94,2.757c0.711-0.035,1.375-0.172,1.974-0.375l14.715,12.308"/>
	<path fill="#464646" d="M-60.95-42.708c-1.004,5.6,0.818,15.266,7.527,20.79c8.678,7.14,20.069,7.763,25.446,1.386
		c5.375-6.375,2.701-17.332-5.978-24.474c-6.668-5.487-16.008-5.442-21.59-3.524"/>
	<path fill="#FFFFFF" d="M-35.206-41.56c2.855,2.258,4.068,6.581,4.793,9.542c1.013,4.156,0.426,10.096-3.655,12.287
		c5.174-1.807,6.696-8.143,5.627-12.527C-29.269-35.639-31.636-39.505-35.206-41.56z"/>
	<line fill="none" x1="-55.542" y1="-48.532" x2="-61.169" y2="-41.56"/>
</g>
<g>
	<path fill="#464646" d="M-55.542-48.532l-15.633-13.077c0.021-0.526-0.016-1.077-0.135-1.636c-0.516-2.406-2.221-3.998-3.809-3.551
		c-1.588,0.445-2.455,2.76-1.941,5.167c0.08,0.37,0.195,0.713,0.326,1.04c-0.389-0.043-0.785-0.066-1.201-0.046
		c-2.646,0.132-4.727,1.581-4.645,3.236c0.082,1.654,2.297,2.889,4.94,2.757c0.711-0.035,1.375-0.172,1.974-0.375l14.715,12.308"/>
</g>
<g>
	<path fill="#444444" d="M-33.953-45.008c-6.668-5.487-16.008-5.442-21.591-3.524l-15.632-13.077
		c0.022-0.526-0.015-1.077-0.135-1.635c-0.515-2.406-2.22-3.998-3.808-3.551c-1.588,0.445-2.456,2.76-1.941,5.167
		c0.08,0.37,0.194,0.713,0.326,1.04c-0.389-0.043-0.785-0.066-1.201-0.046c-2.646,0.132-4.728,1.581-4.646,3.236
		c0.083,1.654,2.297,2.889,4.942,2.757c0.711-0.035,1.375-0.172,1.973-0.375l14.714,12.308c-1.003,5.6,0.817,15.266,7.528,20.79
		c8.678,7.14,20.07,7.763,25.447,1.386C-22.602-26.909-25.275-37.866-33.953-45.008z"/>
	<path fill="#FFFFFF" d="M-35.207-41.56c2.855,2.258,4.068,6.581,4.793,9.542c1.012,4.156,0.426,10.096-3.656,12.287
		c5.174-1.807,6.697-8.143,5.627-12.527C-29.27-35.64-31.637-39.505-35.207-41.56z"/>
	<line fill="none" x1="-55.544" y1="-48.532" x2="-61.17" y2="-41.56"/>
</g>
<path fill="#96C222" stroke="#96C222" stroke-linecap="round" stroke-linejoin="round" stroke-miterlimit="10" d="M51.96-114.796
	c0,8.186-6.028,14.175-11.494,17.926c-1.704,1.169-3.964-1.065-6.119-1.065c-2.121,0-4.501,2.377-6.172,1.063
	c-5.911-4.65-11.773-10.37-11.773-18.593c0-7.251,1.995-14.404,9.428-16.229c2.897-0.71,5.528,1.604,8.518,1.604
	c2.941,0,5.478-2.577,8.128-1.606C50.454-128.773,51.96-122.104,51.96-114.796z"/>
<polygon fill="#474747" stroke="#474747" stroke-linecap="round" stroke-linejoin="round" stroke-miterlimit="10" points="
	32.842,-130.33 34.809,-130.109 35.284,-136.355 33.47,-137.819 "/>
<path fill="#056734" stroke="#056734" stroke-linecap="round" stroke-linejoin="round" stroke-miterlimit="10" d="M32.021-133.631
	c-0.163,1.2-4.607,1.449-9.186,0.828c-4.576-0.62-7.952-3.594-7.877-4.152c0.103-0.749,0.535-0.213,2.555-0.35
	c1.215-0.082,3.051-0.731,5.609-1.137C27.683-139.166,32.184-134.832,32.021-133.631z"/>
<path fill="none" stroke="#FFFFFF" stroke-linecap="round" stroke-linejoin="round" stroke-miterlimit="10" d="M20.463-135.332
	c0,0,4.693-0.149,6.03,0.114c1.214,0.241,3.444,1.087,3.444,1.087"/>
<path fill="#FFFFFF" d="M24.669-120.532c1.064-3.142,4.801-4.799,4.856-6.152c0.02-0.45-0.656-1.075-1.113-1.148
	c-2.896-0.461-6.448,0.591-8.032,4.149c-1.581,3.56-1.341,7.21,0.94,9.756c0.663,0.739,1.355,1.127,2.112,0.448
	C25.325-115.178,23.555-117.241,24.669-120.532z"/>
<path fill="#474747" stroke="#474747" stroke-linecap="round" stroke-linejoin="round" stroke-miterlimit="10" d="M-35.998-114.796
	c0,8.185-6.029,14.174-11.496,17.926c-1.703,1.168-3.963-1.066-6.119-1.066c-2.12,0-4.501,2.378-6.171,1.063
	c-5.911-4.65-11.774-10.369-11.774-18.593c0-7.251,1.996-14.404,9.428-16.228c2.898-0.711,5.527,1.604,8.518,1.604
	c2.941,0,5.479-2.577,8.129-1.606C-37.504-128.773-35.998-122.104-35.998-114.796z"/>
<polygon fill="#474747" stroke="#474747" stroke-linecap="round" stroke-linejoin="round" stroke-miterlimit="10" points="
	-55.117,-130.33 -53.15,-130.109 -52.674,-136.355 -54.49,-137.819 "/>
<path fill="#474747" stroke="#474747" stroke-linecap="round" stroke-linejoin="round" stroke-miterlimit="10" d="M-55.938-133.631
	c-0.163,1.2-4.608,1.449-9.185,0.828c-4.577-0.62-7.952-3.594-7.878-4.152c0.102-0.749,0.535-0.213,2.555-0.35
	c1.215-0.082,3.051-0.732,5.609-1.137C-60.275-139.166-55.776-134.832-55.938-133.631z"/>
<path fill="none" stroke="#FFFFFF" stroke-linecap="round" stroke-linejoin="round" stroke-miterlimit="10" d="M-67.496-135.332
	c0,0,4.693-0.149,6.03,0.114c1.214,0.241,3.443,1.088,3.443,1.088"/>
<path fill="#FFFFFF" d="M-63.29-120.532c1.064-3.141,4.801-4.799,4.857-6.152c0.019-0.451-0.656-1.076-1.114-1.148
	c-2.896-0.461-6.447,0.59-8.03,4.149c-1.582,3.56-1.342,7.21,0.939,9.755c0.664,0.739,1.356,1.127,2.112,0.448
	C-62.633-115.179-64.404-117.24-63.29-120.532z"/>
<g>
	<path fill="#396316" d="M28.076-208.458c0.391,0.531,0.513,1.173,0.513,1.77c0,0.42-0.062,0.804-0.135,1.125
		c0.802,0.071,1.611,0.295,2.223,0.953c0.663,0.713,0.982,1.815,0.982,3.426c0,0.343-0.015,0.708-0.043,1.097
		c-0.032,0.43-0.052,0.839-0.052,1.236c0,0.405,0.021,0.795,0.071,1.179c0.232-0.18,0.483-0.333,0.755-0.448
		c0.873-0.372,1.734-0.312,2.323-0.196c0.167-1.182,0.613-2.069,1.366-2.607c0.795-0.567,1.715-0.611,2.33-0.554
		c0.123-0.991,0.479-1.794,1.094-2.372c0.62-0.584,1.329-0.794,1.841-0.879c-0.002-0.049-0.005-0.094-0.005-0.147
		c0-0.752,0.147-1.906,0.925-2.774c0.53-0.591,1.262-0.938,2.166-1.058c-2.793-1.148-5.984-1.949-9.325-2.06
		c-3.427-0.114-6.483,0.49-8.965,1.29C26.999-209.366,27.654-209.031,28.076-208.458z"/>
	<path fill="#45731B" d="M51.977-207.193l-0.092-0.065c-2.385-1.715-4.709-3.707-5.791-4.659c-0.14,0.514-0.195,1.077-0.195,1.607
		c0,1.075,0.193,1.999,0.197,2.015l0.161,0.754c0,0-2.03-0.563-3.114,0.67c-0.838,0.954-0.595,2.551-0.593,2.567l0.114,0.707
		l-0.714-0.023c-0.009,0-0.964-0.024-1.652,0.634c-0.502,0.48-0.764,1.22-0.774,2.201l-0.012,0.771l-0.74-0.215
		c-0.013-0.003-1.183-0.334-2.017,0.267c-0.586,0.423-0.906,1.234-0.951,2.411l-0.034,0.834l-0.775-0.314
		c-0.011-0.004-1.124-0.447-2.154-0.004c-0.34,0.147-0.639,0.38-0.895,0.693c0.754,2.184,2.833,4.391,7.921,7.928
		c3.326,2.312,5.128,5.236,5.128,8.287c0,0.192-0.009,0.383-0.021,0.576c-0.074,0.98-0.263,1.888-0.562,2.716
		c2.004-1.282,3.872-2.886,5.27-4.887c0.076-0.109,0.148-0.221,0.223-0.333c-3.143-2.896-4.4-7.182-4.854-9.319
		c2.298,4.328,5.214,6.525,6.05,7.094c0.053-0.124,0.102-0.246,0.151-0.367c0.575-1.398,1.019-2.733,1.345-3.994
		c0.035-0.142,0.069-0.282,0.104-0.422c-3.131-2.582-4.694-6.462-5.328-8.455c2.107,3.168,4.461,5.017,5.822,5.913
		c0.021-0.144,0.039-0.286,0.059-0.428c0.698-5.484-0.654-8.896-0.654-8.896s4.11,7.256,1.164,15.823
		c-0.01,0.024-0.018,0.048-0.023,0.072c-0.059,0.168-0.122,0.335-0.188,0.501c0.937-0.517,3.354-2.069,4.619-4.94
		c-0.423,2.47-1.8,6.74-6.244,8.147c-0.108,0.173-0.225,0.344-0.341,0.514c-2.007,2.965-4.852,5.507-7.958,7.226
		c10.298-2.137,17.006-9.03,17.062-17.991c0-0.042,0-0.083,0-0.123C60.688-200.938,54.137-205.643,51.977-207.193z"/>
	<path fill="#45731B" d="M43.82-180.123c0-2.659-1.625-5.246-4.625-7.33c-7.094-4.933-8.798-7.549-8.798-11.469
		c0-0.401,0.018-0.817,0.05-1.25c0.026-0.366,0.04-0.707,0.04-1.022c0-1.275-0.222-2.136-0.669-2.617
		c-0.398-0.428-1.034-0.61-2.126-0.609h-0.855l0.309-0.798c0.178-0.462,0.444-1.767-0.016-2.547
		c-0.513-0.869-2.103-0.846-2.648-0.811c-0.116,0.008-0.188,0.016-0.188,0.016s0.263-2.521,0.302-3.815
		c-0.904,0.606-2.405,1.571-4.4,2.699c-1.686,0.953-3.363,2.112-4.372,2.878c-2.559,1.947-7.51,7.654-7.51,15.273
		c0,2.529,0.546,5.269,1.905,8.151c2.506,5.314,7.74,7.972,11.692,9.266c1.461,0.479,2.964,0.843,4.453,1.111
		c-3.548-1.695-6.853-4.49-9.104-7.816c-0.115-0.17-0.23-0.341-0.34-0.514c-4.446-1.407-5.821-5.677-6.243-8.147
		c1.265,2.871,3.683,4.424,4.618,4.94c-0.064-0.166-0.129-0.333-0.187-0.501c-0.009-0.024-0.016-0.048-0.023-0.072
		c-2.949-8.567,1.163-15.823,1.163-15.823s-1.754,4.417-0.239,11.284c0.03,0.133,0.059,0.266,0.091,0.402
		c1.283-0.798,3.864-2.683,6.156-6.127c-0.644,2.022-2.243,5.989-5.465,8.57c0.043,0.128,0.09,0.26,0.136,0.39
		c0.256,0.744,0.547,1.504,0.885,2.287c0.565,1.307,1.328,2.474,2.218,3.522c0.084,0.1,0.17,0.197,0.257,0.295
		c0.877-0.783,4.463-4.089,6.516-7.693c-0.519,2.14-1.818,6.321-4.599,9.539c0.101,0.083,0.198,0.168,0.3,0.249
		c1.295,1.036,2.704,1.906,4.12,2.636c0.119,0.062,0.24,0.121,0.36,0.181c0.783-0.896,2.987-3.574,4.261-6.655
		c-0.251,1.827-0.93,4.911-2.718,7.373c0.125,0.054,0.25,0.11,0.375,0.163c1.107,0.56,2.886,1.28,4.853,1.65
		c0.995,0.186,2.039,0.282,3.067,0.221c1.153-0.069,2.286-0.332,3.312-0.889c2.228-1.206,3.459-3.263,3.669-6.108
		C43.814-179.8,43.82-179.962,43.82-180.123z"/>
</g>
<g>
	<path fill="#464646" d="M-60.924-208.458c0.391,0.531,0.513,1.173,0.513,1.77c0,0.42-0.062,0.804-0.135,1.125
		c0.802,0.071,1.611,0.295,2.223,0.953c0.663,0.713,0.982,1.815,0.982,3.426c0,0.343-0.015,0.708-0.043,1.097
		c-0.032,0.43-0.052,0.839-0.052,1.236c0,0.405,0.021,0.795,0.071,1.179c0.232-0.18,0.483-0.333,0.755-0.448
		c0.873-0.372,1.734-0.312,2.323-0.196c0.167-1.182,0.613-2.069,1.366-2.607c0.795-0.567,1.715-0.611,2.33-0.554
		c0.123-0.991,0.48-1.794,1.094-2.372c0.62-0.584,1.329-0.794,1.841-0.879c-0.002-0.049-0.005-0.094-0.005-0.147
		c0-0.752,0.147-1.906,0.925-2.774c0.53-0.591,1.261-0.938,2.165-1.058c-2.793-1.148-5.983-1.949-9.324-2.06
		c-3.427-0.114-6.483,0.49-8.965,1.29C-62.001-209.366-61.346-209.031-60.924-208.458z"/>
	<path fill="#464646" d="M-37.023-207.193l-0.092-0.065c-2.385-1.715-4.709-3.707-5.791-4.659c-0.14,0.514-0.196,1.077-0.196,1.607
		c0,1.075,0.194,1.999,0.197,2.015l0.162,0.754c0,0-2.03-0.563-3.115,0.67c-0.838,0.954-0.594,2.551-0.592,2.567l0.114,0.707
		l-0.714-0.023c-0.009,0-0.963-0.024-1.652,0.634c-0.502,0.48-0.764,1.22-0.774,2.201l-0.013,0.771l-0.739-0.215
		c-0.013-0.003-1.183-0.334-2.017,0.267c-0.586,0.423-0.906,1.234-0.951,2.411l-0.034,0.834l-0.775-0.314
		c-0.011-0.004-1.124-0.447-2.154-0.004c-0.34,0.147-0.639,0.38-0.895,0.693c0.754,2.184,2.833,4.391,7.921,7.928
		c3.326,2.312,5.128,5.236,5.128,8.287c0,0.192-0.008,0.383-0.021,0.576c-0.073,0.98-0.261,1.888-0.561,2.716
		c2.004-1.282,3.872-2.886,5.269-4.887c0.077-0.109,0.149-0.221,0.223-0.333c-3.144-2.896-4.401-7.182-4.854-9.319
		c2.296,4.328,5.213,6.525,6.048,7.094c0.053-0.124,0.102-0.246,0.153-0.367c0.575-1.398,1.017-2.733,1.344-3.994
		c0.036-0.142,0.07-0.282,0.104-0.422c-3.13-2.582-4.694-6.462-5.328-8.455c2.108,3.168,4.461,5.017,5.824,5.913
		c0.021-0.144,0.038-0.286,0.057-0.428c0.698-5.484-0.655-8.896-0.655-8.896s4.111,7.256,1.163,15.823
		c-0.008,0.024-0.016,0.048-0.023,0.072c-0.058,0.168-0.122,0.335-0.187,0.501c0.936-0.517,3.354-2.069,4.619-4.94
		c-0.423,2.47-1.8,6.74-6.244,8.147c-0.11,0.173-0.225,0.344-0.341,0.514c-2.007,2.965-4.85,5.507-7.958,7.226
		c10.298-2.137,17.006-9.03,17.062-17.991c0-0.042,0-0.083,0-0.123C-28.312-200.938-34.864-205.643-37.023-207.193z"/>
	<path fill="#464646" d="M-45.179-180.123c0-2.659-1.626-5.246-4.625-7.33c-7.095-4.933-8.799-7.549-8.799-11.469
		c0-0.401,0.018-0.817,0.05-1.25c0.026-0.366,0.04-0.707,0.04-1.022c0-1.275-0.222-2.136-0.669-2.617
		c-0.398-0.428-1.034-0.61-2.126-0.609h-0.855l0.309-0.798c0.178-0.462,0.444-1.767-0.016-2.547
		c-0.513-0.869-2.103-0.846-2.648-0.811c-0.116,0.008-0.188,0.016-0.188,0.016s0.263-2.521,0.302-3.815
		c-0.904,0.606-2.405,1.571-4.4,2.699c-1.686,0.953-3.363,2.112-4.372,2.878c-2.559,1.947-7.51,7.654-7.51,15.273
		c0,2.529,0.546,5.269,1.905,8.151c2.506,5.314,7.74,7.972,11.692,9.266c1.461,0.479,2.964,0.843,4.453,1.111
		c-3.548-1.695-6.853-4.49-9.104-7.816c-0.115-0.17-0.23-0.341-0.34-0.514c-4.446-1.407-5.821-5.677-6.243-8.147
		c1.265,2.871,3.683,4.424,4.618,4.94c-0.064-0.166-0.129-0.333-0.187-0.501c-0.009-0.024-0.016-0.048-0.023-0.072
		c-2.949-8.567,1.163-15.823,1.163-15.823s-1.754,4.417-0.239,11.284c0.03,0.133,0.059,0.266,0.091,0.402
		c1.283-0.798,3.864-2.683,6.156-6.127c-0.644,2.022-2.243,5.989-5.465,8.57c0.043,0.128,0.09,0.26,0.136,0.39
		c0.256,0.744,0.547,1.504,0.885,2.287c0.565,1.307,1.328,2.474,2.218,3.522c0.084,0.1,0.17,0.197,0.257,0.295
		c0.877-0.783,4.463-4.089,6.516-7.693c-0.519,2.14-1.818,6.321-4.599,9.539c0.101,0.083,0.198,0.168,0.3,0.249
		c1.295,1.036,2.704,1.906,4.12,2.636c0.119,0.062,0.24,0.121,0.36,0.181c0.783-0.896,2.987-3.574,4.261-6.655
		c-0.251,1.827-0.93,4.911-2.718,7.373c0.125,0.054,0.25,0.11,0.375,0.163c1.107,0.56,2.886,1.28,4.853,1.65
		c0.995,0.186,2.039,0.282,3.067,0.221c1.153-0.069,2.286-0.332,3.312-0.889c2.227-1.206,3.459-3.263,3.669-6.108
		C-45.185-179.8-45.179-179.962-45.179-180.123z"/>
</g>
<g>
	<path fill="#464646" d="M22.588,15.396c0.207-0.083-1.638-0.818-1.229-3.626c0,0,0.965,0.936,1.433,0.994
		c0.468,0.058,0-0.117,0-0.117s-0.409-3.744,1.843-4.036c0,0,2.573-0.41,4.913,3.188c0,0,0.731-1.433,0.731-3.071
		c0,0,2.573,4.036-0.789,7.048c0,0,1.812,6.667,4.123,8.773c0,0,0.936,1.462,0.146,2.018c0,0-1.053,0.819-2.252-1.287
		c0,0-4.709-7.135-5.293-7.75c0,0-5.586,1.638-6.961-1.988C19.254,15.543,21.565,15.806,22.588,15.396z"/>
	<path fill="#464646" d="M53.085,20.281c-0.08,0.208,1.711-0.65,3.498,1.554c0,0-1.342,0.075-1.701,0.38
		c-0.36,0.305,0.086,0.079,0.086,0.079s3.029,2.235,1.72,4.09c0,0-1.441,2.17-5.672,1.454c0,0,0.559,1.509,1.762,2.618
		c0,0-4.711-0.842-4.648-5.355c0,0-6.131-3.185-9.246-2.912c0,0-1.708-0.302-1.582-1.26c0,0,0.109-1.329,2.473-0.784
		c0,0,8.438,1.371,9.285,1.358c0,0,2.58-5.218,6.178-3.771C55.234,17.73,53.479,19.25,53.085,20.281z"/>
	<path fill="#464646" d="M31.577,52.786c0.042-0.24-1.705,1.054-4.084-0.945c0,0,1.428-0.36,1.751-0.762
		c0.324-0.401-0.109-0.067-0.109-0.067s-3.722-1.773-2.696-4.041c0,0,1.101-2.633,5.799-2.738c0,0-0.913-1.508-2.438-2.451
		c0,0,5.241-0.07,6.108,4.797c0,0,7.254,2.152,10.547,1.215c0,0,1.9-0.029,1.961,1.025c0,0,0.158,1.453-2.494,1.355
		c0,0-9.358,0.273-10.266,0.465c0,0-1.693,6.146-5.861,5.336C29.793,55.975,31.368,53.977,31.577,52.786z"/>
	<path fill="#464646" d="M59.98,30.898c0.217,0.112-0.5-1.942,2.115-3.619c0,0-0.08,1.47,0.207,1.899
		c0.287,0.428,0.098-0.084,0.098-0.084s2.802-3.026,4.66-1.374c0,0,2.187,1.834,0.892,6.35c0,0,1.709-0.424,3.063-1.599
		c0,0-1.49,5.025-6.395,4.406c0,0-4.213,6.287-4.295,9.709c0,0-0.539,1.823-1.564,1.568c0,0-1.434-0.282-0.553-2.785
		c0,0,2.521-9.018,2.609-9.941c0,0-5.365-3.442-3.354-7.183C57.466,28.246,58.907,30.345,59.98,30.898z"/>
	<path fill="#464646" d="M40.497,38.137c0.226-0.1-1.822-0.838-1.476-3.925c0,0,1.09,0.988,1.604,1.036
		c0.515,0.047-0.006-0.129-0.006-0.129s-0.584-4.081,1.871-4.483c0,0,2.801-0.542,5.491,3.309c0,0,0.748-1.594,0.689-3.386
		c0,0,2.963,4.324-0.607,7.741c0,0,2.228,7.233,4.832,9.454c0,0,1.076,1.564,0.232,2.202c0,0-1.121,0.935-2.51-1.326
		c0,0-5.414-7.64-6.076-8.29c0,0-6.055,1.997-7.69-1.923C36.854,38.417,39.393,38.621,40.497,38.137z"/>
	<path fill="#464646" d="M30.403,29.076c-0.07,0.176,1.455-0.539,2.957,1.34c0,0-1.14,0.056-1.447,0.312s0.073,0.066,0.073,0.066
		s2.556,1.916,1.432,3.479c0,0-1.238,1.832-4.821,1.195c0,0,0.463,1.283,1.478,2.232c0,0-3.99-0.745-3.906-4.573
		c0,0-5.181-2.742-7.823-2.531c0,0-1.447-0.267-1.334-1.078c0,0,0.104-1.126,2.102-0.648c0,0,7.148,1.218,7.867,1.212
		c0,0,2.222-4.409,5.264-3.159C32.243,26.926,30.743,28.205,30.403,29.076z"/>
	<path fill="#464646" d="M11.836,30.253c-0.022-0.217-1.201,1.33-3.742,0.206c0,0,1.136-0.665,1.314-1.091
		c0.177-0.425-0.111-0.03-0.111-0.03S5.66,28.741,5.975,26.54c0,0,0.289-2.535,4.296-3.797c0,0-1.159-1.067-2.703-1.497
		c0,0,4.482-1.368,6.439,2.596c0,0,6.767,0.041,9.358-1.586c0,0,1.626-0.499,1.942,0.393c0,0,0.497,1.207-1.806,1.786
		c0,0-7.967,2.568-8.699,2.959c0,0,0.078,5.698-3.703,6.042C11.1,33.436,11.954,31.326,11.836,30.253z"/>
</g>
<g>
	<path fill="#464646" d="M-61.594-283.102c0.207-0.083-1.638-0.818-1.229-3.626c0,0,0.965,0.936,1.433,0.994
		c0.468,0.058,0-0.117,0-0.117s-0.409-3.744,1.843-4.036c0,0,2.573-0.41,4.913,3.188c0,0,0.731-1.433,0.731-3.071
		c0,0,2.573,4.036-0.789,7.048c0,0,1.812,6.667,4.123,8.773c0,0,0.936,1.462,0.146,2.018c0,0-1.053,0.819-2.252-1.287
		c0,0-4.709-7.135-5.293-7.75c0,0-5.586,1.638-6.961-1.988C-64.928-282.956-62.618-282.693-61.594-283.102z"/>
	<path fill="#464646" d="M-31.098-278.218c-0.08,0.208,1.711-0.65,3.498,1.554c0,0-1.342,0.075-1.701,0.38
		c-0.361,0.305,0.086,0.079,0.086,0.079s3.029,2.235,1.719,4.09c0,0-1.441,2.17-5.672,1.454c0,0,0.559,1.509,1.762,2.618
		c0,0-4.711-0.842-4.648-5.355c0,0-6.131-3.185-9.246-2.912c0,0-1.709-0.302-1.582-1.26c0,0,0.109-1.329,2.472-0.784
		c0,0,8.438,1.371,9.286,1.358c0,0,2.58-5.218,6.178-3.771C-28.947-280.769-30.705-279.248-31.098-278.218z"/>
	<path fill="#464646" d="M-52.606-245.712c0.042-0.24-1.705,1.054-4.084-0.945c0,0,1.428-0.36,1.751-0.762
		c0.324-0.401-0.109-0.068-0.109-0.068s-3.722-1.773-2.696-4.041c0,0,1.101-2.632,5.799-2.738c0,0-0.913-1.507-2.438-2.45
		c0,0,5.241-0.071,6.108,4.796c0,0,7.254,2.153,10.547,1.215c0,0,1.9-0.029,1.961,1.026c0,0,0.158,1.452-2.494,1.355
		c0,0-9.358,0.274-10.266,0.465c0,0-1.693,6.146-5.861,5.336C-54.389-242.524-52.815-244.523-52.606-245.712z"/>
	<path fill="#464646" d="M-24.201-267.6c0.217,0.112-0.5-1.942,2.115-3.619c0,0-0.08,1.47,0.207,1.899
		c0.287,0.428,0.098-0.084,0.098-0.084s2.801-3.026,4.66-1.374c0,0,2.186,1.834,0.891,6.351c0,0,1.709-0.424,3.064-1.6
		c0,0-1.49,5.025-6.395,4.406c0,0-4.213,6.287-4.295,9.709c0,0-0.539,1.823-1.564,1.568c0,0-1.434-0.282-0.553-2.785
		c0,0,2.521-9.017,2.609-9.941c0,0-5.365-3.442-3.354-7.183C-26.717-270.252-25.275-268.154-24.201-267.6z"/>
	<path fill="#464646" d="M-43.685-260.363c0.224-0.099-1.823-0.837-1.476-3.924c0,0,1.09,0.988,1.604,1.036
		c0.514,0.047-0.006-0.129-0.006-0.129s-0.584-4.081,1.871-4.483c0,0,2.801-0.542,5.492,3.31c0,0,0.748-1.595,0.689-3.387
		c0,0,2.963,4.324-0.607,7.741c0,0,2.227,7.233,4.832,9.454c0,0,1.076,1.564,0.232,2.202c0,0-1.121,0.935-2.51-1.326
		c0,0-5.414-7.639-6.076-8.29c0,0-6.053,1.997-7.69-1.923C-47.329-260.082-44.791-259.877-43.685-260.363z"/>
	<path fill="#464646" d="M-53.78-269.423c-0.07,0.176,1.455-0.539,2.957,1.34c0,0-1.14,0.056-1.447,0.312s0.073,0.066,0.073,0.066
		s2.556,1.916,1.432,3.48c0,0-1.238,1.831-4.821,1.194c0,0,0.463,1.284,1.478,2.233c0,0-3.99-0.745-3.906-4.573
		c0,0-5.181-2.742-7.823-2.531c0,0-1.447-0.267-1.334-1.078c0,0,0.104-1.126,2.102-0.648c0,0,7.148,1.218,7.867,1.212
		c0,0,2.222-4.409,5.264-3.159C-51.94-271.572-53.44-270.293-53.78-269.423z"/>
	<path fill="#464646" d="M-72.346-268.246c-0.022-0.217-1.201,1.33-3.742,0.206c0,0,1.136-0.665,1.314-1.091
		c0.177-0.425-0.111-0.03-0.111-0.03s-3.638-0.596-3.322-2.797c0,0,0.289-2.535,4.296-3.797c0,0-1.159-1.067-2.703-1.497
		c0,0,4.482-1.368,6.439,2.596c0,0,6.767,0.041,9.358-1.586c0,0,1.626-0.499,1.942,0.393c0,0,0.497,1.207-1.806,1.786
		c0,0-7.967,2.568-8.699,2.959c0,0,0.078,5.698-3.703,6.042C-73.083-265.063-72.229-267.172-72.346-268.246z"/>
</g>
</svg>
