<?xml version="1.0" encoding="utf-8"?>
<!-- Generator: Adobe Illustrator 16.0.0, SVG Export Plug-In . SVG Version: 6.00 Build 0)  -->
<!DOCTYPE svg PUBLIC "-//W3C//DTD SVG 1.1//EN" "http://www.w3.org/Graphics/SVG/1.1/DTD/svg11.dtd">
<svg version="1.1" id="Capa_1" xmlns="http://www.w3.org/2000/svg" xmlns:xlink="http://www.w3.org/1999/xlink" x="0px" y="0px"
	 width="75px" height="65px" viewBox="0 0 75 65" enable-background="new 0 0 75 65" xml:space="preserve">
<g>
	<g>
		<path fill="#464646" d="M-68.376-204.375c-11.039,4.884-18.277,15.264-18.277,15.264c0.06,0.067,5.485,6.28,9.979,4.644
			l0.151,1.107c-0.565,0.205-1.145,0.297-1.729,0.297c-3.104,0-6.346-2.57-8.02-4.133c2.369,2.965,8.779,10.258,17.111,14.217
			C-62.943-183.576-67.403-200.942-68.376-204.375z M-75.117-188.107c-1.53,0-2.773-1.242-2.773-2.773s1.243-2.771,2.773-2.771
			c1.532,0,2.775,1.24,2.775,2.771S-73.585-188.107-75.117-188.107z"/>
		<path fill="#464646" d="M-32.571-192.527c-4.858-5.355-14.54-14.145-25.686-14.145c-3.115,0-6.116,0.695-8.93,1.803
			c0.953,3.233,5.75,21.091-0.8,32.418c3.042,1.297,6.316,2.123,9.729,2.123c11.813,0,21.971-9.867,26.506-15.057l8.957,5.113
			v-16.453L-32.571-192.527z"/>
	</g>
</g>
<g>
	<g>
		<path fill="#004169" d="M23.624-204.375C12.585-199.49,5.347-189.11,5.347-189.11c0.06,0.067,5.485,6.28,9.979,4.644l0.151,1.107
			c-0.565,0.205-1.145,0.297-1.729,0.297c-3.104,0-6.346-2.57-8.02-4.133c2.369,2.965,8.779,10.258,17.111,14.217
			C29.057-183.576,24.597-200.942,23.624-204.375z M16.883-188.107c-1.53,0-2.773-1.242-2.773-2.773s1.243-2.771,2.773-2.771
			c1.532,0,2.775,1.24,2.775,2.771S18.415-188.107,16.883-188.107z"/>
		<path fill="#738BAD" d="M59.429-192.527c-4.858-5.355-14.54-14.145-25.686-14.145c-3.115,0-6.116,0.694-8.93,1.803
			c0.953,3.232,5.75,21.091-0.8,32.418c3.042,1.297,6.316,2.123,9.729,2.123c11.813,0,21.971-9.867,26.506-15.057l8.957,5.113
			v-16.453L59.429-192.527z"/>
	</g>
</g>
<path fill="#F39200" d="M38.992-127.574l1.023,1.061c0.372,0.385,0.988,0.396,1.373,0.023l0.582-0.562
	c0.385-0.37,0.396-0.987,0.023-1.372l-0.789-0.819l-0.233-0.241c-0.372-0.385-0.988-0.396-1.373-0.023l-0.582,0.562
	C38.632-128.574,38.62-127.959,38.992-127.574z"/>
<path fill="#F39200" d="M36.606-125.27l1.022,1.061c0.372,0.385,0.988,0.395,1.373,0.023l0.582-0.562
	c0.386-0.37,0.396-0.987,0.024-1.372l-1.022-1.06c-0.373-0.385-0.988-0.396-1.373-0.024l-0.582,0.562
	C36.245-126.271,36.234-125.654,36.606-125.27z"/>
<path fill="#F39200" d="M37.198-122.444c0.386-0.371,0.396-0.986,0.024-1.371l-1.023-1.062c-0.225-0.231-0.541-0.327-0.841-0.284
	c-0.228,0.793-0.503,1.632-0.837,2.51l0.723,0.745c0.371,0.385,0.986,0.396,1.372,0.024L37.198-122.444z"/>
<path fill="#F39200" d="M34.812-120.14c0.385-0.371,0.396-0.986,0.023-1.372l-0.541-0.561c-0.342,0.854-0.737,1.742-1.196,2.653
	c0.361,0.192,0.82,0.142,1.131-0.158L34.812-120.14z"/>
<path fill="#F39200" d="M32.711-118.672c-0.215,0.404-0.441,0.811-0.683,1.222l0.398-0.385
	C32.658-118.061,32.754-118.373,32.711-118.672z"/>
<path fill="#F39200" d="M44.735-124.189c0.386-0.371,0.397-0.986,0.024-1.373l-0.929-0.961l-0.094-0.099
	c-0.373-0.385-0.989-0.395-1.374-0.022l-0.583,0.562c-0.385,0.371-0.396,0.986-0.022,1.373l1.023,1.058
	c0.371,0.385,0.987,0.396,1.371,0.024L44.735-124.189z"/>
<path fill="#F39200" d="M42.35-121.885c0.385-0.372,0.396-0.987,0.023-1.373l-1.023-1.06c-0.371-0.385-0.987-0.395-1.372-0.024
	l-0.583,0.562c-0.385,0.373-0.396,0.988-0.022,1.375l1.022,1.058c0.372,0.385,0.988,0.396,1.373,0.024L42.35-121.885z"/>
<path fill="#F39200" d="M39.963-119.58c0.385-0.372,0.396-0.987,0.024-1.374l-1.022-1.059c-0.373-0.385-0.988-0.396-1.374-0.023
	l-0.583,0.561c-0.385,0.374-0.395,0.989-0.023,1.374l1.023,1.06c0.373,0.385,0.988,0.395,1.373,0.024L39.963-119.58z"/>
<path fill="#F39200" d="M37.578-117.277c0.385-0.37,0.396-0.985,0.023-1.372l-1.023-1.06c-0.372-0.385-0.988-0.395-1.373-0.024
	l-0.582,0.562c-0.386,0.374-0.396,0.987-0.023,1.374l1.022,1.059c0.372,0.386,0.987,0.396,1.372,0.025L37.578-117.277z"/>
<path fill="#F39200" d="M35.19-114.972c0.387-0.371,0.396-0.988,0.024-1.373l-1.022-1.06c-0.373-0.385-0.988-0.396-1.374-0.024
	l-0.582,0.562c-0.385,0.372-0.396,0.988-0.023,1.373l1.022,1.06c0.373,0.385,0.988,0.395,1.374,0.023L35.19-114.972z"/>
<path fill="#F39200" d="M32.806-112.669c0.384-0.37,0.396-0.986,0.022-1.371l-1.021-1.06c-0.308-0.317-0.779-0.38-1.151-0.185
	c-0.343,0.5-0.704,1.005-1.088,1.512c-0.002,0.005-0.003,0.005-0.007,0.01c0.021,0.208,0.109,0.413,0.266,0.573l1.023,1.061
	c0.373,0.385,0.988,0.395,1.373,0.023L32.806-112.669z"/>
<path fill="#F39200" d="M30.419-110.364c0.385-0.371,0.396-0.986,0.024-1.372l-1.023-1.061c-0.114-0.117-0.252-0.2-0.397-0.247
	c-0.54,0.726-1.065,1.448-1.574,2.168l1.016,1.052c0.372,0.385,0.987,0.395,1.373,0.022L30.419-110.364z"/>
<path fill="#F39200" d="M28.033-108.06c0.384-0.372,0.396-0.987,0.023-1.372l-0.939-0.976c-0.548,0.782-1.079,1.557-1.59,2.316
	l0.55,0.57c0.373,0.384,0.988,0.396,1.373,0.023L28.033-108.06z"/>
<path fill="#F39200" d="M47.502-121.325c0.385-0.372,0.395-0.989,0.022-1.374l-0.095-0.097l-0.928-0.961
	c-0.371-0.387-0.987-0.396-1.372-0.024l-0.583,0.561c-0.386,0.372-0.397,0.989-0.024,1.374l1.023,1.061
	c0.37,0.384,0.988,0.395,1.372,0.023L47.502-121.325z"/>
<path fill="#F39200" d="M45.115-119.021c0.385-0.372,0.395-0.989,0.023-1.374l-1.022-1.06c-0.373-0.385-0.988-0.395-1.374-0.024
	l-0.582,0.562c-0.385,0.373-0.396,0.988-0.024,1.374l1.023,1.059c0.372,0.385,0.987,0.396,1.373,0.025L45.115-119.021z"/>
<path fill="#F39200" d="M42.729-116.717c0.386-0.371,0.396-0.988,0.023-1.373l-1.022-1.06c-0.373-0.387-0.988-0.396-1.372-0.022
	l-0.583,0.561c-0.386,0.373-0.396,0.987-0.024,1.373l1.023,1.06c0.372,0.385,0.987,0.396,1.372,0.024L42.729-116.717z"/>
<path fill="#F39200" d="M40.342-114.414c0.386-0.37,0.396-0.986,0.024-1.371l-1.023-1.06c-0.372-0.387-0.987-0.396-1.372-0.023
	l-0.583,0.562c-0.385,0.37-0.396,0.987-0.023,1.372l1.023,1.06c0.371,0.383,0.987,0.396,1.372,0.022L40.342-114.414z"/>
<path fill="#F39200" d="M37.956-112.107c0.385-0.374,0.396-0.988,0.023-1.374l-1.022-1.059c-0.372-0.387-0.986-0.396-1.372-0.023
	l-0.583,0.561c-0.386,0.372-0.396,0.987-0.023,1.374l1.023,1.06c0.369,0.385,0.986,0.396,1.371,0.024L37.956-112.107z"/>
<path fill="#F39200" d="M34.492-108.987c0.133-0.06,0.265-0.117,0.396-0.173c0.034-0.024,0.067-0.051,0.1-0.082l0.582-0.562
	c0.385-0.372,0.396-0.988,0.024-1.372l-1.024-1.06c-0.371-0.386-0.986-0.396-1.371-0.026l-0.583,0.563
	c-0.386,0.373-0.396,0.988-0.023,1.375l1.022,1.059C33.85-109.021,34.183-108.928,34.492-108.987z"/>
<path fill="#F39200" d="M33.435-108.49c-0.044-0.14-0.118-0.271-0.227-0.382l-1.022-1.061c-0.373-0.386-0.988-0.396-1.374-0.023
	l-0.582,0.561c-0.386,0.374-0.396,0.989-0.023,1.374l0.804,0.832C31.827-107.66,32.637-108.099,33.435-108.49z"/>
<path fill="#F39200" d="M30.508-106.894l-0.709-0.735c-0.373-0.385-0.988-0.395-1.373-0.024l-0.582,0.562
	c-0.385,0.373-0.396,0.988-0.023,1.374l0.292,0.304C28.914-105.928,29.713-106.425,30.508-106.894z"/>
<path fill="#F39200" d="M50.056-120.077l-0.789-0.817c-0.372-0.385-0.988-0.395-1.373-0.024l-0.582,0.562
	c-0.385,0.371-0.396,0.986-0.023,1.373l1.022,1.06c0.372,0.385,0.989,0.395,1.373,0.023l0.582-0.562
	c0.385-0.372,0.396-0.987,0.024-1.372L50.056-120.077z"/>
<path fill="#F39200" d="M41.611-129.636l0.789,0.818l0.183,0.188c0.348,0.359,0.943,0.35,1.329-0.021l0.582-0.562
	c0.386-0.37,0.417-0.968,0.068-1.328l-0.739-0.765l-0.232-0.241c-0.348-0.359-0.944-0.351-1.33,0.021l-0.582,0.562
	C41.294-130.593,41.263-129.997,41.611-129.636z"/>
<path fill="#F39200" d="M47.122-126.493c0.385-0.372,0.417-0.968,0.067-1.328l-0.877-0.908l-0.094-0.099
	c-0.35-0.359-0.946-0.35-1.331,0.021l-0.582,0.562c-0.385,0.373-0.416,0.969-0.067,1.329l0.928,0.962l0.043,0.046
	c0.35,0.36,0.945,0.349,1.331-0.022L47.122-126.493z"/>
<path fill="#F39200" d="M46.933-125.523c-0.385,0.372-0.416,0.968-0.069,1.328l0.046,0.046l0.928,0.96
	c0.348,0.36,0.943,0.351,1.33-0.021l0.582-0.562c0.385-0.371,0.415-0.967,0.067-1.327l-0.096-0.099l-0.876-0.908
	c-0.349-0.36-0.945-0.35-1.33,0.021L46.933-125.523z"/>
<path fill="#F39200" d="M52.21-122.622l-0.739-0.765c-0.347-0.36-0.944-0.351-1.331,0.02l-0.579,0.563
	c-0.388,0.371-0.417,0.967-0.069,1.328l0.183,0.188l0.789,0.819c0.349,0.358,0.945,0.349,1.33-0.021l0.582-0.562
	c0.385-0.373,0.416-0.967,0.067-1.327L52.21-122.622z"/>
<path fill="#F39200" d="M44.23-131.699l0.738,0.765l0.183,0.188c0.323,0.336,0.901,0.307,1.286-0.065l0.582-0.562
	c0.384-0.372,0.435-0.947,0.11-1.283l-0.688-0.712l-0.232-0.242c-0.324-0.335-0.901-0.306-1.287,0.067l-0.582,0.562
	C43.956-132.609,43.906-132.035,44.23-131.699z"/>
<path fill="#F39200" d="M49.507-128.798c0.387-0.372,0.436-0.947,0.112-1.281l-0.827-0.857l-0.094-0.097
	c-0.325-0.336-0.9-0.307-1.285,0.065l-0.583,0.562c-0.386,0.372-0.436,0.947-0.111,1.283l0.877,0.908l0.045,0.046
	c0.323,0.335,0.898,0.304,1.284-0.067L49.507-128.798z"/>
<path fill="#F39200" d="M49.319-127.827c-0.386,0.371-0.437,0.947-0.112,1.282l0.044,0.045l0.877,0.908
	c0.324,0.335,0.902,0.306,1.285-0.066l0.584-0.562c0.386-0.372,0.435-0.947,0.109-1.283l-0.093-0.097l-0.828-0.857
	c-0.322-0.335-0.899-0.304-1.284,0.067L49.319-127.827z"/>
<path fill="#F39200" d="M54.362-125.168l-0.687-0.711c-0.326-0.337-0.902-0.306-1.286,0.066l-0.583,0.562
	c-0.386,0.37-0.435,0.945-0.11,1.281l0.181,0.189l0.74,0.765c0.324,0.336,0.9,0.306,1.285-0.065l0.583-0.563
	c0.385-0.373,0.434-0.947,0.11-1.282L54.362-125.168z"/>
<path fill="#F39200" d="M46.851-133.763l0.687,0.713l0.183,0.188c0.298,0.312,0.823,0.292,1.169-0.041l0.536-0.518
	c0.345-0.333,0.381-0.857,0.081-1.168l-0.637-0.66l-0.231-0.241c-0.301-0.312-0.825-0.291-1.17,0.043l-0.536,0.517
	C46.586-134.597,46.55-134.073,46.851-133.763z"/>
<path fill="#F39200" d="M51.775-130.985c0.344-0.334,0.382-0.857,0.082-1.168l-0.775-0.803l-0.095-0.099
	c-0.301-0.31-0.825-0.291-1.171,0.041l-0.535,0.518c-0.346,0.333-0.382,0.857-0.081,1.167l0.825,0.856l0.044,0.045
	c0.299,0.311,0.824,0.291,1.169-0.042L51.775-130.985z"/>
<path fill="#F39200" d="M51.632-130.063c-0.345,0.336-0.382,0.859-0.082,1.17l0.043,0.045l0.826,0.854
	c0.3,0.312,0.825,0.292,1.17-0.041l0.536-0.517c0.345-0.335,0.381-0.858,0.081-1.169l-0.095-0.099l-0.773-0.801
	c-0.3-0.312-0.824-0.292-1.17,0.041L51.632-130.063z"/>
<path fill="#F39200" d="M56.324-127.528l-0.638-0.659c-0.3-0.31-0.824-0.291-1.17,0.041l-0.534,0.518
	c-0.346,0.334-0.382,0.857-0.083,1.168l0.183,0.189l0.687,0.711c0.301,0.311,0.826,0.292,1.171-0.04l0.536-0.518
	c0.345-0.333,0.382-0.859,0.082-1.168L56.324-127.528z"/>
<path fill="#F39200" d="M49.275-135.641l0.638,0.659l0.182,0.189c0.275,0.284,0.773,0.255,1.105-0.067l0.522-0.503
	c0.334-0.324,0.381-0.819,0.104-1.104l-0.816-0.849c-0.277-0.286-0.772-0.255-1.106,0.067l-0.521,0.505
	C49.048-136.422,49.002-135.926,49.275-135.641z"/>
<path fill="#F39200" d="M53.935-133.073c0.334-0.322,0.383-0.817,0.106-1.104l-0.818-0.848c-0.276-0.286-0.771-0.256-1.106,0.068
	l-0.523,0.503c-0.333,0.324-0.38,0.817-0.104,1.104l0.775,0.803l0.043,0.045c0.275,0.284,0.771,0.255,1.105-0.066L53.935-133.073z"
	/>
<path fill="#F39200" d="M53.807-132.16c-0.333,0.32-0.382,0.815-0.105,1.102l0.044,0.045l0.774,0.803
	c0.276,0.286,0.772,0.257,1.106-0.067l0.522-0.504c0.334-0.322,0.38-0.817,0.104-1.104l-0.817-0.847
	c-0.274-0.286-0.772-0.257-1.106,0.065L53.807-132.16z"/>
<path fill="#F39200" d="M57.647-130.443c-0.275-0.284-0.773-0.255-1.108,0.067l-0.521,0.506c-0.334,0.322-0.383,0.815-0.105,1.102
	l0.181,0.188l0.637,0.66c0.276,0.286,0.771,0.256,1.106-0.066l0.522-0.505c0.334-0.322,0.382-0.817,0.105-1.102L57.647-130.443z"/>
<path fill="#F39200" d="M51.881-137.399l0.734,0.764c0.238,0.243,0.646,0.236,0.908-0.019l0.439-0.423
	c0.262-0.255,0.284-0.661,0.046-0.906l-0.733-0.761c-0.237-0.245-0.645-0.239-0.908,0.016l-0.439,0.425
	C51.664-138.051,51.645-137.643,51.881-137.399z"/>
<path fill="#F39200" d="M55.951-135.018c0.262-0.257,0.285-0.661,0.048-0.906l-0.737-0.763c-0.236-0.245-0.644-0.239-0.905,0.016
	l-0.441,0.425c-0.264,0.253-0.284,0.661-0.047,0.904l0.735,0.764c0.236,0.245,0.646,0.238,0.907-0.017L55.951-135.018z"/>
<path fill="#F39200" d="M56.592-132.521c0.237,0.245,0.644,0.238,0.907-0.015l0.439-0.425c0.263-0.255,0.283-0.661,0.047-0.906
	l-0.735-0.762c-0.237-0.246-0.643-0.238-0.905,0.017l-0.439,0.425c-0.264,0.253-0.286,0.659-0.049,0.906L56.592-132.521z"/>
<path fill="#F39200" d="M58.331-132.554l-0.438,0.425c-0.265,0.253-0.286,0.659-0.048,0.906l0.735,0.762
	c0.236,0.245,0.643,0.236,0.907-0.017l0.438-0.425c0.264-0.255,0.285-0.661,0.047-0.906l-0.735-0.76
	C59.001-132.814,58.595-132.807,58.331-132.554z"/>
<path fill="#F39200" d="M54.355-138.626l0.605,0.628c0.173,0.18,0.521,0.137,0.759-0.094l0.415-0.399
	c0.239-0.23,0.294-0.577,0.119-0.757l-0.605-0.625c-0.172-0.181-0.521-0.138-0.757,0.092l-0.417,0.401
	C54.238-139.149,54.182-138.804,54.355-138.626z"/>
<path fill="#F39200" d="M55.991-136.931l0.607,0.629c0.173,0.179,0.521,0.135,0.758-0.096l0.416-0.399
	c0.236-0.23,0.292-0.576,0.119-0.755l-0.606-0.627c-0.173-0.18-0.519-0.137-0.758,0.094l-0.415,0.399
	C55.874-137.455,55.819-137.109,55.991-136.931z"/>
<path fill="#F39200" d="M57.629-135.234l0.606,0.627c0.174,0.179,0.52,0.135,0.757-0.094l0.417-0.401
	c0.237-0.23,0.292-0.574,0.12-0.754l-0.606-0.628c-0.173-0.18-0.52-0.135-0.758,0.095l-0.416,0.4
	C57.512-135.759,57.457-135.415,57.629-135.234z"/>
<path fill="#F39200" d="M59.802-134.695l-0.414,0.4c-0.239,0.231-0.294,0.577-0.121,0.755l0.606,0.628
	c0.172,0.18,0.52,0.137,0.757-0.094l0.416-0.401c0.239-0.229,0.293-0.574,0.12-0.755l-0.605-0.627
	C60.389-134.967,60.041-134.925,59.802-134.695z"/>
<path fill="#F39200" d="M56.737-139.782l0.482,0.496c0.116,0.122,0.324,0.11,0.465-0.024l0.294-0.284
	c0.139-0.135,0.158-0.343,0.041-0.464l-0.48-0.499c-0.117-0.12-0.325-0.108-0.464,0.026l-0.296,0.285
	C56.639-140.113,56.622-139.904,56.737-139.782z"/>
<path fill="#F39200" d="M58.038-138.438l0.479,0.496c0.117,0.122,0.326,0.11,0.465-0.024l0.295-0.284
	c0.139-0.135,0.158-0.343,0.04-0.464l-0.479-0.497c-0.118-0.121-0.326-0.11-0.465,0.024l-0.295,0.285
	C57.938-138.768,57.919-138.561,58.038-138.438z"/>
<path fill="#F39200" d="M59.335-137.095l0.479,0.495c0.117,0.123,0.326,0.111,0.465-0.023l0.295-0.284
	c0.14-0.134,0.158-0.342,0.041-0.464l-0.479-0.497c-0.117-0.121-0.326-0.11-0.467,0.025l-0.293,0.284
	C59.236-137.424,59.218-137.217,59.335-137.095z"/>
<path fill="#F39200" d="M60.634-135.751l0.479,0.498c0.116,0.122,0.325,0.109,0.465-0.026l0.295-0.284
	c0.139-0.133,0.157-0.342,0.039-0.464l-0.479-0.497c-0.117-0.12-0.326-0.109-0.466,0.025l-0.295,0.282
	C60.534-136.08,60.516-135.871,60.634-135.751z"/>
<path fill="#F39200" d="M47.88-116.157c0.383-0.373,0.395-0.99,0.023-1.375l-1.023-1.058c-0.372-0.385-0.987-0.396-1.372-0.024
	l-0.582,0.563c-0.385,0.37-0.396,0.987-0.023,1.372l1.022,1.06c0.371,0.385,0.986,0.395,1.372,0.024L47.88-116.157z"/>
<path fill="#F39200" d="M45.494-113.854c0.385-0.372,0.396-0.987,0.023-1.372l-1.023-1.059c-0.371-0.386-0.988-0.398-1.373-0.025
	l-0.582,0.562c-0.385,0.372-0.395,0.989-0.023,1.372l1.023,1.062c0.371,0.385,0.985,0.395,1.373,0.024L45.494-113.854z"/>
<path fill="#F39200" d="M39.722-111.679c-0.37-0.383-0.987-0.395-1.373-0.022l-0.582,0.562c-0.291,0.281-0.368,0.7-0.228,1.056
	c1.177-0.306,2.297-0.44,3.344-0.354c-0.037-0.064-0.084-0.125-0.136-0.183L39.722-111.679z"/>
<path fill="#F39200" d="M25.647-105.755c0.385-0.372,0.396-0.989,0.023-1.372l-0.466-0.481c-0.536,0.808-1.052,1.597-1.542,2.361
	l0.027,0.031c0.373,0.384,0.988,0.395,1.374,0.023L25.647-105.755z"/>
<path fill="#F39200" d="M27.188-104.811c0.146-0.098,0.294-0.194,0.442-0.29l-0.217-0.224c-0.373-0.385-0.987-0.396-1.372-0.024
	l-0.584,0.562c-0.331,0.32-0.385,0.82-0.155,1.199C25.905-103.972,26.527-104.377,27.188-104.811z"/>
<path fill="#F39200" d="M23.348-104.752c-0.473,0.74-0.919,1.454-1.343,2.136c0.243,0,0.485-0.093,0.673-0.271l0.583-0.562
	C23.622-103.8,23.653-104.367,23.348-104.752z"/>
<path fill="#F39200" d="M23.654-103.044l-0.582,0.562c-0.129,0.125-0.215,0.274-0.259,0.433c0.646-0.384,1.275-0.771,1.921-1.178
	C24.381-103.388,23.949-103.329,23.654-103.044z"/>
<path fill="#006633" d="M35.712-130.999c-0.185,2.812-1.228,9.566-6.709,16.801c-3.891,5.137-7.067,10.316-9.229,13.871
	c-0.969,0.521-2.029,1.074-3.239,1.685l-1.578-1.635c-0.021-0.088-0.043-0.173-0.063-0.264c-0.777-3.545,0.69-7.461,4.243-11.326
	c1.821-1.98,3.566-3.802,5.255-5.562c0,0,8.896-8.66,10.856-17.929C35.247-135.357,35.772-133.897,35.712-130.999z"/>
<path fill="#006633" d="M11.541-97.128c0.433,0.446,4.954,5.129,5.386,5.576c0.398-0.387,2.434-2.351,2.831-2.735
	c-0.432-0.447-4.953-5.13-5.384-5.576C13.975-99.479,11.941-97.515,11.541-97.128z"/>
<path fill="#464646" d="M40.646-108.663l-0.032,0.022c0.215,0.252,0.386,0.475,0.495,0.631
	C40.966-108.228,40.812-108.446,40.646-108.663z"/>
<path fill="#F39200" d="M40.129-112.071l1.023,1.061c0.371,0.385,0.987,0.396,1.373,0.021l0.582-0.559
	c0.385-0.374,0.395-0.99,0.024-1.376l-1.023-1.059c-0.372-0.384-0.989-0.396-1.372-0.023l-0.584,0.562
	C39.77-113.071,39.758-112.456,40.129-112.071z"/>
<path fill="#006633" d="M38.506-109.545c-3.271,0.604-7.086,2.798-10.93,5.324c-3.525,2.319-5.976,3.807-10.527,6.111l3.264,3.378
	c0.432,0.117,0.855,0.178,1.276,0.163h0.01h0.009c4.284,0.075,8.148-3.093,11.556-5.886c1.038-0.85,2.019-1.651,2.987-2.355
	c2.588-1.875,4.636-3.163,5.15-3.481c-0.217-0.43-0.473-0.867-0.769-1.31C40.186-108.127,39.415-109.042,38.506-109.545z"/>
<path fill="#006633" d="M46.037-103.08c0.283-1.668-0.04-3.366-1.698-4.996c-1.318-1.296-2.949-1.747-4.785-1.606
	c0.411,0.332,0.945,0.885,0.945,0.885c0.43,0.472,0.756,1.005,0.756,1.005c2.568,3.995,1.797,7.605,1.175,9.298
	c0.641-0.395,1.217-0.832,1.704-1.306C45.202-100.83,45.826-101.842,46.037-103.08z"/>
<path fill="#464646" d="M-49.397-127.089l1.024,1.061c0.371,0.385,0.987,0.396,1.372,0.023l0.583-0.562
	c0.385-0.37,0.396-0.987,0.023-1.372l-0.79-0.819L-47.418-129c-0.371-0.385-0.987-0.396-1.372-0.023l-0.583,0.562
	C-49.758-128.089-49.769-127.474-49.397-127.089z"/>
<path fill="#464646" d="M-51.782-124.784l1.022,1.061c0.371,0.385,0.987,0.395,1.372,0.023l0.583-0.562
	c0.386-0.37,0.396-0.987,0.024-1.372l-1.023-1.06c-0.372-0.385-0.987-0.396-1.372-0.024l-0.583,0.562
	C-52.145-125.786-52.155-125.169-51.782-124.784z"/>
<path fill="#464646" d="M-51.191-121.959c0.386-0.371,0.396-0.986,0.025-1.371l-1.024-1.062c-0.225-0.231-0.54-0.327-0.841-0.284
	c-0.228,0.793-0.503,1.632-0.837,2.51l0.723,0.745c0.371,0.385,0.987,0.396,1.372,0.024L-51.191-121.959z"/>
<path fill="#464646" d="M-53.577-119.654c0.385-0.371,0.396-0.986,0.024-1.372l-0.541-0.561c-0.342,0.854-0.738,1.742-1.196,2.653
	c0.361,0.192,0.82,0.142,1.13-0.158L-53.577-119.654z"/>
<path fill="#464646" d="M-55.679-118.187c-0.214,0.404-0.441,0.811-0.683,1.222l0.398-0.385
	C-55.73-117.575-55.636-117.888-55.679-118.187z"/>
<path fill="#464646" d="M-43.653-123.704c0.385-0.371,0.397-0.986,0.023-1.373l-0.928-0.961l-0.094-0.099
	c-0.374-0.385-0.99-0.395-1.375-0.022l-0.582,0.562c-0.385,0.371-0.396,0.986-0.023,1.373l1.023,1.058
	c0.372,0.385,0.988,0.396,1.372,0.024L-43.653-123.704z"/>
<path fill="#464646" d="M-46.039-121.399c0.385-0.372,0.396-0.987,0.022-1.373l-1.022-1.06c-0.372-0.385-0.988-0.395-1.373-0.024
	l-0.582,0.562c-0.385,0.373-0.396,0.988-0.023,1.375l1.022,1.058c0.373,0.385,0.988,0.396,1.374,0.024L-46.039-121.399z"/>
<path fill="#464646" d="M-48.426-119.095c0.385-0.372,0.396-0.987,0.023-1.374l-1.022-1.059c-0.372-0.385-0.988-0.396-1.373-0.023
	l-0.583,0.561c-0.385,0.374-0.395,0.989-0.024,1.374l1.024,1.06c0.372,0.385,0.987,0.395,1.373,0.024L-48.426-119.095z"/>
<path fill="#464646" d="M-50.812-116.792c0.386-0.37,0.396-0.985,0.023-1.372l-1.023-1.06c-0.371-0.385-0.987-0.395-1.372-0.024
	l-0.582,0.562c-0.386,0.374-0.396,0.987-0.024,1.374l1.023,1.059c0.371,0.386,0.986,0.396,1.372,0.025L-50.812-116.792z"/>
<path fill="#464646" d="M-53.198-114.486c0.386-0.371,0.396-0.988,0.024-1.373l-1.023-1.06c-0.372-0.385-0.987-0.396-1.373-0.024
	l-0.582,0.562c-0.385,0.372-0.396,0.988-0.024,1.373l1.023,1.06c0.372,0.385,0.987,0.395,1.373,0.023L-53.198-114.486z"/>
<path fill="#464646" d="M-55.584-112.184c0.385-0.37,0.396-0.986,0.023-1.371l-1.022-1.06c-0.307-0.317-0.778-0.38-1.15-0.185
	c-0.343,0.5-0.704,1.005-1.089,1.512c-0.002,0.005-0.002,0.005-0.007,0.01c0.022,0.208,0.109,0.413,0.267,0.573l1.023,1.061
	c0.372,0.385,0.987,0.395,1.372,0.023L-55.584-112.184z"/>
<path fill="#464646" d="M-57.971-109.879c0.385-0.371,0.396-0.986,0.025-1.372l-1.024-1.061c-0.113-0.117-0.251-0.2-0.397-0.247
	c-0.54,0.726-1.064,1.448-1.574,2.168l1.016,1.052c0.372,0.385,0.988,0.395,1.373,0.022L-57.971-109.879z"/>
<path fill="#464646" d="M-60.356-107.574c0.384-0.372,0.396-0.987,0.024-1.372l-0.94-0.976c-0.548,0.782-1.078,1.557-1.59,2.316
	l0.55,0.57c0.374,0.384,0.989,0.396,1.374,0.023L-60.356-107.574z"/>
<path fill="#464646" d="M-40.888-120.84c0.385-0.372,0.395-0.989,0.023-1.374l-0.095-0.097l-0.928-0.961
	c-0.372-0.387-0.988-0.396-1.373-0.024l-0.583,0.561c-0.386,0.372-0.397,0.989-0.023,1.374l1.022,1.061
	c0.37,0.384,0.989,0.395,1.372,0.023L-40.888-120.84z"/>
<path fill="#464646" d="M-43.274-118.535c0.385-0.372,0.395-0.989,0.024-1.374l-1.022-1.06c-0.374-0.385-0.989-0.395-1.375-0.024
	l-0.582,0.562c-0.385,0.373-0.396,0.988-0.023,1.374l1.022,1.059c0.372,0.385,0.988,0.396,1.373,0.025L-43.274-118.535z"/>
<path fill="#464646" d="M-45.661-116.231c0.387-0.371,0.397-0.988,0.024-1.373l-1.022-1.06c-0.374-0.387-0.989-0.396-1.373-0.022
	l-0.582,0.561c-0.386,0.373-0.396,0.987-0.024,1.373l1.022,1.06c0.373,0.385,0.988,0.396,1.373,0.024L-45.661-116.231z"/>
<path fill="#464646" d="M-48.047-113.929c0.385-0.37,0.396-0.986,0.023-1.371l-1.022-1.06c-0.373-0.387-0.988-0.396-1.373-0.023
	l-0.582,0.562c-0.385,0.37-0.396,0.987-0.023,1.372l1.022,1.06c0.372,0.383,0.988,0.396,1.373,0.022L-48.047-113.929z"/>
<path fill="#464646" d="M-50.434-111.622c0.386-0.374,0.397-0.988,0.023-1.374l-1.021-1.059c-0.373-0.387-0.987-0.396-1.373-0.023
	l-0.582,0.561c-0.386,0.372-0.396,0.987-0.024,1.374l1.023,1.06c0.37,0.385,0.987,0.396,1.372,0.024L-50.434-111.622z"/>
<path fill="#464646" d="M-53.896-108.502c0.132-0.06,0.265-0.117,0.396-0.173c0.033-0.024,0.067-0.051,0.099-0.082l0.583-0.562
	c0.385-0.372,0.396-0.988,0.023-1.372l-1.023-1.06c-0.371-0.386-0.987-0.396-1.371-0.026l-0.583,0.563
	c-0.386,0.373-0.396,0.988-0.024,1.375l1.023,1.059C-54.539-108.536-54.207-108.442-53.896-108.502z"/>
<path fill="#464646" d="M-54.954-108.005c-0.045-0.14-0.119-0.271-0.227-0.382l-1.023-1.061c-0.372-0.386-0.987-0.396-1.374-0.023
	l-0.582,0.561c-0.385,0.374-0.395,0.989-0.023,1.374l0.805,0.832C-56.562-107.175-55.752-107.613-54.954-108.005z"/>
<path fill="#464646" d="M-57.881-106.408l-0.709-0.735c-0.373-0.385-0.988-0.395-1.373-0.024l-0.582,0.562
	c-0.385,0.373-0.396,0.988-0.024,1.374l0.293,0.304C-59.476-105.442-58.676-105.939-57.881-106.408z"/>
<path fill="#464646" d="M-38.333-119.592l-0.79-0.817c-0.371-0.385-0.987-0.395-1.372-0.024l-0.582,0.562
	c-0.386,0.371-0.396,0.986-0.024,1.373l1.023,1.06c0.372,0.385,0.988,0.395,1.372,0.023l0.583-0.562
	c0.385-0.372,0.396-0.987,0.024-1.372L-38.333-119.592z"/>
<path fill="#464646" d="M-46.778-129.15l0.79,0.818l0.182,0.188c0.348,0.359,0.944,0.35,1.33-0.021l0.581-0.562
	c0.386-0.37,0.417-0.968,0.068-1.328l-0.738-0.765l-0.232-0.241c-0.349-0.359-0.944-0.351-1.33,0.021l-0.582,0.562
	C-47.096-130.107-47.127-129.512-46.778-129.15z"/>
<path fill="#464646" d="M-41.268-126.008c0.385-0.372,0.417-0.968,0.067-1.328l-0.877-0.908l-0.094-0.099
	c-0.35-0.359-0.945-0.35-1.33,0.021l-0.583,0.562c-0.385,0.373-0.416,0.969-0.067,1.329l0.928,0.962l0.044,0.046
	c0.349,0.36,0.945,0.349,1.331-0.022L-41.268-126.008z"/>
<path fill="#464646" d="M-41.457-125.038c-0.385,0.372-0.416,0.968-0.068,1.328l0.046,0.046l0.928,0.96
	c0.348,0.36,0.943,0.351,1.33-0.021l0.582-0.562c0.385-0.371,0.414-0.967,0.066-1.327l-0.096-0.099l-0.876-0.908
	c-0.349-0.36-0.944-0.35-1.329,0.021L-41.457-125.038z"/>
<path fill="#464646" d="M-36.179-122.137l-0.74-0.765c-0.347-0.36-0.943-0.351-1.33,0.02l-0.58,0.563
	c-0.388,0.371-0.417,0.967-0.069,1.328l0.183,0.188l0.79,0.819c0.348,0.358,0.944,0.349,1.33-0.021l0.581-0.562
	c0.385-0.373,0.417-0.967,0.067-1.327L-36.179-122.137z"/>
<path fill="#464646" d="M-44.158-131.214l0.737,0.765l0.183,0.188c0.324,0.336,0.901,0.307,1.286-0.065l0.583-0.562
	c0.384-0.372,0.434-0.947,0.109-1.283l-0.688-0.712l-0.232-0.242c-0.324-0.335-0.901-0.306-1.286,0.067l-0.582,0.562
	C-44.433-132.124-44.482-131.55-44.158-131.214z"/>
<path fill="#464646" d="M-38.883-128.312c0.387-0.372,0.437-0.947,0.113-1.281l-0.827-0.857l-0.094-0.097
	c-0.325-0.336-0.901-0.307-1.286,0.065l-0.582,0.562c-0.387,0.372-0.436,0.947-0.112,1.283l0.878,0.908l0.044,0.046
	c0.323,0.335,0.899,0.304,1.284-0.067L-38.883-128.312z"/>
<path fill="#464646" d="M-39.07-127.342c-0.386,0.371-0.436,0.947-0.111,1.282l0.043,0.045l0.877,0.908
	c0.325,0.335,0.902,0.306,1.286-0.066l0.583-0.562c0.386-0.372,0.436-0.947,0.109-1.283l-0.093-0.097l-0.828-0.857
	c-0.322-0.335-0.898-0.304-1.283,0.067L-39.07-127.342z"/>
<path fill="#464646" d="M-34.026-124.683l-0.688-0.711c-0.325-0.337-0.902-0.306-1.286,0.066l-0.582,0.562
	c-0.386,0.37-0.436,0.945-0.111,1.281l0.182,0.189l0.739,0.765c0.324,0.336,0.901,0.306,1.286-0.065l0.582-0.563
	c0.385-0.373,0.435-0.947,0.111-1.282L-34.026-124.683z"/>
<path fill="#464646" d="M-41.539-133.277l0.687,0.713l0.183,0.188c0.299,0.312,0.823,0.292,1.17-0.041l0.535-0.518
	c0.345-0.333,0.382-0.857,0.082-1.168l-0.637-0.66l-0.232-0.241c-0.3-0.312-0.825-0.291-1.169,0.043l-0.536,0.517
	C-41.803-134.111-41.839-133.588-41.539-133.277z"/>
<path fill="#464646" d="M-36.614-130.5c0.344-0.334,0.383-0.857,0.082-1.168l-0.774-0.803l-0.096-0.099
	c-0.3-0.31-0.824-0.291-1.17,0.041l-0.535,0.518c-0.346,0.333-0.382,0.857-0.082,1.167l0.826,0.856l0.043,0.045
	c0.3,0.311,0.824,0.291,1.169-0.042L-36.614-130.5z"/>
<path fill="#464646" d="M-36.757-129.578c-0.345,0.336-0.382,0.859-0.083,1.17l0.044,0.045l0.826,0.854
	c0.3,0.312,0.824,0.292,1.17-0.041l0.536-0.517c0.344-0.335,0.381-0.858,0.081-1.169l-0.095-0.099l-0.774-0.801
	c-0.299-0.312-0.824-0.292-1.169,0.041L-36.757-129.578z"/>
<path fill="#464646" d="M-32.064-127.043l-0.639-0.659c-0.299-0.31-0.823-0.291-1.169,0.041l-0.535,0.518
	c-0.345,0.334-0.381,0.857-0.083,1.168l0.183,0.189l0.688,0.711c0.301,0.311,0.826,0.292,1.171-0.04l0.535-0.518
	c0.346-0.333,0.383-0.859,0.082-1.168L-32.064-127.043z"/>
<path fill="#464646" d="M-39.113-135.155l0.637,0.659l0.183,0.189c0.275,0.284,0.772,0.255,1.104-0.067l0.523-0.503
	c0.334-0.324,0.381-0.819,0.104-1.104l-0.816-0.849c-0.277-0.286-0.772-0.255-1.106,0.067l-0.522,0.505
	C-39.342-135.937-39.388-135.44-39.113-135.155z"/>
<path fill="#464646" d="M-34.454-132.588c0.334-0.322,0.382-0.817,0.105-1.104l-0.818-0.848c-0.276-0.286-0.771-0.256-1.105,0.068
	l-0.523,0.503c-0.333,0.324-0.381,0.817-0.104,1.104l0.774,0.803l0.044,0.045c0.274,0.284,0.771,0.255,1.105-0.066L-34.454-132.588z
	"/>
<path fill="#464646" d="M-34.583-131.675c-0.333,0.32-0.382,0.815-0.105,1.102l0.044,0.045l0.774,0.803
	c0.276,0.286,0.772,0.257,1.106-0.067l0.523-0.504c0.334-0.322,0.38-0.817,0.104-1.104l-0.817-0.847
	c-0.275-0.286-0.772-0.257-1.106,0.065L-34.583-131.675z"/>
<path fill="#464646" d="M-30.742-129.958c-0.275-0.284-0.772-0.255-1.107,0.067l-0.521,0.506c-0.334,0.322-0.384,0.815-0.105,1.102
	l0.18,0.188l0.638,0.66c0.276,0.286,0.771,0.256,1.106-0.066l0.522-0.505c0.333-0.322,0.381-0.817,0.104-1.102L-30.742-129.958z"/>
<path fill="#464646" d="M-36.508-136.914l0.734,0.764c0.238,0.243,0.645,0.236,0.908-0.019l0.438-0.423
	c0.263-0.255,0.285-0.661,0.046-0.906l-0.733-0.761c-0.236-0.245-0.644-0.239-0.908,0.016l-0.438,0.425
	C-36.726-137.565-36.745-137.157-36.508-136.914z"/>
<path fill="#464646" d="M-32.438-134.532c0.261-0.257,0.284-0.661,0.047-0.906l-0.736-0.763c-0.237-0.245-0.645-0.239-0.905,0.016
	l-0.442,0.425c-0.263,0.253-0.283,0.661-0.047,0.904l0.735,0.764c0.237,0.245,0.646,0.238,0.907-0.017L-32.438-134.532z"/>
<path fill="#464646" d="M-31.797-132.035c0.236,0.245,0.643,0.238,0.907-0.015l0.438-0.425c0.264-0.255,0.284-0.661,0.047-0.906
	l-0.735-0.762c-0.236-0.246-0.642-0.238-0.905,0.017l-0.439,0.425c-0.264,0.253-0.286,0.659-0.048,0.906L-31.797-132.035z"/>
<path fill="#464646" d="M-30.058-132.068l-0.439,0.425c-0.264,0.253-0.286,0.659-0.048,0.906l0.735,0.762
	c0.237,0.245,0.644,0.236,0.908-0.017l0.438-0.425c0.264-0.255,0.285-0.661,0.047-0.906l-0.734-0.76
	C-29.389-132.329-29.795-132.321-30.058-132.068z"/>
<path fill="#464646" d="M-34.033-138.141l0.605,0.628c0.173,0.18,0.521,0.137,0.759-0.094l0.414-0.399
	c0.24-0.23,0.294-0.577,0.12-0.757l-0.605-0.625c-0.172-0.181-0.521-0.138-0.758,0.092l-0.416,0.401
	C-34.151-138.664-34.208-138.318-34.033-138.141z"/>
<path fill="#464646" d="M-32.397-136.445l0.606,0.629c0.173,0.179,0.521,0.135,0.759-0.096l0.415-0.399
	c0.237-0.23,0.293-0.576,0.119-0.755l-0.605-0.627c-0.173-0.18-0.52-0.137-0.759,0.094l-0.414,0.399
	C-32.516-136.97-32.57-136.624-32.397-136.445z"/>
<path fill="#464646" d="M-30.76-134.749l0.605,0.627c0.174,0.179,0.521,0.135,0.758-0.094l0.416-0.401
	c0.238-0.23,0.293-0.574,0.12-0.754l-0.606-0.628c-0.172-0.18-0.519-0.135-0.757,0.095l-0.416,0.4
	C-30.878-135.273-30.932-134.93-30.76-134.749z"/>
<path fill="#464646" d="M-28.587-134.21l-0.415,0.4c-0.238,0.231-0.293,0.577-0.121,0.755l0.607,0.628
	c0.172,0.18,0.519,0.137,0.757-0.094l0.415-0.401c0.239-0.229,0.294-0.574,0.12-0.755l-0.605-0.627
	C-28.001-134.481-28.348-134.439-28.587-134.21z"/>
<path fill="#464646" d="M-31.651-139.297l0.481,0.496c0.117,0.122,0.325,0.11,0.465-0.024l0.295-0.284
	c0.139-0.135,0.157-0.343,0.041-0.464l-0.481-0.499c-0.117-0.12-0.325-0.108-0.464,0.026l-0.295,0.285
	C-31.75-139.628-31.767-139.419-31.651-139.297z"/>
<path fill="#464646" d="M-30.352-137.953l0.479,0.496c0.118,0.122,0.327,0.11,0.465-0.024l0.296-0.284
	c0.139-0.135,0.157-0.343,0.04-0.464l-0.479-0.497c-0.118-0.121-0.327-0.11-0.465,0.024l-0.295,0.285
	C-30.451-138.282-30.47-138.075-30.352-137.953z"/>
<path fill="#464646" d="M-29.055-136.609l0.479,0.495c0.118,0.123,0.327,0.111,0.466-0.023l0.294-0.284
	c0.141-0.134,0.158-0.342,0.042-0.464l-0.479-0.497c-0.118-0.121-0.327-0.11-0.468,0.025l-0.293,0.284
	C-29.153-136.938-29.171-136.731-29.055-136.609z"/>
<path fill="#464646" d="M-27.756-135.266l0.479,0.498c0.117,0.122,0.326,0.109,0.466-0.026l0.294-0.284
	c0.14-0.133,0.158-0.342,0.04-0.464l-0.479-0.497c-0.118-0.12-0.327-0.109-0.466,0.025l-0.295,0.282
	C-27.855-135.595-27.873-135.386-27.756-135.266z"/>
<path fill="#464646" d="M-40.509-115.672c0.383-0.373,0.395-0.99,0.023-1.375l-1.024-1.058c-0.371-0.385-0.986-0.396-1.371-0.024
	l-0.583,0.563c-0.385,0.37-0.396,0.987-0.023,1.372l1.023,1.06c0.371,0.385,0.985,0.395,1.371,0.024L-40.509-115.672z"/>
<path fill="#464646" d="M-42.896-113.369c0.386-0.372,0.396-0.987,0.024-1.372l-1.024-1.059c-0.371-0.386-0.987-0.398-1.372-0.025
	l-0.583,0.562c-0.385,0.372-0.395,0.989-0.023,1.372l1.024,1.062c0.37,0.385,0.984,0.395,1.372,0.024L-42.896-113.369z"/>
<path fill="#464646" d="M-48.668-111.193c-0.37-0.383-0.986-0.395-1.372-0.022l-0.583,0.562c-0.291,0.281-0.367,0.7-0.227,1.056
	c1.176-0.306,2.296-0.44,3.343-0.354c-0.037-0.064-0.084-0.125-0.136-0.183L-48.668-111.193z"/>
<path fill="#464646" d="M-62.742-105.27c0.385-0.372,0.396-0.989,0.023-1.372l-0.465-0.481c-0.537,0.808-1.052,1.597-1.542,2.361
	l0.027,0.031c0.374,0.384,0.989,0.395,1.375,0.023L-62.742-105.27z"/>
<path fill="#464646" d="M-61.201-104.325c0.146-0.098,0.294-0.194,0.441-0.29l-0.217-0.224c-0.373-0.385-0.986-0.396-1.371-0.024
	l-0.584,0.562c-0.331,0.32-0.385,0.82-0.156,1.199C-62.484-103.486-61.862-103.892-61.201-104.325z"/>
<path fill="#464646" d="M-65.042-104.267c-0.472,0.74-0.919,1.454-1.342,2.136c0.243,0,0.485-0.093,0.673-0.271l0.582-0.562
	C-64.767-103.314-64.736-103.882-65.042-104.267z"/>
<path fill="#464646" d="M-64.735-102.559l-0.583,0.562c-0.128,0.125-0.214,0.274-0.258,0.433c0.645-0.384,1.275-0.771,1.92-1.178
	C-64.009-102.902-64.439-102.844-64.735-102.559z"/>
<path fill="#464646" d="M-52.677-130.514c-0.186,2.812-1.229,9.566-6.709,16.801c-3.891,5.137-7.068,10.316-9.23,13.871
	c-0.969,0.521-2.029,1.074-3.239,1.685l-1.579-1.635c-0.021-0.088-0.042-0.173-0.063-0.264c-0.777-3.545,0.69-7.461,4.243-11.326
	c1.821-1.98,3.566-3.802,5.254-5.562c0,0,8.896-8.66,10.857-17.929C-53.142-134.872-52.616-133.412-52.677-130.514z"/>
<path fill="#464646" d="M-76.848-96.643c0.432,0.446,4.954,5.129,5.385,5.576c0.398-0.387,2.434-2.351,2.831-2.735
	c-0.431-0.447-4.953-5.13-5.384-5.576C-74.415-98.993-76.448-97.029-76.848-96.643z"/>
<path fill="#464646" d="M-47.743-108.178l-0.033,0.022c0.216,0.252,0.387,0.475,0.496,0.631
	C-47.424-107.742-47.577-107.961-47.743-108.178z"/>
<path fill="#464646" d="M-48.26-111.586l1.023,1.061c0.37,0.385,0.987,0.396,1.372,0.021l0.582-0.559
	c0.386-0.374,0.396-0.99,0.025-1.376l-1.023-1.059c-0.372-0.384-0.989-0.396-1.373-0.023l-0.584,0.562
	C-48.62-112.586-48.632-111.971-48.26-111.586z"/>
<path fill="#464646" d="M-49.884-109.06c-3.27,0.604-7.085,2.798-10.929,5.324c-3.526,2.319-5.976,3.807-10.528,6.111l3.264,3.378
	c0.431,0.117,0.855,0.178,1.277,0.163h0.009h0.009c4.284,0.075,8.149-3.093,11.556-5.886c1.038-0.85,2.018-1.651,2.986-2.355
	c2.589-1.875,4.637-3.163,5.151-3.481c-0.217-0.43-0.473-0.867-0.769-1.31C-48.204-107.642-48.974-108.557-49.884-109.06z"/>
<path fill="#464646" d="M-42.353-102.595c0.284-1.668-0.039-3.366-1.698-4.996c-1.317-1.296-2.949-1.747-4.785-1.606
	c0.411,0.332,0.946,0.885,0.946,0.885c0.429,0.472,0.756,1.005,0.756,1.005c2.568,3.995,1.797,7.605,1.174,9.298
	c0.642-0.395,1.217-0.832,1.704-1.306C-43.188-100.345-42.562-101.356-42.353-102.595z"/>
<path fill="#F9B233" d="M10.951-40.139L36.53-64.691c0,0,9.024-0.355,14.144,2.906c5.215,3.321,8.119,10.593,8.119,10.593
	L10.951-40.139z"/>
<path fill="#FFEC83" stroke="#F9B233" stroke-width="3" stroke-linecap="round" stroke-linejoin="round" stroke-miterlimit="10" d="
	M57.409-50.418c0,0,2.669,9.979,2.669,12.737c0,6.433-2.888,12.325-2.888,12.325L12.5-21.419v-7.736c0,0,3.992-0.919,3.992-3.738
	c0-3.476-4.992-2.59-4.992-2.59v-4.493L57.409-50.418z"/>
<circle fill="#F9B233" cx="37.474" cy="-43.483" r="3.934"/>
<circle fill="#F9B233" cx="51.307" cy="-40.929" r="3.935"/>
<circle fill="#F9B233" cx="28.951" cy="-37.188" r="2.361"/>
<circle fill="#F9B233" cx="21.212" cy="-27.616" r="2.361"/>
<circle fill="#F9B233" cx="31.638" cy="-28.992" r="3.344"/>
<circle fill="#F9B233" cx="46.458" cy="-30.958" r="2.688"/>
<path fill="#464646" d="M-78.456-38.139l25.58-24.553c0,0,9.024-0.355,14.145,2.906c5.213,3.321,8.118,10.593,8.118,10.593
	L-78.456-38.139z"/>
<path fill="#FFFFFF" stroke="#464646" stroke-width="3" stroke-linecap="round" stroke-linejoin="round" stroke-miterlimit="10" d="
	M-31.794-48.418c0,0,2.567,9.979,2.567,12.737c0,6.433-2.735,12.325-2.735,12.325L-76.5-19.419v-7.736c0,0,3.991-0.919,3.991-3.738
	c0-3.476-4.991-2.59-4.991-2.59v-4.493L-31.794-48.418z"/>
<circle fill="#464646" cx="-51.933" cy="-41.483" r="3.935"/>
<circle fill="#464646" cx="-38.099" cy="-38.929" r="3.934"/>
<circle fill="#464646" cx="-60.456" cy="-35.188" r="2.361"/>
<circle fill="#464646" cx="-68.194" cy="-25.616" r="2.361"/>
<circle fill="#464646" cx="-57.768" cy="-26.992" r="3.344"/>
<circle fill="#464646" cx="-42.948" cy="-28.958" r="2.688"/>
<g>
	<path fill="#007FAA" d="M51.531,21.17l-0.254-4.738c-0.002-0.067-0.032-0.131-0.082-0.179l-4.313-4.091l-0.361-4.44
		c-0.006-0.108-0.079-0.2-0.181-0.232L30.925,2.66c-0.08-0.026-0.168-0.01-0.235,0.04c-0.067,0.049-0.107,0.127-0.107,0.213v5.005
		l-8.294,8.013l-0.104,0.051c-0.077,0.037-0.13,0.109-0.145,0.189l-0.428,0.414c-0.053,0.051-0.081,0.121-0.081,0.194l0.631,41.349
		c0.001,0.116,0.077,0.217,0.188,0.249l13.139,3.881l1.234,0.365l1.159-0.412l14.745-5.13c0.107-0.039,0.18-0.146,0.176-0.259
		L51.531,21.17z"/>
	<polygon fill="#EDE6E2" points="36.729,61.404 51.316,56.214 50.386,21.203 50.291,16.872 36.326,13.177 36.326,13.157 
		50.291,16.872 45.773,12.697 45.43,8.404 31.729,4.112 31.729,8.404 22.952,16.883 22.684,17.013 22.877,16.955 22.684,17.145 
		22.894,31.077 23.296,57.462 36.628,61.4 36.688,61.417 36.729,61.431 	"/>
	<polygon fill="#88CEE5" points="22.684,17.145 23.296,57.462 36.729,61.431 36.326,13.157 	"/>
	<polygon fill="#C9E8F8" points="36.276,13.168 50.271,16.872 51.316,56.214 36.729,61.431 	"/>
	<polygon fill="#009BCA" points="36.326,13.157 31.729,8.404 45.773,12.697 50.291,16.872 	"/>
	<g>
		<rect x="31.729" y="8.404" fill="none" width="18.562" height="8.468"/>
	</g>
	<polygon fill="#C0BBB8" points="22.684,17.145 31.729,8.404 31.729,12.774 	"/>
	<polygon fill="#009BCA" points="22.684,17.145 31.729,8.404 31.729,12.774 	"/>
	<polygon fill="#88CEE5" points="31.729,12.774 36.326,13.157 31.729,8.404 	"/>
	<polygon fill="#C9E8F8" points="22.684,17.145 31.729,12.774 36.326,13.157 	"/>
	<g>
		<rect x="22.684" y="12.643" fill="none" width="13.643" height="4.37"/>
	</g>
	<polygon fill="#C9E8F8" points="31.729,8.404 31.729,4.112 45.43,8.404 45.773,12.697 	"/>
	<path fill="#88CEE5" d="M36.294,13.168l0.223,33.188c0.544-0.335,0.615-0.935,0.846-1.521c1.351-3.452,6.682-3.519,7.482-7.494
		c0.684-3.384-1.203-7.12-1.364-10.474c-0.185-3.859,2.168-5.482,5.831-5.653c0.367-0.019,0.696-0.007,1.074,0.001l-0.095-4.342
		L36.294,13.168z"/>
	<path fill="#009BCA" d="M22.684,17.145l0.21,13.933c0.894-0.023,1.783-0.131,2.643-0.298c2.124-0.408,4.325-1.432,5.946,0.649
		c0.746,0.957,0.866,3.108,0.493,4.36c-0.436,1.463-1.729,2.586-2.355,3.943c-0.863,1.868-0.91,3.98-0.417,5.968
		c0.454,1.837,1.917,3.828,4.052,3.57c2.008-0.245,2.003-2.02,3.347-2.979l-0.275-33.134L22.684,17.145z"/>
	<g>
		<rect x="22.684" y="13.157" fill="none" width="13.853" height="36.135"/>
	</g>
	<path fill="#EDE6E2" d="M43.697,14.252c-0.35,0.438-1.246,0.303-2.004-0.301c-0.759-0.605-1.09-1.45-0.737-1.889
		c0.349-0.438,1.246-0.303,2.005,0.302C43.717,12.969,44.046,13.814,43.697,14.252"/>
	<polygon fill="#EDE6E2" points="40.898,12.147 41.423,11.455 42.327,12.282 41.613,13.329 	"/>
	<polygon fill="#EDE6E2" points="43.697,14.252 44.198,13.565 42.924,13.059 42.569,14.054 	"/>
	<path fill="#88CEE5" d="M43.697,14.252c-0.35,0.438-1.246,0.303-2.004-0.301c-0.759-0.605-1.09-1.45-0.737-1.889
		c0.349-0.438,1.246-0.303,2.005,0.302C43.717,12.969,44.046,13.814,43.697,14.252"/>
	<polygon fill="#88CEE5" points="40.898,12.147 41.423,11.455 42.327,12.282 41.613,13.329 	"/>
	<polygon fill="#88CEE5" points="43.697,14.252 44.198,13.565 42.924,13.059 42.569,14.054 	"/>
	<path fill="#C9E8F8" d="M44.198,13.565c-0.351,0.438-1.248,0.303-2.005-0.3c-0.758-0.606-1.089-1.45-0.738-1.889
		c0.348-0.438,1.246-0.303,2.004,0.3C44.218,12.282,44.546,13.127,44.198,13.565"/>
	<path fill="#C9E8F8" d="M41.231,20.584c-1.938,0.679-1.525,2.993,0.31,3.356c1.766,0.349,2.118-2.255,1.321-3.132
		C42.666,20.595,41.654,20.438,41.231,20.584"/>
	<path fill="#C9E8F8" d="M40.879,33.933c-2.473,0.865-1.944,3.812,0.394,4.273c2.251,0.446,2.702-2.871,1.687-3.986
		C42.709,33.947,41.416,33.745,40.879,33.933"/>
	<path fill="#C9E8F8" d="M44.108,18.683c-0.961,0.338-0.759,1.484,0.152,1.665c0.874,0.172,1.053-1.118,0.655-1.552
		C44.819,18.688,44.316,18.61,44.108,18.683"/>
	<path fill="#009BCA" d="M28.186,32.598c-1.938-0.867-2.704,3.381-0.704,3.771c0.768,0.15,1.574-0.448,1.876-1.133
		c0.34-0.767,0.031-1.381-0.203-1.847C29.015,33.111,28.473,32.725,28.186,32.598"/>
	<g>
		<rect x="26.307" y="32.48" fill="none" width="3.202" height="3.913"/>
	</g>
	<path fill="#C0BBB8" d="M36.721,60.393c-0.069,0.331-0.132,0.658-0.179,0.981l0.187,0.057L36.721,60.393z"/>
	<path fill="#009BCA" d="M36.648,51.881c-0.032-0.05-0.067-0.098-0.104-0.148c-0.666,0.675-1.104,1.483-1.57,2.324
		c-0.257,0.464-0.449,1.067-0.973,1.307c-0.47,0.215-1.069-0.069-1.521,0.215c-1.519,0.954-0.223,3.02-0.146,4.554l4.394,1.299
		c0-0.373,0-0.597-0.008-1.038L36.648,51.881z"/>
	<g>
		<rect x="31.746" y="51.732" fill="none" width="4.982" height="9.698"/>
	</g>
	<polygon fill="#009BCA" points="49.453,55.044 38.138,58.892 38.138,53.724 49.453,50.077 	"/>
	<polygon fill="#C9E8F8" stroke="#E9F1F4" stroke-width="0.6955" points="48.398,52.098 38.727,55.396 38.727,54.634 48.398,51.399 
			"/>
	<polygon fill="#C9E8F8" stroke="#E9F1F4" stroke-width="0.6955" points="48.398,53.283 38.727,56.58 38.727,55.819 48.398,52.587 	
		"/>
	<polygon fill="#C9E8F8" stroke="#E9F1F4" stroke-width="0.6955" points="45.99,55.281 38.727,57.765 38.727,57.005 45.99,54.583 	
		"/>
	<path fill="#009BCA" d="M43.24,51.525c-0.007,0.003-0.009,0.007-0.016,0.012c0-0.003,0-0.006-0.004-0.009
		c-0.036-0.055-0.056-0.12-0.077-0.184c-0.052-0.162-0.08-0.339-0.104-0.509c-0.006-0.066-0.015-0.135-0.02-0.204
		c-0.011-0.217-0.025-0.434-0.027-0.641c-0.005-0.341-0.528-0.342-0.528,0c0,0.167,0.006,0.508,0.051,0.865
		c0.014,0.35-0.011,0.696-0.154,0.987c-0.197-0.57-0.104-1.231-0.505-1.747c-0.05-0.066-0.179-0.097-0.256-0.067
		c-0.271,0.101-0.451,0.268-0.571,0.47c-0.116-0.145-0.277-0.222-0.496-0.181c-0.245,0.047-0.41,0.184-0.522,0.377
		c-0.032-0.053-0.068-0.103-0.109-0.15c-0.258-0.304-0.698-0.237-0.947,0.022c-0.299,0.312-0.387,0.829-0.478,1.233
		c-0.072,0.331,0.437,0.473,0.51,0.139c0.064-0.28,0.127-0.569,0.247-0.835c0.188-0.411,0.363-0.121,0.434,0.17
		c0.129,0.514,0.097,1.069,0.093,1.595c0,0.35,0.492,0.33,0.53,0c0.034-0.31,0.023-0.626,0.034-0.936
		c0.016-0.306,0-0.79,0.209-1.044c0.084-0.098,0.095-0.039,0.138,0.067c0.058,0.147,0.086,0.315,0.104,0.472
		c0.014,0.11,0.021,0.224,0.028,0.335c0.004,0.2,0.013,0.396,0.015,0.576c0.003,0.342,0.529,0.342,0.526,0
		c0-0.196,0.011-0.576-0.032-0.954c0.016-0.306,0.084-0.59,0.273-0.754c0.29,0.552,0.12,1.299,0.503,1.843
		c0.101,0.143,0.281,0.175,0.414,0.053c0.188-0.169,0.306-0.362,0.387-0.569c0.148,0.149,0.349,0.186,0.619,0.023
		C43.799,51.806,43.534,51.35,43.24,51.525"/>
	<path fill="#009BCA" d="M43.231,48.4c-0.068-0.25-0.2-0.491-0.447-0.594c-0.337-0.14-0.543,0.273-0.605,0.526
		c-0.082,0.332,0.43,0.473,0.512,0.143c0-0.007,0.002-0.011,0.002-0.017c0.013,0.031,0.023,0.062,0.032,0.095
		c0.006,0.029,0.013,0.058,0.02,0.086c0,0.016,0.006,0.083,0.006,0.104c0,0.016-0.002,0.032-0.002,0.049
		c0,0.005-0.002,0.007-0.004,0.012c-0.003,0.01-0.007,0.021-0.009,0.032c-0.009,0-0.02,0-0.028-0.001
		c-0.017-0.005-0.036-0.009-0.056-0.015c-0.021-0.007-0.045-0.014-0.068-0.021c-0.003-0.006-0.062-0.031-0.073-0.038
		c-0.303-0.154-0.571,0.301-0.269,0.458c0.31,0.159,0.689,0.237,0.928-0.077C43.319,48.939,43.292,48.63,43.231,48.4"/>
	<path fill="#009BCA" d="M44.882,51.096c-0.161,0.499-0.522,0.331-0.72-0.046c-0.052-0.1-0.086-0.211-0.116-0.325
		c0.036-0.004,0.073-0.015,0.109-0.036c0.634-0.36,0.73-1.369,0.709-2.019c-0.02-0.538-0.399-1.345-0.976-0.708
		c-0.643,0.711-0.539,1.936-0.365,2.803c0.095,0.479,0.327,0.915,0.78,1.137c0.539,0.261,0.937-0.196,1.089-0.665
		C45.498,50.909,44.986,50.771,44.882,51.096 M44.263,48.336c0.007-0.009,0.013-0.016,0.02-0.021
		c0.006,0.022,0.013,0.046,0.015,0.061c0.056,0.211,0.045,0.439,0.034,0.654c-0.017,0.33-0.079,0.9-0.365,1.147
		c-0.002-0.031-0.006-0.062-0.008-0.094C43.908,49.517,43.889,48.806,44.263,48.336"/>
	<path fill="#009BCA" d="M47.978,49.391c-0.052-0.335-0.561-0.191-0.51,0.142c0.024,0.159,0.123,0.835-0.097,0.913
		c-0.233,0.087-0.41-0.434-0.473-0.568c-0.126-0.285-0.303-0.433-0.502-0.461c0.167-0.317,0.362-0.616,0.573-0.885
		c0.208-0.265-0.165-0.642-0.374-0.374c-0.301,0.385-0.58,0.817-0.795,1.279c-0.002-0.443,0.011-0.886,0.013-1.326
		c0-0.341-0.53-0.341-0.53,0c-0.002,0.634-0.12,1.689,0.129,3.126c0.05,0.296,0.526,0.223,0.52-0.07
		c-0.013-0.384,0.064-0.771,0.196-1.142c0.09-0.086,0.158-0.162,0.236-0.04c0.075,0.123,0.124,0.264,0.187,0.394
		c0.138,0.3,0.372,0.518,0.702,0.585C48.096,51.133,48.053,49.889,47.978,49.391"/>
	<path fill="#009BCA" d="M48.768,47.763c-0.566,0-0.566,0.882,0,0.882C49.337,48.645,49.337,47.763,48.768,47.763"/>
</g>
<g>
	<path fill="#007FAA" d="M-40.469,21.17l-0.254-4.738c-0.002-0.067-0.032-0.131-0.082-0.179l-4.313-4.091l-0.361-4.44
		c-0.006-0.108-0.079-0.2-0.181-0.232L-61.075,2.66c-0.08-0.026-0.168-0.01-0.235,0.04c-0.067,0.049-0.107,0.127-0.107,0.213v5.005
		l-8.294,8.013l-0.104,0.051c-0.077,0.037-0.13,0.109-0.145,0.189l-0.428,0.414c-0.053,0.051-0.081,0.121-0.081,0.194l0.631,41.349
		c0.001,0.116,0.077,0.217,0.188,0.249l13.139,3.881l1.234,0.365l1.159-0.412l14.745-5.13c0.107-0.039,0.18-0.146,0.176-0.259
		L-40.469,21.17z"/>
	<polygon fill="#EDE6E2" points="-55.271,61.404 -40.684,56.214 -41.614,21.203 -41.709,16.872 -55.674,13.177 -55.674,13.157 
		-41.709,16.872 -46.227,12.697 -46.57,8.404 -60.271,4.112 -60.271,8.404 -69.048,16.883 -69.316,17.013 -69.123,16.955 
		-69.316,17.145 -69.106,31.077 -68.704,57.462 -55.372,61.4 -55.312,61.417 -55.271,61.431 	"/>
	<polygon fill="#88CEE5" points="-69.316,17.145 -68.704,57.462 -55.271,61.431 -55.674,13.157 	"/>
	<polygon fill="#C9E8F8" points="-55.724,13.168 -41.729,16.872 -40.684,56.214 -55.271,61.431 	"/>
	<polygon fill="#009BCA" points="-55.674,13.157 -60.271,8.404 -46.227,12.697 -41.709,16.872 	"/>
	<g>
		<rect x="-60.271" y="8.404" fill="none" width="18.562" height="8.468"/>
	</g>
	<polygon fill="#C0BBB8" points="-69.316,17.145 -60.271,8.404 -60.271,12.774 	"/>
	<polygon fill="#009BCA" points="-69.316,17.145 -60.271,8.404 -60.271,12.774 	"/>
	<polygon fill="#88CEE5" points="-60.271,12.774 -55.674,13.157 -60.271,8.404 	"/>
	<polygon fill="#C9E8F8" points="-69.316,17.145 -60.271,12.774 -55.674,13.157 	"/>
	<g>
		<rect x="-69.316" y="12.643" fill="none" width="13.643" height="4.37"/>
	</g>
	<polygon fill="#C9E8F8" points="-60.271,8.404 -60.271,4.112 -46.57,8.404 -46.227,12.697 	"/>
	<path fill="#88CEE5" d="M-55.706,13.168l0.223,33.188c0.544-0.335,0.615-0.935,0.846-1.521c1.351-3.452,6.682-3.519,7.482-7.494
		c0.684-3.384-1.203-7.12-1.364-10.474c-0.185-3.859,2.168-5.482,5.831-5.653c0.367-0.019,0.696-0.007,1.074,0.001l-0.095-4.342
		L-55.706,13.168z"/>
	<path fill="#009BCA" d="M-69.316,17.145l0.21,13.933c0.894-0.023,1.783-0.131,2.643-0.298c2.124-0.408,4.325-1.432,5.946,0.649
		c0.746,0.957,0.866,3.108,0.493,4.36c-0.436,1.463-1.729,2.586-2.355,3.943c-0.863,1.868-0.91,3.98-0.417,5.968
		c0.454,1.837,1.917,3.828,4.052,3.57c2.008-0.245,2.003-2.02,3.347-2.979l-0.275-33.134L-69.316,17.145z"/>
	<g>
		<rect x="-69.316" y="13.157" fill="none" width="13.853" height="36.135"/>
	</g>
	<path fill="#EDE6E2" d="M-48.303,14.252c-0.35,0.438-1.246,0.303-2.004-0.301c-0.759-0.605-1.09-1.45-0.737-1.889
		c0.349-0.438,1.246-0.303,2.005,0.302C-48.283,12.969-47.954,13.814-48.303,14.252"/>
	<polygon fill="#EDE6E2" points="-51.102,12.147 -50.577,11.455 -49.673,12.282 -50.387,13.329 	"/>
	<polygon fill="#EDE6E2" points="-48.303,14.252 -47.802,13.565 -49.076,13.059 -49.431,14.054 	"/>
	<path fill="#88CEE5" d="M-48.303,14.252c-0.35,0.438-1.246,0.303-2.004-0.301c-0.759-0.605-1.09-1.45-0.737-1.889
		c0.349-0.438,1.246-0.303,2.005,0.302C-48.283,12.969-47.954,13.814-48.303,14.252"/>
	<polygon fill="#88CEE5" points="-51.102,12.147 -50.577,11.455 -49.673,12.282 -50.387,13.329 	"/>
	<polygon fill="#88CEE5" points="-48.303,14.252 -47.802,13.565 -49.076,13.059 -49.431,14.054 	"/>
	<path fill="#C9E8F8" d="M-47.802,13.565c-0.351,0.438-1.248,0.303-2.005-0.3c-0.758-0.606-1.089-1.45-0.738-1.889
		c0.348-0.438,1.246-0.303,2.004,0.3C-47.782,12.282-47.454,13.127-47.802,13.565"/>
	<path fill="#C9E8F8" d="M-50.769,20.584c-1.938,0.679-1.525,2.993,0.31,3.356c1.766,0.349,2.118-2.255,1.321-3.132
		C-49.334,20.595-50.346,20.438-50.769,20.584"/>
	<path fill="#C9E8F8" d="M-51.121,33.933c-2.473,0.865-1.944,3.812,0.394,4.273c2.251,0.446,2.702-2.871,1.687-3.986
		C-49.291,33.947-50.584,33.745-51.121,33.933"/>
	<path fill="#C9E8F8" d="M-47.892,18.683c-0.961,0.338-0.759,1.484,0.152,1.665c0.874,0.172,1.053-1.118,0.655-1.552
		C-47.181,18.688-47.684,18.61-47.892,18.683"/>
	<path fill="#009BCA" d="M-63.814,32.598c-1.938-0.867-2.704,3.381-0.704,3.771c0.768,0.15,1.574-0.448,1.876-1.133
		c0.34-0.767,0.031-1.381-0.203-1.847C-62.985,33.111-63.527,32.725-63.814,32.598"/>
	<g>
		<rect x="-65.693" y="32.48" fill="none" width="3.202" height="3.913"/>
	</g>
	<path fill="#C0BBB8" d="M-55.279,60.393c-0.069,0.331-0.132,0.658-0.179,0.981l0.187,0.057L-55.279,60.393z"/>
	<path fill="#009BCA" d="M-55.352,51.881c-0.032-0.05-0.067-0.098-0.104-0.148c-0.666,0.675-1.104,1.483-1.57,2.324
		c-0.257,0.464-0.449,1.067-0.973,1.307c-0.47,0.215-1.069-0.069-1.521,0.215c-1.519,0.954-0.223,3.02-0.146,4.554l4.394,1.299
		c0-0.373,0-0.597-0.008-1.038L-55.352,51.881z"/>
	<g>
		<rect x="-60.254" y="51.732" fill="none" width="4.982" height="9.698"/>
	</g>
	<polygon fill="#009BCA" points="-42.547,55.044 -53.862,58.892 -53.862,53.724 -42.547,50.077 	"/>
	<polygon fill="#C9E8F8" stroke="#E9F1F4" stroke-width="0.6955" points="-43.602,52.098 -53.273,55.396 -53.273,54.634 
		-43.602,51.399 	"/>
	<polygon fill="#C9E8F8" stroke="#E9F1F4" stroke-width="0.6955" points="-43.602,53.283 -53.273,56.58 -53.273,55.819 
		-43.602,52.587 	"/>
	<polygon fill="#C9E8F8" stroke="#E9F1F4" stroke-width="0.6955" points="-46.01,55.281 -53.273,57.765 -53.273,57.005 
		-46.01,54.583 	"/>
	<path fill="#009BCA" d="M-48.76,51.525c-0.007,0.003-0.009,0.007-0.016,0.012c0-0.003,0-0.006-0.004-0.009
		c-0.036-0.055-0.056-0.12-0.077-0.184c-0.052-0.162-0.08-0.339-0.104-0.509c-0.006-0.066-0.015-0.135-0.02-0.204
		c-0.011-0.217-0.025-0.434-0.027-0.641c-0.005-0.341-0.528-0.342-0.528,0c0,0.167,0.006,0.508,0.051,0.865
		c0.014,0.35-0.011,0.696-0.154,0.987c-0.197-0.57-0.104-1.231-0.505-1.747c-0.05-0.066-0.179-0.097-0.256-0.067
		c-0.271,0.101-0.451,0.268-0.571,0.47c-0.116-0.145-0.277-0.222-0.496-0.181c-0.245,0.047-0.41,0.184-0.522,0.377
		c-0.032-0.053-0.068-0.103-0.109-0.15c-0.258-0.304-0.698-0.237-0.947,0.022c-0.299,0.312-0.387,0.829-0.478,1.233
		c-0.072,0.331,0.437,0.473,0.51,0.139c0.064-0.28,0.127-0.569,0.247-0.835c0.188-0.411,0.363-0.121,0.434,0.17
		c0.129,0.514,0.097,1.069,0.093,1.595c0,0.35,0.492,0.33,0.53,0c0.034-0.31,0.023-0.626,0.034-0.936
		c0.016-0.306,0-0.79,0.209-1.044c0.084-0.098,0.095-0.039,0.138,0.067c0.058,0.147,0.086,0.315,0.104,0.472
		c0.014,0.11,0.021,0.224,0.028,0.335c0.004,0.2,0.013,0.396,0.015,0.576c0.003,0.342,0.529,0.342,0.526,0
		c0-0.196,0.011-0.576-0.032-0.954c0.016-0.306,0.084-0.59,0.273-0.754c0.29,0.552,0.12,1.299,0.503,1.843
		c0.101,0.143,0.281,0.175,0.414,0.053c0.188-0.169,0.306-0.362,0.387-0.569c0.148,0.149,0.349,0.186,0.619,0.023
		C-48.201,51.806-48.466,51.35-48.76,51.525"/>
	<path fill="#009BCA" d="M-48.769,48.4c-0.068-0.25-0.2-0.491-0.447-0.594c-0.337-0.14-0.543,0.273-0.605,0.526
		c-0.082,0.332,0.43,0.473,0.512,0.143c0-0.007,0.002-0.011,0.002-0.017c0.013,0.031,0.023,0.062,0.032,0.095
		c0.006,0.029,0.013,0.058,0.02,0.086c0,0.016,0.006,0.083,0.006,0.104c0,0.016-0.002,0.032-0.002,0.049
		c0,0.005-0.002,0.007-0.004,0.012c-0.003,0.01-0.007,0.021-0.009,0.032c-0.009,0-0.02,0-0.028-0.001
		c-0.017-0.005-0.036-0.009-0.056-0.015c-0.021-0.007-0.045-0.014-0.068-0.021c-0.003-0.006-0.062-0.031-0.073-0.038
		c-0.303-0.154-0.571,0.301-0.269,0.458c0.31,0.159,0.689,0.237,0.928-0.077C-48.681,48.939-48.708,48.63-48.769,48.4"/>
	<path fill="#009BCA" d="M-47.118,51.096c-0.161,0.499-0.522,0.331-0.72-0.046c-0.052-0.1-0.086-0.211-0.116-0.325
		c0.036-0.004,0.073-0.015,0.109-0.036c0.634-0.36,0.73-1.369,0.709-2.019c-0.02-0.538-0.399-1.345-0.976-0.708
		c-0.643,0.711-0.539,1.936-0.365,2.803c0.095,0.479,0.327,0.915,0.78,1.137c0.539,0.261,0.937-0.196,1.089-0.665
		C-46.502,50.909-47.014,50.771-47.118,51.096 M-47.737,48.336c0.007-0.009,0.013-0.016,0.02-0.021
		c0.006,0.022,0.013,0.046,0.015,0.061c0.056,0.211,0.045,0.439,0.034,0.654c-0.017,0.33-0.079,0.9-0.365,1.147
		c-0.002-0.031-0.006-0.062-0.008-0.094C-48.092,49.517-48.111,48.806-47.737,48.336"/>
	<path fill="#009BCA" d="M-44.022,49.391c-0.052-0.335-0.561-0.191-0.51,0.142c0.024,0.159,0.123,0.835-0.097,0.913
		c-0.233,0.087-0.41-0.434-0.473-0.568c-0.126-0.285-0.303-0.433-0.502-0.461c0.167-0.317,0.362-0.616,0.573-0.885
		c0.208-0.265-0.165-0.642-0.374-0.374c-0.301,0.385-0.58,0.817-0.795,1.279c-0.002-0.443,0.011-0.886,0.013-1.326
		c0-0.341-0.53-0.341-0.53,0c-0.002,0.634-0.12,1.689,0.129,3.126c0.05,0.296,0.526,0.223,0.52-0.07
		c-0.013-0.384,0.064-0.771,0.196-1.142c0.09-0.086,0.158-0.162,0.236-0.04c0.075,0.123,0.124,0.264,0.187,0.394
		c0.138,0.3,0.372,0.518,0.702,0.585C-43.904,51.133-43.947,49.889-44.022,49.391"/>
	<path fill="#009BCA" d="M-43.232,47.763c-0.566,0-0.566,0.882,0,0.882C-42.663,48.645-42.663,47.763-43.232,47.763"/>
</g>
<g>
	<path fill="#3D3D3D" d="M-40.324,21.19l-0.256-4.786c-0.004-0.068-0.034-0.132-0.084-0.18l-4.359-4.133l-0.359-4.486
		c-0.009-0.108-0.082-0.201-0.188-0.233l-15.568-4.878c-0.08-0.025-0.168-0.011-0.237,0.039c-0.069,0.051-0.108,0.131-0.108,0.216
		v5.057l-8.377,8.093l-0.106,0.051c-0.079,0.039-0.132,0.111-0.146,0.193l-0.432,0.417c-0.054,0.052-0.083,0.122-0.081,0.196
		l0.635,41.768c0.002,0.117,0.08,0.219,0.191,0.252l13.271,3.919l1.246,0.367l1.172-0.415l14.892-5.183
		c0.11-0.039,0.184-0.145,0.18-0.263L-40.324,21.19z"/>
	<polygon fill="#EDE6E2" points="-55.276,61.831 -40.543,56.589 -41.48,21.225 -41.578,16.85 -55.682,13.116 -55.682,13.098 
		-41.578,16.85 -46.141,12.633 -46.488,8.297 -60.328,3.961 -60.328,8.297 -69.191,16.86 -69.465,16.992 -69.269,16.935 
		-69.465,17.124 -69.25,31.199 -68.845,57.852 -55.379,61.826 -55.316,61.845 -55.275,61.857 	"/>
	<polygon fill="#FFFFFF" points="-69.465,17.124 -68.845,57.852 -55.275,61.857 -55.682,13.098 	"/>
	<polygon fill="#FFFFFF" points="-55.734,13.107 -41.596,16.85 -40.541,56.589 -55.275,61.857 	"/>
	<polygon fill="#3D3D3D" points="-55.682,13.098 -60.328,8.297 -46.141,12.633 -41.578,16.85 	"/>
	<g>
		<rect x="-60.328" y="8.297" fill="none" width="18.75" height="8.553"/>
	</g>
	<polygon fill="#C0BBB8" points="-69.465,17.124 -60.328,8.297 -60.328,12.71 	"/>
	<polygon fill="#3D3D3D" points="-69.465,17.124 -60.328,8.297 -60.328,12.71 	"/>
	<polygon fill="#FFFFFF" points="-60.328,12.71 -55.682,13.098 -60.328,8.297 	"/>
	<polygon fill="#FFFFFF" points="-69.465,17.124 -60.328,12.71 -55.682,13.098 	"/>
	<g>
		<rect x="-69.465" y="12.578" fill="none" width="13.783" height="4.414"/>
	</g>
	<polygon fill="#FFFFFF" points="-60.328,8.297 -60.328,3.961 -46.488,8.297 -46.141,12.633 	"/>
	<path fill="#3D3D3D" d="M-55.715,13.107l0.225,33.521c0.549-0.337,0.621-0.941,0.854-1.536c1.363-3.485,6.75-3.554,7.559-7.567
		c0.689-3.42-1.215-7.193-1.379-10.58c-0.188-3.899,2.189-5.538,5.893-5.712c0.369-0.018,0.701-0.007,1.084,0.002l-0.098-4.386
		L-55.715,13.107z"/>
	<path fill="#3D3D3D" d="M-69.465,17.124l0.215,14.075c0.902-0.025,1.801-0.135,2.67-0.302c2.143-0.411,4.367-1.446,6.004,0.656
		c0.754,0.966,0.876,3.139,0.499,4.403c-0.44,1.479-1.747,2.613-2.38,3.984c-0.871,1.885-0.919,4.02-0.422,6.028
		c0.459,1.855,1.938,3.866,4.094,3.604c2.027-0.246,2.023-2.041,3.381-3.008l-0.277-33.469L-69.465,17.124z"/>
	<g>
		<rect x="-69.465" y="13.098" fill="none" width="13.995" height="36.499"/>
	</g>
	<path fill="#EDE6E2" d="M-48.236,14.203c-0.354,0.442-1.262,0.306-2.025-0.305c-0.766-0.61-1.099-1.464-0.746-1.906
		c0.354-0.442,1.26-0.307,2.025,0.304C-48.219,12.906-47.884,13.76-48.236,14.203"/>
	<polygon fill="#EDE6E2" points="-51.063,12.077 -50.533,11.377 -49.623,12.213 -50.344,13.27 	"/>
	<polygon fill="#EDE6E2" points="-48.236,14.203 -47.732,13.51 -49.018,12.997 -49.377,14.002 	"/>
	<path fill="#FFFFFF" d="M-48.236,14.203c-0.354,0.442-1.262,0.306-2.025-0.305c-0.766-0.61-1.099-1.464-0.746-1.906
		c0.354-0.442,1.26-0.307,2.025,0.304C-48.219,12.906-47.884,13.76-48.236,14.203"/>
	<polygon fill="#FFFFFF" points="-51.063,12.077 -50.533,11.377 -49.623,12.213 -50.344,13.27 	"/>
	<polygon fill="#FFFFFF" points="-48.236,14.203 -47.732,13.51 -49.018,12.997 -49.377,14.002 	"/>
	<path fill="#3D3D3D" d="M-47.732,13.51c-0.354,0.442-1.26,0.307-2.025-0.304c-0.764-0.61-1.098-1.465-0.744-1.907
		c0.353-0.442,1.259-0.307,2.024,0.305C-47.713,12.213-47.38,13.067-47.732,13.51"/>
	<path fill="#FFFFFF" d="M-50.728,20.601c-1.96,0.685-1.54,3.021,0.312,3.388c1.783,0.354,2.143-2.277,1.336-3.162
		C-49.277,20.609-50.301,20.451-50.728,20.601"/>
	<path fill="#FFFFFF" d="M-51.084,34.082c-2.496,0.873-1.964,3.851,0.396,4.318c2.273,0.451,2.73-2.901,1.702-4.029
		C-49.235,34.095-50.54,33.894-51.084,34.082"/>
	<path fill="#FFFFFF" d="M-47.821,18.68c-0.972,0.34-0.765,1.498,0.153,1.68c0.885,0.176,1.062-1.129,0.663-1.567
		C-47.103,18.685-47.61,18.605-47.821,18.68"/>
	<path fill="#3D3D3D" d="M-63.906,32.733c-1.957-0.876-2.73,3.416-0.71,3.811c0.774,0.151,1.589-0.454,1.894-1.145
		c0.343-0.775,0.031-1.396-0.204-1.864C-63.068,33.252-63.617,32.863-63.906,32.733"/>
	<g>
		<rect x="-65.804" y="32.616" fill="none" width="3.233" height="3.95"/>
	</g>
	<path fill="#C0BBB8" d="M-55.285,60.81c-0.068,0.335-0.131,0.666-0.18,0.991l0.189,0.057L-55.285,60.81z"/>
	<path fill="#3D3D3D" d="M-55.356,52.213c-0.034-0.051-0.068-0.101-0.104-0.15c-0.674,0.68-1.116,1.498-1.588,2.348
		c-0.26,0.469-0.453,1.076-0.98,1.319c-0.477,0.219-1.081-0.07-1.539,0.217c-1.533,0.964-0.225,3.05-0.146,4.601l4.438,1.311
		c0-0.377,0-0.601-0.01-1.048L-55.356,52.213z"/>
	<g>
		<rect x="-60.309" y="52.062" fill="none" width="5.033" height="9.795"/>
	</g>
	<polygon fill="#3D3D3D" points="-42.423,55.407 -53.854,59.294 -53.854,54.073 -42.423,50.391 	"/>
	<polygon fill="#FFFFFF" stroke="#FDFDFD" stroke-width="0.6955" points="-43.488,52.43 -53.26,55.763 -53.26,54.992 
		-43.488,51.727 	"/>
	<polygon fill="#FFFFFF" stroke="#FDFDFD" stroke-width="0.6955" points="-43.488,53.628 -53.26,56.96 -53.26,56.19 -43.488,52.924 
			"/>
	<polygon fill="#FFFFFF" stroke="#FDFDFD" stroke-width="0.6955" points="-45.923,55.645 -53.26,58.157 -53.26,57.388 
		-45.923,54.941 	"/>
	<path fill="#3D3D3D" d="M-48.697,51.852c-0.008,0.005-0.012,0.009-0.016,0.012c-0.002-0.002-0.002-0.004-0.004-0.007
		c-0.039-0.056-0.059-0.123-0.08-0.187c-0.055-0.165-0.08-0.341-0.103-0.513c-0.008-0.068-0.016-0.138-0.022-0.206
		c-0.01-0.221-0.024-0.439-0.027-0.649c-0.005-0.345-0.536-0.345-0.535,0c0.002,0.169,0.008,0.514,0.054,0.878
		c0.013,0.352-0.009,0.702-0.155,0.994c-0.199-0.576-0.104-1.243-0.51-1.764c-0.053-0.068-0.182-0.099-0.26-0.068
		c-0.273,0.104-0.455,0.269-0.576,0.474c-0.119-0.146-0.281-0.223-0.504-0.182c-0.245,0.046-0.412,0.187-0.525,0.383
		c-0.033-0.054-0.068-0.106-0.11-0.154c-0.261-0.307-0.706-0.239-0.956,0.023c-0.302,0.314-0.391,0.837-0.482,1.244
		c-0.076,0.337,0.439,0.479,0.516,0.144c0.063-0.287,0.127-0.578,0.248-0.846c0.19-0.417,0.366-0.122,0.438,0.171
		c0.129,0.52,0.098,1.081,0.096,1.612c-0.002,0.353,0.494,0.332,0.533,0c0.037-0.312,0.023-0.632,0.037-0.945
		c0.013-0.311-0.002-0.799,0.211-1.055c0.083-0.1,0.095-0.039,0.137,0.068c0.06,0.148,0.086,0.316,0.106,0.475
		c0.015,0.113,0.022,0.227,0.03,0.34c0.002,0.201,0.01,0.399,0.014,0.582c0.003,0.344,0.533,0.345,0.533,0
		c0-0.198,0.009-0.582-0.033-0.965c0.015-0.309,0.081-0.598,0.273-0.76c0.293,0.557,0.12,1.312,0.51,1.86
		c0.102,0.144,0.283,0.177,0.418,0.054c0.186-0.17,0.31-0.365,0.391-0.576c0.15,0.151,0.352,0.188,0.623,0.024
		C-48.134,52.136-48.402,51.674-48.697,51.852"/>
	<path fill="#3D3D3D" d="M-48.708,48.696c-0.067-0.251-0.203-0.496-0.452-0.599c-0.341-0.142-0.548,0.275-0.61,0.531
		c-0.082,0.335,0.434,0.477,0.515,0.142c0.002-0.005,0.004-0.01,0.005-0.016c0.011,0.031,0.022,0.064,0.031,0.097
		c0.008,0.028,0.013,0.059,0.019,0.087c0,0.016,0.006,0.084,0.006,0.104c0,0.018,0,0.033-0.001,0.051
		c-0.001,0.003-0.001,0.005-0.003,0.011c-0.002,0.011-0.006,0.021-0.01,0.032c-0.008,0-0.019-0.001-0.027-0.001
		c-0.02-0.004-0.038-0.008-0.057-0.013c-0.023-0.007-0.045-0.016-0.068-0.025c-0.006-0.003-0.064-0.029-0.076-0.035
		c-0.306-0.157-0.576,0.304-0.27,0.461c0.312,0.161,0.695,0.24,0.934-0.078C-48.617,49.241-48.646,48.929-48.708,48.696"/>
	<path fill="#3D3D3D" d="M-47.04,51.418c-0.165,0.505-0.53,0.335-0.728-0.045c-0.053-0.101-0.09-0.213-0.117-0.329
		c0.035-0.004,0.071-0.015,0.109-0.036c0.641-0.364,0.738-1.385,0.717-2.039c-0.02-0.546-0.403-1.358-0.984-0.715
		c-0.648,0.719-0.545,1.955-0.371,2.829c0.097,0.484,0.328,0.927,0.791,1.149c0.544,0.263,0.943-0.197,1.099-0.672
		C-46.418,51.231-46.934,51.092-47.04,51.418 M-47.665,48.632c0.007-0.009,0.013-0.017,0.019-0.024
		c0.006,0.025,0.012,0.048,0.016,0.065c0.057,0.211,0.045,0.442,0.035,0.659c-0.02,0.333-0.084,0.91-0.371,1.157
		c-0.003-0.031-0.006-0.062-0.008-0.092C-48.023,49.823-48.045,49.106-47.665,48.632"/>
	<path fill="#3D3D3D" d="M-43.914,49.697c-0.051-0.34-0.566-0.195-0.516,0.142c0.025,0.162,0.125,0.844-0.096,0.924
		c-0.238,0.086-0.416-0.439-0.477-0.574c-0.129-0.29-0.309-0.438-0.51-0.467c0.168-0.32,0.369-0.623,0.58-0.893
		c0.209-0.269-0.166-0.649-0.379-0.378c-0.301,0.388-0.586,0.825-0.801,1.291c-0.002-0.447,0.01-0.895,0.012-1.34
		c0-0.344-0.534-0.344-0.534,0c-0.003,0.64-0.124,1.708,0.128,3.158c0.052,0.3,0.533,0.225,0.525-0.072
		c-0.012-0.387,0.065-0.776,0.198-1.152c0.093-0.087,0.161-0.163,0.237-0.04c0.078,0.124,0.127,0.267,0.188,0.398
		c0.141,0.301,0.379,0.522,0.711,0.59C-43.795,51.454-43.838,50.198-43.914,49.697"/>
	<path fill="#3D3D3D" d="M-43.115,48.053c-0.574,0-0.574,0.891,0,0.891S-42.541,48.053-43.115,48.053"/>
</g>
<g>
	<path fill="#B1804A" d="M33.458-269.532l-15.633-13.077c0.021-0.526-0.016-1.077-0.135-1.636c-0.516-2.406-2.221-3.998-3.809-3.551
		c-1.588,0.445-2.455,2.76-1.941,5.167c0.08,0.37,0.195,0.713,0.326,1.04c-0.389-0.043-0.785-0.066-1.201-0.046
		c-2.646,0.132-4.727,1.581-4.645,3.236c0.082,1.654,2.297,2.889,4.94,2.757c0.711-0.035,1.375-0.172,1.974-0.375l14.715,12.308"/>
	<path fill="#B1804A" d="M28.05-263.708c-1.004,5.6,0.818,15.266,7.527,20.79c8.678,7.14,20.069,7.763,25.446,1.386
		c5.375-6.375,2.701-17.332-5.978-24.474c-6.668-5.487-16.008-5.442-21.59-3.524"/>
	<path fill="#FFFFFF" d="M53.794-262.56c2.855,2.258,4.068,6.581,4.793,9.542c1.013,4.156,0.426,10.096-3.655,12.287
		c5.174-1.807,6.696-8.143,5.627-12.527C59.731-256.639,57.364-260.505,53.794-262.56z"/>
	<line fill="none" x1="33.458" y1="-269.532" x2="27.831" y2="-262.56"/>
</g>
<g>
	<path fill="#683D14" d="M33.458-269.532l-15.633-13.077c0.021-0.526-0.016-1.077-0.135-1.636c-0.516-2.406-2.221-3.998-3.809-3.551
		c-1.588,0.445-2.455,2.76-1.941,5.167c0.08,0.37,0.195,0.713,0.326,1.04c-0.389-0.043-0.785-0.066-1.201-0.046
		c-2.646,0.132-4.727,1.581-4.645,3.236c0.082,1.654,2.297,2.889,4.94,2.757c0.711-0.035,1.375-0.172,1.974-0.375l14.715,12.308"/>
</g>
<g>
	<path fill="#464646" d="M-55.542-269.532l-15.633-13.077c0.021-0.526-0.016-1.077-0.135-1.636
		c-0.516-2.406-2.221-3.998-3.809-3.551c-1.588,0.445-2.455,2.76-1.941,5.167c0.08,0.37,0.195,0.713,0.326,1.04
		c-0.389-0.043-0.785-0.066-1.201-0.046c-2.646,0.132-4.727,1.581-4.645,3.236c0.082,1.654,2.297,2.889,4.94,2.757
		c0.711-0.035,1.375-0.172,1.974-0.375l14.715,12.308"/>
	<path fill="#464646" d="M-60.95-263.708c-1.004,5.6,0.818,15.266,7.527,20.79c8.678,7.14,20.069,7.763,25.446,1.386
		c5.375-6.375,2.701-17.332-5.978-24.474c-6.668-5.487-16.008-5.442-21.59-3.524"/>
	<path fill="#FFFFFF" d="M-35.206-262.56c2.855,2.258,4.068,6.581,4.793,9.542c1.013,4.156,0.426,10.096-3.655,12.287
		c5.174-1.807,6.696-8.143,5.627-12.527C-29.269-256.639-31.636-260.505-35.206-262.56z"/>
	<line fill="#464646" x1="-55.542" y1="-269.532" x2="-61.169" y2="-262.56"/>
</g>
<g>
	<path fill="#464646" d="M-55.542-269.532l-15.633-13.077c0.021-0.526-0.016-1.077-0.135-1.636
		c-0.516-2.406-2.221-3.998-3.809-3.551c-1.588,0.445-2.455,2.76-1.941,5.167c0.08,0.37,0.195,0.713,0.326,1.04
		c-0.389-0.043-0.785-0.066-1.201-0.046c-2.646,0.132-4.727,1.581-4.645,3.236c0.082,1.654,2.297,2.889,4.94,2.757
		c0.711-0.035,1.375-0.172,1.974-0.375l14.715,12.308"/>
</g>
<g>
	<path fill="#444444" d="M-33.953-266.008c-6.668-5.487-16.008-5.442-21.591-3.524l-15.632-13.077
		c0.022-0.526-0.015-1.077-0.135-1.635c-0.515-2.406-2.22-3.998-3.808-3.551c-1.588,0.445-2.456,2.76-1.941,5.167
		c0.08,0.37,0.194,0.713,0.326,1.04c-0.389-0.043-0.785-0.066-1.201-0.046c-2.646,0.132-4.728,1.581-4.646,3.236
		c0.083,1.654,2.297,2.889,4.942,2.757c0.711-0.035,1.375-0.172,1.973-0.375l14.714,12.308c-1.003,5.6,0.817,15.266,7.528,20.79
		c8.678,7.14,20.07,7.763,25.447,1.386C-22.602-247.909-25.275-258.866-33.953-266.008z"/>
	<path fill="#FFFFFF" d="M-35.207-262.56c2.855,2.258,4.068,6.581,4.793,9.542c1.012,4.156,0.426,10.096-3.656,12.287
		c5.174-1.807,6.697-8.143,5.627-12.527C-29.27-256.64-31.637-260.505-35.207-262.56z"/>
	<line fill="none" x1="-55.544" y1="-269.532" x2="-61.17" y2="-262.56"/>
</g>
<path fill="#96C222" stroke="#96C222" stroke-linecap="round" stroke-linejoin="round" stroke-miterlimit="10" d="M51.96-335.796
	c0,8.186-6.029,14.175-11.494,17.926c-1.704,1.169-3.964-1.065-6.119-1.065c-2.121,0-4.501,2.377-6.172,1.063
	c-5.911-4.65-11.773-10.37-11.773-18.593c0-7.251,1.995-14.404,9.428-16.229c2.897-0.71,5.528,1.604,8.518,1.604
	c2.941,0,5.478-2.577,8.129-1.606C50.454-349.773,51.96-343.104,51.96-335.796z"/>
<polygon fill="#474747" stroke="#474747" stroke-linecap="round" stroke-linejoin="round" stroke-miterlimit="10" points="
	32.842,-351.33 34.809,-351.109 35.284,-357.355 33.47,-358.819 "/>
<path fill="#056734" stroke="#056734" stroke-linecap="round" stroke-linejoin="round" stroke-miterlimit="10" d="M32.021-354.631
	c-0.163,1.2-4.607,1.449-9.186,0.828c-4.576-0.62-7.952-3.594-7.877-4.152c0.103-0.749,0.535-0.213,2.555-0.35
	c1.215-0.082,3.051-0.731,5.609-1.137C27.683-360.166,32.184-355.832,32.021-354.631z"/>
<path fill="none" stroke="#FFFFFF" stroke-linecap="round" stroke-linejoin="round" stroke-miterlimit="10" d="M20.463-356.332
	c0,0,4.693-0.149,6.03,0.114c1.214,0.241,3.444,1.087,3.444,1.087"/>
<path fill="#FFFFFF" d="M24.669-341.532c1.064-3.142,4.801-4.799,4.856-6.152c0.02-0.45-0.656-1.075-1.113-1.148
	c-2.896-0.461-6.448,0.591-8.032,4.149c-1.581,3.56-1.341,7.21,0.94,9.756c0.663,0.739,1.355,1.127,2.112,0.448
	C25.325-336.178,23.555-338.241,24.669-341.532z"/>
<path fill="#474747" stroke="#474747" stroke-linecap="round" stroke-linejoin="round" stroke-miterlimit="10" d="M-35.998-335.796
	c0,8.185-6.029,14.174-11.496,17.926c-1.703,1.168-3.963-1.066-6.119-1.066c-2.12,0-4.501,2.378-6.171,1.063
	c-5.911-4.65-11.774-10.369-11.774-18.593c0-7.251,1.996-14.404,9.428-16.228c2.898-0.711,5.527,1.604,8.518,1.604
	c2.941,0,5.479-2.577,8.129-1.606C-37.504-349.773-35.998-343.104-35.998-335.796z"/>
<polygon fill="#474747" stroke="#474747" stroke-linecap="round" stroke-linejoin="round" stroke-miterlimit="10" points="
	-55.117,-351.33 -53.15,-351.109 -52.674,-357.355 -54.49,-358.819 "/>
<path fill="#474747" stroke="#474747" stroke-linecap="round" stroke-linejoin="round" stroke-miterlimit="10" d="M-55.938-354.631
	c-0.163,1.2-4.608,1.449-9.185,0.828c-4.577-0.62-7.952-3.594-7.878-4.152c0.102-0.749,0.535-0.213,2.555-0.35
	c1.215-0.082,3.051-0.732,5.609-1.137C-60.275-360.166-55.776-355.832-55.938-354.631z"/>
<path fill="none" stroke="#FFFFFF" stroke-linecap="round" stroke-linejoin="round" stroke-miterlimit="10" d="M-67.496-356.332
	c0,0,4.693-0.149,6.03,0.114c1.214,0.241,3.443,1.088,3.443,1.088"/>
<path fill="#FFFFFF" d="M-63.29-341.532c1.064-3.141,4.801-4.799,4.857-6.152c0.019-0.451-0.656-1.076-1.114-1.148
	c-2.896-0.461-6.447,0.59-8.03,4.149c-1.582,3.56-1.342,7.21,0.939,9.755c0.664,0.739,1.356,1.127,2.112,0.448
	C-62.633-336.179-64.404-338.24-63.29-341.532z"/>
<g>
	<path fill="#396316" d="M28.076-429.458c0.391,0.531,0.513,1.173,0.513,1.77c0,0.42-0.062,0.804-0.135,1.125
		c0.802,0.071,1.611,0.295,2.223,0.953c0.663,0.713,0.982,1.815,0.982,3.426c0,0.343-0.015,0.708-0.043,1.097
		c-0.032,0.43-0.052,0.839-0.052,1.236c0,0.405,0.021,0.795,0.071,1.179c0.232-0.18,0.483-0.333,0.755-0.448
		c0.873-0.372,1.734-0.312,2.323-0.196c0.167-1.182,0.613-2.069,1.366-2.607c0.795-0.567,1.715-0.611,2.33-0.554
		c0.123-0.991,0.48-1.794,1.094-2.372c0.62-0.584,1.329-0.794,1.841-0.879c-0.002-0.049-0.005-0.094-0.005-0.147
		c0-0.752,0.147-1.906,0.925-2.774c0.53-0.591,1.261-0.938,2.165-1.058c-2.793-1.148-5.983-1.949-9.324-2.06
		c-3.427-0.114-6.483,0.49-8.965,1.29C26.999-430.366,27.654-430.031,28.076-429.458z"/>
	<path fill="#45731B" d="M51.977-428.193l-0.092-0.065c-2.385-1.715-4.709-3.707-5.791-4.659c-0.14,0.514-0.196,1.077-0.196,1.607
		c0,1.075,0.194,1.999,0.197,2.015l0.162,0.754c0,0-2.03-0.563-3.115,0.67c-0.838,0.954-0.594,2.551-0.592,2.567l0.114,0.707
		l-0.714-0.023c-0.009,0-0.963-0.024-1.652,0.634c-0.502,0.48-0.764,1.22-0.774,2.201l-0.013,0.771l-0.739-0.215
		c-0.013-0.003-1.183-0.334-2.017,0.267c-0.586,0.423-0.906,1.234-0.951,2.411l-0.034,0.834l-0.775-0.314
		c-0.011-0.004-1.124-0.447-2.154-0.004c-0.34,0.147-0.639,0.38-0.895,0.693c0.754,2.184,2.833,4.391,7.921,7.928
		c3.326,2.312,5.128,5.236,5.128,8.287c0,0.192-0.008,0.383-0.021,0.576c-0.073,0.98-0.261,1.888-0.561,2.716
		c2.004-1.282,3.872-2.886,5.269-4.887c0.077-0.109,0.149-0.221,0.223-0.333c-3.144-2.896-4.401-7.182-4.854-9.319
		c2.296,4.328,5.213,6.525,6.048,7.094c0.053-0.124,0.102-0.246,0.153-0.367c0.575-1.398,1.017-2.733,1.344-3.994
		c0.036-0.142,0.07-0.282,0.104-0.422c-3.13-2.582-4.694-6.462-5.328-8.455c2.108,3.168,4.461,5.017,5.824,5.913
		c0.021-0.144,0.038-0.286,0.057-0.428c0.698-5.484-0.655-8.895-0.655-8.895s4.111,7.256,1.163,15.823
		c-0.008,0.024-0.016,0.048-0.023,0.072c-0.058,0.168-0.122,0.335-0.187,0.501c0.936-0.517,3.354-2.069,4.619-4.94
		c-0.423,2.47-1.8,6.74-6.244,8.147c-0.11,0.173-0.225,0.344-0.341,0.514c-2.007,2.965-4.85,5.507-7.958,7.226
		c10.298-2.137,17.006-9.03,17.062-17.991c0-0.042,0-0.083,0-0.123C60.688-421.938,54.136-426.643,51.977-428.193z"/>
	<path fill="#45731B" d="M43.821-401.123c0-2.659-1.626-5.246-4.625-7.33c-7.095-4.933-8.799-7.549-8.799-11.469
		c0-0.401,0.018-0.817,0.05-1.25c0.026-0.366,0.04-0.707,0.04-1.022c0-1.275-0.222-2.136-0.669-2.617
		c-0.398-0.428-1.034-0.61-2.126-0.609h-0.855l0.309-0.798c0.178-0.462,0.444-1.767-0.016-2.547
		c-0.513-0.869-2.103-0.846-2.648-0.811c-0.116,0.008-0.188,0.016-0.188,0.016s0.263-2.521,0.302-3.815
		c-0.904,0.606-2.405,1.571-4.4,2.699c-1.686,0.953-3.363,2.112-4.372,2.878c-2.559,1.947-7.51,7.654-7.51,15.273
		c0,2.529,0.546,5.269,1.905,8.151c2.506,5.314,7.74,7.972,11.692,9.266c1.461,0.479,2.964,0.843,4.453,1.111
		c-3.548-1.695-6.853-4.49-9.104-7.816c-0.115-0.17-0.23-0.341-0.34-0.514c-4.446-1.407-5.821-5.677-6.243-8.147
		c1.265,2.871,3.683,4.424,4.618,4.94c-0.064-0.166-0.129-0.333-0.187-0.501c-0.009-0.024-0.016-0.048-0.023-0.072
		c-2.949-8.567,1.163-15.823,1.163-15.823s-1.754,4.417-0.239,11.284c0.03,0.133,0.059,0.266,0.091,0.402
		c1.283-0.798,3.864-2.683,6.156-6.127c-0.644,2.022-2.243,5.989-5.465,8.57c0.043,0.128,0.09,0.26,0.136,0.39
		c0.256,0.744,0.547,1.504,0.885,2.287c0.565,1.307,1.328,2.474,2.218,3.522c0.084,0.1,0.17,0.197,0.257,0.295
		c0.877-0.783,4.463-4.089,6.516-7.693c-0.519,2.14-1.818,6.321-4.599,9.539c0.101,0.083,0.198,0.168,0.3,0.249
		c1.295,1.036,2.704,1.906,4.12,2.636c0.119,0.062,0.24,0.121,0.36,0.181c0.783-0.896,2.987-3.574,4.261-6.655
		c-0.251,1.827-0.93,4.911-2.718,7.373c0.125,0.054,0.25,0.11,0.375,0.163c1.107,0.56,2.886,1.28,4.853,1.65
		c0.995,0.186,2.039,0.282,3.067,0.221c1.153-0.069,2.286-0.332,3.312-0.889c2.227-1.206,3.459-3.263,3.669-6.108
		C43.815-400.8,43.821-400.962,43.821-401.123z"/>
</g>
<g>
	<path fill="#464646" d="M-60.924-429.458c0.391,0.531,0.513,1.173,0.513,1.77c0,0.42-0.062,0.804-0.135,1.125
		c0.802,0.071,1.611,0.295,2.223,0.953c0.663,0.713,0.982,1.815,0.982,3.426c0,0.343-0.015,0.708-0.043,1.097
		c-0.032,0.43-0.052,0.839-0.052,1.236c0,0.405,0.021,0.795,0.071,1.179c0.232-0.18,0.483-0.333,0.755-0.448
		c0.873-0.372,1.734-0.312,2.323-0.196c0.167-1.182,0.613-2.069,1.366-2.607c0.795-0.567,1.715-0.611,2.33-0.554
		c0.123-0.991,0.48-1.794,1.094-2.372c0.62-0.584,1.329-0.794,1.841-0.879c-0.002-0.049-0.005-0.094-0.005-0.147
		c0-0.752,0.147-1.906,0.925-2.774c0.53-0.591,1.261-0.938,2.165-1.058c-2.793-1.148-5.983-1.949-9.324-2.06
		c-3.427-0.114-6.483,0.49-8.965,1.29C-62.001-430.366-61.346-430.031-60.924-429.458z"/>
	<path fill="#464646" d="M-37.023-428.193l-0.092-0.065c-2.385-1.715-4.709-3.707-5.791-4.659c-0.14,0.514-0.196,1.077-0.196,1.607
		c0,1.075,0.194,1.999,0.197,2.015l0.162,0.754c0,0-2.03-0.563-3.115,0.67c-0.838,0.954-0.594,2.551-0.592,2.567l0.114,0.707
		l-0.714-0.023c-0.009,0-0.963-0.024-1.652,0.634c-0.502,0.48-0.764,1.22-0.774,2.201l-0.013,0.771l-0.739-0.215
		c-0.013-0.003-1.183-0.334-2.017,0.267c-0.586,0.423-0.906,1.234-0.951,2.411l-0.034,0.834l-0.775-0.314
		c-0.011-0.004-1.124-0.447-2.154-0.004c-0.34,0.147-0.639,0.38-0.895,0.693c0.754,2.184,2.833,4.391,7.921,7.928
		c3.326,2.312,5.128,5.236,5.128,8.287c0,0.192-0.008,0.383-0.021,0.576c-0.073,0.98-0.261,1.888-0.561,2.716
		c2.004-1.282,3.872-2.886,5.269-4.887c0.077-0.109,0.149-0.221,0.223-0.333c-3.144-2.896-4.401-7.182-4.854-9.319
		c2.296,4.328,5.213,6.525,6.048,7.094c0.053-0.124,0.102-0.246,0.153-0.367c0.575-1.398,1.017-2.733,1.344-3.994
		c0.036-0.142,0.07-0.282,0.104-0.422c-3.13-2.582-4.694-6.462-5.328-8.455c2.108,3.168,4.461,5.017,5.824,5.913
		c0.021-0.144,0.038-0.286,0.057-0.428c0.698-5.484-0.655-8.895-0.655-8.895s4.111,7.256,1.163,15.823
		c-0.008,0.024-0.016,0.048-0.023,0.072c-0.058,0.168-0.122,0.335-0.187,0.501c0.936-0.517,3.354-2.069,4.619-4.94
		c-0.423,2.47-1.8,6.74-6.244,8.147c-0.11,0.173-0.225,0.344-0.341,0.514c-2.007,2.965-4.85,5.507-7.958,7.226
		c10.298-2.137,17.006-9.03,17.062-17.991c0-0.042,0-0.083,0-0.123C-28.312-421.938-34.864-426.643-37.023-428.193z"/>
	<path fill="#464646" d="M-45.179-401.123c0-2.659-1.626-5.246-4.625-7.33c-7.095-4.933-8.799-7.549-8.799-11.469
		c0-0.401,0.018-0.817,0.05-1.25c0.026-0.366,0.04-0.707,0.04-1.022c0-1.275-0.222-2.136-0.669-2.617
		c-0.398-0.428-1.034-0.61-2.126-0.609h-0.855l0.309-0.798c0.178-0.462,0.444-1.767-0.016-2.547
		c-0.513-0.869-2.103-0.846-2.648-0.811c-0.116,0.008-0.188,0.016-0.188,0.016s0.263-2.521,0.302-3.815
		c-0.904,0.606-2.405,1.571-4.4,2.699c-1.686,0.953-3.363,2.112-4.372,2.878c-2.559,1.947-7.51,7.654-7.51,15.273
		c0,2.529,0.546,5.269,1.905,8.151c2.506,5.314,7.74,7.972,11.692,9.266c1.461,0.479,2.964,0.843,4.453,1.111
		c-3.548-1.695-6.853-4.49-9.104-7.816c-0.115-0.17-0.23-0.341-0.34-0.514c-4.446-1.407-5.821-5.677-6.243-8.147
		c1.265,2.871,3.683,4.424,4.618,4.94c-0.064-0.166-0.129-0.333-0.187-0.501c-0.009-0.024-0.016-0.048-0.023-0.072
		c-2.949-8.567,1.163-15.823,1.163-15.823s-1.754,4.417-0.239,11.284c0.03,0.133,0.059,0.266,0.091,0.402
		c1.283-0.798,3.864-2.683,6.156-6.127c-0.644,2.022-2.243,5.989-5.465,8.57c0.043,0.128,0.09,0.26,0.136,0.39
		c0.256,0.744,0.547,1.504,0.885,2.287c0.565,1.307,1.328,2.474,2.218,3.522c0.084,0.1,0.17,0.197,0.257,0.295
		c0.877-0.783,4.463-4.089,6.516-7.693c-0.519,2.14-1.818,6.321-4.599,9.539c0.101,0.083,0.198,0.168,0.3,0.249
		c1.295,1.036,2.704,1.906,4.12,2.636c0.119,0.062,0.24,0.121,0.36,0.181c0.783-0.896,2.987-3.574,4.261-6.655
		c-0.251,1.827-0.93,4.911-2.718,7.373c0.125,0.054,0.25,0.11,0.375,0.163c1.107,0.56,2.886,1.28,4.853,1.65
		c0.995,0.186,2.039,0.282,3.067,0.221c1.153-0.069,2.286-0.332,3.312-0.889c2.227-1.206,3.459-3.263,3.669-6.108
		C-45.185-400.8-45.179-400.962-45.179-401.123z"/>
</g>
</svg>
